<svg width="177" height="37" viewBox="0 0 177 37" fill="none" xmlns="http://www.w3.org/2000/svg">
<path d="M41.6789 14.4989V21.5549H44.4989V23.5469H39.3269V14.4989H41.6789ZM50.8616 16.4909H48.0656V18.0029H50.7056V19.9949H48.0656V21.5549H50.8616V23.5469H45.7136V14.4989H50.8616V16.4909ZM57.4774 20.1869L56.4214 17.1749L55.3654 20.1869H57.4774ZM58.1014 21.9749H54.7414L54.2014 23.5469H51.6934L55.1374 14.4989H57.7054L61.1494 23.5469H58.6414L58.1014 21.9749ZM64.5305 18.5429H64.9745C65.4385 18.5429 65.7945 18.4469 66.0425 18.2549C66.2905 18.0629 66.4145 17.7869 66.4145 17.4269C66.4145 17.0669 66.2905 16.7909 66.0425 16.5989C65.7945 16.4069 65.4385 16.3109 64.9745 16.3109H64.5305V18.5429ZM69.7025 23.5469H66.7745L64.5305 20.0669V23.5469H62.1785V14.4989H65.8385C66.3425 14.4989 66.7825 14.5749 67.1585 14.7269C67.5345 14.8709 67.8425 15.0709 68.0825 15.3269C68.3305 15.5829 68.5145 15.8789 68.6345 16.2149C68.7625 16.5509 68.8265 16.9109 68.8265 17.2949C68.8265 17.9829 68.6585 18.5429 68.3225 18.9749C67.9945 19.3989 67.5065 19.6869 66.8585 19.8389L69.7025 23.5469ZM70.6863 23.5469V14.4989H73.0383L77.3823 20.0309V14.4989H79.7223V23.5469H77.3823L73.0383 18.0149V23.5469H70.6863ZM85.29 23.5469L86.826 14.4989H89.154L90.966 19.3229L92.766 14.4989H95.094L96.63 23.5469H94.29L93.51 18.3389L91.374 23.5469H90.438L88.41 18.3389L87.63 23.5469H85.29ZM100.172 19.0229C100.172 19.3829 100.24 19.7149 100.376 20.0189C100.512 20.3229 100.696 20.5869 100.928 20.8109C101.16 21.0349 101.428 21.2109 101.732 21.3389C102.044 21.4589 102.372 21.5189 102.716 21.5189C103.06 21.5189 103.384 21.4589 103.688 21.3389C104 21.2109 104.272 21.0349 104.504 20.8109C104.744 20.5869 104.932 20.3229 105.068 20.0189C105.204 19.7149 105.272 19.3829 105.272 19.0229C105.272 18.6629 105.204 18.3309 105.068 18.0269C104.932 17.7229 104.744 17.4589 104.504 17.2349C104.272 17.0109 104 16.8389 103.688 16.7189C103.384 16.5909 103.06 16.5269 102.716 16.5269C102.372 16.5269 102.044 16.5909 101.732 16.7189C101.428 16.8389 101.16 17.0109 100.928 17.2349C100.696 17.4589 100.512 17.7229 100.376 18.0269C100.24 18.3309 100.172 18.6629 100.172 19.0229ZM97.7119 19.0229C97.7119 18.3509 97.8359 17.7269 98.0839 17.1509C98.3319 16.5669 98.6759 16.0589 99.1159 15.6269C99.5559 15.1949 100.08 14.8589 100.688 14.6189C101.304 14.3709 101.98 14.2469 102.716 14.2469C103.444 14.2469 104.116 14.3709 104.732 14.6189C105.348 14.8589 105.876 15.1949 106.316 15.6269C106.764 16.0589 107.112 16.5669 107.36 17.1509C107.608 17.7269 107.732 18.3509 107.732 19.0229C107.732 19.6949 107.608 20.3229 107.36 20.9069C107.112 21.4829 106.764 21.9869 106.316 22.4189C105.876 22.8509 105.348 23.1909 104.732 23.4389C104.116 23.6789 103.444 23.7989 102.716 23.7989C101.98 23.7989 101.304 23.6789 100.688 23.4389C100.08 23.1909 99.5559 22.8509 99.1159 22.4189C98.6759 21.9869 98.3319 21.4829 98.0839 20.9069C97.8359 20.3229 97.7119 19.6949 97.7119 19.0229ZM111.57 18.5429H112.014C112.478 18.5429 112.834 18.4469 113.082 18.2549C113.33 18.0629 113.454 17.7869 113.454 17.4269C113.454 17.0669 113.33 16.7909 113.082 16.5989C112.834 16.4069 112.478 16.3109 112.014 16.3109H111.57V18.5429ZM116.742 23.5469H113.814L111.57 20.0669V23.5469H109.218V14.4989H112.878C113.382 14.4989 113.822 14.5749 114.198 14.7269C114.574 14.8709 114.882 15.0709 115.122 15.3269C115.37 15.5829 115.554 15.8789 115.674 16.2149C115.802 16.5509 115.866 16.9109 115.866 17.2949C115.866 17.9829 115.698 18.5429 115.362 18.9749C115.034 19.3989 114.546 19.6869 113.898 19.8389L116.742 23.5469ZM122.873 16.4909H120.077V18.0029H122.717V19.9949H120.077V21.5549H122.873V23.5469H117.725V14.4989H122.873V16.4909Z" fill="#2E3140"/>
<path d="M147.354 18.9004C147.549 18.7052 147.549 18.3886 147.354 18.1933L144.172 15.0113C143.976 14.8161 143.66 14.8161 143.464 15.0113C143.269 15.2066 143.269 15.5232 143.464 15.7184L146.293 18.5469L143.464 21.3753C143.269 21.5706 143.269 21.8871 143.464 22.0824C143.66 22.2777 143.976 22.2777 144.172 22.0824L147.354 18.9004ZM147 18.0469L132 18.0469V19.0469L147 19.0469V18.0469Z" fill="#2E3140"/>
</svg>
