<svg width="233" height="54" viewBox="0 0 233 54" fill="none" xmlns="http://www.w3.org/2000/svg">
<path d="M0.91 10V0.64H6.76V1.5565H1.8655V4.7935H5.98V5.71H1.8655V9.0835H6.76V10H0.91ZM7.54406 10L10.2871 6.451L7.60256 2.98H8.74656L10.8461 5.7165L12.9261 2.98H14.0701L11.3856 6.451L14.1351 10H12.9846L10.8461 7.1855L8.69456 10H7.54406ZM18.332 10.195C17.6864 10.195 17.1404 10.0325 16.694 9.7075C16.2477 9.37817 15.9097 8.934 15.68 8.375C15.4504 7.81167 15.3355 7.18117 15.3355 6.4835C15.3355 5.77283 15.4504 5.14017 15.68 4.5855C15.914 4.0265 16.2564 3.58667 16.707 3.266C17.1577 2.94533 17.7124 2.785 18.371 2.785C19.0124 2.785 19.5627 2.9475 20.022 3.2725C20.4814 3.5975 20.8324 4.0395 21.075 4.5985C21.322 5.1575 21.4455 5.78583 21.4455 6.4835C21.4455 7.1855 21.322 7.816 21.075 8.375C20.828 8.934 20.4727 9.37817 20.009 9.7075C19.5454 10.0325 18.9864 10.195 18.332 10.195ZM15.173 13.12V2.98H16.031V8.2645H16.135V13.12H15.173ZM18.2345 9.3045C18.7242 9.3045 19.1315 9.181 19.4565 8.934C19.7815 8.687 20.0242 8.35117 20.1845 7.9265C20.3492 7.4975 20.4315 7.0165 20.4315 6.4835C20.4315 5.95483 20.3514 5.47817 20.191 5.0535C20.0307 4.62883 19.7859 4.293 19.4565 4.046C19.1315 3.799 18.7177 3.6755 18.215 3.6755C17.7254 3.6755 17.318 3.79467 16.993 4.033C16.6724 4.27133 16.4319 4.60283 16.2715 5.0275C16.1112 5.44783 16.031 5.93317 16.031 6.4835C16.031 7.02517 16.1112 7.5105 16.2715 7.9395C16.4319 8.36417 16.6745 8.69783 16.9995 8.9405C17.3245 9.18317 17.7362 9.3045 18.2345 9.3045ZM25.8434 10.195C25.1587 10.195 24.5651 10.0433 24.0624 9.74C23.5641 9.43667 23.1762 9.00983 22.8989 8.4595C22.6216 7.90917 22.4829 7.2635 22.4829 6.5225C22.4829 5.7555 22.6194 5.0925 22.8924 4.5335C23.1654 3.9745 23.5489 3.54333 24.0429 3.24C24.5412 2.93667 25.1284 2.785 25.8044 2.785C26.4977 2.785 27.0892 2.94533 27.5789 3.266C28.0686 3.58233 28.4391 4.03733 28.6904 4.631C28.9417 5.22467 29.0566 5.93317 29.0349 6.7565H28.0599V6.4185C28.0426 5.5085 27.8454 4.82167 27.4684 4.358C27.0957 3.89433 26.5497 3.6625 25.8304 3.6625C25.0764 3.6625 24.4979 3.90733 24.0949 4.397C23.6962 4.88667 23.4969 5.58433 23.4969 6.49C23.4969 7.374 23.6962 8.06083 24.0949 8.5505C24.4979 9.03583 25.0677 9.2785 25.8044 9.2785C26.3071 9.2785 26.7447 9.16367 27.1174 8.934C27.4944 8.7 27.7912 8.36417 28.0079 7.9265L28.8984 8.271C28.6211 8.882 28.2116 9.3565 27.6699 9.6945C27.1326 10.0282 26.5237 10.195 25.8434 10.195ZM23.1589 6.7565V5.957H28.5214V6.7565H23.1589ZM30.4774 10V2.98H31.3354V4.67L31.1664 4.449C31.2444 4.241 31.3462 4.05033 31.4719 3.877C31.5975 3.69933 31.734 3.55417 31.8814 3.4415C32.0634 3.28117 32.2757 3.15983 32.5184 3.0775C32.761 2.99083 33.0059 2.941 33.2529 2.928C33.4999 2.91067 33.7252 2.928 33.9289 2.98V3.877C33.6732 3.812 33.3937 3.79683 33.0904 3.8315C32.787 3.86617 32.5075 3.9875 32.2519 4.1955C32.0179 4.3775 31.8424 4.59633 31.7254 4.852C31.6084 5.10333 31.5304 5.372 31.4914 5.658C31.4524 5.93967 31.4329 6.21917 31.4329 6.4965V10H30.4774ZM35.292 1.6475V0.575H36.2475V1.6475H35.292ZM35.292 10V2.98H36.2475V10H35.292ZM41.1666 10.195C40.482 10.195 39.8883 10.0433 39.3856 9.74C38.8873 9.43667 38.4995 9.00983 38.2221 8.4595C37.9448 7.90917 37.8061 7.2635 37.8061 6.5225C37.8061 5.7555 37.9426 5.0925 38.2156 4.5335C38.4886 3.9745 38.8721 3.54333 39.3661 3.24C39.8645 2.93667 40.4516 2.785 41.1276 2.785C41.821 2.785 42.4125 2.94533 42.9021 3.266C43.3918 3.58233 43.7623 4.03733 44.0136 4.631C44.265 5.22467 44.3798 5.93317 44.3581 6.7565H43.3831V6.4185C43.3658 5.5085 43.1686 4.82167 42.7916 4.358C42.419 3.89433 41.873 3.6625 41.1536 3.6625C40.3996 3.6625 39.8211 3.90733 39.4181 4.397C39.0195 4.88667 38.8201 5.58433 38.8201 6.49C38.8201 7.374 39.0195 8.06083 39.4181 8.5505C39.8211 9.03583 40.391 9.2785 41.1276 9.2785C41.6303 9.2785 42.068 9.16367 42.4406 8.934C42.8176 8.7 43.1145 8.36417 43.3311 7.9265L44.2216 8.271C43.9443 8.882 43.5348 9.3565 42.9931 9.6945C42.4558 10.0282 41.847 10.195 41.1666 10.195ZM38.4821 6.7565V5.957H43.8446V6.7565H38.4821ZM50.6802 10V6.4185C50.6802 6.0285 50.6434 5.671 50.5697 5.346C50.496 5.01667 50.3769 4.73067 50.2122 4.488C50.0519 4.241 49.8417 4.05033 49.5817 3.916C49.326 3.78167 49.014 3.7145 48.6457 3.7145C48.3077 3.7145 48.0087 3.773 47.7487 3.89C47.493 4.007 47.2764 4.176 47.0987 4.397C46.9254 4.61367 46.7932 4.878 46.7022 5.19C46.6112 5.502 46.5657 5.85733 46.5657 6.256L45.8897 6.1065C45.8897 5.38717 46.0154 4.78267 46.2667 4.293C46.518 3.80333 46.8647 3.43283 47.3067 3.1815C47.7487 2.93017 48.2557 2.8045 48.8277 2.8045C49.248 2.8045 49.6142 2.8695 49.9262 2.9995C50.2425 3.1295 50.509 3.305 50.7257 3.526C50.9467 3.747 51.1244 4.0005 51.2587 4.2865C51.393 4.56817 51.4905 4.86933 51.5512 5.19C51.6119 5.50633 51.6422 5.82267 51.6422 6.139V10H50.6802ZM45.6037 10V2.98H46.4682V4.709H46.5657V10H45.6037ZM56.2029 10.195C55.4965 10.195 54.8985 10.0368 54.4089 9.7205C53.9192 9.40417 53.5465 8.96867 53.2909 8.414C53.0395 7.855 52.9095 7.21367 52.9009 6.49C52.9095 5.75333 53.0439 5.10767 53.3039 4.553C53.5639 3.994 53.9387 3.56067 54.4284 3.253C54.918 2.941 55.5117 2.785 56.2094 2.785C56.92 2.785 57.5375 2.95833 58.0619 3.305C58.5905 3.65167 58.9524 4.12617 59.1474 4.7285L58.2114 5.0275C58.0467 4.60717 57.7845 4.28217 57.4249 4.0525C57.0695 3.8185 56.6622 3.7015 56.2029 3.7015C55.6872 3.7015 55.2604 3.82067 54.9224 4.059C54.5844 4.293 54.333 4.62017 54.1684 5.0405C54.0037 5.46083 53.9192 5.944 53.9149 6.49C53.9235 7.33067 54.1185 8.00667 54.4999 8.518C54.8812 9.025 55.4489 9.2785 56.2029 9.2785C56.6795 9.2785 57.0847 9.17017 57.4184 8.9535C57.7564 8.7325 58.012 8.41183 58.1854 7.9915L59.1474 8.2775C58.8874 8.9015 58.506 9.37817 58.0034 9.7075C57.5007 10.0325 56.9005 10.195 56.2029 10.195ZM63.2692 10.195C62.5845 10.195 61.9908 10.0433 61.4882 9.74C60.9898 9.43667 60.602 9.00983 60.3247 8.4595C60.0473 7.90917 59.9087 7.2635 59.9087 6.5225C59.9087 5.7555 60.0452 5.0925 60.3182 4.5335C60.5912 3.9745 60.9747 3.54333 61.4687 3.24C61.967 2.93667 62.5542 2.785 63.2302 2.785C63.9235 2.785 64.515 2.94533 65.0047 3.266C65.4943 3.58233 65.8648 4.03733 66.1162 4.631C66.3675 5.22467 66.4823 5.93317 66.4607 6.7565H65.4857V6.4185C65.4683 5.5085 65.2712 4.82167 64.8942 4.358C64.5215 3.89433 63.9755 3.6625 63.2562 3.6625C62.5022 3.6625 61.9237 3.90733 61.5207 4.397C61.122 4.88667 60.9227 5.58433 60.9227 6.49C60.9227 7.374 61.122 8.06083 61.5207 8.5505C61.9237 9.03583 62.4935 9.2785 63.2302 9.2785C63.7328 9.2785 64.1705 9.16367 64.5432 8.934C64.9202 8.7 65.217 8.36417 65.4337 7.9265L66.3242 8.271C66.0468 8.882 65.6373 9.3565 65.0957 9.6945C64.5583 10.0282 63.9495 10.195 63.2692 10.195ZM60.5847 6.7565V5.957H65.9472V6.7565H60.5847ZM74.3277 10C73.9334 10.0823 73.5434 10.1148 73.1577 10.0975C72.7764 10.0802 72.434 9.99783 72.1307 9.8505C71.8317 9.70317 71.6042 9.4735 71.4482 9.1615C71.3225 8.9015 71.2532 8.63933 71.2402 8.375C71.2315 8.10633 71.2272 7.80083 71.2272 7.4585V1.03H72.1762V7.4195C72.1762 7.71417 72.1784 7.96117 72.1827 8.1605C72.1914 8.3555 72.2369 8.52883 72.3192 8.6805C72.4752 8.97083 72.7222 9.14417 73.0602 9.2005C73.4025 9.25683 73.825 9.24383 74.3277 9.1615V10ZM69.7257 3.799V2.98H74.3277V3.799H69.7257ZM80.7808 10V6.4185C80.7808 6.0285 80.7439 5.671 80.6703 5.346C80.5966 5.01667 80.4774 4.73067 80.3128 4.488C80.1524 4.241 79.9423 4.05033 79.6823 3.916C79.4266 3.78167 79.1146 3.7145 78.7463 3.7145C78.4083 3.7145 78.1093 3.773 77.8493 3.89C77.5936 4.007 77.3769 4.176 77.1993 4.397C77.0259 4.61367 76.8938 4.878 76.8028 5.19C76.7118 5.502 76.6663 5.85733 76.6663 6.256L75.9903 6.1065C75.9903 5.38717 76.1159 4.78267 76.3673 4.293C76.6186 3.80333 76.9653 3.43283 77.4073 3.1815C77.8493 2.93017 78.3563 2.8045 78.9283 2.8045C79.3486 2.8045 79.7148 2.8695 80.0268 2.9995C80.3431 3.1295 80.6096 3.305 80.8263 3.526C81.0473 3.747 81.2249 4.0005 81.3593 4.2865C81.4936 4.56817 81.5911 4.86933 81.6518 5.19C81.7124 5.50633 81.7428 5.82267 81.7428 6.139V10H80.7808ZM75.7043 10V0.64H76.5688V5.9245H76.6663V10H75.7043ZM86.4 10.195C85.7154 10.195 85.1217 10.0433 84.619 9.74C84.1207 9.43667 83.7329 9.00983 83.4555 8.4595C83.1782 7.90917 83.0395 7.2635 83.0395 6.5225C83.0395 5.7555 83.176 5.0925 83.449 4.5335C83.722 3.9745 84.1055 3.54333 84.5995 3.24C85.0979 2.93667 85.685 2.785 86.361 2.785C87.0544 2.785 87.6459 2.94533 88.1355 3.266C88.6252 3.58233 88.9957 4.03733 89.247 4.631C89.4984 5.22467 89.6132 5.93317 89.5915 6.7565H88.6165V6.4185C88.5992 5.5085 88.402 4.82167 88.025 4.358C87.6524 3.89433 87.1064 3.6625 86.387 3.6625C85.633 3.6625 85.0545 3.90733 84.6515 4.397C84.2529 4.88667 84.0535 5.58433 84.0535 6.49C84.0535 7.374 84.2529 8.06083 84.6515 8.5505C85.0545 9.03583 85.6244 9.2785 86.361 9.2785C86.8637 9.2785 87.3014 9.16367 87.674 8.934C88.051 8.7 88.3479 8.36417 88.5645 7.9265L89.455 8.271C89.1777 8.882 88.7682 9.3565 88.2265 9.6945C87.6892 10.0282 87.0804 10.195 86.4 10.195ZM83.7155 6.7565V5.957H89.078V6.7565H83.7155ZM97.4586 10C97.0642 10.0823 96.6742 10.1148 96.2886 10.0975C95.9072 10.0802 95.5649 9.99783 95.2616 9.8505C94.9626 9.70317 94.7351 9.4735 94.5791 9.1615C94.4534 8.9015 94.3841 8.63933 94.3711 8.375C94.3624 8.10633 94.3581 7.80083 94.3581 7.4585V1.03H95.3071V7.4195C95.3071 7.71417 95.3092 7.96117 95.3136 8.1605C95.3222 8.3555 95.3677 8.52883 95.4501 8.6805C95.6061 8.97083 95.8531 9.14417 96.1911 9.2005C96.5334 9.25683 96.9559 9.24383 97.4586 9.1615V10ZM92.8566 3.799V2.98H97.4586V3.799H92.8566ZM100.85 10.195C100.321 10.195 99.8773 10.0997 99.5176 9.909C99.1623 9.71833 98.8958 9.46483 98.7181 9.1485C98.5405 8.83217 98.4516 8.48767 98.4516 8.115C98.4516 7.73367 98.5275 7.40867 98.6791 7.14C98.8351 6.867 99.0453 6.64383 99.3096 6.4705C99.5783 6.29717 99.8881 6.165 100.239 6.074C100.594 5.98733 100.987 5.9115 101.416 5.8465C101.849 5.77717 102.271 5.71867 102.683 5.671C103.099 5.619 103.463 5.56917 103.775 5.5215L103.437 5.7295C103.45 5.03617 103.316 4.52267 103.034 4.189C102.752 3.85533 102.263 3.6885 101.565 3.6885C101.084 3.6885 100.677 3.79683 100.343 4.0135C100.014 4.23017 99.782 4.5725 99.6476 5.0405L98.7181 4.7675C98.8785 4.13917 99.2013 3.65167 99.6866 3.305C100.172 2.95833 100.802 2.785 101.578 2.785C102.219 2.785 102.763 2.90633 103.21 3.149C103.66 3.38733 103.979 3.734 104.165 4.189C104.252 4.39267 104.308 4.62017 104.334 4.8715C104.36 5.12283 104.373 5.3785 104.373 5.6385V10H103.522V8.2385L103.769 8.3425C103.53 8.94483 103.16 9.40417 102.657 9.7205C102.154 10.0368 101.552 10.195 100.85 10.195ZM100.961 9.3695C101.407 9.3695 101.797 9.28933 102.131 9.129C102.464 8.96867 102.733 8.74983 102.937 8.4725C103.14 8.19083 103.272 7.8745 103.333 7.5235C103.385 7.29817 103.413 7.05117 103.418 6.7825C103.422 6.5095 103.424 6.30583 103.424 6.1715L103.788 6.36C103.463 6.40333 103.11 6.44667 102.729 6.49C102.352 6.53333 101.979 6.58317 101.611 6.6395C101.247 6.69583 100.917 6.763 100.623 6.841C100.423 6.89733 100.23 6.9775 100.044 7.0815C99.8578 7.18117 99.704 7.3155 99.5826 7.4845C99.4656 7.6535 99.4071 7.86367 99.4071 8.115C99.4071 8.31867 99.457 8.51583 99.5566 8.7065C99.6606 8.89717 99.8253 9.05533 100.051 9.181C100.28 9.30667 100.584 9.3695 100.961 9.3695ZM108.685 10.1885C107.861 10.1885 107.183 10.0108 106.65 9.6555C106.122 9.30017 105.797 8.80617 105.675 8.1735L106.65 8.011C106.754 8.40967 106.99 8.72817 107.359 8.9665C107.731 9.2005 108.191 9.3175 108.737 9.3175C109.27 9.3175 109.69 9.207 109.998 8.986C110.305 8.76067 110.459 8.45517 110.459 8.0695C110.459 7.85283 110.409 7.67733 110.31 7.543C110.214 7.40433 110.017 7.2765 109.718 7.1595C109.419 7.0425 108.973 6.90383 108.379 6.7435C107.742 6.57017 107.244 6.39683 106.884 6.2235C106.525 6.05017 106.269 5.85083 106.117 5.6255C105.966 5.39583 105.89 5.11633 105.89 4.787C105.89 4.38833 106.002 4.0395 106.228 3.7405C106.453 3.43717 106.765 3.20317 107.164 3.0385C107.562 2.8695 108.026 2.785 108.555 2.785C109.083 2.785 109.556 2.87167 109.972 3.045C110.392 3.214 110.73 3.45233 110.986 3.76C111.241 4.06767 111.393 4.42517 111.441 4.8325L110.466 5.008C110.401 4.59633 110.195 4.27133 109.848 4.033C109.506 3.79033 109.07 3.66467 108.542 3.656C108.043 3.643 107.638 3.73833 107.326 3.942C107.014 4.14133 106.858 4.40783 106.858 4.7415C106.858 4.92783 106.915 5.08817 107.027 5.2225C107.14 5.3525 107.344 5.476 107.638 5.593C107.937 5.71 108.362 5.83783 108.912 5.9765C109.558 6.14117 110.065 6.3145 110.433 6.4965C110.802 6.6785 111.064 6.893 111.22 7.14C111.376 7.387 111.454 7.6925 111.454 8.0565C111.454 8.7195 111.207 9.24167 110.713 9.623C110.223 10 109.547 10.1885 108.685 10.1885ZM116.717 10C116.323 10.0823 115.933 10.1148 115.547 10.0975C115.166 10.0802 114.824 9.99783 114.52 9.8505C114.221 9.70317 113.994 9.4735 113.838 9.1615C113.712 8.9015 113.643 8.63933 113.63 8.375C113.621 8.10633 113.617 7.80083 113.617 7.4585V1.03H114.566V7.4195C114.566 7.71417 114.568 7.96117 114.572 8.1605C114.581 8.3555 114.627 8.52883 114.709 8.6805C114.865 8.97083 115.112 9.14417 115.45 9.2005C115.792 9.25683 116.215 9.24383 116.717 9.1615V10ZM112.115 3.799V2.98H116.717V3.799H112.115ZM120.817 10.195C120.132 10.195 119.539 10.0433 119.036 9.74C118.538 9.43667 118.15 9.00983 117.873 8.4595C117.595 7.90917 117.457 7.2635 117.457 6.5225C117.457 5.7555 117.593 5.0925 117.866 4.5335C118.139 3.9745 118.523 3.54333 119.017 3.24C119.515 2.93667 120.102 2.785 120.778 2.785C121.471 2.785 122.063 2.94533 122.553 3.266C123.042 3.58233 123.413 4.03733 123.664 4.631C123.915 5.22467 124.03 5.93317 124.009 6.7565H123.034V6.4185C123.016 5.5085 122.819 4.82167 122.442 4.358C122.069 3.89433 121.523 3.6625 120.804 3.6625C120.05 3.6625 119.472 3.90733 119.069 4.397C118.67 4.88667 118.471 5.58433 118.471 6.49C118.471 7.374 118.67 8.06083 119.069 8.5505C119.472 9.03583 120.041 9.2785 120.778 9.2785C121.281 9.2785 121.718 9.16367 122.091 8.934C122.468 8.7 122.765 8.36417 122.982 7.9265L123.872 8.271C123.595 8.882 123.185 9.3565 122.644 9.6945C122.106 10.0282 121.497 10.195 120.817 10.195ZM118.133 6.7565V5.957H123.495V6.7565H118.133ZM130.985 10.195C130.287 10.195 129.692 10.0368 129.198 9.7205C128.704 9.40417 128.324 8.9665 128.06 8.4075C127.796 7.8485 127.664 7.20717 127.664 6.4835C127.664 5.74683 127.798 5.10117 128.067 4.5465C128.335 3.99183 128.717 3.56067 129.211 3.253C129.709 2.941 130.3 2.785 130.985 2.785C131.687 2.785 132.285 2.94317 132.779 3.2595C133.277 3.5715 133.657 4.007 133.917 4.566C134.181 5.12067 134.313 5.75983 134.313 6.4835C134.313 7.22017 134.181 7.868 133.917 8.427C133.652 8.98167 133.271 9.415 132.773 9.727C132.274 10.039 131.678 10.195 130.985 10.195ZM130.985 9.2785C131.765 9.2785 132.346 9.02067 132.727 8.505C133.108 7.985 133.299 7.31117 133.299 6.4835C133.299 5.63417 133.106 4.95817 132.721 4.4555C132.339 3.95283 131.761 3.7015 130.985 3.7015C130.461 3.7015 130.027 3.82067 129.685 4.059C129.347 4.293 129.094 4.62017 128.925 5.0405C128.76 5.4565 128.678 5.9375 128.678 6.4835C128.678 7.3285 128.873 8.00667 129.263 8.518C129.653 9.025 130.227 9.2785 130.985 9.2785ZM136.442 10V2.46C136.442 2.278 136.451 2.09817 136.468 1.9205C136.49 1.74283 136.531 1.57383 136.592 1.4135C136.653 1.24883 136.748 1.09717 136.878 0.9585C137.021 0.8025 137.177 0.689833 137.346 0.620499C137.515 0.546833 137.69 0.499166 137.872 0.4775C138.059 0.455833 138.241 0.445 138.418 0.445H139.315V1.251H138.483C138.119 1.251 137.846 1.33983 137.664 1.5175C137.487 1.69517 137.398 1.97467 137.398 2.356V10H136.442ZM135.227 3.799V2.98H139.315V3.799H135.227ZM145.577 10.1885C144.754 10.1885 144.076 10.0108 143.543 9.6555C143.014 9.30017 142.689 8.80617 142.568 8.1735L143.543 8.011C143.647 8.40967 143.883 8.72817 144.251 8.9665C144.624 9.2005 145.083 9.3175 145.629 9.3175C146.162 9.3175 146.583 9.207 146.89 8.986C147.198 8.76067 147.352 8.45517 147.352 8.0695C147.352 7.85283 147.302 7.67733 147.202 7.543C147.107 7.40433 146.91 7.2765 146.611 7.1595C146.312 7.0425 145.866 6.90383 145.272 6.7435C144.635 6.57017 144.137 6.39683 143.777 6.2235C143.417 6.05017 143.162 5.85083 143.01 5.6255C142.858 5.39583 142.782 5.11633 142.782 4.787C142.782 4.38833 142.895 4.0395 143.12 3.7405C143.346 3.43717 143.658 3.20317 144.056 3.0385C144.455 2.8695 144.919 2.785 145.447 2.785C145.976 2.785 146.448 2.87167 146.864 3.045C147.285 3.214 147.623 3.45233 147.878 3.76C148.134 4.06767 148.286 4.42517 148.333 4.8325L147.358 5.008C147.293 4.59633 147.088 4.27133 146.741 4.033C146.399 3.79033 145.963 3.66467 145.434 3.656C144.936 3.643 144.531 3.73833 144.219 3.942C143.907 4.14133 143.751 4.40783 143.751 4.7415C143.751 4.92783 143.807 5.08817 143.92 5.2225C144.033 5.3525 144.236 5.476 144.531 5.593C144.83 5.71 145.255 5.83783 145.805 5.9765C146.451 6.14117 146.958 6.3145 147.326 6.4965C147.694 6.6785 147.956 6.893 148.112 7.14C148.268 7.387 148.346 7.6925 148.346 8.0565C148.346 8.7195 148.099 9.24167 147.605 9.623C147.116 10 146.44 10.1885 145.577 10.1885ZM152.472 10.1755C152.052 10.1755 151.684 10.1105 151.367 9.9805C151.055 9.8505 150.789 9.675 150.568 9.454C150.351 9.233 150.176 8.98167 150.041 8.7C149.907 8.414 149.81 8.11283 149.749 7.7965C149.688 7.47583 149.658 7.15733 149.658 6.841V2.98H150.62V6.5615C150.62 6.94717 150.657 7.30467 150.73 7.634C150.804 7.96333 150.921 8.2515 151.081 8.4985C151.246 8.74117 151.456 8.92967 151.712 9.064C151.972 9.19833 152.286 9.2655 152.654 9.2655C152.992 9.2655 153.289 9.207 153.545 9.09C153.805 8.973 154.022 8.80617 154.195 8.5895C154.373 8.3685 154.507 8.102 154.598 7.79C154.689 7.47367 154.734 7.11833 154.734 6.724L155.41 6.8735C155.41 7.59283 155.285 8.19733 155.033 8.687C154.782 9.17667 154.435 9.54717 153.993 9.7985C153.551 10.0498 153.044 10.1755 152.472 10.1755ZM154.832 10V8.271H154.734V2.98H155.69V10H154.832ZM162.577 10V6.4185C162.577 6.0285 162.54 5.671 162.466 5.346C162.393 5.01667 162.273 4.73067 162.109 4.488C161.948 4.241 161.738 4.05033 161.478 3.916C161.223 3.78167 160.911 3.7145 160.542 3.7145C160.204 3.7145 159.905 3.773 159.645 3.89C159.39 4.007 159.173 4.176 158.995 4.397C158.822 4.61367 158.69 4.878 158.599 5.19C158.508 5.502 158.462 5.85733 158.462 6.256L157.786 6.1065C157.786 5.38717 157.912 4.78267 158.163 4.293C158.415 3.80333 158.761 3.43283 159.203 3.1815C159.645 2.93017 160.152 2.8045 160.724 2.8045C161.145 2.8045 161.511 2.8695 161.823 2.9995C162.139 3.1295 162.406 3.305 162.622 3.526C162.843 3.747 163.021 4.0005 163.155 4.2865C163.29 4.56817 163.387 4.86933 163.448 5.19C163.508 5.50633 163.539 5.82267 163.539 6.139V10H162.577ZM157.5 10V2.98H158.365V4.709H158.462V10H157.5ZM168.599 3.799V2.98H170.549V3.799H168.599ZM165.921 10V2.46C165.921 2.278 165.93 2.09817 165.947 1.9205C165.969 1.74283 166.01 1.57383 166.07 1.4135C166.131 1.24883 166.226 1.09717 166.356 0.9585C166.499 0.8025 166.655 0.689833 166.824 0.620499C166.993 0.546833 167.169 0.499166 167.351 0.4775C167.537 0.455833 167.719 0.445 167.897 0.445H168.794V1.251H167.962C167.598 1.251 167.325 1.33983 167.143 1.5175C166.965 1.69517 166.876 1.97467 166.876 2.356V10H165.921ZM164.705 3.799V2.98H168.794V3.799H164.705ZM170.438 10V0.445H171.394V10H170.438ZM176.269 10.195C175.572 10.195 174.976 10.0368 174.482 9.7205C173.988 9.40417 173.609 8.9665 173.344 8.4075C173.08 7.8485 172.948 7.20717 172.948 6.4835C172.948 5.74683 173.082 5.10117 173.351 4.5465C173.619 3.99183 174.001 3.56067 174.495 3.253C174.993 2.941 175.585 2.785 176.269 2.785C176.971 2.785 177.569 2.94317 178.063 3.2595C178.562 3.5715 178.941 4.007 179.201 4.566C179.465 5.12067 179.597 5.75983 179.597 6.4835C179.597 7.22017 179.465 7.868 179.201 8.427C178.936 8.98167 178.555 9.415 178.057 9.727C177.558 10.039 176.963 10.195 176.269 10.195ZM176.269 9.2785C177.049 9.2785 177.63 9.02067 178.011 8.505C178.393 7.985 178.583 7.31117 178.583 6.4835C178.583 5.63417 178.39 4.95817 178.005 4.4555C177.623 3.95283 177.045 3.7015 176.269 3.7015C175.745 3.7015 175.312 3.82067 174.969 4.059C174.631 4.293 174.378 4.62017 174.209 5.0405C174.044 5.4565 173.962 5.9375 173.962 6.4835C173.962 7.3285 174.157 8.00667 174.547 8.518C174.937 9.025 175.511 9.2785 176.269 9.2785ZM182.272 10L180.127 2.9735L181.083 2.98L182.747 8.4335L184.417 2.98H185.288L186.959 8.4335L188.636 2.98H189.585L187.44 10H186.608L184.853 4.41L183.104 10H182.272ZM193.472 10.195C192.788 10.195 192.194 10.0433 191.691 9.74C191.193 9.43667 190.805 9.00983 190.528 8.4595C190.25 7.90917 190.112 7.2635 190.112 6.5225C190.112 5.7555 190.248 5.0925 190.521 4.5335C190.794 3.9745 191.178 3.54333 191.672 3.24C192.17 2.93667 192.757 2.785 193.433 2.785C194.127 2.785 194.718 2.94533 195.208 3.266C195.697 3.58233 196.068 4.03733 196.319 4.631C196.571 5.22467 196.685 5.93317 196.664 6.7565H195.689V6.4185C195.671 5.5085 195.474 4.82167 195.097 4.358C194.725 3.89433 194.179 3.6625 193.459 3.6625C192.705 3.6625 192.127 3.90733 191.724 4.397C191.325 4.88667 191.126 5.58433 191.126 6.49C191.126 7.374 191.325 8.06083 191.724 8.5505C192.127 9.03583 192.697 9.2785 193.433 9.2785C193.936 9.2785 194.374 9.16367 194.746 8.934C195.123 8.7 195.42 8.36417 195.637 7.9265L196.527 8.271C196.25 8.882 195.84 9.3565 195.299 9.6945C194.761 10.0282 194.153 10.195 193.472 10.195ZM190.788 6.7565V5.957H196.15V6.7565H190.788ZM198.106 10V2.98H198.964V4.67L198.795 4.449C198.873 4.241 198.975 4.05033 199.101 3.877C199.226 3.69933 199.363 3.55417 199.51 3.4415C199.692 3.28117 199.905 3.15983 200.147 3.0775C200.39 2.99083 200.635 2.941 200.882 2.928C201.129 2.91067 201.354 2.928 201.558 2.98V3.877C201.302 3.812 201.023 3.79683 200.719 3.8315C200.416 3.86617 200.136 3.9875 199.881 4.1955C199.647 4.3775 199.471 4.59633 199.354 4.852C199.237 5.10333 199.159 5.372 199.12 5.658C199.081 5.93967 199.062 6.21917 199.062 6.4965V10H198.106ZM208.767 3.799V2.98H210.717V3.799H208.767ZM206.089 10V2.46C206.089 2.278 206.098 2.09817 206.115 1.9205C206.137 1.74283 206.178 1.57383 206.238 1.4135C206.299 1.24883 206.394 1.09717 206.524 0.9585C206.667 0.8025 206.823 0.689833 206.992 0.620499C207.161 0.546833 207.337 0.499166 207.519 0.4775C207.705 0.455833 207.887 0.445 208.065 0.445H208.962V1.251H208.13C207.766 1.251 207.493 1.33983 207.311 1.5175C207.133 1.69517 207.044 1.97467 207.044 2.356V10H206.089ZM204.873 3.799V2.98H208.962V3.799H204.873ZM210.606 10V0.445H211.562V10H210.606ZM216.437 10.195C215.74 10.195 215.144 10.0368 214.65 9.7205C214.156 9.40417 213.777 8.9665 213.512 8.4075C213.248 7.8485 213.116 7.20717 213.116 6.4835C213.116 5.74683 213.25 5.10117 213.519 4.5465C213.787 3.99183 214.169 3.56067 214.663 3.253C215.161 2.941 215.753 2.785 216.437 2.785C217.139 2.785 217.737 2.94317 218.231 3.2595C218.73 3.5715 219.109 4.007 219.369 4.566C219.633 5.12067 219.765 5.75983 219.765 6.4835C219.765 7.22017 219.633 7.868 219.369 8.427C219.104 8.98167 218.723 9.415 218.225 9.727C217.726 10.039 217.131 10.195 216.437 10.195ZM216.437 9.2785C217.217 9.2785 217.798 9.02067 218.179 8.505C218.561 7.985 218.751 7.31117 218.751 6.4835C218.751 5.63417 218.558 4.95817 218.173 4.4555C217.791 3.95283 217.213 3.7015 216.437 3.7015C215.913 3.7015 215.48 3.82067 215.137 4.059C214.799 4.293 214.546 4.62017 214.377 5.0405C214.212 5.4565 214.13 5.9375 214.13 6.4835C214.13 7.3285 214.325 8.00667 214.715 8.518C215.105 9.025 215.679 9.2785 216.437 9.2785ZM223.884 10.1755C223.463 10.1755 223.095 10.1105 222.779 9.9805C222.467 9.8505 222.2 9.675 221.979 9.454C221.762 9.233 221.587 8.98167 221.453 8.7C221.318 8.414 221.221 8.11283 221.16 7.7965C221.099 7.47583 221.069 7.15733 221.069 6.841V2.98H222.031V6.5615C222.031 6.94717 222.068 7.30467 222.142 7.634C222.215 7.96333 222.332 8.2515 222.493 8.4985C222.657 8.74117 222.867 8.92967 223.123 9.064C223.383 9.19833 223.697 9.2655 224.066 9.2655C224.404 9.2655 224.7 9.207 224.956 9.09C225.216 8.973 225.433 8.80617 225.606 8.5895C225.784 8.3685 225.918 8.102 226.009 7.79C226.1 7.47367 226.146 7.11833 226.146 6.724L226.822 6.8735C226.822 7.59283 226.696 8.19733 226.445 8.687C226.193 9.17667 225.847 9.54717 225.405 9.7985C224.963 10.0498 224.456 10.1755 223.884 10.1755ZM226.243 10V8.271H226.146V2.98H227.101V10H226.243ZM228.918 10V2.98H229.776V4.67L229.607 4.449C229.685 4.241 229.787 4.05033 229.912 3.877C230.038 3.69933 230.174 3.55417 230.322 3.4415C230.504 3.28117 230.716 3.15983 230.959 3.0775C231.201 2.99083 231.446 2.941 231.693 2.928C231.94 2.91067 232.166 2.928 232.369 2.98V3.877C232.114 3.812 231.834 3.79683 231.531 3.8315C231.227 3.86617 230.948 3.9875 230.692 4.1955C230.458 4.3775 230.283 4.59633 230.166 4.852C230.049 5.10333 229.971 5.372 229.932 5.658C229.893 5.93967 229.873 6.21917 229.873 6.4965V10H228.918ZM2.405 30L0.26 22.9735L1.2155 22.98L2.8795 28.4335L4.55 22.98H5.421L7.0915 28.4335L8.7685 22.98H9.7175L7.5725 30H6.7405L4.9855 24.41L3.237 30H2.405ZM11.0185 21.6475V20.575H11.974V21.6475H11.0185ZM11.0185 30V22.98H11.974V30H11.0185ZM17.7447 30C17.3504 30.0823 16.9604 30.1148 16.5747 30.0975C16.1934 30.0802 15.851 29.9978 15.5477 29.8505C15.2487 29.7032 15.0212 29.4735 14.8652 29.1615C14.7395 28.9015 14.6702 28.6393 14.6572 28.375C14.6485 28.1063 14.6442 27.8008 14.6442 27.4585V21.03H15.5932V27.4195C15.5932 27.7142 15.5954 27.9612 15.5997 28.1605C15.6084 28.3555 15.6539 28.5288 15.7362 28.6805C15.8922 28.9708 16.1392 29.1442 16.4772 29.2005C16.8195 29.2568 17.242 29.2438 17.7447 29.1615V30ZM13.1427 23.799V22.98H17.7447V23.799H13.1427ZM24.1978 30V26.4185C24.1978 26.0285 24.1609 25.671 24.0873 25.346C24.0136 25.0167 23.8944 24.7307 23.7298 24.488C23.5694 24.241 23.3593 24.0503 23.0993 23.916C22.8436 23.7817 22.5316 23.7145 22.1633 23.7145C21.8253 23.7145 21.5263 23.773 21.2663 23.89C21.0106 24.007 20.7939 24.176 20.6163 24.397C20.4429 24.6137 20.3108 24.878 20.2198 25.19C20.1288 25.502 20.0833 25.8573 20.0833 26.256L19.4073 26.1065C19.4073 25.3872 19.5329 24.7827 19.7843 24.293C20.0356 23.8033 20.3823 23.4328 20.8243 23.1815C21.2663 22.9302 21.7733 22.8045 22.3453 22.8045C22.7656 22.8045 23.1318 22.8695 23.4438 22.9995C23.7601 23.1295 24.0266 23.305 24.2433 23.526C24.4643 23.747 24.6419 24.0005 24.7763 24.2865C24.9106 24.5682 25.0081 24.8693 25.0688 25.19C25.1294 25.5063 25.1598 25.8227 25.1598 26.139V30H24.1978ZM19.1213 30V20.64H19.9858V25.9245H20.0833V30H19.1213ZM32.6016 30.195C31.9559 30.195 31.4099 30.0325 30.9636 29.7075C30.5172 29.3782 30.1792 28.934 29.9496 28.375C29.7199 27.8117 29.6051 27.1812 29.6051 26.4835C29.6051 25.7728 29.7199 25.1402 29.9496 24.5855C30.1836 24.0265 30.5259 23.5867 30.9766 23.266C31.4272 22.9453 31.9819 22.785 32.6406 22.785C33.2819 22.785 33.8322 22.9475 34.2916 23.2725C34.7509 23.5975 35.1019 24.0395 35.3446 24.5985C35.5916 25.1575 35.7151 25.7858 35.7151 26.4835C35.7151 27.1855 35.5916 27.816 35.3446 28.375C35.0976 28.934 34.7422 29.3782 34.2786 29.7075C33.8149 30.0325 33.2559 30.195 32.6016 30.195ZM29.4426 33.12V22.98H30.3006V28.2645H30.4046V33.12H29.4426ZM32.5041 29.3045C32.9937 29.3045 33.4011 29.181 33.7261 28.934C34.0511 28.687 34.2937 28.3512 34.4541 27.9265C34.6187 27.4975 34.7011 27.0165 34.7011 26.4835C34.7011 25.9548 34.6209 25.4782 34.4606 25.0535C34.3002 24.6288 34.0554 24.293 33.7261 24.046C33.4011 23.799 32.9872 23.6755 32.4846 23.6755C31.9949 23.6755 31.5876 23.7947 31.2626 24.033C30.9419 24.2713 30.7014 24.6028 30.5411 25.0275C30.3807 25.4478 30.3006 25.9332 30.3006 26.4835C30.3006 27.0252 30.3807 27.5105 30.5411 27.9395C30.7014 28.3642 30.9441 28.6978 31.2691 28.9405C31.5941 29.1832 32.0057 29.3045 32.5041 29.3045ZM39.1509 30.195C38.6223 30.195 38.1781 30.0997 37.8184 29.909C37.4631 29.7183 37.1966 29.4648 37.0189 29.1485C36.8413 28.8322 36.7524 28.4877 36.7524 28.115C36.7524 27.7337 36.8283 27.4087 36.9799 27.14C37.1359 26.867 37.3461 26.6438 37.6104 26.4705C37.8791 26.2972 38.1889 26.165 38.5399 26.074C38.8953 25.9873 39.2874 25.9115 39.7164 25.8465C40.1498 25.7772 40.5723 25.7187 40.9839 25.671C41.3999 25.619 41.7639 25.5692 42.0759 25.5215L41.7379 25.7295C41.7509 25.0362 41.6166 24.5227 41.3349 24.189C41.0533 23.8553 40.5636 23.6885 39.8659 23.6885C39.3849 23.6885 38.9776 23.7968 38.6439 24.0135C38.3146 24.2302 38.0828 24.5725 37.9484 25.0405L37.0189 24.7675C37.1793 24.1392 37.5021 23.6517 37.9874 23.305C38.4728 22.9583 39.1033 22.785 39.8789 22.785C40.5203 22.785 41.0641 22.9063 41.5104 23.149C41.9611 23.3873 42.2796 23.734 42.4659 24.189C42.5526 24.3927 42.6089 24.6202 42.6349 24.8715C42.6609 25.1228 42.6739 25.3785 42.6739 25.6385V30H41.8224V28.2385L42.0694 28.3425C41.8311 28.9448 41.4606 29.4042 40.9579 29.7205C40.4553 30.0368 39.8529 30.195 39.1509 30.195ZM39.2614 29.3695C39.7078 29.3695 40.0978 29.2893 40.4314 29.129C40.7651 28.9687 41.0338 28.7498 41.2374 28.4725C41.4411 28.1908 41.5733 27.8745 41.6339 27.5235C41.6859 27.2982 41.7141 27.0512 41.7184 26.7825C41.7228 26.5095 41.7249 26.3058 41.7249 26.1715L42.0889 26.36C41.7639 26.4033 41.4108 26.4467 41.0294 26.49C40.6524 26.5333 40.2798 26.5832 39.9114 26.6395C39.5474 26.6958 39.2181 26.763 38.9234 26.841C38.7241 26.8973 38.5313 26.9775 38.3449 27.0815C38.1586 27.1812 38.0048 27.3155 37.8834 27.4845C37.7664 27.6535 37.7079 27.8637 37.7079 28.115C37.7079 28.3187 37.7578 28.5158 37.8574 28.7065C37.9614 28.8972 38.1261 29.0553 38.3514 29.181C38.5811 29.3067 38.8844 29.3695 39.2614 29.3695ZM47.5186 30.195C46.8729 30.195 46.3269 30.0325 45.8806 29.7075C45.4342 29.3782 45.0962 28.934 44.8666 28.375C44.6369 27.8117 44.5221 27.1812 44.5221 26.4835C44.5221 25.7728 44.6369 25.1402 44.8666 24.5855C45.1006 24.0265 45.4429 23.5867 45.8936 23.266C46.3442 22.9453 46.8989 22.785 47.5576 22.785C48.1989 22.785 48.7492 22.9475 49.2086 23.2725C49.6679 23.5975 50.0189 24.0395 50.2616 24.5985C50.5086 25.1575 50.6321 25.7858 50.6321 26.4835C50.6321 27.1855 50.5086 27.816 50.2616 28.375C50.0146 28.934 49.6592 29.3782 49.1956 29.7075C48.7319 30.0325 48.1729 30.195 47.5186 30.195ZM44.3596 33.12V22.98H45.2176V28.2645H45.3216V33.12H44.3596ZM47.4211 29.3045C47.9107 29.3045 48.3181 29.181 48.6431 28.934C48.9681 28.687 49.2107 28.3512 49.3711 27.9265C49.5357 27.4975 49.6181 27.0165 49.6181 26.4835C49.6181 25.9548 49.5379 25.4782 49.3776 25.0535C49.2172 24.6288 48.9724 24.293 48.6431 24.046C48.3181 23.799 47.9042 23.6755 47.4016 23.6755C46.9119 23.6755 46.5046 23.7947 46.1796 24.033C45.8589 24.2713 45.6184 24.6028 45.4581 25.0275C45.2977 25.4478 45.2176 25.9332 45.2176 26.4835C45.2176 27.0252 45.2977 27.5105 45.4581 27.9395C45.6184 28.3642 45.8611 28.6978 46.1861 28.9405C46.5111 29.1832 46.9227 29.3045 47.4211 29.3045ZM52.0594 30V22.98H52.9174V24.67L52.7484 24.449C52.8264 24.241 52.9282 24.0503 53.0539 23.877C53.1796 23.6993 53.3161 23.5542 53.4634 23.4415C53.6454 23.2812 53.8577 23.1598 54.1004 23.0775C54.3431 22.9908 54.5879 22.941 54.8349 22.928C55.0819 22.9107 55.3072 22.928 55.5109 22.98V23.877C55.2552 23.812 54.9757 23.7968 54.6724 23.8315C54.3691 23.8662 54.0896 23.9875 53.8339 24.1955C53.5999 24.3775 53.4244 24.5963 53.3074 24.852C53.1904 25.1033 53.1124 25.372 53.0734 25.658C53.0344 25.9397 53.0149 26.2192 53.0149 26.4965V30H52.0594ZM56.874 21.6475V20.575H57.8295V21.6475H56.874ZM56.874 30V22.98H57.8295V30H56.874ZM59.7717 30L59.7782 20.64H60.7402V26.36L63.8732 22.98H65.1472L61.8582 26.49L65.5762 30H64.1852L60.7402 26.62V30H59.7717ZM68.2359 30.195C67.7072 30.195 67.263 30.0997 66.9034 29.909C66.548 29.7183 66.2815 29.4648 66.1039 29.1485C65.9262 28.8322 65.8374 28.4877 65.8374 28.115C65.8374 27.7337 65.9132 27.4087 66.0649 27.14C66.2209 26.867 66.431 26.6438 66.6954 26.4705C66.964 26.2972 67.2739 26.165 67.6249 26.074C67.9802 25.9873 68.3724 25.9115 68.8014 25.8465C69.2347 25.7772 69.6572 25.7187 70.0689 25.671C70.4849 25.619 70.8489 25.5692 71.1609 25.5215L70.8229 25.7295C70.8359 25.0362 70.7015 24.5227 70.4199 24.189C70.1382 23.8553 69.6485 23.6885 68.9509 23.6885C68.4699 23.6885 68.0625 23.7968 67.7289 24.0135C67.3995 24.2302 67.1677 24.5725 67.0334 25.0405L66.1039 24.7675C66.2642 24.1392 66.587 23.6517 67.0724 23.305C67.5577 22.9583 68.1882 22.785 68.9639 22.785C69.6052 22.785 70.149 22.9063 70.5954 23.149C71.046 23.3873 71.3645 23.734 71.5509 24.189C71.6375 24.3927 71.6939 24.6202 71.7199 24.8715C71.7459 25.1228 71.7589 25.3785 71.7589 25.6385V30H70.9074V28.2385L71.1544 28.3425C70.916 28.9448 70.5455 29.4042 70.0429 29.7205C69.5402 30.0368 68.9379 30.195 68.2359 30.195ZM68.3464 29.3695C68.7927 29.3695 69.1827 29.2893 69.5164 29.129C69.85 28.9687 70.1187 28.7498 70.3224 28.4725C70.526 28.1908 70.6582 27.8745 70.7189 27.5235C70.7709 27.2982 70.799 27.0512 70.8034 26.7825C70.8077 26.5095 70.8099 26.3058 70.8099 26.1715L71.1739 26.36C70.8489 26.4033 70.4957 26.4467 70.1144 26.49C69.7374 26.5333 69.3647 26.5832 68.9964 26.6395C68.6324 26.6958 68.303 26.763 68.0084 26.841C67.809 26.8973 67.6162 26.9775 67.4299 27.0815C67.2435 27.1812 67.0897 27.3155 66.9684 27.4845C66.8514 27.6535 66.7929 27.8637 66.7929 28.115C66.7929 28.3187 66.8427 28.5158 66.9424 28.7065C67.0464 28.8972 67.211 29.0553 67.4364 29.181C67.666 29.3067 67.9694 29.3695 68.3464 29.3695ZM78.9851 30.195C78.2874 30.195 77.6916 30.0368 77.1976 29.7205C76.7036 29.4042 76.3244 28.9665 76.0601 28.4075C75.7957 27.8485 75.6636 27.2072 75.6636 26.4835C75.6636 25.7468 75.7979 25.1012 76.0666 24.5465C76.3352 23.9918 76.7166 23.5607 77.2106 23.253C77.7089 22.941 78.3004 22.785 78.9851 22.785C79.6871 22.785 80.2851 22.9432 80.7791 23.2595C81.2774 23.5715 81.6566 24.007 81.9166 24.566C82.1809 25.1207 82.3131 25.7598 82.3131 26.4835C82.3131 27.2202 82.1809 27.868 81.9166 28.427C81.6522 28.9817 81.2709 29.415 80.7726 29.727C80.2742 30.039 79.6784 30.195 78.9851 30.195ZM78.9851 29.2785C79.7651 29.2785 80.3457 29.0207 80.7271 28.505C81.1084 27.985 81.2991 27.3112 81.2991 26.4835C81.2991 25.6342 81.1062 24.9582 80.7206 24.4555C80.3392 23.9528 79.7607 23.7015 78.9851 23.7015C78.4607 23.7015 78.0274 23.8207 77.6851 24.059C77.3471 24.293 77.0936 24.6202 76.9246 25.0405C76.7599 25.4565 76.6776 25.9375 76.6776 26.4835C76.6776 27.3285 76.8726 28.0067 77.2626 28.518C77.6526 29.025 78.2267 29.2785 78.9851 29.2785ZM83.7469 30V22.98H84.6049V24.67L84.4359 24.449C84.5139 24.241 84.6157 24.0503 84.7414 23.877C84.8671 23.6993 85.0036 23.5542 85.1509 23.4415C85.3329 23.2812 85.5452 23.1598 85.7879 23.0775C86.0306 22.9908 86.2754 22.941 86.5224 22.928C86.7694 22.9107 86.9947 22.928 87.1984 22.98V23.877C86.9427 23.812 86.6632 23.7968 86.3599 23.8315C86.0566 23.8662 85.7771 23.9875 85.5214 24.1955C85.2874 24.3775 85.1119 24.5963 84.9949 24.852C84.8779 25.1033 84.7999 25.372 84.7609 25.658C84.7219 25.9397 84.7024 26.2192 84.7024 26.4965V30H83.7469ZM93.946 30.195C93.2397 30.195 92.6417 30.0368 92.152 29.7205C91.6624 29.4042 91.2897 28.9687 91.034 28.414C90.7827 27.855 90.6527 27.2137 90.644 26.49C90.6527 25.7533 90.787 25.1077 91.047 24.553C91.307 23.994 91.6819 23.5607 92.1715 23.253C92.6612 22.941 93.2549 22.785 93.9525 22.785C94.6632 22.785 95.2807 22.9583 95.805 23.305C96.3337 23.6517 96.6955 24.1262 96.8905 24.7285L95.9545 25.0275C95.7899 24.6072 95.5277 24.2822 95.168 24.0525C94.8127 23.8185 94.4054 23.7015 93.946 23.7015C93.4304 23.7015 93.0035 23.8207 92.6655 24.059C92.3275 24.293 92.0762 24.6202 91.9115 25.0405C91.7469 25.4608 91.6624 25.944 91.658 26.49C91.6667 27.3307 91.8617 28.0067 92.243 28.518C92.6244 29.025 93.192 29.2785 93.946 29.2785C94.4227 29.2785 94.8279 29.1702 95.1615 28.9535C95.4995 28.7325 95.7552 28.4118 95.9285 27.9915L96.8905 28.2775C96.6305 28.9015 96.2492 29.3782 95.7465 29.7075C95.2439 30.0325 94.6437 30.195 93.946 30.195ZM103.302 30V26.4185C103.302 26.0285 103.265 25.671 103.192 25.346C103.118 25.0167 102.999 24.7307 102.834 24.488C102.674 24.241 102.464 24.0503 102.204 23.916C101.948 23.7817 101.636 23.7145 101.268 23.7145C100.93 23.7145 100.631 23.773 100.371 23.89C100.115 24.007 99.8984 24.176 99.7208 24.397C99.5474 24.6137 99.4153 24.878 99.3243 25.19C99.2333 25.502 99.1878 25.8573 99.1878 26.256L98.5118 26.1065C98.5118 25.3872 98.6374 24.7827 98.8888 24.293C99.1401 23.8033 99.4868 23.4328 99.9288 23.1815C100.371 22.9302 100.878 22.8045 101.45 22.8045C101.87 22.8045 102.236 22.8695 102.548 22.9995C102.865 23.1295 103.131 23.305 103.348 23.526C103.569 23.747 103.746 24.0005 103.881 24.2865C104.015 24.5682 104.113 24.8693 104.173 25.19C104.234 25.5063 104.264 25.8227 104.264 26.139V30H103.302ZM98.2258 30V20.64H99.0903V25.9245H99.1878V30H98.2258ZM108.883 30.195C108.185 30.195 107.589 30.0368 107.095 29.7205C106.601 29.4042 106.222 28.9665 105.958 28.4075C105.693 27.8485 105.561 27.2072 105.561 26.4835C105.561 25.7468 105.695 25.1012 105.964 24.5465C106.233 23.9918 106.614 23.5607 107.108 23.253C107.606 22.941 108.198 22.785 108.883 22.785C109.585 22.785 110.183 22.9432 110.677 23.2595C111.175 23.5715 111.554 24.007 111.814 24.566C112.078 25.1207 112.211 25.7598 112.211 26.4835C112.211 27.2202 112.078 27.868 111.814 28.427C111.55 28.9817 111.168 29.415 110.67 29.727C110.172 30.039 109.576 30.195 108.883 30.195ZM108.883 29.2785C109.663 29.2785 110.243 29.0207 110.625 28.505C111.006 27.985 111.197 27.3112 111.197 26.4835C111.197 25.6342 111.004 24.9582 110.618 24.4555C110.237 23.9528 109.658 23.7015 108.883 23.7015C108.358 23.7015 107.925 23.8207 107.583 24.059C107.245 24.293 106.991 24.6202 106.822 25.0405C106.657 25.4565 106.575 25.9375 106.575 26.4835C106.575 27.3285 106.77 28.0067 107.16 28.518C107.55 29.025 108.124 29.2785 108.883 29.2785ZM116.576 30.195C115.878 30.195 115.282 30.0368 114.788 29.7205C114.294 29.4042 113.915 28.9665 113.651 28.4075C113.387 27.8485 113.254 27.2072 113.254 26.4835C113.254 25.7468 113.389 25.1012 113.657 24.5465C113.926 23.9918 114.307 23.5607 114.801 23.253C115.3 22.941 115.891 22.785 116.576 22.785C117.278 22.785 117.876 22.9432 118.37 23.2595C118.868 23.5715 119.247 24.007 119.507 24.566C119.772 25.1207 119.904 25.7598 119.904 26.4835C119.904 27.2202 119.772 27.868 119.507 28.427C119.243 28.9817 118.862 29.415 118.363 29.727C117.865 30.039 117.269 30.195 116.576 30.195ZM116.576 29.2785C117.356 29.2785 117.937 29.0207 118.318 28.505C118.699 27.985 118.89 27.3112 118.89 26.4835C118.89 25.6342 118.697 24.9582 118.311 24.4555C117.93 23.9528 117.352 23.7015 116.576 23.7015C116.052 23.7015 115.618 23.8207 115.276 24.059C114.938 24.293 114.684 24.6202 114.515 25.0405C114.351 25.4565 114.268 25.9375 114.268 26.4835C114.268 27.3285 114.463 28.0067 114.853 28.518C115.243 29.025 115.818 29.2785 116.576 29.2785ZM123.894 30.1885C123.07 30.1885 122.392 30.0108 121.859 29.6555C121.331 29.3002 121.006 28.8062 120.884 28.1735L121.859 28.011C121.963 28.4097 122.199 28.7282 122.568 28.9665C122.94 29.2005 123.4 29.3175 123.946 29.3175C124.479 29.3175 124.899 29.207 125.207 28.986C125.514 28.7607 125.668 28.4552 125.668 28.0695C125.668 27.8528 125.618 27.6773 125.519 27.543C125.423 27.4043 125.226 27.2765 124.927 27.1595C124.628 27.0425 124.182 26.9038 123.588 26.7435C122.951 26.5702 122.453 26.3968 122.093 26.2235C121.734 26.0502 121.478 25.8508 121.326 25.6255C121.175 25.3958 121.099 25.1163 121.099 24.787C121.099 24.3883 121.211 24.0395 121.437 23.7405C121.662 23.4372 121.974 23.2032 122.373 23.0385C122.771 22.8695 123.235 22.785 123.764 22.785C124.292 22.785 124.765 22.8717 125.181 23.045C125.601 23.214 125.939 23.4523 126.195 23.76C126.45 24.0677 126.602 24.4252 126.65 24.8325L125.675 25.008C125.61 24.5963 125.404 24.2713 125.057 24.033C124.715 23.7903 124.279 23.6647 123.751 23.656C123.252 23.643 122.847 23.7383 122.535 23.942C122.223 24.1413 122.067 24.4078 122.067 24.7415C122.067 24.9278 122.124 25.0882 122.236 25.2225C122.349 25.3525 122.553 25.476 122.847 25.593C123.146 25.71 123.571 25.8378 124.121 25.9765C124.767 26.1412 125.274 26.3145 125.642 26.4965C126.011 26.6785 126.273 26.893 126.429 27.14C126.585 27.387 126.663 27.6925 126.663 28.0565C126.663 28.7195 126.416 29.2417 125.922 29.623C125.432 30 124.756 30.1885 123.894 30.1885ZM131.075 30.195C130.39 30.195 129.797 30.0433 129.294 29.74C128.796 29.4367 128.408 29.0098 128.13 28.4595C127.853 27.9092 127.714 27.2635 127.714 26.5225C127.714 25.7555 127.851 25.0925 128.124 24.5335C128.397 23.9745 128.78 23.5433 129.274 23.24C129.773 22.9367 130.36 22.785 131.036 22.785C131.729 22.785 132.321 22.9453 132.81 23.266C133.3 23.5823 133.671 24.0373 133.922 24.631C134.173 25.2247 134.288 25.9332 134.266 26.7565H133.291V26.4185C133.274 25.5085 133.077 24.8217 132.7 24.358C132.327 23.8943 131.781 23.6625 131.062 23.6625C130.308 23.6625 129.729 23.9073 129.326 24.397C128.928 24.8867 128.728 25.5843 128.728 26.49C128.728 27.374 128.928 28.0608 129.326 28.5505C129.729 29.0358 130.299 29.2785 131.036 29.2785C131.539 29.2785 131.976 29.1637 132.349 28.934C132.726 28.7 133.023 28.3642 133.239 27.9265L134.13 28.271C133.853 28.882 133.443 29.3565 132.901 29.6945C132.364 30.0282 131.755 30.195 131.075 30.195ZM128.39 26.7565V25.957H133.753V26.7565H128.39ZM141.464 30.195C140.818 30.195 140.272 30.0325 139.826 29.7075C139.38 29.3782 139.042 28.934 138.812 28.375C138.582 27.8117 138.467 27.1812 138.467 26.4835C138.467 25.7728 138.582 25.1402 138.812 24.5855C139.046 24.0265 139.388 23.5867 139.839 23.266C140.29 22.9453 140.844 22.785 141.503 22.785C142.144 22.785 142.695 22.9475 143.154 23.2725C143.613 23.5975 143.964 24.0395 144.207 24.5985C144.454 25.1575 144.577 25.7858 144.577 26.4835C144.577 27.1855 144.454 27.816 144.207 28.375C143.96 28.934 143.605 29.3782 143.141 29.7075C142.677 30.0325 142.118 30.195 141.464 30.195ZM138.305 33.12V22.98H139.163V28.2645H139.267V33.12H138.305ZM141.366 29.3045C141.856 29.3045 142.263 29.181 142.588 28.934C142.913 28.687 143.156 28.3512 143.316 27.9265C143.481 27.4975 143.563 27.0165 143.563 26.4835C143.563 25.9548 143.483 25.4782 143.323 25.0535C143.163 24.6288 142.918 24.293 142.588 24.046C142.263 23.799 141.85 23.6755 141.347 23.6755C140.857 23.6755 140.45 23.7947 140.125 24.033C139.804 24.2713 139.564 24.6028 139.403 25.0275C139.243 25.4478 139.163 25.9332 139.163 26.4835C139.163 27.0252 139.243 27.5105 139.403 27.9395C139.564 28.3642 139.806 28.6978 140.131 28.9405C140.456 29.1832 140.868 29.3045 141.366 29.3045ZM148.689 30.1755C148.269 30.1755 147.901 30.1105 147.584 29.9805C147.272 29.8505 147.006 29.675 146.785 29.454C146.568 29.233 146.393 28.9817 146.258 28.7C146.124 28.414 146.026 28.1128 145.966 27.7965C145.905 27.4758 145.875 27.1573 145.875 26.841V22.98H146.837V26.5615C146.837 26.9472 146.874 27.3047 146.947 27.634C147.021 27.9633 147.138 28.2515 147.298 28.4985C147.463 28.7412 147.673 28.9297 147.929 29.064C148.189 29.1983 148.503 29.2655 148.871 29.2655C149.209 29.2655 149.506 29.207 149.762 29.09C150.022 28.973 150.238 28.8062 150.412 28.5895C150.589 28.3685 150.724 28.102 150.815 27.79C150.906 27.4737 150.951 27.1183 150.951 26.724L151.627 26.8735C151.627 27.5928 151.502 28.1973 151.25 28.687C150.999 29.1767 150.652 29.5472 150.21 29.7985C149.768 30.0498 149.261 30.1755 148.689 30.1755ZM151.049 30V28.271H150.951V22.98H151.907V30H151.049ZM162.095 30L162.102 25.3915C162.102 24.8498 161.95 24.4252 161.647 24.1175C161.348 23.8055 160.967 23.6495 160.503 23.6495C160.239 23.6495 159.981 23.7102 159.729 23.8315C159.478 23.9528 159.27 24.1478 159.105 24.4165C158.945 24.6852 158.865 25.0362 158.865 25.4695L158.299 25.307C158.286 24.8043 158.384 24.3645 158.592 23.9875C158.804 23.6105 159.095 23.318 159.463 23.11C159.836 22.8977 160.256 22.7915 160.724 22.7915C161.43 22.7915 161.996 23.0103 162.42 23.448C162.845 23.8813 163.057 24.4685 163.057 25.2095L163.051 30H162.095ZM153.717 30V22.98H154.575V24.709H154.679V30H153.717ZM157.916 30L157.922 25.4565C157.922 24.8975 157.773 24.4577 157.474 24.137C157.179 23.812 156.789 23.6495 156.304 23.6495C155.819 23.6495 155.426 23.8163 155.127 24.15C154.828 24.4793 154.679 24.9192 154.679 25.4695L154.107 25.1575C154.107 24.7068 154.213 24.3038 154.425 23.9485C154.638 23.5888 154.928 23.3072 155.296 23.1035C155.665 22.8955 156.083 22.7915 156.551 22.7915C156.997 22.7915 157.394 22.8868 157.74 23.0775C158.091 23.2682 158.367 23.5455 158.566 23.9095C158.765 24.2735 158.865 24.7155 158.865 25.2355L158.858 30H157.916ZM167.896 30.195C167.25 30.195 166.704 30.0325 166.258 29.7075C165.811 29.3782 165.473 28.934 165.244 28.375C165.014 27.8117 164.899 27.1812 164.899 26.4835C164.899 25.7728 165.014 25.1402 165.244 24.5855C165.478 24.0265 165.82 23.5867 166.271 23.266C166.721 22.9453 167.276 22.785 167.935 22.785C168.576 22.785 169.126 22.9475 169.586 23.2725C170.045 23.5975 170.396 24.0395 170.639 24.5985C170.886 25.1575 171.009 25.7858 171.009 26.4835C171.009 27.1855 170.886 27.816 170.639 28.375C170.392 28.934 170.036 29.3782 169.573 29.7075C169.109 30.0325 168.55 30.195 167.896 30.195ZM164.737 33.12V22.98H165.595V28.2645H165.699V33.12H164.737ZM167.798 29.3045C168.288 29.3045 168.695 29.181 169.02 28.934C169.345 28.687 169.588 28.3512 169.748 27.9265C169.913 27.4975 169.995 27.0165 169.995 26.4835C169.995 25.9548 169.915 25.4782 169.755 25.0535C169.594 24.6288 169.349 24.293 169.02 24.046C168.695 23.799 168.281 23.6755 167.779 23.6755C167.289 23.6755 166.882 23.7947 166.557 24.033C166.236 24.2713 165.995 24.6028 165.835 25.0275C165.675 25.4478 165.595 25.9332 165.595 26.4835C165.595 27.0252 165.675 27.5105 165.835 27.9395C165.995 28.3642 166.238 28.6978 166.563 28.9405C166.888 29.1832 167.3 29.3045 167.798 29.3045ZM172.43 30L172.436 20.64H173.398V26.36L176.531 22.98H177.805L174.516 26.49L178.234 30H176.843L173.398 26.62V30H172.43ZM179.016 21.6475V20.575H179.971V21.6475H179.016ZM179.016 30V22.98H179.971V30H179.016ZM186.99 30V26.4185C186.99 26.0285 186.953 25.671 186.879 25.346C186.806 25.0167 186.686 24.7307 186.522 24.488C186.361 24.241 186.151 24.0503 185.891 23.916C185.636 23.7817 185.324 23.7145 184.955 23.7145C184.617 23.7145 184.318 23.773 184.058 23.89C183.803 24.007 183.586 24.176 183.408 24.397C183.235 24.6137 183.103 24.878 183.012 25.19C182.921 25.502 182.875 25.8573 182.875 26.256L182.199 26.1065C182.199 25.3872 182.325 24.7827 182.576 24.293C182.828 23.8033 183.174 23.4328 183.616 23.1815C184.058 22.9302 184.565 22.8045 185.137 22.8045C185.558 22.8045 185.924 22.8695 186.236 22.9995C186.552 23.1295 186.819 23.305 187.035 23.526C187.256 23.747 187.434 24.0005 187.568 24.2865C187.703 24.5682 187.8 24.8693 187.861 25.19C187.921 25.5063 187.952 25.8227 187.952 26.139V30H186.99ZM181.913 30V22.98H182.778V24.709H182.875V30H181.913ZM194.861 30.1885C194.037 30.1885 193.359 30.0108 192.826 29.6555C192.297 29.3002 191.972 28.8062 191.851 28.1735L192.826 28.011C192.93 28.4097 193.166 28.7282 193.535 28.9665C193.907 29.2005 194.367 29.3175 194.913 29.3175C195.446 29.3175 195.866 29.207 196.174 28.986C196.481 28.7607 196.635 28.4552 196.635 28.0695C196.635 27.8528 196.585 27.6773 196.486 27.543C196.39 27.4043 196.193 27.2765 195.894 27.1595C195.595 27.0425 195.149 26.9038 194.555 26.7435C193.918 26.5702 193.42 26.3968 193.06 26.2235C192.7 26.0502 192.445 25.8508 192.293 25.6255C192.141 25.3958 192.066 25.1163 192.066 24.787C192.066 24.3883 192.178 24.0395 192.404 23.7405C192.629 23.4372 192.941 23.2032 193.34 23.0385C193.738 22.8695 194.202 22.785 194.731 22.785C195.259 22.785 195.732 22.8717 196.148 23.045C196.568 23.214 196.906 23.4523 197.162 23.76C197.417 24.0677 197.569 24.4252 197.617 24.8325L196.642 25.008C196.577 24.5963 196.371 24.2713 196.024 24.033C195.682 23.7903 195.246 23.6647 194.718 23.656C194.219 23.643 193.814 23.7383 193.502 23.942C193.19 24.1413 193.034 24.4078 193.034 24.7415C193.034 24.9278 193.09 25.0882 193.203 25.2225C193.316 25.3525 193.519 25.476 193.814 25.593C194.113 25.71 194.538 25.8378 195.088 25.9765C195.734 26.1412 196.241 26.3145 196.609 26.4965C196.977 26.6785 197.24 26.893 197.396 27.14C197.552 27.387 197.63 27.6925 197.63 28.0565C197.63 28.7195 197.383 29.2417 196.889 29.623C196.399 30 195.723 30.1885 194.861 30.1885ZM202.042 30.195C201.357 30.195 200.763 30.0433 200.261 29.74C199.762 29.4367 199.374 29.0098 199.097 28.4595C198.82 27.9092 198.681 27.2635 198.681 26.5225C198.681 25.7555 198.818 25.0925 199.091 24.5335C199.364 23.9745 199.747 23.5433 200.241 23.24C200.739 22.9367 201.327 22.785 202.003 22.785C202.696 22.785 203.287 22.9453 203.777 23.266C204.267 23.5823 204.637 24.0373 204.889 24.631C205.14 25.2247 205.255 25.9332 205.233 26.7565H204.258V26.4185C204.241 25.5085 204.044 24.8217 203.667 24.358C203.294 23.8943 202.748 23.6625 202.029 23.6625C201.275 23.6625 200.696 23.9073 200.293 24.397C199.894 24.8867 199.695 25.5843 199.695 26.49C199.695 27.374 199.894 28.0608 200.293 28.5505C200.696 29.0358 201.266 29.2785 202.003 29.2785C202.505 29.2785 202.943 29.1637 203.316 28.934C203.693 28.7 203.989 28.3642 204.206 27.9265L205.097 28.271C204.819 28.882 204.41 29.3565 203.868 29.6945C203.331 30.0282 202.722 30.195 202.042 30.195ZM199.357 26.7565V25.957H204.72V26.7565H199.357ZM209.646 30.195C208.961 30.195 208.368 30.0433 207.865 29.74C207.367 29.4367 206.979 29.0098 206.702 28.4595C206.424 27.9092 206.286 27.2635 206.286 26.5225C206.286 25.7555 206.422 25.0925 206.695 24.5335C206.968 23.9745 207.352 23.5433 207.846 23.24C208.344 22.9367 208.931 22.785 209.607 22.785C210.3 22.785 210.892 22.9453 211.382 23.266C211.871 23.5823 212.242 24.0373 212.493 24.631C212.744 25.2247 212.859 25.9332 212.838 26.7565H211.863V26.4185C211.845 25.5085 211.648 24.8217 211.271 24.358C210.898 23.8943 210.352 23.6625 209.633 23.6625C208.879 23.6625 208.301 23.9073 207.898 24.397C207.499 24.8867 207.3 25.5843 207.3 26.49C207.3 27.374 207.499 28.0608 207.898 28.5505C208.301 29.0358 208.87 29.2785 209.607 29.2785C210.11 29.2785 210.547 29.1637 210.92 28.934C211.297 28.7 211.594 28.3642 211.811 27.9265L212.701 28.271C212.424 28.882 212.014 29.3565 211.473 29.6945C210.935 30.0282 210.326 30.195 209.646 30.195ZM206.962 26.7565V25.957H212.324V26.7565H206.962ZM217.004 30.195C216.349 30.195 215.79 30.0325 215.327 29.7075C214.863 29.3782 214.508 28.934 214.261 28.375C214.014 27.816 213.89 27.1855 213.89 26.4835C213.89 25.7858 214.011 25.1575 214.254 24.5985C214.501 24.0395 214.854 23.5975 215.314 23.2725C215.773 22.9475 216.323 22.785 216.965 22.785C217.623 22.785 218.178 22.9453 218.629 23.266C219.079 23.5867 219.419 24.0265 219.649 24.5855C219.883 25.1402 220 25.7728 220 26.4835C220 27.1812 219.885 27.8117 219.656 28.375C219.426 28.934 219.088 29.3782 218.642 29.7075C218.195 30.0325 217.649 30.195 217.004 30.195ZM217.101 29.3045C217.599 29.3045 218.011 29.1832 218.336 28.9405C218.661 28.6978 218.904 28.3642 219.064 27.9395C219.224 27.5105 219.305 27.0252 219.305 26.4835C219.305 25.9332 219.224 25.4478 219.064 25.0275C218.904 24.6028 218.661 24.2713 218.336 24.033C218.015 23.7947 217.61 23.6755 217.121 23.6755C216.618 23.6755 216.202 23.799 215.873 24.046C215.543 24.293 215.298 24.6288 215.138 25.0535C214.982 25.4782 214.904 25.9548 214.904 26.4835C214.904 27.0165 214.984 27.4975 215.145 27.9265C215.309 28.3512 215.554 28.687 215.879 28.934C216.204 29.181 216.611 29.3045 217.101 29.3045ZM219.305 30V24.7155H219.201V20.64H220.163V30H219.305ZM4.2835 43.799V42.98H6.2335V43.799H4.2835ZM1.6055 50V42.46C1.6055 42.278 1.61417 42.0982 1.6315 41.9205C1.65317 41.7428 1.69433 41.5738 1.755 41.4135C1.81567 41.2488 1.911 41.0972 2.041 40.9585C2.184 40.8025 2.34 40.6898 2.509 40.6205C2.678 40.5468 2.8535 40.4992 3.0355 40.4775C3.22183 40.4558 3.40383 40.445 3.5815 40.445H4.4785V41.251H3.6465C3.2825 41.251 3.0095 41.3398 2.8275 41.5175C2.64983 41.6952 2.561 41.9747 2.561 42.356V50H1.6055ZM0.39 43.799V42.98H4.4785V43.799H0.39ZM6.123 50V40.445H7.0785V50H6.123ZM11.9538 50.195C11.2561 50.195 10.6603 50.0368 10.1663 49.7205C9.6723 49.4042 9.29314 48.9665 9.0288 48.4075C8.76447 47.8485 8.6323 47.2072 8.6323 46.4835C8.6323 45.7468 8.76664 45.1012 9.0353 44.5465C9.30397 43.9918 9.6853 43.5607 10.1793 43.253C10.6776 42.941 11.2691 42.785 11.9538 42.785C12.6558 42.785 13.2538 42.9432 13.7478 43.2595C14.2461 43.5715 14.6253 44.007 14.8853 44.566C15.1496 45.1207 15.2818 45.7598 15.2818 46.4835C15.2818 47.2202 15.1496 47.868 14.8853 48.427C14.621 48.9817 14.2396 49.415 13.7413 49.727C13.243 50.039 12.6471 50.195 11.9538 50.195ZM11.9538 49.2785C12.7338 49.2785 13.3145 49.0207 13.6958 48.505C14.0771 47.985 14.2678 47.3112 14.2678 46.4835C14.2678 45.6342 14.075 44.9582 13.6893 44.4555C13.308 43.9528 12.7295 43.7015 11.9538 43.7015C11.4295 43.7015 10.9961 43.8207 10.6538 44.059C10.3158 44.293 10.0623 44.6202 9.8933 45.0405C9.72864 45.4565 9.6463 45.9375 9.6463 46.4835C9.6463 47.3285 9.8413 48.0067 10.2313 48.518C10.6213 49.025 11.1955 49.2785 11.9538 49.2785ZM19.4002 50.1755C18.9798 50.1755 18.6115 50.1105 18.2952 49.9805C17.9832 49.8505 17.7167 49.675 17.4957 49.454C17.279 49.233 17.1035 48.9817 16.9692 48.7C16.8348 48.414 16.7373 48.1128 16.6767 47.7965C16.616 47.4758 16.5857 47.1573 16.5857 46.841V42.98H17.5477V46.5615C17.5477 46.9472 17.5845 47.3047 17.6582 47.634C17.7318 47.9633 17.8488 48.2515 18.0092 48.4985C18.1738 48.7412 18.384 48.9297 18.6397 49.064C18.8997 49.1983 19.2138 49.2655 19.5822 49.2655C19.9202 49.2655 20.217 49.207 20.4727 49.09C20.7327 48.973 20.9493 48.8062 21.1227 48.5895C21.3003 48.3685 21.4347 48.102 21.5257 47.79C21.6167 47.4737 21.6622 47.1183 21.6622 46.724L22.3382 46.8735C22.3382 47.5928 22.2125 48.1973 21.9612 48.687C21.7098 49.1767 21.3632 49.5472 20.9212 49.7985C20.4792 50.0498 19.9722 50.1755 19.4002 50.1755ZM21.7597 50V48.271H21.6622V42.98H22.6177V50H21.7597ZM24.4344 50V42.98H25.2924V44.67L25.1234 44.449C25.2014 44.241 25.3032 44.0503 25.4289 43.877C25.5546 43.6993 25.6911 43.5542 25.8384 43.4415C26.0204 43.2812 26.2327 43.1598 26.4754 43.0775C26.7181 42.9908 26.9629 42.941 27.2099 42.928C27.4569 42.9107 27.6822 42.928 27.8859 42.98V43.877C27.6302 43.812 27.3507 43.7968 27.0474 43.8315C26.7441 43.8662 26.4646 43.9875 26.2089 44.1955C25.9749 44.3775 25.7994 44.5963 25.6824 44.852C25.5654 45.1033 25.4874 45.372 25.4484 45.658C25.4094 45.9397 25.3899 46.2192 25.3899 46.4965V50H24.4344ZM33.2165 50L31.0715 42.9735L32.027 42.98L33.691 48.4335L35.3615 42.98H36.2325L37.903 48.4335L39.58 42.98H40.529L38.384 50H37.552L35.797 44.41L34.0485 50H33.2165ZM41.83 41.6475V40.575H42.7855V41.6475H41.83ZM41.83 50V42.98H42.7855V50H41.83ZM48.5562 50C48.1619 50.0823 47.7719 50.1148 47.3862 50.0975C47.0049 50.0802 46.6626 49.9978 46.3592 49.8505C46.0602 49.7032 45.8327 49.4735 45.6767 49.1615C45.5511 48.9015 45.4817 48.6393 45.4687 48.375C45.4601 48.1063 45.4557 47.8008 45.4557 47.4585V41.03H46.4047V47.4195C46.4047 47.7142 46.4069 47.9612 46.4112 48.1605C46.4199 48.3555 46.4654 48.5288 46.5477 48.6805C46.7037 48.9708 46.9507 49.1442 47.2887 49.2005C47.6311 49.2568 48.0536 49.2438 48.5562 49.1615V50ZM43.9542 43.799V42.98H48.5562V43.799H43.9542ZM55.0093 50V46.4185C55.0093 46.0285 54.9725 45.671 54.8988 45.346C54.8251 45.0167 54.706 44.7307 54.5413 44.488C54.381 44.241 54.1708 44.0503 53.9108 43.916C53.6551 43.7817 53.3431 43.7145 52.9748 43.7145C52.6368 43.7145 52.3378 43.773 52.0778 43.89C51.8221 44.007 51.6055 44.176 51.4278 44.397C51.2545 44.6137 51.1223 44.878 51.0313 45.19C50.9403 45.502 50.8948 45.8573 50.8948 46.256L50.2188 46.1065C50.2188 45.3872 50.3445 44.7827 50.5958 44.293C50.8471 43.8033 51.1938 43.4328 51.6358 43.1815C52.0778 42.9302 52.5848 42.8045 53.1568 42.8045C53.5771 42.8045 53.9433 42.8695 54.2553 42.9995C54.5716 43.1295 54.8381 43.305 55.0548 43.526C55.2758 43.747 55.4535 44.0005 55.5878 44.2865C55.7221 44.5682 55.8196 44.8693 55.8803 45.19C55.941 45.5063 55.9713 45.8227 55.9713 46.139V50H55.0093ZM49.9328 50V40.64H50.7973V45.9245H50.8948V50H49.9328ZM63.4131 50.195C62.7674 50.195 62.2214 50.0325 61.7751 49.7075C61.3288 49.3782 60.9908 48.934 60.7611 48.375C60.5314 47.8117 60.4166 47.1812 60.4166 46.4835C60.4166 45.7728 60.5314 45.1402 60.7611 44.5855C60.9951 44.0265 61.3374 43.5867 61.7881 43.266C62.2388 42.9453 62.7934 42.785 63.4521 42.785C64.0934 42.785 64.6438 42.9475 65.1031 43.2725C65.5624 43.5975 65.9134 44.0395 66.1561 44.5985C66.4031 45.1575 66.5266 45.7858 66.5266 46.4835C66.5266 47.1855 66.4031 47.816 66.1561 48.375C65.9091 48.934 65.5538 49.3782 65.0901 49.7075C64.6264 50.0325 64.0674 50.195 63.4131 50.195ZM60.2541 53.12V42.98H61.1121V48.2645H61.2161V53.12H60.2541ZM63.3156 49.3045C63.8053 49.3045 64.2126 49.181 64.5376 48.934C64.8626 48.687 65.1053 48.3512 65.2656 47.9265C65.4303 47.4975 65.5126 47.0165 65.5126 46.4835C65.5126 45.9548 65.4324 45.4782 65.2721 45.0535C65.1118 44.6288 64.8669 44.293 64.5376 44.046C64.2126 43.799 63.7988 43.6755 63.2961 43.6755C62.8064 43.6755 62.3991 43.7947 62.0741 44.033C61.7534 44.2713 61.5129 44.6028 61.3526 45.0275C61.1923 45.4478 61.1121 45.9332 61.1121 46.4835C61.1121 47.0252 61.1923 47.5105 61.3526 47.9395C61.5129 48.3642 61.7556 48.6978 62.0806 48.9405C62.4056 49.1832 62.8173 49.3045 63.3156 49.3045ZM69.9624 50.195C69.4338 50.195 68.9896 50.0997 68.6299 49.909C68.2746 49.7183 68.0081 49.4648 67.8304 49.1485C67.6528 48.8322 67.5639 48.4877 67.5639 48.115C67.5639 47.7337 67.6398 47.4087 67.7914 47.14C67.9474 46.867 68.1576 46.6438 68.4219 46.4705C68.6906 46.2972 69.0004 46.165 69.3514 46.074C69.7068 45.9873 70.0989 45.9115 70.5279 45.8465C70.9613 45.7772 71.3838 45.7187 71.7954 45.671C72.2114 45.619 72.5754 45.5692 72.8874 45.5215L72.5494 45.7295C72.5624 45.0362 72.4281 44.5227 72.1464 44.189C71.8648 43.8553 71.3751 43.6885 70.6774 43.6885C70.1964 43.6885 69.7891 43.7968 69.4554 44.0135C69.1261 44.2302 68.8943 44.5725 68.7599 45.0405L67.8304 44.7675C67.9908 44.1392 68.3136 43.6517 68.7989 43.305C69.2843 42.9583 69.9148 42.785 70.6904 42.785C71.3318 42.785 71.8756 42.9063 72.3219 43.149C72.7726 43.3873 73.0911 43.734 73.2774 44.189C73.3641 44.3927 73.4204 44.6202 73.4464 44.8715C73.4724 45.1228 73.4854 45.3785 73.4854 45.6385V50H72.6339V48.2385L72.8809 48.3425C72.6426 48.9448 72.2721 49.4042 71.7694 49.7205C71.2668 50.0368 70.6644 50.195 69.9624 50.195ZM70.0729 49.3695C70.5193 49.3695 70.9093 49.2893 71.2429 49.129C71.5766 48.9687 71.8453 48.7498 72.0489 48.4725C72.2526 48.1908 72.3848 47.8745 72.4454 47.5235C72.4974 47.2982 72.5256 47.0512 72.5299 46.7825C72.5343 46.5095 72.5364 46.3058 72.5364 46.1715L72.9004 46.36C72.5754 46.4033 72.2223 46.4467 71.8409 46.49C71.4639 46.5333 71.0913 46.5832 70.7229 46.6395C70.3589 46.6958 70.0296 46.763 69.7349 46.841C69.5356 46.8973 69.3428 46.9775 69.1564 47.0815C68.9701 47.1812 68.8163 47.3155 68.6949 47.4845C68.5779 47.6535 68.5194 47.8637 68.5194 48.115C68.5194 48.3187 68.5693 48.5158 68.6689 48.7065C68.7729 48.8972 68.9376 49.0553 69.1629 49.181C69.3926 49.3067 69.6959 49.3695 70.0729 49.3695ZM78.3301 50.195C77.6844 50.195 77.1384 50.0325 76.6921 49.7075C76.2457 49.3782 75.9077 48.934 75.6781 48.375C75.4484 47.8117 75.3336 47.1812 75.3336 46.4835C75.3336 45.7728 75.4484 45.1402 75.6781 44.5855C75.9121 44.0265 76.2544 43.5867 76.7051 43.266C77.1557 42.9453 77.7104 42.785 78.3691 42.785C79.0104 42.785 79.5607 42.9475 80.0201 43.2725C80.4794 43.5975 80.8304 44.0395 81.0731 44.5985C81.3201 45.1575 81.4436 45.7858 81.4436 46.4835C81.4436 47.1855 81.3201 47.816 81.0731 48.375C80.8261 48.934 80.4707 49.3782 80.0071 49.7075C79.5434 50.0325 78.9844 50.195 78.3301 50.195ZM75.1711 53.12V42.98H76.0291V48.2645H76.1331V53.12H75.1711ZM78.2326 49.3045C78.7222 49.3045 79.1296 49.181 79.4546 48.934C79.7796 48.687 80.0222 48.3512 80.1826 47.9265C80.3472 47.4975 80.4296 47.0165 80.4296 46.4835C80.4296 45.9548 80.3494 45.4782 80.1891 45.0535C80.0287 44.6288 79.7839 44.293 79.4546 44.046C79.1296 43.799 78.7157 43.6755 78.2131 43.6755C77.7234 43.6755 77.3161 43.7947 76.9911 44.033C76.6704 44.2713 76.4299 44.6028 76.2696 45.0275C76.1092 45.4478 76.0291 45.9332 76.0291 46.4835C76.0291 47.0252 76.1092 47.5105 76.2696 47.9395C76.4299 48.3642 76.6726 48.6978 76.9976 48.9405C77.3226 49.1832 77.7342 49.3045 78.2326 49.3045ZM82.8709 50V42.98H83.7289V44.67L83.5599 44.449C83.6379 44.241 83.7398 44.0503 83.8654 43.877C83.9911 43.6993 84.1276 43.5542 84.2749 43.4415C84.4569 43.2812 84.6693 43.1598 84.9119 43.0775C85.1546 42.9908 85.3994 42.941 85.6464 42.928C85.8934 42.9107 86.1188 42.928 86.3224 42.98V43.877C86.0668 43.812 85.7873 43.7968 85.4839 43.8315C85.1806 43.8662 84.9011 43.9875 84.6454 44.1955C84.4114 44.3775 84.2359 44.5963 84.1189 44.852C84.0019 45.1033 83.9239 45.372 83.8849 45.658C83.8459 45.9397 83.8264 46.2192 83.8264 46.4965V50H82.8709ZM87.6855 41.6475V40.575H88.641V41.6475H87.6855ZM87.6855 50V42.98H88.641V50H87.6855ZM90.5832 50L90.5897 40.64H91.5517V46.36L94.6847 42.98H95.9587L92.6697 46.49L96.3877 50H94.9967L91.5517 46.62V50H90.5832ZM99.0474 50.195C98.5187 50.195 98.0746 50.0997 97.7149 49.909C97.3596 49.7183 97.0931 49.4648 96.9154 49.1485C96.7377 48.8322 96.6489 48.4877 96.6489 48.115C96.6489 47.7337 96.7247 47.4087 96.8764 47.14C97.0324 46.867 97.2426 46.6438 97.5069 46.4705C97.7756 46.2972 98.0854 46.165 98.4364 46.074C98.7917 45.9873 99.1839 45.9115 99.6129 45.8465C100.046 45.7772 100.469 45.7187 100.88 45.671C101.296 45.619 101.66 45.5692 101.972 45.5215L101.634 45.7295C101.647 45.0362 101.513 44.5227 101.231 44.189C100.95 43.8553 100.46 43.6885 99.7624 43.6885C99.2814 43.6885 98.8741 43.7968 98.5404 44.0135C98.2111 44.2302 97.9792 44.5725 97.8449 45.0405L96.9154 44.7675C97.0757 44.1392 97.3986 43.6517 97.8839 43.305C98.3692 42.9583 98.9997 42.785 99.7754 42.785C100.417 42.785 100.961 42.9063 101.407 43.149C101.858 43.3873 102.176 43.734 102.362 44.189C102.449 44.3927 102.505 44.6202 102.531 44.8715C102.557 45.1228 102.57 45.3785 102.57 45.6385V50H101.719V48.2385L101.966 48.3425C101.728 48.9448 101.357 49.4042 100.854 49.7205C100.352 50.0368 99.7494 50.195 99.0474 50.195ZM99.1579 49.3695C99.6042 49.3695 99.9942 49.2893 100.328 49.129C100.662 48.9687 100.93 48.7498 101.134 48.4725C101.338 48.1908 101.47 47.8745 101.53 47.5235C101.582 47.2982 101.611 47.0512 101.615 46.7825C101.619 46.5095 101.621 46.3058 101.621 46.1715L101.985 46.36C101.66 46.4033 101.307 46.4467 100.926 46.49C100.549 46.5333 100.176 46.5832 99.8079 46.6395C99.4439 46.6958 99.1146 46.763 98.8199 46.841C98.6206 46.8973 98.4277 46.9775 98.2414 47.0815C98.0551 47.1812 97.9012 47.3155 97.7799 47.4845C97.6629 47.6535 97.6044 47.8637 97.6044 48.115C97.6044 48.3187 97.6542 48.5158 97.7539 48.7065C97.8579 48.8972 98.0226 49.0553 98.2479 49.181C98.4776 49.3067 98.7809 49.3695 99.1579 49.3695Z" fill="#2E3140"/>
</svg>
