<svg width="246" height="56" viewBox="0 0 246 54" fill="none" xmlns="http://www.w3.org/2000/svg">
<path d="M4.16 10.195C3.50567 10.195 2.91633 10.0867 2.392 9.87C1.872 9.649 1.44083 9.337 1.0985 8.934C0.7605 8.531 0.5395 8.05217 0.4355 7.4975L1.4105 7.335C1.5665 7.94167 1.89583 8.41833 2.3985 8.765C2.90117 9.10733 3.50133 9.2785 4.199 9.2785C4.65833 9.2785 5.07 9.207 5.434 9.064C5.798 8.91667 6.084 8.70867 6.292 8.44C6.5 8.17133 6.604 7.85283 6.604 7.4845C6.604 7.24183 6.56067 7.036 6.474 6.867C6.38733 6.69367 6.2725 6.55067 6.1295 6.438C5.9865 6.32533 5.8305 6.23217 5.6615 6.1585C5.4925 6.0805 5.32783 6.01767 5.1675 5.97L2.795 5.2615C2.509 5.17917 2.24467 5.07517 2.002 4.9495C1.75933 4.8195 1.547 4.66567 1.365 4.488C1.18733 4.306 1.04867 4.09367 0.949 3.851C0.849333 3.60833 0.7995 3.331 0.7995 3.019C0.7995 2.49033 0.938167 2.03317 1.2155 1.6475C1.49283 1.26183 1.872 0.965 2.353 0.757C2.834 0.549 3.38217 0.447166 3.9975 0.451499C4.6215 0.451499 5.17833 0.561999 5.668 0.782999C6.162 1.004 6.56933 1.32033 6.89 1.732C7.21067 2.13933 7.423 2.6225 7.527 3.1815L6.526 3.3635C6.461 2.95617 6.3115 2.603 6.0775 2.304C5.8435 2.005 5.5445 1.77533 5.1805 1.615C4.82083 1.45033 4.42433 1.36583 3.991 1.3615C3.57067 1.3615 3.19583 1.433 2.8665 1.576C2.5415 1.71467 2.28367 1.90533 2.093 2.148C1.90233 2.39067 1.807 2.668 1.807 2.98C1.807 3.29633 1.89367 3.54983 2.067 3.7405C2.24467 3.93117 2.46133 4.08067 2.717 4.189C2.977 4.29733 3.22833 4.38617 3.471 4.4555L5.304 4.995C5.49467 5.047 5.71783 5.12283 5.9735 5.2225C6.2335 5.31783 6.48483 5.4565 6.7275 5.6385C6.9745 5.81617 7.17817 6.05017 7.3385 6.3405C7.49883 6.63083 7.579 6.99917 7.579 7.4455C7.579 7.87883 7.49233 8.26667 7.319 8.609C7.15 8.95133 6.9095 9.2395 6.5975 9.4735C6.28983 9.7075 5.928 9.88517 5.512 10.0065C5.10033 10.1322 4.64967 10.195 4.16 10.195ZM11.8912 10.195C11.2066 10.195 10.6129 10.0433 10.1102 9.74C9.61191 9.43667 9.22408 9.00983 8.94674 8.4595C8.66941 7.90917 8.53074 7.2635 8.53074 6.5225C8.53074 5.7555 8.66724 5.0925 8.94024 4.5335C9.21324 3.9745 9.59674 3.54333 10.0907 3.24C10.5891 2.93667 11.1762 2.785 11.8522 2.785C12.5456 2.785 13.1371 2.94533 13.6267 3.266C14.1164 3.58233 14.4869 4.03733 14.7382 4.631C14.9896 5.22467 15.1044 5.93317 15.0827 6.7565H14.1077V6.4185C14.0904 5.5085 13.8932 4.82167 13.5162 4.358C13.1436 3.89433 12.5976 3.6625 11.8782 3.6625C11.1242 3.6625 10.5457 3.90733 10.1427 4.397C9.74408 4.88667 9.54474 5.58433 9.54474 6.49C9.54474 7.374 9.74408 8.06083 10.1427 8.5505C10.5457 9.03583 11.1156 9.2785 11.8522 9.2785C12.3549 9.2785 12.7926 9.16367 13.1652 8.934C13.5422 8.7 13.8391 8.36417 14.0557 7.9265L14.9462 8.271C14.6689 8.882 14.2594 9.3565 13.7177 9.6945C13.1804 10.0282 12.5716 10.195 11.8912 10.195ZM9.20674 6.7565V5.957H14.5692V6.7565H9.20674ZM19.2487 10.195C18.5944 10.195 18.0354 10.0325 17.5717 9.7075C17.1081 9.37817 16.7527 8.934 16.5057 8.375C16.2587 7.816 16.1352 7.1855 16.1352 6.4835C16.1352 5.78583 16.2566 5.1575 16.4992 4.5985C16.7462 4.0395 17.0994 3.5975 17.5587 3.2725C18.0181 2.9475 18.5684 2.785 19.2097 2.785C19.8684 2.785 20.4231 2.94533 20.8737 3.266C21.3244 3.58667 21.6646 4.0265 21.8942 4.5855C22.1282 5.14017 22.2452 5.77283 22.2452 6.4835C22.2452 7.18117 22.1304 7.81167 21.9007 8.375C21.6711 8.934 21.3331 9.37817 20.8867 9.7075C20.4404 10.0325 19.8944 10.195 19.2487 10.195ZM19.3462 9.3045C19.8446 9.3045 20.2562 9.18317 20.5812 8.9405C20.9062 8.69783 21.1489 8.36417 21.3092 7.9395C21.4696 7.5105 21.5497 7.02517 21.5497 6.4835C21.5497 5.93317 21.4696 5.44783 21.3092 5.0275C21.1489 4.60283 20.9062 4.27133 20.5812 4.033C20.2606 3.79467 19.8554 3.6755 19.3657 3.6755C18.8631 3.6755 18.4471 3.799 18.1177 4.046C17.7884 4.293 17.5436 4.62883 17.3832 5.0535C17.2272 5.47817 17.1492 5.95483 17.1492 6.4835C17.1492 7.0165 17.2294 7.4975 17.3897 7.9265C17.5544 8.35117 17.7992 8.687 18.1242 8.934C18.4492 9.181 18.8566 9.3045 19.3462 9.3045ZM21.5497 10V4.7155H21.4457V0.64H22.4077V10H21.5497ZM29.5183 10.1755C29.098 10.1755 28.7297 10.1105 28.4133 9.9805C28.1013 9.8505 27.8348 9.675 27.6138 9.454C27.3972 9.233 27.2217 8.98167 27.0873 8.7C26.953 8.414 26.8555 8.11283 26.7948 7.7965C26.7342 7.47583 26.7038 7.15733 26.7038 6.841V2.98H27.6658V6.5615C27.6658 6.94717 27.7027 7.30467 27.7763 7.634C27.85 7.96333 27.967 8.2515 28.1273 8.4985C28.292 8.74117 28.5022 8.92967 28.7578 9.064C29.0178 9.19833 29.332 9.2655 29.7003 9.2655C30.0383 9.2655 30.3352 9.207 30.5908 9.09C30.8508 8.973 31.0675 8.80617 31.2408 8.5895C31.4185 8.3685 31.5528 8.102 31.6438 7.79C31.7348 7.47367 31.7803 7.11833 31.7803 6.724L32.4563 6.8735C32.4563 7.59283 32.3307 8.19733 32.0793 8.687C31.828 9.17667 31.4813 9.54717 31.0393 9.7985C30.5973 10.0498 30.0903 10.1755 29.5183 10.1755ZM31.8778 10V8.271H31.7803V2.98H32.7358V10H31.8778ZM38.3746 10C37.9802 10.0823 37.5902 10.1148 37.2046 10.0975C36.8232 10.0802 36.4809 9.99783 36.1776 9.8505C35.8786 9.70317 35.6511 9.4735 35.4951 9.1615C35.3694 8.9015 35.3001 8.63933 35.2871 8.375C35.2784 8.10633 35.2741 7.80083 35.2741 7.4585V1.03H36.2231V7.4195C36.2231 7.71417 36.2252 7.96117 36.2296 8.1605C36.2382 8.3555 36.2837 8.52883 36.3661 8.6805C36.5221 8.97083 36.7691 9.14417 37.1071 9.2005C37.4494 9.25683 37.8719 9.24383 38.3746 9.1615V10ZM33.7726 3.799V2.98H38.3746V3.799H33.7726ZM45.5127 10.195C44.867 10.195 44.321 10.0325 43.8747 9.7075C43.4284 9.37817 43.0904 8.934 42.8607 8.375C42.631 7.81167 42.5162 7.18117 42.5162 6.4835C42.5162 5.77283 42.631 5.14017 42.8607 4.5855C43.0947 4.0265 43.437 3.58667 43.8877 3.266C44.3384 2.94533 44.893 2.785 45.5517 2.785C46.193 2.785 46.7434 2.9475 47.2027 3.2725C47.662 3.5975 48.013 4.0395 48.2557 4.5985C48.5027 5.1575 48.6262 5.78583 48.6262 6.4835C48.6262 7.1855 48.5027 7.816 48.2557 8.375C48.0087 8.934 47.6534 9.37817 47.1897 9.7075C46.726 10.0325 46.167 10.195 45.5127 10.195ZM42.3537 13.12V2.98H43.2117V8.2645H43.3157V13.12H42.3537ZM45.4152 9.3045C45.9049 9.3045 46.3122 9.181 46.6372 8.934C46.9622 8.687 47.2049 8.35117 47.3652 7.9265C47.5299 7.4975 47.6122 7.0165 47.6122 6.4835C47.6122 5.95483 47.532 5.47817 47.3717 5.0535C47.2114 4.62883 46.9665 4.293 46.6372 4.046C46.3122 3.799 45.8984 3.6755 45.3957 3.6755C44.906 3.6755 44.4987 3.79467 44.1737 4.033C43.853 4.27133 43.6125 4.60283 43.4522 5.0275C43.2919 5.44783 43.2117 5.93317 43.2117 6.4835C43.2117 7.02517 43.2919 7.5105 43.4522 7.9395C43.6125 8.36417 43.8552 8.69783 44.1802 8.9405C44.5052 9.18317 44.9169 9.3045 45.4152 9.3045ZM53.0241 10.195C52.3394 10.195 51.7457 10.0433 51.2431 9.74C50.7447 9.43667 50.3569 9.00983 50.0796 8.4595C49.8022 7.90917 49.6636 7.2635 49.6636 6.5225C49.6636 5.7555 49.8001 5.0925 50.0731 4.5335C50.3461 3.9745 50.7296 3.54333 51.2236 3.24C51.7219 2.93667 52.3091 2.785 52.9851 2.785C53.6784 2.785 54.2699 2.94533 54.7596 3.266C55.2492 3.58233 55.6197 4.03733 55.8711 4.631C56.1224 5.22467 56.2372 5.93317 56.2156 6.7565H55.2406V6.4185C55.2232 5.5085 55.0261 4.82167 54.6491 4.358C54.2764 3.89433 53.7304 3.6625 53.0111 3.6625C52.2571 3.6625 51.6786 3.90733 51.2756 4.397C50.8769 4.88667 50.6776 5.58433 50.6776 6.49C50.6776 7.374 50.8769 8.06083 51.2756 8.5505C51.6786 9.03583 52.2484 9.2785 52.9851 9.2785C53.4877 9.2785 53.9254 9.16367 54.2981 8.934C54.6751 8.7 54.9719 8.36417 55.1886 7.9265L56.0791 8.271C55.8017 8.882 55.3922 9.3565 54.8506 9.6945C54.3132 10.0282 53.7044 10.195 53.0241 10.195ZM50.3396 6.7565V5.957H55.7021V6.7565H50.3396ZM57.658 10V2.98H58.516V4.67L58.347 4.449C58.425 4.241 58.5269 4.05033 58.6525 3.877C58.7782 3.69933 58.9147 3.55417 59.062 3.4415C59.244 3.28117 59.4564 3.15983 59.699 3.0775C59.9417 2.99083 60.1865 2.941 60.4335 2.928C60.6805 2.91067 60.9059 2.928 61.1095 2.98V3.877C60.8539 3.812 60.5744 3.79683 60.271 3.8315C59.9677 3.86617 59.6882 3.9875 59.4325 4.1955C59.1985 4.3775 59.023 4.59633 58.906 4.852C58.789 5.10333 58.711 5.372 58.672 5.658C58.633 5.93967 58.6135 6.21917 58.6135 6.4965V10H57.658ZM64.7082 10.1885C63.8849 10.1885 63.2067 10.0108 62.6737 9.6555C62.145 9.30017 61.82 8.80617 61.6987 8.1735L62.6737 8.011C62.7777 8.40967 63.0139 8.72817 63.3822 8.9665C63.7549 9.2005 64.2142 9.3175 64.7602 9.3175C65.2932 9.3175 65.7135 9.207 66.0212 8.986C66.3289 8.76067 66.4827 8.45517 66.4827 8.0695C66.4827 7.85283 66.4329 7.67733 66.3332 7.543C66.2379 7.40433 66.0407 7.2765 65.7417 7.1595C65.4427 7.0425 64.9964 6.90383 64.4027 6.7435C63.7657 6.57017 63.2674 6.39683 62.9077 6.2235C62.548 6.05017 62.2924 5.85083 62.1407 5.6255C61.989 5.39583 61.9132 5.11633 61.9132 4.787C61.9132 4.38833 62.0259 4.0395 62.2512 3.7405C62.4765 3.43717 62.7885 3.20317 63.1872 3.0385C63.5859 2.8695 64.0495 2.785 64.5782 2.785C65.1069 2.785 65.5792 2.87167 65.9952 3.045C66.4155 3.214 66.7535 3.45233 67.0092 3.76C67.2649 4.06767 67.4165 4.42517 67.4642 4.8325L66.4892 5.008C66.4242 4.59633 66.2184 4.27133 65.8717 4.033C65.5294 3.79033 65.0939 3.66467 64.5652 3.656C64.0669 3.643 63.6617 3.73833 63.3497 3.942C63.0377 4.14133 62.8817 4.40783 62.8817 4.7415C62.8817 4.92783 62.938 5.08817 63.0507 5.2225C63.1634 5.3525 63.367 5.476 63.6617 5.593C63.9607 5.71 64.3854 5.83783 64.9357 5.9765C65.5814 6.14117 66.0884 6.3145 66.4567 6.4965C66.825 6.6785 67.0872 6.893 67.2432 7.14C67.3992 7.387 67.4772 7.6925 67.4772 8.0565C67.4772 8.7195 67.2302 9.24167 66.7362 9.623C66.2465 10 65.5705 10.1885 64.7082 10.1885ZM72.0713 10.195C71.4256 10.195 70.8796 10.0325 70.4333 9.7075C69.987 9.37817 69.649 8.934 69.4193 8.375C69.1896 7.81167 69.0748 7.18117 69.0748 6.4835C69.0748 5.77283 69.1896 5.14017 69.4193 4.5855C69.6533 4.0265 69.9956 3.58667 70.4463 3.266C70.897 2.94533 71.4516 2.785 72.1103 2.785C72.7516 2.785 73.302 2.9475 73.7613 3.2725C74.2206 3.5975 74.5716 4.0395 74.8143 4.5985C75.0613 5.1575 75.1848 5.78583 75.1848 6.4835C75.1848 7.1855 75.0613 7.816 74.8143 8.375C74.5673 8.934 74.212 9.37817 73.7483 9.7075C73.2846 10.0325 72.7256 10.195 72.0713 10.195ZM68.9123 13.12V2.98H69.7703V8.2645H69.8743V13.12H68.9123ZM71.9738 9.3045C72.4635 9.3045 72.8708 9.181 73.1958 8.934C73.5208 8.687 73.7635 8.35117 73.9238 7.9265C74.0885 7.4975 74.1708 7.0165 74.1708 6.4835C74.1708 5.95483 74.0906 5.47817 73.9303 5.0535C73.77 4.62883 73.5251 4.293 73.1958 4.046C72.8708 3.799 72.457 3.6755 71.9543 3.6755C71.4646 3.6755 71.0573 3.79467 70.7323 4.033C70.4116 4.27133 70.1711 4.60283 70.0108 5.0275C69.8505 5.44783 69.7703 5.93317 69.7703 6.4835C69.7703 7.02517 69.8505 7.5105 70.0108 7.9395C70.1711 8.36417 70.4138 8.69783 70.7388 8.9405C71.0638 9.18317 71.4755 9.3045 71.9738 9.3045ZM76.7421 1.6475V0.575H77.6976V1.6475H76.7421ZM76.7421 10V2.98H77.6976V10H76.7421ZM82.5583 10.195C81.852 10.195 81.254 10.0368 80.7643 9.7205C80.2747 9.40417 79.902 8.96867 79.6463 8.414C79.395 7.855 79.265 7.21367 79.2563 6.49C79.265 5.75333 79.3993 5.10767 79.6593 4.553C79.9193 3.994 80.2942 3.56067 80.7838 3.253C81.2735 2.941 81.8672 2.785 82.5648 2.785C83.2755 2.785 83.893 2.95833 84.4173 3.305C84.946 3.65167 85.3078 4.12617 85.5028 4.7285L84.5668 5.0275C84.4022 4.60717 84.14 4.28217 83.7803 4.0525C83.425 3.8185 83.0177 3.7015 82.5583 3.7015C82.0427 3.7015 81.6158 3.82067 81.2778 4.059C80.9398 4.293 80.6885 4.62017 80.5238 5.0405C80.3592 5.46083 80.2747 5.944 80.2703 6.49C80.279 7.33067 80.474 8.00667 80.8553 8.518C81.2367 9.025 81.8043 9.2785 82.5583 9.2785C83.035 9.2785 83.4402 9.17017 83.7738 8.9535C84.1118 8.7325 84.3675 8.41183 84.5408 7.9915L85.5028 8.2775C85.2428 8.9015 84.8615 9.37817 84.3588 9.7075C83.8562 10.0325 83.256 10.195 82.5583 10.195ZM86.7841 1.6475V0.575H87.7396V1.6475H86.7841ZM86.7841 10V2.98H87.7396V10H86.7841ZM91.6968 10.195C91.1682 10.195 90.724 10.0997 90.3643 9.909C90.009 9.71833 89.7425 9.46483 89.5648 9.1485C89.3872 8.83217 89.2983 8.48767 89.2983 8.115C89.2983 7.73367 89.3742 7.40867 89.5258 7.14C89.6818 6.867 89.892 6.64383 90.1563 6.4705C90.425 6.29717 90.7348 6.165 91.0858 6.074C91.4412 5.98733 91.8333 5.9115 92.2623 5.8465C92.6957 5.77717 93.1182 5.71867 93.5298 5.671C93.9458 5.619 94.3098 5.56917 94.6218 5.5215L94.2838 5.7295C94.2968 5.03617 94.1625 4.52267 93.8808 4.189C93.5992 3.85533 93.1095 3.6885 92.4118 3.6885C91.9308 3.6885 91.5235 3.79683 91.1898 4.0135C90.8605 4.23017 90.6287 4.5725 90.4943 5.0405L89.5648 4.7675C89.7252 4.13917 90.048 3.65167 90.5333 3.305C91.0187 2.95833 91.6492 2.785 92.4248 2.785C93.0662 2.785 93.61 2.90633 94.0563 3.149C94.507 3.38733 94.8255 3.734 95.0118 4.189C95.0985 4.39267 95.1548 4.62017 95.1808 4.8715C95.2068 5.12283 95.2198 5.3785 95.2198 5.6385V10H94.3683V8.2385L94.6153 8.3425C94.377 8.94483 94.0065 9.40417 93.5038 9.7205C93.0012 10.0368 92.3988 10.195 91.6968 10.195ZM91.8073 9.3695C92.2537 9.3695 92.6437 9.28933 92.9773 9.129C93.311 8.96867 93.5797 8.74983 93.7833 8.4725C93.987 8.19083 94.1192 7.8745 94.1798 7.5235C94.2318 7.29817 94.26 7.05117 94.2643 6.7825C94.2687 6.5095 94.2708 6.30583 94.2708 6.1715L94.6348 6.36C94.3098 6.40333 93.9567 6.44667 93.5753 6.49C93.1983 6.53333 92.8257 6.58317 92.4573 6.6395C92.0933 6.69583 91.764 6.763 91.4693 6.841C91.27 6.89733 91.0772 6.9775 90.8908 7.0815C90.7045 7.18117 90.5507 7.3155 90.4293 7.4845C90.3123 7.6535 90.2538 7.86367 90.2538 8.115C90.2538 8.31867 90.3037 8.51583 90.4033 8.7065C90.5073 8.89717 90.672 9.05533 90.8973 9.181C91.127 9.30667 91.4303 9.3695 91.8073 9.3695ZM100.734 10C100.34 10.0823 99.9496 10.1148 99.564 10.0975C99.1826 10.0802 98.8403 9.99783 98.537 9.8505C98.238 9.70317 98.0105 9.4735 97.8545 9.1615C97.7288 8.9015 97.6595 8.63933 97.6465 8.375C97.6378 8.10633 97.6335 7.80083 97.6335 7.4585V1.03H98.5825V7.4195C98.5825 7.71417 98.5846 7.96117 98.589 8.1605C98.5976 8.3555 98.6431 8.52883 98.7255 8.6805C98.8815 8.97083 99.1285 9.14417 99.4665 9.2005C99.8088 9.25683 100.231 9.24383 100.734 9.1615V10ZM96.132 3.799V2.98H100.734V3.799H96.132ZM102.247 1.6475V0.575H103.203V1.6475H102.247ZM102.247 10V2.98H103.203V10H102.247ZM107.771 10.1885C106.947 10.1885 106.269 10.0108 105.736 9.6555C105.208 9.30017 104.883 8.80617 104.761 8.1735L105.736 8.011C105.84 8.40967 106.076 8.72817 106.445 8.9665C106.817 9.2005 107.277 9.3175 107.823 9.3175C108.356 9.3175 108.776 9.207 109.084 8.986C109.391 8.76067 109.545 8.45517 109.545 8.0695C109.545 7.85283 109.495 7.67733 109.396 7.543C109.3 7.40433 109.103 7.2765 108.804 7.1595C108.505 7.0425 108.059 6.90383 107.465 6.7435C106.828 6.57017 106.33 6.39683 105.97 6.2235C105.611 6.05017 105.355 5.85083 105.203 5.6255C105.052 5.39583 104.976 5.11633 104.976 4.787C104.976 4.38833 105.088 4.0395 105.314 3.7405C105.539 3.43717 105.851 3.20317 106.25 3.0385C106.648 2.8695 107.112 2.785 107.641 2.785C108.169 2.785 108.642 2.87167 109.058 3.045C109.478 3.214 109.816 3.45233 110.072 3.76C110.327 4.06767 110.479 4.42517 110.527 4.8325L109.552 5.008C109.487 4.59633 109.281 4.27133 108.934 4.033C108.592 3.79033 108.156 3.66467 107.628 3.656C107.129 3.643 106.724 3.73833 106.412 3.942C106.1 4.14133 105.944 4.40783 105.944 4.7415C105.944 4.92783 106.001 5.08817 106.113 5.2225C106.226 5.3525 106.43 5.476 106.724 5.593C107.023 5.71 107.448 5.83783 107.998 5.9765C108.644 6.14117 109.151 6.3145 109.519 6.4965C109.888 6.6785 110.15 6.893 110.306 7.14C110.462 7.387 110.54 7.6925 110.54 8.0565C110.54 8.7195 110.293 9.24167 109.799 9.623C109.309 10 108.633 10.1885 107.771 10.1885ZM117.268 10.1755C116.848 10.1755 116.48 10.1105 116.163 9.9805C115.851 9.8505 115.585 9.675 115.364 9.454C115.147 9.233 114.972 8.98167 114.837 8.7C114.703 8.414 114.605 8.11283 114.545 7.7965C114.484 7.47583 114.454 7.15733 114.454 6.841V2.98H115.416V6.5615C115.416 6.94717 115.453 7.30467 115.526 7.634C115.6 7.96333 115.717 8.2515 115.877 8.4985C116.042 8.74117 116.252 8.92967 116.508 9.064C116.768 9.19833 117.082 9.2655 117.45 9.2655C117.788 9.2655 118.085 9.207 118.341 9.09C118.601 8.973 118.817 8.80617 118.991 8.5895C119.168 8.3685 119.303 8.102 119.394 7.79C119.485 7.47367 119.53 7.11833 119.53 6.724L120.206 6.8735C120.206 7.59283 120.081 8.19733 119.829 8.687C119.578 9.17667 119.231 9.54717 118.789 9.7985C118.347 10.0498 117.84 10.1755 117.268 10.1755ZM119.628 10V8.271H119.53V2.98H120.486V10H119.628ZM127.373 10V6.4185C127.373 6.0285 127.336 5.671 127.262 5.346C127.188 5.01667 127.069 4.73067 126.905 4.488C126.744 4.241 126.534 4.05033 126.274 3.916C126.018 3.78167 125.706 3.7145 125.338 3.7145C125 3.7145 124.701 3.773 124.441 3.89C124.185 4.007 123.969 4.176 123.791 4.397C123.618 4.61367 123.486 4.878 123.395 5.19C123.304 5.502 123.258 5.85733 123.258 6.256L122.582 6.1065C122.582 5.38717 122.708 4.78267 122.959 4.293C123.21 3.80333 123.557 3.43283 123.999 3.1815C124.441 2.93017 124.948 2.8045 125.52 2.8045C125.94 2.8045 126.307 2.8695 126.619 2.9995C126.935 3.1295 127.201 3.305 127.418 3.526C127.639 3.747 127.817 4.0005 127.951 4.2865C128.085 4.56817 128.183 4.86933 128.244 5.19C128.304 5.50633 128.335 5.82267 128.335 6.139V10H127.373ZM122.296 10V2.98H123.161V4.709H123.258V10H122.296ZM132.707 10.195C132.052 10.195 131.493 10.0325 131.03 9.7075C130.566 9.37817 130.211 8.934 129.964 8.375C129.717 7.816 129.593 7.1855 129.593 6.4835C129.593 5.78583 129.715 5.1575 129.957 4.5985C130.204 4.0395 130.557 3.5975 131.017 3.2725C131.476 2.9475 132.026 2.785 132.668 2.785C133.326 2.785 133.881 2.94533 134.332 3.266C134.782 3.58667 135.123 4.0265 135.352 4.5855C135.586 5.14017 135.703 5.77283 135.703 6.4835C135.703 7.18117 135.588 7.81167 135.359 8.375C135.129 8.934 134.791 9.37817 134.345 9.7075C133.898 10.0325 133.352 10.195 132.707 10.195ZM132.804 9.3045C133.303 9.3045 133.714 9.18317 134.039 8.9405C134.364 8.69783 134.607 8.36417 134.767 7.9395C134.928 7.5105 135.008 7.02517 135.008 6.4835C135.008 5.93317 134.928 5.44783 134.767 5.0275C134.607 4.60283 134.364 4.27133 134.039 4.033C133.719 3.79467 133.313 3.6755 132.824 3.6755C132.321 3.6755 131.905 3.799 131.576 4.046C131.246 4.293 131.002 4.62883 130.841 5.0535C130.685 5.47817 130.607 5.95483 130.607 6.4835C130.607 7.0165 130.687 7.4975 130.848 7.9265C131.012 8.35117 131.257 8.687 131.582 8.934C131.907 9.181 132.315 9.3045 132.804 9.3045ZM135.008 10V4.7155H134.904V0.64H135.866V10H135.008ZM140.66 10.195C139.975 10.195 139.381 10.0433 138.879 9.74C138.38 9.43667 137.993 9.00983 137.715 8.4595C137.438 7.90917 137.299 7.2635 137.299 6.5225C137.299 5.7555 137.436 5.0925 137.709 4.5335C137.982 3.9745 138.365 3.54333 138.859 3.24C139.358 2.93667 139.945 2.785 140.621 2.785C141.314 2.785 141.906 2.94533 142.395 3.266C142.885 3.58233 143.255 4.03733 143.507 4.631C143.758 5.22467 143.873 5.93317 143.851 6.7565H142.876V6.4185C142.859 5.5085 142.662 4.82167 142.285 4.358C141.912 3.89433 141.366 3.6625 140.647 3.6625C139.893 3.6625 139.314 3.90733 138.911 4.397C138.513 4.88667 138.313 5.58433 138.313 6.49C138.313 7.374 138.513 8.06083 138.911 8.5505C139.314 9.03583 139.884 9.2785 140.621 9.2785C141.123 9.2785 141.561 9.16367 141.934 8.934C142.311 8.7 142.608 8.36417 142.824 7.9265L143.715 8.271C143.437 8.882 143.028 9.3565 142.486 9.6945C141.949 10.0282 141.34 10.195 140.66 10.195ZM137.975 6.7565V5.957H143.338V6.7565H137.975ZM150.828 10.195C150.13 10.195 149.534 10.0368 149.04 9.7205C148.546 9.40417 148.167 8.9665 147.903 8.4075C147.638 7.8485 147.506 7.20717 147.506 6.4835C147.506 5.74683 147.641 5.10117 147.909 4.5465C148.178 3.99183 148.559 3.56067 149.053 3.253C149.552 2.941 150.143 2.785 150.828 2.785C151.53 2.785 152.128 2.94317 152.622 3.2595C153.12 3.5715 153.499 4.007 153.759 4.566C154.024 5.12067 154.156 5.75983 154.156 6.4835C154.156 7.22017 154.024 7.868 153.759 8.427C153.495 8.98167 153.114 9.415 152.615 9.727C152.117 10.039 151.521 10.195 150.828 10.195ZM150.828 9.2785C151.608 9.2785 152.188 9.02067 152.57 8.505C152.951 7.985 153.142 7.31117 153.142 6.4835C153.142 5.63417 152.949 4.95817 152.563 4.4555C152.182 3.95283 151.603 3.7015 150.828 3.7015C150.303 3.7015 149.87 3.82067 149.528 4.059C149.19 4.293 148.936 4.62017 148.767 5.0405C148.603 5.4565 148.52 5.9375 148.52 6.4835C148.52 7.3285 148.715 8.00667 149.105 8.518C149.495 9.025 150.069 9.2785 150.828 9.2785ZM163.962 10L163.968 5.3915C163.968 4.84983 163.817 4.42517 163.513 4.1175C163.214 3.8055 162.833 3.6495 162.369 3.6495C162.105 3.6495 161.847 3.71017 161.596 3.8315C161.344 3.95283 161.136 4.14783 160.972 4.4165C160.811 4.68517 160.731 5.03617 160.731 5.4695L160.166 5.307C160.153 4.80433 160.25 4.3645 160.458 3.9875C160.671 3.6105 160.961 3.318 161.329 3.11C161.702 2.89767 162.122 2.7915 162.59 2.7915C163.297 2.7915 163.862 3.01033 164.287 3.448C164.711 3.88133 164.924 4.4685 164.924 5.2095L164.917 10H163.962ZM155.583 10V2.98H156.441V4.709H156.545V10H155.583ZM159.782 10L159.789 5.4565C159.789 4.8975 159.639 4.45767 159.34 4.137C159.046 3.812 158.656 3.6495 158.17 3.6495C157.685 3.6495 157.293 3.81633 156.994 4.15C156.695 4.47933 156.545 4.91917 156.545 5.4695L155.973 5.1575C155.973 4.70683 156.079 4.30383 156.292 3.9485C156.504 3.58883 156.794 3.30717 157.163 3.1035C157.531 2.8955 157.949 2.7915 158.417 2.7915C158.864 2.7915 159.26 2.88683 159.607 3.0775C159.958 3.26817 160.233 3.5455 160.432 3.9095C160.632 4.2735 160.731 4.7155 160.731 5.2355L160.725 10H159.782ZM171.679 10V6.4185C171.679 6.0285 171.642 5.671 171.569 5.346C171.495 5.01667 171.376 4.73067 171.211 4.488C171.051 4.241 170.841 4.05033 170.581 3.916C170.325 3.78167 170.013 3.7145 169.645 3.7145C169.307 3.7145 169.008 3.773 168.748 3.89C168.492 4.007 168.275 4.176 168.098 4.397C167.924 4.61367 167.792 4.878 167.701 5.19C167.61 5.502 167.565 5.85733 167.565 6.256L166.889 6.1065C166.889 5.38717 167.014 4.78267 167.266 4.293C167.517 3.80333 167.864 3.43283 168.306 3.1815C168.748 2.93017 169.255 2.8045 169.827 2.8045C170.247 2.8045 170.613 2.8695 170.925 2.9995C171.242 3.1295 171.508 3.305 171.725 3.526C171.946 3.747 172.123 4.0005 172.258 4.2865C172.392 4.56817 172.49 4.86933 172.55 5.19C172.611 5.50633 172.641 5.82267 172.641 6.139V10H171.679ZM166.603 10V2.98H167.467V4.709H167.565V10H166.603ZM174.458 1.6475V0.575H175.413V1.6475H174.458ZM174.458 10V2.98H175.413V10H174.458ZM179.982 10.1885C179.158 10.1885 178.48 10.0108 177.947 9.6555C177.418 9.30017 177.093 8.80617 176.972 8.1735L177.947 8.011C178.051 8.40967 178.287 8.72817 178.656 8.9665C179.028 9.2005 179.488 9.3175 180.034 9.3175C180.567 9.3175 180.987 9.207 181.295 8.986C181.602 8.76067 181.756 8.45517 181.756 8.0695C181.756 7.85283 181.706 7.67733 181.607 7.543C181.511 7.40433 181.314 7.2765 181.015 7.1595C180.716 7.0425 180.27 6.90383 179.676 6.7435C179.039 6.57017 178.541 6.39683 178.181 6.2235C177.821 6.05017 177.566 5.85083 177.414 5.6255C177.262 5.39583 177.187 5.11633 177.187 4.787C177.187 4.38833 177.299 4.0395 177.525 3.7405C177.75 3.43717 178.062 3.20317 178.461 3.0385C178.859 2.8695 179.323 2.785 179.852 2.785C180.38 2.785 180.853 2.87167 181.269 3.045C181.689 3.214 182.027 3.45233 182.283 3.76C182.538 4.06767 182.69 4.42517 182.738 4.8325L181.763 5.008C181.698 4.59633 181.492 4.27133 181.145 4.033C180.803 3.79033 180.367 3.66467 179.839 3.656C179.34 3.643 178.935 3.73833 178.623 3.942C178.311 4.14133 178.155 4.40783 178.155 4.7415C178.155 4.92783 178.211 5.08817 178.324 5.2225C178.437 5.3525 178.64 5.476 178.935 5.593C179.234 5.71 179.659 5.83783 180.209 5.9765C180.855 6.14117 181.362 6.3145 181.73 6.4965C182.098 6.6785 182.361 6.893 182.517 7.14C182.673 7.387 182.751 7.6925 182.751 8.0565C182.751 8.7195 182.504 9.24167 182.01 9.623C181.52 10 180.844 10.1885 179.982 10.1885ZM186.925 1.6475V0.575H187.88V1.6475H186.925ZM186.925 10V2.98H187.88V10H186.925ZM192.448 10.1885C191.625 10.1885 190.947 10.0108 190.414 9.6555C189.885 9.30017 189.56 8.80617 189.439 8.1735L190.414 8.011C190.518 8.40967 190.754 8.72817 191.122 8.9665C191.495 9.2005 191.954 9.3175 192.5 9.3175C193.033 9.3175 193.454 9.207 193.761 8.986C194.069 8.76067 194.223 8.45517 194.223 8.0695C194.223 7.85283 194.173 7.67733 194.073 7.543C193.978 7.40433 193.781 7.2765 193.482 7.1595C193.183 7.0425 192.737 6.90383 192.143 6.7435C191.506 6.57017 191.008 6.39683 190.648 6.2235C190.288 6.05017 190.033 5.85083 189.881 5.6255C189.729 5.39583 189.653 5.11633 189.653 4.787C189.653 4.38833 189.766 4.0395 189.991 3.7405C190.217 3.43717 190.529 3.20317 190.927 3.0385C191.326 2.8695 191.79 2.785 192.318 2.785C192.847 2.785 193.319 2.87167 193.735 3.045C194.156 3.214 194.494 3.45233 194.749 3.76C195.005 4.06767 195.157 4.42517 195.204 4.8325L194.229 5.008C194.164 4.59633 193.959 4.27133 193.612 4.033C193.27 3.79033 192.834 3.66467 192.305 3.656C191.807 3.643 191.402 3.73833 191.09 3.942C190.778 4.14133 190.622 4.40783 190.622 4.7415C190.622 4.92783 190.678 5.08817 190.791 5.2225C190.904 5.3525 191.107 5.476 191.402 5.593C191.701 5.71 192.126 5.83783 192.676 5.9765C193.322 6.14117 193.829 6.3145 194.197 6.4965C194.565 6.6785 194.827 6.893 194.983 7.14C195.139 7.387 195.217 7.6925 195.217 8.0565C195.217 8.7195 194.97 9.24167 194.476 9.623C193.987 10 193.311 10.1885 192.448 10.1885ZM200.481 10C200.087 10.0823 199.697 10.1148 199.311 10.0975C198.93 10.0802 198.587 9.99783 198.284 9.8505C197.985 9.70317 197.758 9.4735 197.602 9.1615C197.476 8.9015 197.407 8.63933 197.394 8.375C197.385 8.10633 197.381 7.80083 197.381 7.4585V1.03H198.33V7.4195C198.33 7.71417 198.332 7.96117 198.336 8.1605C198.345 8.3555 198.39 8.52883 198.473 8.6805C198.629 8.97083 198.876 9.14417 199.214 9.2005C199.556 9.25683 199.978 9.24383 200.481 9.1615V10ZM195.879 3.799V2.98H200.481V3.799H195.879ZM204.581 10.195C203.896 10.195 203.302 10.0433 202.8 9.74C202.301 9.43667 201.914 9.00983 201.636 8.4595C201.359 7.90917 201.22 7.2635 201.22 6.5225C201.22 5.7555 201.357 5.0925 201.63 4.5335C201.903 3.9745 202.286 3.54333 202.78 3.24C203.279 2.93667 203.866 2.785 204.542 2.785C205.235 2.785 205.827 2.94533 206.316 3.266C206.806 3.58233 207.176 4.03733 207.428 4.631C207.679 5.22467 207.794 5.93317 207.772 6.7565H206.797V6.4185C206.78 5.5085 206.583 4.82167 206.206 4.358C205.833 3.89433 205.287 3.6625 204.568 3.6625C203.814 3.6625 203.235 3.90733 202.832 4.397C202.434 4.88667 202.234 5.58433 202.234 6.49C202.234 7.374 202.434 8.06083 202.832 8.5505C203.235 9.03583 203.805 9.2785 204.542 9.2785C205.044 9.2785 205.482 9.16367 205.855 8.934C206.232 8.7 206.529 8.36417 206.745 7.9265L207.636 8.271C207.358 8.882 206.949 9.3565 206.407 9.6945C205.87 10.0282 205.261 10.195 204.581 10.195ZM201.896 6.7565V5.957H207.259V6.7565H201.896ZM216.887 10V6.4185C216.887 6.0285 216.85 5.671 216.777 5.346C216.703 5.01667 216.584 4.73067 216.419 4.488C216.259 4.241 216.049 4.05033 215.789 3.916C215.533 3.78167 215.221 3.7145 214.853 3.7145C214.515 3.7145 214.216 3.773 213.956 3.89C213.7 4.007 213.483 4.176 213.306 4.397C213.132 4.61367 213 4.878 212.909 5.19C212.818 5.502 212.773 5.85733 212.773 6.256L212.097 6.1065C212.097 5.38717 212.222 4.78267 212.474 4.293C212.725 3.80333 213.072 3.43283 213.514 3.1815C213.956 2.93017 214.463 2.8045 215.035 2.8045C215.455 2.8045 215.821 2.8695 216.133 2.9995C216.45 3.1295 216.716 3.305 216.933 3.526C217.154 3.747 217.331 4.0005 217.466 4.2865C217.6 4.56817 217.698 4.86933 217.758 5.19C217.819 5.50633 217.849 5.82267 217.849 6.139V10H216.887ZM211.811 10V2.98H212.675V4.709H212.773V10H211.811ZM221.544 10.195C221.016 10.195 220.572 10.0997 220.212 9.909C219.857 9.71833 219.59 9.46483 219.412 9.1485C219.235 8.83217 219.146 8.48767 219.146 8.115C219.146 7.73367 219.222 7.40867 219.373 7.14C219.529 6.867 219.74 6.64383 220.004 6.4705C220.273 6.29717 220.582 6.165 220.933 6.074C221.289 5.98733 221.681 5.9115 222.11 5.8465C222.543 5.77717 222.966 5.71867 223.377 5.671C223.793 5.619 224.157 5.56917 224.469 5.5215L224.131 5.7295C224.144 5.03617 224.01 4.52267 223.728 4.189C223.447 3.85533 222.957 3.6885 222.259 3.6885C221.778 3.6885 221.371 3.79683 221.037 4.0135C220.708 4.23017 220.476 4.5725 220.342 5.0405L219.412 4.7675C219.573 4.13917 219.896 3.65167 220.381 3.305C220.866 2.95833 221.497 2.785 222.272 2.785C222.914 2.785 223.458 2.90633 223.904 3.149C224.355 3.38733 224.673 3.734 224.859 4.189C224.946 4.39267 225.002 4.62017 225.028 4.8715C225.054 5.12283 225.067 5.3785 225.067 5.6385V10H224.216V8.2385L224.463 8.3425C224.225 8.94483 223.854 9.40417 223.351 9.7205C222.849 10.0368 222.246 10.195 221.544 10.195ZM221.655 9.3695C222.101 9.3695 222.491 9.28933 222.825 9.129C223.159 8.96867 223.427 8.74983 223.631 8.4725C223.835 8.19083 223.967 7.8745 224.027 7.5235C224.079 7.29817 224.108 7.05117 224.112 6.7825C224.116 6.5095 224.118 6.30583 224.118 6.1715L224.482 6.36C224.157 6.40333 223.804 6.44667 223.423 6.49C223.046 6.53333 222.673 6.58317 222.305 6.6395C221.941 6.69583 221.612 6.763 221.317 6.841C221.118 6.89733 220.925 6.9775 220.738 7.0815C220.552 7.18117 220.398 7.3155 220.277 7.4845C220.16 7.6535 220.101 7.86367 220.101 8.115C220.101 8.31867 220.151 8.51583 220.251 8.7065C220.355 8.89717 220.52 9.05533 220.745 9.181C220.975 9.30667 221.278 9.3695 221.655 9.3695ZM230.582 10C230.187 10.0823 229.797 10.1148 229.412 10.0975C229.03 10.0802 228.688 9.99783 228.385 9.8505C228.086 9.70317 227.858 9.4735 227.702 9.1615C227.576 8.9015 227.507 8.63933 227.494 8.375C227.485 8.10633 227.481 7.80083 227.481 7.4585V1.03H228.43V7.4195C228.43 7.71417 228.432 7.96117 228.437 8.1605C228.445 8.3555 228.491 8.52883 228.573 8.6805C228.729 8.97083 228.976 9.14417 229.314 9.2005C229.656 9.25683 230.079 9.24383 230.582 9.1615V10ZM225.98 3.799V2.98H230.582V3.799H225.98ZM234.649 10.1755C234.229 10.1755 233.861 10.1105 233.544 9.9805C233.232 9.8505 232.966 9.675 232.745 9.454C232.528 9.233 232.353 8.98167 232.218 8.7C232.084 8.414 231.986 8.11283 231.926 7.7965C231.865 7.47583 231.835 7.15733 231.835 6.841V2.98H232.797V6.5615C232.797 6.94717 232.834 7.30467 232.907 7.634C232.981 7.96333 233.098 8.2515 233.258 8.4985C233.423 8.74117 233.633 8.92967 233.889 9.064C234.149 9.19833 234.463 9.2655 234.831 9.2655C235.169 9.2655 235.466 9.207 235.722 9.09C235.982 8.973 236.198 8.80617 236.372 8.5895C236.549 8.3685 236.684 8.102 236.775 7.79C236.866 7.47367 236.911 7.11833 236.911 6.724L237.587 6.8735C237.587 7.59283 237.462 8.19733 237.21 8.687C236.959 9.17667 236.612 9.54717 236.17 9.7985C235.728 10.0498 235.221 10.1755 234.649 10.1755ZM237.009 10V8.271H236.911V2.98H237.867V10H237.009ZM242.303 10.1885C241.48 10.1885 240.801 10.0108 240.268 9.6555C239.74 9.30017 239.415 8.80617 239.293 8.1735L240.268 8.011C240.372 8.40967 240.609 8.72817 240.977 8.9665C241.35 9.2005 241.809 9.3175 242.355 9.3175C242.888 9.3175 243.308 9.207 243.616 8.986C243.924 8.76067 244.077 8.45517 244.077 8.0695C244.077 7.85283 244.028 7.67733 243.928 7.543C243.833 7.40433 243.635 7.2765 243.336 7.1595C243.037 7.0425 242.591 6.90383 241.997 6.7435C241.36 6.57017 240.862 6.39683 240.502 6.2235C240.143 6.05017 239.887 5.85083 239.735 5.6255C239.584 5.39583 239.508 5.11633 239.508 4.787C239.508 4.38833 239.621 4.0395 239.846 3.7405C240.071 3.43717 240.383 3.20317 240.782 3.0385C241.181 2.8695 241.644 2.785 242.173 2.785C242.702 2.785 243.174 2.87167 243.59 3.045C244.01 3.214 244.348 3.45233 244.604 3.76C244.86 4.06767 245.011 4.42517 245.059 4.8325L244.084 5.008C244.019 4.59633 243.813 4.27133 243.466 4.033C243.124 3.79033 242.689 3.66467 242.16 3.656C241.662 3.643 241.256 3.73833 240.944 3.942C240.632 4.14133 240.476 4.40783 240.476 4.7415C240.476 4.92783 240.533 5.08817 240.645 5.2225C240.758 5.3525 240.962 5.476 241.256 5.593C241.555 5.71 241.98 5.83783 242.53 5.9765C243.176 6.14117 243.683 6.3145 244.051 6.4965C244.42 6.6785 244.682 6.893 244.838 7.14C244.994 7.387 245.072 7.6925 245.072 8.0565C245.072 8.7195 244.825 9.24167 244.331 9.623C243.841 10 243.165 10.1885 242.303 10.1885ZM3.8805 30.195C3.19583 30.195 2.60217 30.0433 2.0995 29.74C1.60117 29.4367 1.21333 29.0098 0.936 28.4595C0.658667 27.9092 0.52 27.2635 0.52 26.5225C0.52 25.7555 0.6565 25.0925 0.9295 24.5335C1.2025 23.9745 1.586 23.5433 2.08 23.24C2.57833 22.9367 3.1655 22.785 3.8415 22.785C4.53483 22.785 5.12633 22.9453 5.616 23.266C6.10567 23.5823 6.47617 24.0373 6.7275 24.631C6.97883 25.2247 7.09367 25.9332 7.072 26.7565H6.097V26.4185C6.07967 25.5085 5.8825 24.8217 5.5055 24.358C5.13283 23.8943 4.58683 23.6625 3.8675 23.6625C3.1135 23.6625 2.535 23.9073 2.132 24.397C1.73333 24.8867 1.534 25.5843 1.534 26.49C1.534 27.374 1.73333 28.0608 2.132 28.5505C2.535 29.0358 3.10483 29.2785 3.8415 29.2785C4.34417 29.2785 4.78183 29.1637 5.1545 28.934C5.5315 28.7 5.82833 28.3642 6.045 27.9265L6.9355 28.271C6.65817 28.882 6.24867 29.3565 5.707 29.6945C5.16967 30.0282 4.56083 30.195 3.8805 30.195ZM1.196 26.7565V25.957H6.5585V26.7565H1.196ZM8.51449 30V22.98H9.37249V24.67L9.20349 24.449C9.28149 24.241 9.38333 24.0503 9.50899 23.877C9.63466 23.6993 9.77116 23.5542 9.91849 23.4415C10.1005 23.2812 10.3128 23.1598 10.5555 23.0775C10.7982 22.9908 11.043 22.941 11.29 22.928C11.537 22.9107 11.7623 22.928 11.966 22.98V23.877C11.7103 23.812 11.4308 23.7968 11.1275 23.8315C10.8242 23.8662 10.5447 23.9875 10.289 24.1955C10.055 24.3775 9.87949 24.5963 9.76249 24.852C9.64549 25.1033 9.56749 25.372 9.52849 25.658C9.48949 25.9397 9.46999 26.2192 9.46999 26.4965V30H8.51449ZM13.1991 30V22.98H14.0571V24.67L13.8881 24.449C13.9661 24.241 14.0679 24.0503 14.1936 23.877C14.3192 23.6993 14.4557 23.5542 14.6031 23.4415C14.7851 23.2812 14.9974 23.1598 15.2401 23.0775C15.4827 22.9908 15.7276 22.941 15.9746 22.928C16.2216 22.9107 16.4469 22.928 16.6506 22.98V23.877C16.3949 23.812 16.1154 23.7968 15.8121 23.8315C15.5087 23.8662 15.2292 23.9875 14.9736 24.1955C14.7396 24.3775 14.5641 24.5963 14.4471 24.852C14.3301 25.1033 14.2521 25.372 14.2131 25.658C14.1741 25.9397 14.1546 26.2192 14.1546 26.4965V30H13.1991ZM20.6882 30.195C19.9905 30.195 19.3947 30.0368 18.9007 29.7205C18.4067 29.4042 18.0275 28.9665 17.7632 28.4075C17.4988 27.8485 17.3667 27.2072 17.3667 26.4835C17.3667 25.7468 17.501 25.1012 17.7697 24.5465C18.0383 23.9918 18.4197 23.5607 18.9137 23.253C19.412 22.941 20.0035 22.785 20.6882 22.785C21.3902 22.785 21.9882 22.9432 22.4822 23.2595C22.9805 23.5715 23.3597 24.007 23.6197 24.566C23.884 25.1207 24.0162 25.7598 24.0162 26.4835C24.0162 27.2202 23.884 27.868 23.6197 28.427C23.3553 28.9817 22.974 29.415 22.4757 29.727C21.9773 30.039 21.3815 30.195 20.6882 30.195ZM20.6882 29.2785C21.4682 29.2785 22.0488 29.0207 22.4302 28.505C22.8115 27.985 23.0022 27.3112 23.0022 26.4835C23.0022 25.6342 22.8093 24.9582 22.4237 24.4555C22.0423 23.9528 21.4638 23.7015 20.6882 23.7015C20.1638 23.7015 19.7305 23.8207 19.3882 24.059C19.0502 24.293 18.7967 24.6202 18.6277 25.0405C18.463 25.4565 18.3807 25.9375 18.3807 26.4835C18.3807 27.3285 18.5757 28.0067 18.9657 28.518C19.3557 29.025 19.9298 29.2785 20.6882 29.2785ZM25.45 30V22.98H26.308V24.67L26.139 24.449C26.217 24.241 26.3189 24.0503 26.4445 23.877C26.5702 23.6993 26.7067 23.5542 26.854 23.4415C27.036 23.2812 27.2484 23.1598 27.491 23.0775C27.7337 22.9908 27.9785 22.941 28.2255 22.928C28.4725 22.9107 28.6979 22.928 28.9015 22.98V23.877C28.6459 23.812 28.3664 23.7968 28.063 23.8315C27.7597 23.8662 27.4802 23.9875 27.2245 24.1955C26.9905 24.3775 26.815 24.5963 26.698 24.852C26.581 25.1033 26.503 25.372 26.464 25.658C26.425 25.9397 26.4055 26.2192 26.4055 26.4965V30H25.45ZM35.3566 30.1885C34.5333 30.1885 33.8551 30.0108 33.3221 29.6555C32.7935 29.3002 32.4685 28.8062 32.3471 28.1735L33.3221 28.011C33.4261 28.4097 33.6623 28.7282 34.0306 28.9665C34.4033 29.2005 34.8626 29.3175 35.4086 29.3175C35.9416 29.3175 36.362 29.207 36.6696 28.986C36.9773 28.7607 37.1311 28.4552 37.1311 28.0695C37.1311 27.8528 37.0813 27.6773 36.9816 27.543C36.8863 27.4043 36.6891 27.2765 36.3901 27.1595C36.0911 27.0425 35.6448 26.9038 35.0511 26.7435C34.4141 26.5702 33.9158 26.3968 33.5561 26.2235C33.1965 26.0502 32.9408 25.8508 32.7891 25.6255C32.6375 25.3958 32.5616 25.1163 32.5616 24.787C32.5616 24.3883 32.6743 24.0395 32.8996 23.7405C33.125 23.4372 33.437 23.2032 33.8356 23.0385C34.2343 22.8695 34.698 22.785 35.2266 22.785C35.7553 22.785 36.2276 22.8717 36.6436 23.045C37.064 23.214 37.402 23.4523 37.6576 23.76C37.9133 24.0677 38.065 24.4252 38.1126 24.8325L37.1376 25.008C37.0726 24.5963 36.8668 24.2713 36.5201 24.033C36.1778 23.7903 35.7423 23.6647 35.2136 23.656C34.7153 23.643 34.3101 23.7383 33.9981 23.942C33.6861 24.1413 33.5301 24.4078 33.5301 24.7415C33.5301 24.9278 33.5865 25.0882 33.6991 25.2225C33.8118 25.3525 34.0155 25.476 34.3101 25.593C34.6091 25.71 35.0338 25.8378 35.5841 25.9765C36.2298 26.1412 36.7368 26.3145 37.1051 26.4965C37.4735 26.6785 37.7356 26.893 37.8916 27.14C38.0476 27.387 38.1256 27.6925 38.1256 28.0565C38.1256 28.7195 37.8786 29.2417 37.3846 29.623C36.895 30 36.219 30.1885 35.3566 30.1885ZM39.6972 21.6475V20.575H40.6527V21.6475H39.6972ZM39.6972 30V22.98H40.6527V30H39.6972ZM46.4234 30C46.0291 30.0823 45.6391 30.1148 45.2534 30.0975C44.8721 30.0802 44.5297 29.9978 44.2264 29.8505C43.9274 29.7032 43.6999 29.4735 43.5439 29.1615C43.4182 28.9015 43.3489 28.6393 43.3359 28.375C43.3272 28.1063 43.3229 27.8008 43.3229 27.4585V21.03H44.2719V27.4195C44.2719 27.7142 44.2741 27.9612 44.2784 28.1605C44.2871 28.3555 44.3326 28.5288 44.4149 28.6805C44.5709 28.9708 44.8179 29.1442 45.1559 29.2005C45.4982 29.2568 45.9207 29.2438 46.4234 29.1615V30ZM41.8214 23.799V22.98H46.4234V23.799H41.8214ZM52.307 30L49.759 22.98H50.7275L52.801 28.752L54.8615 22.98H55.843L53.295 30H52.307ZM59.6882 30.195C58.9905 30.195 58.3947 30.0368 57.9007 29.7205C57.4067 29.4042 57.0275 28.9665 56.7632 28.4075C56.4988 27.8485 56.3667 27.2072 56.3667 26.4835C56.3667 25.7468 56.501 25.1012 56.7697 24.5465C57.0383 23.9918 57.4197 23.5607 57.9137 23.253C58.412 22.941 59.0035 22.785 59.6882 22.785C60.3902 22.785 60.9882 22.9432 61.4822 23.2595C61.9805 23.5715 62.3597 24.007 62.6197 24.566C62.884 25.1207 63.0162 25.7598 63.0162 26.4835C63.0162 27.2202 62.884 27.868 62.6197 28.427C62.3553 28.9817 61.974 29.415 61.4757 29.727C60.9773 30.039 60.3815 30.195 59.6882 30.195ZM59.6882 29.2785C60.4682 29.2785 61.0488 29.0207 61.4302 28.505C61.8115 27.985 62.0022 27.3112 62.0022 26.4835C62.0022 25.6342 61.8093 24.9582 61.4237 24.4555C61.0423 23.9528 60.4638 23.7015 59.6882 23.7015C59.1638 23.7015 58.7305 23.8207 58.3882 24.059C58.0502 24.293 57.7967 24.6202 57.6277 25.0405C57.463 25.4565 57.3807 25.9375 57.3807 26.4835C57.3807 27.3285 57.5757 28.0067 57.9657 28.518C58.3557 29.025 58.9298 29.2785 59.6882 29.2785ZM64.58 30V20.445H65.5355V30H64.58ZM70.1687 30.1755C69.7484 30.1755 69.3801 30.1105 69.0637 29.9805C68.7517 29.8505 68.4852 29.675 68.2642 29.454C68.0476 29.233 67.8721 28.9817 67.7377 28.7C67.6034 28.414 67.5059 28.1128 67.4452 27.7965C67.3846 27.4758 67.3542 27.1573 67.3542 26.841V22.98H68.3162V26.5615C68.3162 26.9472 68.3531 27.3047 68.4267 27.634C68.5004 27.9633 68.6174 28.2515 68.7777 28.4985C68.9424 28.7412 69.1526 28.9297 69.4082 29.064C69.6682 29.1983 69.9824 29.2655 70.3507 29.2655C70.6887 29.2655 70.9856 29.207 71.2412 29.09C71.5012 28.973 71.7179 28.8062 71.8912 28.5895C72.0689 28.3685 72.2032 28.102 72.2942 27.79C72.3852 27.4737 72.4307 27.1183 72.4307 26.724L73.1067 26.8735C73.1067 27.5928 72.9811 28.1973 72.7297 28.687C72.4784 29.1767 72.1317 29.5472 71.6897 29.7985C71.2477 30.0498 70.7407 30.1755 70.1687 30.1755ZM72.5282 30V28.271H72.4307V22.98H73.3862V30H72.5282ZM78.3555 30.195C77.7098 30.195 77.1638 30.0325 76.7175 29.7075C76.2711 29.3782 75.9331 28.934 75.7035 28.375C75.4738 27.8117 75.359 27.1812 75.359 26.4835C75.359 25.7728 75.4738 25.1402 75.7035 24.5855C75.9375 24.0265 76.2798 23.5867 76.7305 23.266C77.1811 22.9453 77.7358 22.785 78.3945 22.785C79.0358 22.785 79.5861 22.9475 80.0455 23.2725C80.5048 23.5975 80.8558 24.0395 81.0985 24.5985C81.3455 25.1575 81.469 25.7858 81.469 26.4835C81.469 27.1855 81.3455 27.816 81.0985 28.375C80.8515 28.934 80.4961 29.3782 80.0325 29.7075C79.5688 30.0325 79.0098 30.195 78.3555 30.195ZM75.1965 33.12V22.98H76.0545V28.2645H76.1585V33.12H75.1965ZM78.258 29.3045C78.7476 29.3045 79.155 29.181 79.48 28.934C79.805 28.687 80.0476 28.3512 80.208 27.9265C80.3726 27.4975 80.455 27.0165 80.455 26.4835C80.455 25.9548 80.3748 25.4782 80.2145 25.0535C80.0541 24.6288 79.8093 24.293 79.48 24.046C79.155 23.799 78.7411 23.6755 78.2385 23.6755C77.7488 23.6755 77.3415 23.7947 77.0165 24.033C76.6958 24.2713 76.4553 24.6028 76.295 25.0275C76.1346 25.4478 76.0545 25.9332 76.0545 26.4835C76.0545 27.0252 76.1346 27.5105 76.295 27.9395C76.4553 28.3642 76.698 28.6978 77.023 28.9405C77.348 29.1832 77.7596 29.3045 78.258 29.3045ZM86.7183 30C86.324 30.0823 85.934 30.1148 85.5483 30.0975C85.167 30.0802 84.8247 29.9978 84.5213 29.8505C84.2223 29.7032 83.9948 29.4735 83.8388 29.1615C83.7132 28.9015 83.6438 28.6393 83.6308 28.375C83.6222 28.1063 83.6178 27.8008 83.6178 27.4585V21.03H84.5668V27.4195C84.5668 27.7142 84.569 27.9612 84.5733 28.1605C84.582 28.3555 84.6275 28.5288 84.7098 28.6805C84.8658 28.9708 85.1128 29.1442 85.4508 29.2005C85.7932 29.2568 86.2157 29.2438 86.7183 29.1615V30ZM82.1163 23.799V22.98H86.7183V23.799H82.1163ZM90.1099 30.195C89.5812 30.195 89.1371 30.0997 88.7774 29.909C88.4221 29.7183 88.1556 29.4648 87.9779 29.1485C87.8002 28.8322 87.7114 28.4877 87.7114 28.115C87.7114 27.7337 87.7872 27.4087 87.9389 27.14C88.0949 26.867 88.3051 26.6438 88.5694 26.4705C88.8381 26.2972 89.1479 26.165 89.4989 26.074C89.8542 25.9873 90.2464 25.9115 90.6754 25.8465C91.1087 25.7772 91.5312 25.7187 91.9429 25.671C92.3589 25.619 92.7229 25.5692 93.0349 25.5215L92.6969 25.7295C92.7099 25.0362 92.5756 24.5227 92.2939 24.189C92.0122 23.8553 91.5226 23.6885 90.8249 23.6885C90.3439 23.6885 89.9366 23.7968 89.6029 24.0135C89.2736 24.2302 89.0417 24.5725 88.9074 25.0405L87.9779 24.7675C88.1382 24.1392 88.4611 23.6517 88.9464 23.305C89.4317 22.9583 90.0622 22.785 90.8379 22.785C91.4792 22.785 92.0231 22.9063 92.4694 23.149C92.9201 23.3873 93.2386 23.734 93.4249 24.189C93.5116 24.3927 93.5679 24.6202 93.5939 24.8715C93.6199 25.1228 93.6329 25.3785 93.6329 25.6385V30H92.7814V28.2385L93.0284 28.3425C92.7901 28.9448 92.4196 29.4042 91.9169 29.7205C91.4142 30.0368 90.8119 30.195 90.1099 30.195ZM90.2204 29.3695C90.6667 29.3695 91.0567 29.2893 91.3904 29.129C91.7241 28.9687 91.9927 28.7498 92.1964 28.4725C92.4001 28.1908 92.5322 27.8745 92.5929 27.5235C92.6449 27.2982 92.6731 27.0512 92.6774 26.7825C92.6817 26.5095 92.6839 26.3058 92.6839 26.1715L93.0479 26.36C92.7229 26.4033 92.3697 26.4467 91.9884 26.49C91.6114 26.5333 91.2387 26.5832 90.8704 26.6395C90.5064 26.6958 90.1771 26.763 89.8824 26.841C89.6831 26.8973 89.4902 26.9775 89.3039 27.0815C89.1176 27.1812 88.9637 27.3155 88.8424 27.4845C88.7254 27.6535 88.6669 27.8637 88.6669 28.115C88.6669 28.3187 88.7167 28.5158 88.8164 28.7065C88.9204 28.8972 89.0851 29.0553 89.3104 29.181C89.5401 29.3067 89.8434 29.3695 90.2204 29.3695ZM99.147 30C98.7527 30.0823 98.3627 30.1148 97.977 30.0975C97.5957 30.0802 97.2534 29.9978 96.95 29.8505C96.651 29.7032 96.4235 29.4735 96.2675 29.1615C96.1419 28.9015 96.0725 28.6393 96.0595 28.375C96.0509 28.1063 96.0465 27.8008 96.0465 27.4585V21.03H96.9955V27.4195C96.9955 27.7142 96.9977 27.9612 97.002 28.1605C97.0107 28.3555 97.0562 28.5288 97.1385 28.6805C97.2945 28.9708 97.5415 29.1442 97.8795 29.2005C98.2219 29.2568 98.6444 29.2438 99.147 29.1615V30ZM94.545 23.799V22.98H99.147V23.799H94.545ZM103.247 30.195C102.562 30.195 101.968 30.0433 101.466 29.74C100.967 29.4367 100.58 29.0098 100.302 28.4595C100.025 27.9092 99.8862 27.2635 99.8862 26.5225C99.8862 25.7555 100.023 25.0925 100.296 24.5335C100.569 23.9745 100.952 23.5433 101.446 23.24C101.945 22.9367 102.532 22.785 103.208 22.785C103.901 22.785 104.493 22.9453 104.982 23.266C105.472 23.5823 105.842 24.0373 106.094 24.631C106.345 25.2247 106.46 25.9332 106.438 26.7565H105.463V26.4185C105.446 25.5085 105.249 24.8217 104.872 24.358C104.499 23.8943 103.953 23.6625 103.234 23.6625C102.48 23.6625 101.901 23.9073 101.498 24.397C101.1 24.8867 100.9 25.5843 100.9 26.49C100.9 27.374 101.1 28.0608 101.498 28.5505C101.901 29.0358 102.471 29.2785 103.208 29.2785C103.71 29.2785 104.148 29.1637 104.521 28.934C104.898 28.7 105.195 28.3642 105.411 27.9265L106.302 28.271C106.024 28.882 105.615 29.3565 105.073 29.6945C104.536 30.0282 103.927 30.195 103.247 30.195ZM100.562 26.7565V25.957H105.925V26.7565H100.562ZM116.062 30L116.069 25.3915C116.069 24.8498 115.917 24.4252 115.614 24.1175C115.315 23.8055 114.933 23.6495 114.47 23.6495C114.205 23.6495 113.948 23.7102 113.696 23.8315C113.445 23.9528 113.237 24.1478 113.072 24.4165C112.912 24.6852 112.832 25.0362 112.832 25.4695L112.266 25.307C112.253 24.8043 112.351 24.3645 112.559 23.9875C112.771 23.6105 113.061 23.318 113.43 23.11C113.802 22.8977 114.223 22.7915 114.691 22.7915C115.397 22.7915 115.963 23.0103 116.387 23.448C116.812 23.8813 117.024 24.4685 117.024 25.2095L117.018 30H116.062ZM107.684 30V22.98H108.542V24.709H108.646V30H107.684ZM111.883 30L111.889 25.4565C111.889 24.8975 111.74 24.4577 111.441 24.137C111.146 23.812 110.756 23.6495 110.271 23.6495C109.785 23.6495 109.393 23.8163 109.094 24.15C108.795 24.4793 108.646 24.9192 108.646 25.4695L108.074 25.1575C108.074 24.7068 108.18 24.3038 108.392 23.9485C108.605 23.5888 108.895 23.3072 109.263 23.1035C109.632 22.8955 110.05 22.7915 110.518 22.7915C110.964 22.7915 111.361 22.8868 111.707 23.0775C112.058 23.2682 112.333 23.5455 112.533 23.9095C112.732 24.2735 112.832 24.7155 112.832 25.2355L112.825 30H111.883ZM123.321 30.195C122.792 30.195 122.348 30.0997 121.988 29.909C121.633 29.7183 121.367 29.4648 121.189 29.1485C121.011 28.8322 120.922 28.4877 120.922 28.115C120.922 27.7337 120.998 27.4087 121.15 27.14C121.306 26.867 121.516 26.6438 121.78 26.4705C122.049 26.2972 122.359 26.165 122.71 26.074C123.065 25.9873 123.457 25.9115 123.886 25.8465C124.32 25.7772 124.742 25.7187 125.154 25.671C125.57 25.619 125.934 25.5692 126.246 25.5215L125.908 25.7295C125.921 25.0362 125.787 24.5227 125.505 24.189C125.223 23.8553 124.734 23.6885 124.036 23.6885C123.555 23.6885 123.148 23.7968 122.814 24.0135C122.485 24.2302 122.253 24.5725 122.118 25.0405L121.189 24.7675C121.349 24.1392 121.672 23.6517 122.157 23.305C122.643 22.9583 123.273 22.785 124.049 22.785C124.69 22.785 125.234 22.9063 125.68 23.149C126.131 23.3873 126.45 23.734 126.636 24.189C126.723 24.3927 126.779 24.6202 126.805 24.8715C126.831 25.1228 126.844 25.3785 126.844 25.6385V30H125.992V28.2385L126.239 28.3425C126.001 28.9448 125.631 29.4042 125.128 29.7205C124.625 30.0368 124.023 30.195 123.321 30.195ZM123.431 29.3695C123.878 29.3695 124.268 29.2893 124.601 29.129C124.935 28.9687 125.204 28.7498 125.407 28.4725C125.611 28.1908 125.743 27.8745 125.804 27.5235C125.856 27.2982 125.884 27.0512 125.888 26.7825C125.893 26.5095 125.895 26.3058 125.895 26.1715L126.259 26.36C125.934 26.4033 125.581 26.4467 125.199 26.49C124.822 26.5333 124.45 26.5832 124.081 26.6395C123.717 26.6958 123.388 26.763 123.093 26.841C122.894 26.8973 122.701 26.9775 122.515 27.0815C122.329 27.1812 122.175 27.3155 122.053 27.4845C121.936 27.6535 121.878 27.8637 121.878 28.115C121.878 28.3187 121.928 28.5158 122.027 28.7065C122.131 28.8972 122.296 29.0553 122.521 29.181C122.751 29.3067 123.054 29.3695 123.431 29.3695ZM131.448 30.195C130.742 30.195 130.144 30.0368 129.654 29.7205C129.164 29.4042 128.792 28.9687 128.536 28.414C128.285 27.855 128.155 27.2137 128.146 26.49C128.155 25.7533 128.289 25.1077 128.549 24.553C128.809 23.994 129.184 23.5607 129.673 23.253C130.163 22.941 130.757 22.785 131.454 22.785C132.165 22.785 132.783 22.9583 133.307 23.305C133.836 23.6517 134.197 24.1262 134.392 24.7285L133.456 25.0275C133.292 24.6072 133.03 24.2822 132.67 24.0525C132.315 23.8185 131.907 23.7015 131.448 23.7015C130.932 23.7015 130.505 23.8207 130.167 24.059C129.829 24.293 129.578 24.6202 129.413 25.0405C129.249 25.4608 129.164 25.944 129.16 26.49C129.169 27.3307 129.364 28.0067 129.745 28.518C130.126 29.025 130.694 29.2785 131.448 29.2785C131.925 29.2785 132.33 29.1702 132.663 28.9535C133.001 28.7325 133.257 28.4118 133.43 27.9915L134.392 28.2775C134.132 28.9015 133.751 29.3782 133.248 29.7075C132.746 30.0325 132.146 30.195 131.448 30.195ZM138.456 30.195C137.749 30.195 137.151 30.0368 136.662 29.7205C136.172 29.4042 135.799 28.9687 135.544 28.414C135.292 27.855 135.162 27.2137 135.154 26.49C135.162 25.7533 135.297 25.1077 135.557 24.553C135.817 23.994 136.192 23.5607 136.681 23.253C137.171 22.941 137.765 22.785 138.462 22.785C139.173 22.785 139.79 22.9583 140.315 23.305C140.843 23.6517 141.205 24.1262 141.4 24.7285L140.464 25.0275C140.3 24.6072 140.037 24.2822 139.678 24.0525C139.322 23.8185 138.915 23.7015 138.456 23.7015C137.94 23.7015 137.513 23.8207 137.175 24.059C136.837 24.293 136.586 24.6202 136.421 25.0405C136.257 25.4608 136.172 25.944 136.168 26.49C136.176 27.3307 136.371 28.0067 136.753 28.518C137.134 29.025 137.702 29.2785 138.456 29.2785C138.932 29.2785 139.338 29.1702 139.671 28.9535C140.009 28.7325 140.265 28.4118 140.438 27.9915L141.4 28.2775C141.14 28.9015 140.759 29.3782 140.256 29.7075C139.754 30.0325 139.153 30.195 138.456 30.195ZM145.427 30.1755C145.006 30.1755 144.638 30.1105 144.322 29.9805C144.01 29.8505 143.743 29.675 143.522 29.454C143.305 29.233 143.13 28.9817 142.996 28.7C142.861 28.414 142.764 28.1128 142.703 27.7965C142.642 27.4758 142.612 27.1573 142.612 26.841V22.98H143.574V26.5615C143.574 26.9472 143.611 27.3047 143.685 27.634C143.758 27.9633 143.875 28.2515 144.036 28.4985C144.2 28.7412 144.41 28.9297 144.666 29.064C144.926 29.1983 145.24 29.2655 145.609 29.2655C145.947 29.2655 146.243 29.207 146.499 29.09C146.759 28.973 146.976 28.8062 147.149 28.5895C147.327 28.3685 147.461 28.102 147.552 27.79C147.643 27.4737 147.689 27.1183 147.689 26.724L148.365 26.8735C148.365 27.5928 148.239 28.1973 147.988 28.687C147.736 29.1767 147.39 29.5472 146.948 29.7985C146.506 30.0498 145.999 30.1755 145.427 30.1755ZM147.786 30V28.271H147.689V22.98H148.644V30H147.786ZM153.08 30.1885C152.257 30.1885 151.579 30.0108 151.046 29.6555C150.517 29.3002 150.192 28.8062 150.071 28.1735L151.046 28.011C151.15 28.4097 151.386 28.7282 151.754 28.9665C152.127 29.2005 152.586 29.3175 153.132 29.3175C153.665 29.3175 154.086 29.207 154.393 28.986C154.701 28.7607 154.855 28.4552 154.855 28.0695C154.855 27.8528 154.805 27.6773 154.705 27.543C154.61 27.4043 154.413 27.2765 154.114 27.1595C153.815 27.0425 153.368 26.9038 152.775 26.7435C152.138 26.5702 151.639 26.3968 151.28 26.2235C150.92 26.0502 150.664 25.8508 150.513 25.6255C150.361 25.3958 150.285 25.1163 150.285 24.787C150.285 24.3883 150.398 24.0395 150.623 23.7405C150.849 23.4372 151.161 23.2032 151.559 23.0385C151.958 22.8695 152.422 22.785 152.95 22.785C153.479 22.785 153.951 22.8717 154.367 23.045C154.788 23.214 155.126 23.4523 155.381 23.76C155.637 24.0677 155.789 24.4252 155.836 24.8325L154.861 25.008C154.796 24.5963 154.59 24.2713 154.244 24.033C153.901 23.7903 153.466 23.6647 152.937 23.656C152.439 23.643 152.034 23.7383 151.722 23.942C151.41 24.1413 151.254 24.4078 151.254 24.7415C151.254 24.9278 151.31 25.0882 151.423 25.2225C151.535 25.3525 151.739 25.476 152.034 25.593C152.333 25.71 152.757 25.8378 153.308 25.9765C153.953 26.1412 154.46 26.3145 154.829 26.4965C155.197 26.6785 155.459 26.893 155.615 27.14C155.771 27.387 155.849 27.6925 155.849 28.0565C155.849 28.7195 155.602 29.2417 155.108 29.623C154.619 30 153.943 30.1885 153.08 30.1885ZM159.299 30.195C158.771 30.195 158.327 30.0997 157.967 29.909C157.612 29.7183 157.345 29.4648 157.167 29.1485C156.99 28.8322 156.901 28.4877 156.901 28.115C156.901 27.7337 156.977 27.4087 157.128 27.14C157.284 26.867 157.495 26.6438 157.759 26.4705C158.028 26.2972 158.337 26.165 158.688 26.074C159.044 25.9873 159.436 25.9115 159.865 25.8465C160.298 25.7772 160.721 25.7187 161.132 25.671C161.548 25.619 161.912 25.5692 162.224 25.5215L161.886 25.7295C161.899 25.0362 161.765 24.5227 161.483 24.189C161.202 23.8553 160.712 23.6885 160.014 23.6885C159.533 23.6885 159.126 23.7968 158.792 24.0135C158.463 24.2302 158.231 24.5725 158.097 25.0405L157.167 24.7675C157.328 24.1392 157.651 23.6517 158.136 23.305C158.621 22.9583 159.252 22.785 160.027 22.785C160.669 22.785 161.213 22.9063 161.659 23.149C162.11 23.3873 162.428 23.734 162.614 24.189C162.701 24.3927 162.757 24.6202 162.783 24.8715C162.809 25.1228 162.822 25.3785 162.822 25.6385V30H161.971V28.2385L162.218 28.3425C161.98 28.9448 161.609 29.4042 161.106 29.7205C160.604 30.0368 160.001 30.195 159.299 30.195ZM159.41 29.3695C159.856 29.3695 160.246 29.2893 160.58 29.129C160.914 28.9687 161.182 28.7498 161.386 28.4725C161.59 28.1908 161.722 27.8745 161.782 27.5235C161.834 27.2982 161.863 27.0512 161.867 26.7825C161.871 26.5095 161.873 26.3058 161.873 26.1715L162.237 26.36C161.912 26.4033 161.559 26.4467 161.178 26.49C160.801 26.5333 160.428 26.5832 160.06 26.6395C159.696 26.6958 159.367 26.763 159.072 26.841C158.873 26.8973 158.68 26.9775 158.493 27.0815C158.307 27.1812 158.153 27.3155 158.032 27.4845C157.915 27.6535 157.856 27.8637 157.856 28.115C157.856 28.3187 157.906 28.5158 158.006 28.7065C158.11 28.8972 158.275 29.0553 158.5 29.181C158.73 29.3067 159.033 29.3695 159.41 29.3695ZM169.584 30V26.4185C169.584 26.0285 169.548 25.671 169.474 25.346C169.4 25.0167 169.281 24.7307 169.116 24.488C168.956 24.241 168.746 24.0503 168.486 23.916C168.23 23.7817 167.918 23.7145 167.55 23.7145C167.212 23.7145 166.913 23.773 166.653 23.89C166.397 24.007 166.181 24.176 166.003 24.397C165.83 24.6137 165.697 24.878 165.606 25.19C165.515 25.502 165.47 25.8573 165.47 26.256L164.794 26.1065C164.794 25.3872 164.92 24.7827 165.171 24.293C165.422 23.8033 165.769 23.4328 166.211 23.1815C166.653 22.9302 167.16 22.8045 167.732 22.8045C168.152 22.8045 168.518 22.8695 168.83 22.9995C169.147 23.1295 169.413 23.305 169.63 23.526C169.851 23.747 170.029 24.0005 170.163 24.2865C170.297 24.5682 170.395 24.8693 170.455 25.19C170.516 25.5063 170.546 25.8227 170.546 26.139V30H169.584ZM164.508 30V22.98H165.372V24.709H165.47V30H164.508ZM176.055 30C175.661 30.0823 175.271 30.1148 174.885 30.0975C174.504 30.0802 174.162 29.9978 173.858 29.8505C173.559 29.7032 173.332 29.4735 173.176 29.1615C173.05 28.9015 172.981 28.6393 172.968 28.375C172.959 28.1063 172.955 27.8008 172.955 27.4585V21.03H173.904V27.4195C173.904 27.7142 173.906 27.9612 173.91 28.1605C173.919 28.3555 173.964 28.5288 174.047 28.6805C174.203 28.9708 174.45 29.1442 174.788 29.2005C175.13 29.2568 175.553 29.2438 176.055 29.1615V30ZM171.453 23.799V22.98H176.055V23.799H171.453ZM177.568 21.6475V20.575H178.524V21.6475H177.568ZM177.568 30V22.98H178.524V30H177.568ZM183.157 30.1755C182.737 30.1755 182.368 30.1105 182.052 29.9805C181.74 29.8505 181.474 29.675 181.253 29.454C181.036 29.233 180.86 28.9817 180.726 28.7C180.592 28.414 180.494 28.1128 180.434 27.7965C180.373 27.4758 180.343 27.1573 180.343 26.841V22.98H181.305V26.5615C181.305 26.9472 181.341 27.3047 181.415 27.634C181.489 27.9633 181.606 28.2515 181.766 28.4985C181.931 28.7412 182.141 28.9297 182.397 29.064C182.657 29.1983 182.971 29.2655 183.339 29.2655C183.677 29.2655 183.974 29.207 184.23 29.09C184.49 28.973 184.706 28.8062 184.88 28.5895C185.057 28.3685 185.192 28.102 185.283 27.79C185.374 27.4737 185.419 27.1183 185.419 26.724L186.095 26.8735C186.095 27.5928 185.969 28.1973 185.718 28.687C185.467 29.1767 185.12 29.5472 184.678 29.7985C184.236 30.0498 183.729 30.1755 183.157 30.1755ZM185.517 30V28.271H185.419V22.98H186.375V30H185.517ZM196.563 30L196.57 25.3915C196.57 24.8498 196.418 24.4252 196.115 24.1175C195.816 23.8055 195.434 23.6495 194.971 23.6495C194.706 23.6495 194.449 23.7102 194.197 23.8315C193.946 23.9528 193.738 24.1478 193.573 24.4165C193.413 24.6852 193.333 25.0362 193.333 25.4695L192.767 25.307C192.754 24.8043 192.852 24.3645 193.06 23.9875C193.272 23.6105 193.562 23.318 193.931 23.11C194.303 22.8977 194.724 22.7915 195.192 22.7915C195.898 22.7915 196.464 23.0103 196.888 23.448C197.313 23.8813 197.525 24.4685 197.525 25.2095L197.519 30H196.563ZM188.185 30V22.98H189.043V24.709H189.147V30H188.185ZM192.384 30L192.39 25.4565C192.39 24.8975 192.241 24.4577 191.942 24.137C191.647 23.812 191.257 23.6495 190.772 23.6495C190.286 23.6495 189.894 23.8163 189.595 24.15C189.296 24.4793 189.147 24.9192 189.147 25.4695L188.575 25.1575C188.575 24.7068 188.681 24.3038 188.893 23.9485C189.106 23.5888 189.396 23.3072 189.764 23.1035C190.133 22.8955 190.551 22.7915 191.019 22.7915C191.465 22.7915 191.862 22.8868 192.208 23.0775C192.559 23.2682 192.834 23.5455 193.034 23.9095C193.233 24.2735 193.333 24.7155 193.333 25.2355L193.326 30H192.384ZM3.6335 50.195C2.97917 50.195 2.42017 50.0325 1.9565 49.7075C1.49283 49.3782 1.1375 48.934 0.8905 48.375C0.6435 47.816 0.52 47.1855 0.52 46.4835C0.52 45.7858 0.641333 45.1575 0.884 44.5985C1.131 44.0395 1.48417 43.5975 1.9435 43.2725C2.40283 42.9475 2.95317 42.785 3.5945 42.785C4.25317 42.785 4.80783 42.9453 5.2585 43.266C5.70917 43.5867 6.04933 44.0265 6.279 44.5855C6.513 45.1402 6.63 45.7728 6.63 46.4835C6.63 47.1812 6.51517 47.8117 6.2855 48.375C6.05583 48.934 5.71783 49.3782 5.2715 49.7075C4.82517 50.0325 4.27917 50.195 3.6335 50.195ZM3.731 49.3045C4.22933 49.3045 4.641 49.1832 4.966 48.9405C5.291 48.6978 5.53367 48.3642 5.694 47.9395C5.85433 47.5105 5.9345 47.0252 5.9345 46.4835C5.9345 45.9332 5.85433 45.4478 5.694 45.0275C5.53367 44.6028 5.291 44.2713 4.966 44.033C4.64533 43.7947 4.24017 43.6755 3.7505 43.6755C3.24783 43.6755 2.83183 43.799 2.5025 44.046C2.17317 44.293 1.92833 44.6288 1.768 45.0535C1.612 45.4782 1.534 45.9548 1.534 46.4835C1.534 47.0165 1.61417 47.4975 1.7745 47.9265C1.93917 48.3512 2.184 48.687 2.509 48.934C2.834 49.181 3.24133 49.3045 3.731 49.3045ZM5.9345 50V44.7155H5.8305V40.64H6.7925V50H5.9345ZM11.5476 50.195C10.8499 50.195 10.2541 50.0368 9.76005 49.7205C9.26605 49.4042 8.88689 48.9665 8.62255 48.4075C8.35822 47.8485 8.22605 47.2072 8.22605 46.4835C8.22605 45.7468 8.36039 45.1012 8.62905 44.5465C8.89772 43.9918 9.27905 43.5607 9.77305 43.253C10.2714 42.941 10.8629 42.785 11.5476 42.785C12.2496 42.785 12.8476 42.9432 13.3416 43.2595C13.8399 43.5715 14.2191 44.007 14.4791 44.566C14.7434 45.1207 14.8756 45.7598 14.8756 46.4835C14.8756 47.2202 14.7434 47.868 14.4791 48.427C14.2147 48.9817 13.8334 49.415 13.3351 49.727C12.8367 50.039 12.2409 50.195 11.5476 50.195ZM11.5476 49.2785C12.3276 49.2785 12.9082 49.0207 13.2896 48.505C13.6709 47.985 13.8616 47.3112 13.8616 46.4835C13.8616 45.6342 13.6687 44.9582 13.2831 44.4555C12.9017 43.9528 12.3232 43.7015 11.5476 43.7015C11.0232 43.7015 10.5899 43.8207 10.2476 44.059C9.90955 44.293 9.65605 44.6202 9.48705 45.0405C9.32239 45.4565 9.24005 45.9375 9.24005 46.4835C9.24005 47.3285 9.43505 48.0067 9.82505 48.518C10.2151 49.025 10.7892 49.2785 11.5476 49.2785ZM16.4394 50V40.445H17.3949V50H16.4394ZM22.2751 50.195C21.5774 50.195 20.9816 50.0368 20.4876 49.7205C19.9936 49.4042 19.6144 48.9665 19.3501 48.4075C19.0858 47.8485 18.9536 47.2072 18.9536 46.4835C18.9536 45.7468 19.0879 45.1012 19.3566 44.5465C19.6253 43.9918 20.0066 43.5607 20.5006 43.253C20.9989 42.941 21.5904 42.785 22.2751 42.785C22.9771 42.785 23.5751 42.9432 24.0691 43.2595C24.5674 43.5715 24.9466 44.007 25.2066 44.566C25.4709 45.1207 25.6031 45.7598 25.6031 46.4835C25.6031 47.2202 25.4709 47.868 25.2066 48.427C24.9423 48.9817 24.5609 49.415 24.0626 49.727C23.5643 50.039 22.9684 50.195 22.2751 50.195ZM22.2751 49.2785C23.0551 49.2785 23.6358 49.0207 24.0171 48.505C24.3984 47.985 24.5891 47.3112 24.5891 46.4835C24.5891 45.6342 24.3963 44.9582 24.0106 44.4555C23.6293 43.9528 23.0508 43.7015 22.2751 43.7015C21.7508 43.7015 21.3174 43.8207 20.9751 44.059C20.6371 44.293 20.3836 44.6202 20.2146 45.0405C20.0499 45.4565 19.9676 45.9375 19.9676 46.4835C19.9676 47.3285 20.1626 48.0067 20.5526 48.518C20.9426 49.025 21.5168 49.2785 22.2751 49.2785ZM27.037 50V42.98H27.895V44.67L27.726 44.449C27.804 44.241 27.9058 44.0503 28.0315 43.877C28.1571 43.6993 28.2936 43.5542 28.441 43.4415C28.623 43.2812 28.8353 43.1598 29.078 43.0775C29.3206 42.9908 29.5655 42.941 29.8125 42.928C30.0595 42.9107 30.2848 42.928 30.4885 42.98V43.877C30.2328 43.812 29.9533 43.7968 29.65 43.8315C29.3466 43.8662 29.0671 43.9875 28.8115 44.1955C28.5775 44.3775 28.402 44.5963 28.285 44.852C28.168 45.1033 28.09 45.372 28.051 45.658C28.012 45.9397 27.9925 46.2192 27.9925 46.4965V50H27.037ZM34.5651 50.195C33.8804 50.195 33.2867 50.0433 32.7841 49.74C32.2857 49.4367 31.8979 49.0098 31.6206 48.4595C31.3432 47.9092 31.2046 47.2635 31.2046 46.5225C31.2046 45.7555 31.3411 45.0925 31.6141 44.5335C31.8871 43.9745 32.2706 43.5433 32.7646 43.24C33.2629 42.9367 33.8501 42.785 34.5261 42.785C35.2194 42.785 35.8109 42.9453 36.3006 43.266C36.7902 43.5823 37.1607 44.0373 37.4121 44.631C37.6634 45.2247 37.7782 45.9332 37.7566 46.7565H36.7816V46.4185C36.7642 45.5085 36.5671 44.8217 36.1901 44.358C35.8174 43.8943 35.2714 43.6625 34.5521 43.6625C33.7981 43.6625 33.2196 43.9073 32.8166 44.397C32.4179 44.8867 32.2186 45.5843 32.2186 46.49C32.2186 47.374 32.4179 48.0608 32.8166 48.5505C33.2196 49.0358 33.7894 49.2785 34.5261 49.2785C35.0287 49.2785 35.4664 49.1637 35.8391 48.934C36.2161 48.7 36.5129 48.3642 36.7296 47.9265L37.6201 48.271C37.3427 48.882 36.9332 49.3565 36.3916 49.6945C35.8542 50.0282 35.2454 50.195 34.5651 50.195ZM31.8806 46.7565V45.957H37.2431V46.7565H31.8806ZM47.3806 50L47.3871 45.3915C47.3871 44.8498 47.2355 44.4252 46.9321 44.1175C46.6331 43.8055 46.2518 43.6495 45.7881 43.6495C45.5238 43.6495 45.266 43.7102 45.0146 43.8315C44.7633 43.9528 44.5553 44.1478 44.3906 44.4165C44.2303 44.6852 44.1501 45.0362 44.1501 45.4695L43.5846 45.307C43.5716 44.8043 43.6691 44.3645 43.8771 43.9875C44.0895 43.6105 44.3798 43.318 44.7481 43.11C45.1208 42.8977 45.5411 42.7915 46.0091 42.7915C46.7155 42.7915 47.281 43.0103 47.7056 43.448C48.1303 43.8813 48.3426 44.4685 48.3426 45.2095L48.3361 50H47.3806ZM39.0021 50V42.98H39.8601V44.709H39.9641V50H39.0021ZM43.2011 50L43.2076 45.4565C43.2076 44.8975 43.0581 44.4577 42.7591 44.137C42.4645 43.812 42.0745 43.6495 41.5891 43.6495C41.1038 43.6495 40.7116 43.8163 40.4126 44.15C40.1136 44.4793 39.9641 44.9192 39.9641 45.4695L39.3921 45.1575C39.3921 44.7068 39.4983 44.3038 39.7106 43.9485C39.923 43.5888 40.2133 43.3072 40.5816 43.1035C40.95 42.8955 41.3681 42.7915 41.8361 42.7915C42.2825 42.7915 42.679 42.8868 43.0256 43.0775C43.3766 43.2682 43.6518 43.5455 43.8511 43.9095C44.0505 44.2735 44.1501 44.7155 44.1501 45.2355L44.1436 50H43.2011ZM52.7517 50.195C52.0973 50.195 51.5383 50.0325 51.0747 49.7075C50.611 49.3782 50.2557 48.934 50.0087 48.375C49.7617 47.816 49.6382 47.1855 49.6382 46.4835C49.6382 45.7858 49.7595 45.1575 50.0022 44.5985C50.2492 44.0395 50.6023 43.5975 51.0617 43.2725C51.521 42.9475 52.0713 42.785 52.7127 42.785C53.3713 42.785 53.926 42.9453 54.3767 43.266C54.8273 43.5867 55.1675 44.0265 55.3972 44.5855C55.6312 45.1402 55.7482 45.7728 55.7482 46.4835C55.7482 47.1812 55.6333 47.8117 55.4037 48.375C55.174 48.934 54.836 49.3782 54.3897 49.7075C53.9433 50.0325 53.3973 50.195 52.7517 50.195ZM52.8492 49.3045C53.3475 49.3045 53.7592 49.1832 54.0842 48.9405C54.4092 48.6978 54.6518 48.3642 54.8122 47.9395C54.9725 47.5105 55.0527 47.0252 55.0527 46.4835C55.0527 45.9332 54.9725 45.4478 54.8122 45.0275C54.6518 44.6028 54.4092 44.2713 54.0842 44.033C53.7635 43.7947 53.3583 43.6755 52.8687 43.6755C52.366 43.6755 51.95 43.799 51.6207 44.046C51.2913 44.293 51.0465 44.6288 50.8862 45.0535C50.7302 45.4782 50.6522 45.9548 50.6522 46.4835C50.6522 47.0165 50.7323 47.4975 50.8927 47.9265C51.0573 48.3512 51.3022 48.687 51.6272 48.934C51.9522 49.181 52.3595 49.3045 52.8492 49.3045ZM54.9487 53.12V48.2645H55.0527V42.98H55.9107V53.12H54.9487ZM60.4187 50.1755C59.9984 50.1755 59.6301 50.1105 59.3137 49.9805C59.0017 49.8505 58.7352 49.675 58.5142 49.454C58.2976 49.233 58.1221 48.9817 57.9877 48.7C57.8534 48.414 57.7559 48.1128 57.6952 47.7965C57.6346 47.4758 57.6042 47.1573 57.6042 46.841V42.98H58.5662V46.5615C58.5662 46.9472 58.6031 47.3047 58.6767 47.634C58.7504 47.9633 58.8674 48.2515 59.0277 48.4985C59.1924 48.7412 59.4026 48.9297 59.6582 49.064C59.9182 49.1983 60.2324 49.2655 60.6007 49.2655C60.9387 49.2655 61.2356 49.207 61.4912 49.09C61.7512 48.973 61.9679 48.8062 62.1412 48.5895C62.3189 48.3685 62.4532 48.102 62.5442 47.79C62.6352 47.4737 62.6807 47.1183 62.6807 46.724L63.3567 46.8735C63.3567 47.5928 63.2311 48.1973 62.9797 48.687C62.7284 49.1767 62.3817 49.5472 61.9397 49.7985C61.4977 50.0498 60.9907 50.1755 60.4187 50.1755ZM62.7782 50V48.271H62.6807V42.98H63.6362V50H62.7782ZM68.4235 50.195C67.7388 50.195 67.1451 50.0433 66.6425 49.74C66.1441 49.4367 65.7563 49.0098 65.479 48.4595C65.2016 47.9092 65.063 47.2635 65.063 46.5225C65.063 45.7555 65.1995 45.0925 65.4725 44.5335C65.7455 43.9745 66.129 43.5433 66.623 43.24C67.1213 42.9367 67.7085 42.785 68.3845 42.785C69.0778 42.785 69.6693 42.9453 70.159 43.266C70.6486 43.5823 71.0191 44.0373 71.2705 44.631C71.5218 45.2247 71.6366 45.9332 71.615 46.7565H70.64V46.4185C70.6226 45.5085 70.4255 44.8217 70.0485 44.358C69.6758 43.8943 69.1298 43.6625 68.4105 43.6625C67.6565 43.6625 67.078 43.9073 66.675 44.397C66.2763 44.8867 66.077 45.5843 66.077 46.49C66.077 47.374 66.2763 48.0608 66.675 48.5505C67.078 49.0358 67.6478 49.2785 68.3845 49.2785C68.8871 49.2785 69.3248 49.1637 69.6975 48.934C70.0745 48.7 70.3713 48.3642 70.588 47.9265L71.4785 48.271C71.2011 48.882 70.7916 49.3565 70.25 49.6945C69.7126 50.0282 69.1038 50.195 68.4235 50.195ZM65.739 46.7565V45.957H71.1015V46.7565H65.739ZM75.79 50V40.445H76.7455V50H75.79ZM80.7027 50.195C80.174 50.195 79.7298 50.0997 79.3702 49.909C79.0148 49.7183 78.7483 49.4648 78.5707 49.1485C78.393 48.8322 78.3042 48.4877 78.3042 48.115C78.3042 47.7337 78.38 47.4087 78.5317 47.14C78.6877 46.867 78.8978 46.6438 79.1622 46.4705C79.4308 46.2972 79.7407 46.165 80.0917 46.074C80.447 45.9873 80.8392 45.9115 81.2682 45.8465C81.7015 45.7772 82.124 45.7187 82.5357 45.671C82.9517 45.619 83.3157 45.5692 83.6277 45.5215L83.2897 45.7295C83.3027 45.0362 83.1683 44.5227 82.8867 44.189C82.605 43.8553 82.1153 43.6885 81.4177 43.6885C80.9367 43.6885 80.5293 43.7968 80.1957 44.0135C79.8663 44.2302 79.6345 44.5725 79.5002 45.0405L78.5707 44.7675C78.731 44.1392 79.0538 43.6517 79.5392 43.305C80.0245 42.9583 80.655 42.785 81.4307 42.785C82.072 42.785 82.6158 42.9063 83.0622 43.149C83.5128 43.3873 83.8313 43.734 84.0177 44.189C84.1043 44.3927 84.1607 44.6202 84.1867 44.8715C84.2127 45.1228 84.2257 45.3785 84.2257 45.6385V50H83.3742V48.2385L83.6212 48.3425C83.3828 48.9448 83.0123 49.4042 82.5097 49.7205C82.007 50.0368 81.4047 50.195 80.7027 50.195ZM80.8132 49.3695C81.2595 49.3695 81.6495 49.2893 81.9832 49.129C82.3168 48.9687 82.5855 48.7498 82.7892 48.4725C82.9928 48.1908 83.125 47.8745 83.1857 47.5235C83.2377 47.2982 83.2658 47.0512 83.2702 46.7825C83.2745 46.5095 83.2767 46.3058 83.2767 46.1715L83.6407 46.36C83.3157 46.4033 82.9625 46.4467 82.5812 46.49C82.2042 46.5333 81.8315 46.5832 81.4632 46.6395C81.0992 46.6958 80.7698 46.763 80.4752 46.841C80.2758 46.8973 80.083 46.9775 79.8967 47.0815C79.7103 47.1812 79.5565 47.3155 79.4352 47.4845C79.3182 47.6535 79.2597 47.8637 79.2597 48.115C79.2597 48.3187 79.3095 48.5158 79.4092 48.7065C79.5132 48.8972 79.6778 49.0553 79.9032 49.181C80.1328 49.3067 80.4362 49.3695 80.8132 49.3695ZM88.6023 50.1755C88.182 50.1755 87.8136 50.1105 87.4973 49.9805C87.1853 49.8505 86.9188 49.675 86.6978 49.454C86.4811 49.233 86.3056 48.9817 86.1713 48.7C86.037 48.414 85.9395 48.1128 85.8788 47.7965C85.8181 47.4758 85.7878 47.1573 85.7878 46.841V42.98H86.7498V46.5615C86.7498 46.9472 86.7866 47.3047 86.8603 47.634C86.934 47.9633 87.051 48.2515 87.2113 48.4985C87.376 48.7412 87.5861 48.9297 87.8418 49.064C88.1018 49.1983 88.416 49.2655 88.7843 49.2655C89.1223 49.2655 89.4191 49.207 89.6748 49.09C89.9348 48.973 90.1515 48.8062 90.3248 48.5895C90.5025 48.3685 90.6368 48.102 90.7278 47.79C90.8188 47.4737 90.8643 47.1183 90.8643 46.724L91.5403 46.8735C91.5403 47.5928 91.4146 48.1973 91.1633 48.687C90.912 49.1767 90.5653 49.5472 90.1233 49.7985C89.6813 50.0498 89.1743 50.1755 88.6023 50.1755ZM90.9618 50V48.271H90.8643V42.98H91.8198V50H90.9618ZM96.3601 50.195C95.7057 50.195 95.1467 50.0325 94.6831 49.7075C94.2194 49.3782 93.8641 48.934 93.6171 48.375C93.3701 47.816 93.2466 47.1855 93.2466 46.4835C93.2466 45.7858 93.3679 45.1575 93.6106 44.5985C93.8576 44.0395 94.2107 43.5975 94.6701 43.2725C95.1294 42.9475 95.6797 42.785 96.3211 42.785C96.9797 42.785 97.5344 42.9453 97.9851 43.266C98.4357 43.5867 98.7759 44.0265 99.0056 44.5855C99.2396 45.1402 99.3566 45.7728 99.3566 46.4835C99.3566 47.1812 99.2417 47.8117 99.0121 48.375C98.7824 48.934 98.4444 49.3782 97.9981 49.7075C97.5517 50.0325 97.0057 50.195 96.3601 50.195ZM96.4576 49.3045C96.9559 49.3045 97.3676 49.1832 97.6926 48.9405C98.0176 48.6978 98.2602 48.3642 98.4206 47.9395C98.5809 47.5105 98.6611 47.0252 98.6611 46.4835C98.6611 45.9332 98.5809 45.4478 98.4206 45.0275C98.2602 44.6028 98.0176 44.2713 97.6926 44.033C97.3719 43.7947 96.9667 43.6755 96.4771 43.6755C95.9744 43.6755 95.5584 43.799 95.2291 44.046C94.8997 44.293 94.6549 44.6288 94.4946 45.0535C94.3386 45.4782 94.2606 45.9548 94.2606 46.4835C94.2606 47.0165 94.3407 47.4975 94.5011 47.9265C94.6657 48.3512 94.9106 48.687 95.2356 48.934C95.5606 49.181 95.9679 49.3045 96.4576 49.3045ZM98.6611 50V44.7155H98.5571V40.64H99.5191V50H98.6611ZM103.351 50.195C102.822 50.195 102.378 50.0997 102.019 49.909C101.663 49.7183 101.397 49.4648 101.219 49.1485C101.041 48.8322 100.953 48.4877 100.953 48.115C100.953 47.7337 101.028 47.4087 101.18 47.14C101.336 46.867 101.546 46.6438 101.811 46.4705C102.079 46.2972 102.389 46.165 102.74 46.074C103.095 45.9873 103.488 45.9115 103.917 45.8465C104.35 45.7772 104.772 45.7187 105.184 45.671C105.6 45.619 105.964 45.5692 106.276 45.5215L105.938 45.7295C105.951 45.0362 105.817 44.5227 105.535 44.189C105.253 43.8553 104.764 43.6885 104.066 43.6885C103.585 43.6885 103.178 43.7968 102.844 44.0135C102.515 44.2302 102.283 44.5725 102.149 45.0405L101.219 44.7675C101.379 44.1392 101.702 43.6517 102.188 43.305C102.673 42.9583 103.303 42.785 104.079 42.785C104.72 42.785 105.264 42.9063 105.711 43.149C106.161 43.3873 106.48 43.734 106.666 44.189C106.753 44.3927 106.809 44.6202 106.835 44.8715C106.861 45.1228 106.874 45.3785 106.874 45.6385V50H106.023V48.2385L106.27 48.3425C106.031 48.9448 105.661 49.4042 105.158 49.7205C104.655 50.0368 104.053 50.195 103.351 50.195ZM103.462 49.3695C103.908 49.3695 104.298 49.2893 104.632 49.129C104.965 48.9687 105.234 48.7498 105.438 48.4725C105.641 48.1908 105.773 47.8745 105.834 47.5235C105.886 47.2982 105.914 47.0512 105.919 46.7825C105.923 46.5095 105.925 46.3058 105.925 46.1715L106.289 46.36C105.964 46.4033 105.611 46.4467 105.23 46.49C104.853 46.5333 104.48 46.5832 104.112 46.6395C103.748 46.6958 103.418 46.763 103.124 46.841C102.924 46.8973 102.731 46.9775 102.545 47.0815C102.359 47.1812 102.205 47.3155 102.084 47.4845C101.967 47.6535 101.908 47.8637 101.908 48.115C101.908 48.3187 101.958 48.5158 102.058 48.7065C102.162 48.8972 102.326 49.0553 102.552 49.181C102.781 49.3067 103.085 49.3695 103.462 49.3695ZM113.636 50V46.4185C113.636 46.0285 113.599 45.671 113.526 45.346C113.452 45.0167 113.333 44.7307 113.168 44.488C113.008 44.241 112.798 44.0503 112.538 43.916C112.282 43.7817 111.97 43.7145 111.602 43.7145C111.264 43.7145 110.965 43.773 110.705 43.89C110.449 44.007 110.232 44.176 110.055 44.397C109.881 44.6137 109.749 44.878 109.658 45.19C109.567 45.502 109.522 45.8573 109.522 46.256L108.846 46.1065C108.846 45.3872 108.971 44.7827 109.223 44.293C109.474 43.8033 109.821 43.4328 110.263 43.1815C110.705 42.9302 111.212 42.8045 111.784 42.8045C112.204 42.8045 112.57 42.8695 112.882 42.9995C113.199 43.1295 113.465 43.305 113.682 43.526C113.903 43.747 114.08 44.0005 114.215 44.2865C114.349 44.5682 114.447 44.8693 114.507 45.19C114.568 45.5063 114.598 45.8227 114.598 46.139V50H113.636ZM108.56 50V42.98H109.424V44.709H109.522V50H108.56ZM120.107 50C119.713 50.0823 119.323 50.1148 118.937 50.0975C118.556 50.0802 118.213 49.9978 117.91 49.8505C117.611 49.7032 117.384 49.4735 117.228 49.1615C117.102 48.9015 117.033 48.6393 117.02 48.375C117.011 48.1063 117.007 47.8008 117.007 47.4585V41.03H117.956V47.4195C117.956 47.7142 117.958 47.9612 117.962 48.1605C117.971 48.3555 118.016 48.5288 118.099 48.6805C118.255 48.9708 118.502 49.1442 118.84 49.2005C119.182 49.2568 119.604 49.2438 120.107 49.1615V50ZM115.505 43.799V42.98H120.107V43.799H115.505ZM121.62 41.6475V40.575H122.576V41.6475H121.62ZM121.62 50V42.98H122.576V50H121.62ZM127.209 50.1755C126.788 50.1755 126.42 50.1105 126.104 49.9805C125.792 49.8505 125.525 49.675 125.304 49.454C125.088 49.233 124.912 48.9817 124.778 48.7C124.643 48.414 124.546 48.1128 124.485 47.7965C124.425 47.4758 124.394 47.1573 124.394 46.841V42.98H125.356V46.5615C125.356 46.9472 125.393 47.3047 125.467 47.634C125.54 47.9633 125.657 48.2515 125.818 48.4985C125.982 48.7412 126.193 48.9297 126.448 49.064C126.708 49.1983 127.022 49.2655 127.391 49.2655C127.729 49.2655 128.026 49.207 128.281 49.09C128.541 48.973 128.758 48.8062 128.931 48.5895C129.109 48.3685 129.243 48.102 129.334 47.79C129.425 47.4737 129.471 47.1183 129.471 46.724L130.147 46.8735C130.147 47.5928 130.021 48.1973 129.77 48.687C129.518 49.1767 129.172 49.5472 128.73 49.7985C128.288 50.0498 127.781 50.1755 127.209 50.1755ZM129.568 50V48.271H129.471V42.98H130.426V50H129.568ZM140.615 50L140.622 45.3915C140.622 44.8498 140.47 44.4252 140.167 44.1175C139.868 43.8055 139.486 43.6495 139.023 43.6495C138.758 43.6495 138.5 43.7102 138.249 43.8315C137.998 43.9528 137.79 44.1478 137.625 44.4165C137.465 44.6852 137.385 45.0362 137.385 45.4695L136.819 45.307C136.806 44.8043 136.904 44.3645 137.112 43.9875C137.324 43.6105 137.614 43.318 137.983 43.11C138.355 42.8977 138.776 42.7915 139.244 42.7915C139.95 42.7915 140.515 43.0103 140.94 43.448C141.365 43.8813 141.577 44.4685 141.577 45.2095L141.571 50H140.615ZM132.237 50V42.98H133.095V44.709H133.199V50H132.237ZM136.436 50L136.442 45.4565C136.442 44.8975 136.293 44.4577 135.994 44.137C135.699 43.812 135.309 43.6495 134.824 43.6495C134.338 43.6495 133.946 43.8163 133.647 44.15C133.348 44.4793 133.199 44.9192 133.199 45.4695L132.627 45.1575C132.627 44.7068 132.733 44.3038 132.945 43.9485C133.157 43.5888 133.448 43.3072 133.816 43.1035C134.184 42.8955 134.603 42.7915 135.071 42.7915C135.517 42.7915 135.913 42.8868 136.26 43.0775C136.611 43.2682 136.886 43.5455 137.086 43.9095C137.285 44.2735 137.385 44.7155 137.385 45.2355L137.378 50H136.436ZM143.133 51.3585L143.191 50.884C143.364 50.897 143.49 50.8623 143.568 50.78C143.646 50.6977 143.694 50.5872 143.711 50.4485C143.728 50.3098 143.733 50.1603 143.724 50H143.133V48.6285H144.244V50.26C144.244 50.6587 144.142 50.9577 143.939 51.157C143.739 51.3563 143.471 51.4235 143.133 51.3585ZM153.14 50C152.746 50.0823 152.356 50.1148 151.97 50.0975C151.589 50.0802 151.247 49.9978 150.943 49.8505C150.644 49.7032 150.417 49.4735 150.261 49.1615C150.135 48.9015 150.066 48.6393 150.053 48.375C150.044 48.1063 150.04 47.8008 150.04 47.4585V41.03H150.989V47.4195C150.989 47.7142 150.991 47.9612 150.995 48.1605C151.004 48.3555 151.049 48.5288 151.132 48.6805C151.288 48.9708 151.535 49.1442 151.873 49.2005C152.215 49.2568 152.638 49.2438 153.14 49.1615V50ZM148.538 43.799V42.98H153.14V43.799H148.538ZM157.201 50.195C156.503 50.195 155.907 50.0368 155.413 49.7205C154.919 49.4042 154.54 48.9665 154.276 48.4075C154.012 47.8485 153.879 47.2072 153.879 46.4835C153.879 45.7468 154.014 45.1012 154.282 44.5465C154.551 43.9918 154.932 43.5607 155.426 43.253C155.925 42.941 156.516 42.785 157.201 42.785C157.903 42.785 158.501 42.9432 158.995 43.2595C159.493 43.5715 159.872 44.007 160.132 44.566C160.397 45.1207 160.529 45.7598 160.529 46.4835C160.529 47.2202 160.397 47.868 160.132 48.427C159.868 48.9817 159.487 49.415 158.988 49.727C158.49 50.039 157.894 50.195 157.201 50.195ZM157.201 49.2785C157.981 49.2785 158.562 49.0207 158.943 48.505C159.324 47.985 159.515 47.3112 159.515 46.4835C159.515 45.6342 159.322 44.9582 158.936 44.4555C158.555 43.9528 157.977 43.7015 157.201 43.7015C156.677 43.7015 156.243 43.8207 155.901 44.059C155.563 44.293 155.309 44.6202 155.14 45.0405C154.976 45.4565 154.893 45.9375 154.893 46.4835C154.893 47.3285 155.088 48.0067 155.478 48.518C155.868 49.025 156.443 49.2785 157.201 49.2785ZM161.891 50V48.8885H163.002V50H161.891Z" fill="#2E3140"/>
</svg>
