<svg width="246" height="54" viewBox="0 0 246 54" fill="none" xmlns="http://www.w3.org/2000/svg">
<path d="M0.91 10V0.64H6.2855V1.5955H1.8655V4.8455H5.5055V5.7945H1.8655V10H0.91ZM10.2019 10.195C9.50418 10.195 8.90835 10.0368 8.41435 9.7205C7.92035 9.40417 7.54118 8.9665 7.27685 8.4075C7.01252 7.8485 6.88035 7.20717 6.88035 6.4835C6.88035 5.74683 7.01468 5.10117 7.28335 4.5465C7.55202 3.99183 7.93335 3.56067 8.42735 3.253C8.92569 2.941 9.51719 2.785 10.2019 2.785C10.9039 2.785 11.5019 2.94317 11.9959 3.2595C12.4942 3.5715 12.8734 4.007 13.1334 4.566C13.3977 5.12067 13.5299 5.75983 13.5299 6.4835C13.5299 7.22017 13.3977 7.868 13.1334 8.427C12.869 8.98167 12.4877 9.415 11.9894 9.727C11.491 10.039 10.8952 10.195 10.2019 10.195ZM10.2019 9.2785C10.9819 9.2785 11.5625 9.02067 11.9439 8.505C12.3252 7.985 12.5159 7.31117 12.5159 6.4835C12.5159 5.63417 12.323 4.95817 11.9374 4.4555C11.556 3.95283 10.9775 3.7015 10.2019 3.7015C9.67752 3.7015 9.24419 3.82067 8.90185 4.059C8.56385 4.293 8.31035 4.62017 8.14135 5.0405C7.97669 5.4565 7.89435 5.9375 7.89435 6.4835C7.89435 7.3285 8.08935 8.00667 8.47935 8.518C8.86935 9.025 9.44352 9.2785 10.2019 9.2785ZM14.9637 10V2.98H15.8217V4.67L15.6527 4.449C15.7307 4.241 15.8325 4.05033 15.9582 3.877C16.0839 3.69933 16.2204 3.55417 16.3677 3.4415C16.5497 3.28117 16.762 3.15983 17.0047 3.0775C17.2474 2.99083 17.4922 2.941 17.7392 2.928C17.9862 2.91067 18.2115 2.928 18.4152 2.98V3.877C18.1595 3.812 17.88 3.79683 17.5767 3.8315C17.2734 3.86617 16.9939 3.9875 16.7382 4.1955C16.5042 4.3775 16.3287 4.59633 16.2117 4.852C16.0947 5.10333 16.0167 5.372 15.9777 5.658C15.9387 5.93967 15.9192 6.21917 15.9192 6.4965V10H14.9637ZM22.1829 13.315C21.8232 13.315 21.4679 13.2608 21.1169 13.1525C20.7702 13.0485 20.4495 12.8817 20.1549 12.652C19.8602 12.4267 19.6132 12.132 19.4139 11.768L20.2784 11.287C20.4734 11.677 20.7464 11.9565 21.0974 12.1255C21.4527 12.2988 21.8145 12.3855 22.1829 12.3855C22.6899 12.3855 23.0994 12.2902 23.4114 12.0995C23.7277 11.9132 23.9574 11.6358 24.1004 11.2675C24.2434 10.8992 24.3127 10.4398 24.3084 9.8895V8.0175H24.4189V2.98H25.2704V9.9025C25.2704 10.1018 25.2639 10.2925 25.2509 10.4745C25.2422 10.6608 25.2227 10.8428 25.1924 11.0205C25.11 11.5448 24.9389 11.976 24.6789 12.314C24.4232 12.652 24.0852 12.9033 23.6649 13.068C23.2489 13.2327 22.7549 13.315 22.1829 13.315ZM22.1179 10.195C21.4635 10.195 20.9045 10.0325 20.4409 9.7075C19.9772 9.37817 19.6219 8.934 19.3749 8.375C19.1279 7.816 19.0044 7.1855 19.0044 6.4835C19.0044 5.78583 19.1257 5.1575 19.3684 4.5985C19.6154 4.0395 19.9685 3.5975 20.4279 3.2725C20.8872 2.9475 21.4375 2.785 22.0789 2.785C22.7375 2.785 23.2922 2.94533 23.7429 3.266C24.1935 3.58667 24.5337 4.0265 24.7634 4.5855C24.9974 5.14017 25.1144 5.77283 25.1144 6.4835C25.1144 7.18117 24.9995 7.81167 24.7699 8.375C24.5402 8.934 24.2022 9.37817 23.7559 9.7075C23.3095 10.0325 22.7635 10.195 22.1179 10.195ZM22.2154 9.3045C22.7137 9.3045 23.1254 9.18317 23.4504 8.9405C23.7754 8.69783 24.018 8.36417 24.1784 7.9395C24.3387 7.5105 24.4189 7.02517 24.4189 6.4835C24.4189 5.93317 24.3387 5.44783 24.1784 5.0275C24.018 4.60283 23.7754 4.27133 23.4504 4.033C23.1297 3.79467 22.7245 3.6755 22.2349 3.6755C21.7322 3.6755 21.3162 3.799 20.9869 4.046C20.6575 4.293 20.4127 4.62883 20.2524 5.0535C20.0964 5.47817 20.0184 5.95483 20.0184 6.4835C20.0184 7.0165 20.0985 7.4975 20.2589 7.9265C20.4235 8.35117 20.6684 8.687 20.9934 8.934C21.3184 9.181 21.7257 9.3045 22.2154 9.3045ZM30.0582 10.195C29.3736 10.195 28.7799 10.0433 28.2772 9.74C27.7789 9.43667 27.3911 9.00983 27.1137 8.4595C26.8364 7.90917 26.6977 7.2635 26.6977 6.5225C26.6977 5.7555 26.8342 5.0925 27.1072 4.5335C27.3802 3.9745 27.7637 3.54333 28.2577 3.24C28.7561 2.93667 29.3432 2.785 30.0192 2.785C30.7126 2.785 31.3041 2.94533 31.7937 3.266C32.2834 3.58233 32.6539 4.03733 32.9052 4.631C33.1566 5.22467 33.2714 5.93317 33.2497 6.7565H32.2747V6.4185C32.2574 5.5085 32.0602 4.82167 31.6832 4.358C31.3106 3.89433 30.7646 3.6625 30.0452 3.6625C29.2912 3.6625 28.7127 3.90733 28.3097 4.397C27.9111 4.88667 27.7117 5.58433 27.7117 6.49C27.7117 7.374 27.9111 8.06083 28.3097 8.5505C28.7127 9.03583 29.2826 9.2785 30.0192 9.2785C30.5219 9.2785 30.9596 9.16367 31.3322 8.934C31.7092 8.7 32.0061 8.36417 32.2227 7.9265L33.1132 8.271C32.8359 8.882 32.4264 9.3565 31.8847 9.6945C31.3474 10.0282 30.7386 10.195 30.0582 10.195ZM27.3737 6.7565V5.957H32.7362V6.7565H27.3737ZM38.5142 10C38.1199 10.0823 37.7299 10.1148 37.3442 10.0975C36.9629 10.0802 36.6206 9.99783 36.3172 9.8505C36.0182 9.70317 35.7907 9.4735 35.6347 9.1615C35.5091 8.9015 35.4397 8.63933 35.4267 8.375C35.4181 8.10633 35.4137 7.80083 35.4137 7.4585V1.03H36.3627V7.4195C36.3627 7.71417 36.3649 7.96117 36.3692 8.1605C36.3779 8.3555 36.4234 8.52883 36.5057 8.6805C36.6617 8.97083 36.9087 9.14417 37.2467 9.2005C37.5891 9.25683 38.0116 9.24383 38.5142 9.1615V10ZM33.9122 3.799V2.98H38.5142V3.799H33.9122ZM45.4703 10.195C44.7857 10.195 44.192 10.0433 43.6893 9.74C43.191 9.43667 42.8032 9.00983 42.5258 8.4595C42.2485 7.90917 42.1098 7.2635 42.1098 6.5225C42.1098 5.7555 42.2463 5.0925 42.5193 4.5335C42.7923 3.9745 43.1758 3.54333 43.6698 3.24C44.1682 2.93667 44.7553 2.785 45.4313 2.785C46.1247 2.785 46.7162 2.94533 47.2058 3.266C47.6955 3.58233 48.066 4.03733 48.3173 4.631C48.5687 5.22467 48.6835 5.93317 48.6618 6.7565H47.6868V6.4185C47.6695 5.5085 47.4723 4.82167 47.0953 4.358C46.7227 3.89433 46.1767 3.6625 45.4573 3.6625C44.7033 3.6625 44.1248 3.90733 43.7218 4.397C43.3232 4.88667 43.1238 5.58433 43.1238 6.49C43.1238 7.374 43.3232 8.06083 43.7218 8.5505C44.1248 9.03583 44.6947 9.2785 45.4313 9.2785C45.934 9.2785 46.3717 9.16367 46.7443 8.934C47.1213 8.7 47.4182 8.36417 47.6348 7.9265L48.5253 8.271C48.248 8.882 47.8385 9.3565 47.2968 9.6945C46.7595 10.0282 46.1507 10.195 45.4703 10.195ZM42.7858 6.7565V5.957H48.1483V6.7565H42.7858ZM51.7484 10L49.2004 2.98H50.1689L52.2424 8.752L54.3029 2.98H55.2844L52.7364 10H51.7484ZM59.1686 10.195C58.4839 10.195 57.8903 10.0433 57.3876 9.74C56.8893 9.43667 56.5014 9.00983 56.2241 8.4595C55.9468 7.90917 55.8081 7.2635 55.8081 6.5225C55.8081 5.7555 55.9446 5.0925 56.2176 4.5335C56.4906 3.9745 56.8741 3.54333 57.3681 3.24C57.8664 2.93667 58.4536 2.785 59.1296 2.785C59.8229 2.785 60.4144 2.94533 60.9041 3.266C61.3938 3.58233 61.7643 4.03733 62.0156 4.631C62.2669 5.22467 62.3818 5.93317 62.3601 6.7565H61.3851V6.4185C61.3678 5.5085 61.1706 4.82167 60.7936 4.358C60.4209 3.89433 59.8749 3.6625 59.1556 3.6625C58.4016 3.6625 57.8231 3.90733 57.4201 4.397C57.0214 4.88667 56.8221 5.58433 56.8221 6.49C56.8221 7.374 57.0214 8.06083 57.4201 8.5505C57.8231 9.03583 58.3929 9.2785 59.1296 9.2785C59.6323 9.2785 60.0699 9.16367 60.4426 8.934C60.8196 8.7 61.1164 8.36417 61.3331 7.9265L62.2236 8.271C61.9463 8.882 61.5368 9.3565 60.9951 9.6945C60.4578 10.0282 59.8489 10.195 59.1686 10.195ZM56.4841 6.7565V5.957H61.8466V6.7565H56.4841ZM63.8026 10V2.98H64.6606V4.67L64.4916 4.449C64.5696 4.241 64.6714 4.05033 64.7971 3.877C64.9227 3.69933 65.0592 3.55417 65.2066 3.4415C65.3886 3.28117 65.6009 3.15983 65.8436 3.0775C66.0862 2.99083 66.3311 2.941 66.5781 2.928C66.8251 2.91067 67.0504 2.928 67.2541 2.98V3.877C66.9984 3.812 66.7189 3.79683 66.4156 3.8315C66.1122 3.86617 65.8327 3.9875 65.5771 4.1955C65.3431 4.3775 65.1676 4.59633 65.0506 4.852C64.9336 5.10333 64.8556 5.372 64.8166 5.658C64.7776 5.93967 64.7581 6.21917 64.7581 6.4965V10H63.8026ZM69.3993 13.12L70.7578 9.4345L70.7773 10.5265L67.7028 2.98H68.7168L71.2388 9.2915H70.8228L73.1498 2.98H74.1248L70.3548 13.12H69.3993ZM79.5963 10C79.2019 10.0823 78.8119 10.1148 78.4263 10.0975C78.0449 10.0802 77.7026 9.99783 77.3993 9.8505C77.1003 9.70317 76.8728 9.4735 76.7168 9.1615C76.5911 8.9015 76.5218 8.63933 76.5088 8.375C76.5001 8.10633 76.4958 7.80083 76.4958 7.4585V1.03H77.4448V7.4195C77.4448 7.71417 77.4469 7.96117 77.4513 8.1605C77.4599 8.3555 77.5054 8.52883 77.5878 8.6805C77.7438 8.97083 77.9908 9.14417 78.3288 9.2005C78.6711 9.25683 79.0936 9.24383 79.5963 9.1615V10ZM74.9943 3.799V2.98H79.5963V3.799H74.9943ZM86.0493 10V6.4185C86.0493 6.0285 86.0125 5.671 85.9388 5.346C85.8652 5.01667 85.746 4.73067 85.5813 4.488C85.421 4.241 85.2108 4.05033 84.9508 3.916C84.6952 3.78167 84.3832 3.7145 84.0148 3.7145C83.6768 3.7145 83.3778 3.773 83.1178 3.89C82.8622 4.007 82.6455 4.176 82.4678 4.397C82.2945 4.61367 82.1623 4.878 82.0713 5.19C81.9803 5.502 81.9348 5.85733 81.9348 6.256L81.2588 6.1065C81.2588 5.38717 81.3845 4.78267 81.6358 4.293C81.8872 3.80333 82.2338 3.43283 82.6758 3.1815C83.1178 2.93017 83.6248 2.8045 84.1968 2.8045C84.6172 2.8045 84.9833 2.8695 85.2953 2.9995C85.6117 3.1295 85.8782 3.305 86.0948 3.526C86.3158 3.747 86.4935 4.0005 86.6278 4.2865C86.7622 4.56817 86.8597 4.86933 86.9203 5.19C86.981 5.50633 87.0113 5.82267 87.0113 6.139V10H86.0493ZM80.9728 10V0.64H81.8373V5.9245H81.9348V10H80.9728ZM88.8281 1.6475V0.575H89.7836V1.6475H88.8281ZM88.8281 10V2.98H89.7836V10H88.8281ZM96.8023 10V6.4185C96.8023 6.0285 96.7654 5.671 96.6918 5.346C96.6181 5.01667 96.4989 4.73067 96.3343 4.488C96.1739 4.241 95.9638 4.05033 95.7038 3.916C95.4481 3.78167 95.1361 3.7145 94.7678 3.7145C94.4298 3.7145 94.1308 3.773 93.8708 3.89C93.6151 4.007 93.3984 4.176 93.2208 4.397C93.0474 4.61367 92.9153 4.878 92.8243 5.19C92.7333 5.502 92.6878 5.85733 92.6878 6.256L92.0118 6.1065C92.0118 5.38717 92.1374 4.78267 92.3888 4.293C92.6401 3.80333 92.9868 3.43283 93.4288 3.1815C93.8708 2.93017 94.3778 2.8045 94.9498 2.8045C95.3701 2.8045 95.7363 2.8695 96.0483 2.9995C96.3646 3.1295 96.6311 3.305 96.8478 3.526C97.0688 3.747 97.2464 4.0005 97.3808 4.2865C97.5151 4.56817 97.6126 4.86933 97.6733 5.19C97.7339 5.50633 97.7643 5.82267 97.7643 6.139V10H96.8023ZM91.7258 10V2.98H92.5903V4.709H92.6878V10H91.7258ZM102.24 13.315C101.88 13.315 101.525 13.2608 101.174 13.1525C100.827 13.0485 100.506 12.8817 100.212 12.652C99.9168 12.4267 99.6698 12.132 99.4705 11.768L100.335 11.287C100.53 11.677 100.803 11.9565 101.154 12.1255C101.509 12.2988 101.871 12.3855 102.24 12.3855C102.747 12.3855 103.156 12.2902 103.468 12.0995C103.784 11.9132 104.014 11.6358 104.157 11.2675C104.3 10.8992 104.369 10.4398 104.365 9.8895V8.0175H104.476V2.98H105.327V9.9025C105.327 10.1018 105.321 10.2925 105.308 10.4745C105.299 10.6608 105.279 10.8428 105.249 11.0205C105.167 11.5448 104.996 11.976 104.736 12.314C104.48 12.652 104.142 12.9033 103.722 13.068C103.306 13.2327 102.812 13.315 102.24 13.315ZM102.175 10.195C101.52 10.195 100.961 10.0325 100.498 9.7075C100.034 9.37817 99.6785 8.934 99.4315 8.375C99.1845 7.816 99.061 7.1855 99.061 6.4835C99.061 5.78583 99.1823 5.1575 99.425 4.5985C99.672 4.0395 100.025 3.5975 100.485 3.2725C100.944 2.9475 101.494 2.785 102.136 2.785C102.794 2.785 103.349 2.94533 103.8 3.266C104.25 3.58667 104.59 4.0265 104.82 4.5855C105.054 5.14017 105.171 5.77283 105.171 6.4835C105.171 7.18117 105.056 7.81167 104.827 8.375C104.597 8.934 104.259 9.37817 103.813 9.7075C103.366 10.0325 102.82 10.195 102.175 10.195ZM102.272 9.3045C102.77 9.3045 103.182 9.18317 103.507 8.9405C103.832 8.69783 104.075 8.36417 104.235 7.9395C104.395 7.5105 104.476 7.02517 104.476 6.4835C104.476 5.93317 104.395 5.44783 104.235 5.0275C104.075 4.60283 103.832 4.27133 103.507 4.033C103.186 3.79467 102.781 3.6755 102.292 3.6755C101.789 3.6755 101.373 3.799 101.044 4.046C100.714 4.293 100.469 4.62883 100.309 5.0535C100.153 5.47817 100.075 5.95483 100.075 6.4835C100.075 7.0165 100.155 7.4975 100.316 7.9265C100.48 8.35117 100.725 8.687 101.05 8.934C101.375 9.181 101.782 9.3045 102.272 9.3045ZM110.748 13.12L112.106 9.4345L112.126 10.5265L109.051 2.98H110.065L112.587 9.2915H112.171L114.498 2.98H115.473L111.703 13.12H110.748ZM119.28 10.195C118.582 10.195 117.986 10.0368 117.492 9.7205C116.998 9.40417 116.619 8.9665 116.355 8.4075C116.091 7.8485 115.958 7.20717 115.958 6.4835C115.958 5.74683 116.093 5.10117 116.361 4.5465C116.63 3.99183 117.011 3.56067 117.505 3.253C118.004 2.941 118.595 2.785 119.28 2.785C119.982 2.785 120.58 2.94317 121.074 3.2595C121.572 3.5715 121.951 4.007 122.211 4.566C122.476 5.12067 122.608 5.75983 122.608 6.4835C122.608 7.22017 122.476 7.868 122.211 8.427C121.947 8.98167 121.566 9.415 121.067 9.727C120.569 10.039 119.973 10.195 119.28 10.195ZM119.28 9.2785C120.06 9.2785 120.641 9.02067 121.022 8.505C121.403 7.985 121.594 7.31117 121.594 6.4835C121.594 5.63417 121.401 4.95817 121.015 4.4555C120.634 3.95283 120.056 3.7015 119.28 3.7015C118.756 3.7015 118.322 3.82067 117.98 4.059C117.642 4.293 117.388 4.62017 117.219 5.0405C117.055 5.4565 116.972 5.9375 116.972 6.4835C116.972 7.3285 117.167 8.00667 117.557 8.518C117.947 9.025 118.522 9.2785 119.28 9.2785ZM126.726 10.1755C126.306 10.1755 125.938 10.1105 125.621 9.9805C125.309 9.8505 125.043 9.675 124.822 9.454C124.605 9.233 124.43 8.98167 124.295 8.7C124.161 8.414 124.064 8.11283 124.003 7.7965C123.942 7.47583 123.912 7.15733 123.912 6.841V2.98H124.874V6.5615C124.874 6.94717 124.911 7.30467 124.984 7.634C125.058 7.96333 125.175 8.2515 125.335 8.4985C125.5 8.74117 125.71 8.92967 125.966 9.064C126.226 9.19833 126.54 9.2655 126.908 9.2655C127.246 9.2655 127.543 9.207 127.799 9.09C128.059 8.973 128.276 8.80617 128.449 8.5895C128.627 8.3685 128.761 8.102 128.852 7.79C128.943 7.47367 128.988 7.11833 128.988 6.724L129.664 6.8735C129.664 7.59283 129.539 8.19733 129.287 8.687C129.036 9.17667 128.689 9.54717 128.247 9.7985C127.805 10.0498 127.298 10.1755 126.726 10.1755ZM129.086 10V8.271H128.988V2.98H129.944V10H129.086ZM131.631 2.98V0.64H132.586V2.98H131.631ZM136.439 10L133.891 2.98H134.859L136.933 8.752L138.993 2.98H139.975L137.427 10H136.439ZM143.859 10.195C143.174 10.195 142.581 10.0433 142.078 9.74C141.58 9.43667 141.192 9.00983 140.915 8.4595C140.637 7.90917 140.499 7.2635 140.499 6.5225C140.499 5.7555 140.635 5.0925 140.908 4.5335C141.181 3.9745 141.565 3.54333 142.059 3.24C142.557 2.93667 143.144 2.785 143.82 2.785C144.513 2.785 145.105 2.94533 145.595 3.266C146.084 3.58233 146.455 4.03733 146.706 4.631C146.957 5.22467 147.072 5.93317 147.051 6.7565H146.076V6.4185C146.058 5.5085 145.861 4.82167 145.484 4.358C145.111 3.89433 144.565 3.6625 143.846 3.6625C143.092 3.6625 142.514 3.90733 142.111 4.397C141.712 4.88667 141.513 5.58433 141.513 6.49C141.513 7.374 141.712 8.06083 142.111 8.5505C142.514 9.03583 143.083 9.2785 143.82 9.2785C144.323 9.2785 144.76 9.16367 145.133 8.934C145.51 8.7 145.807 8.36417 146.024 7.9265L146.914 8.271C146.637 8.882 146.227 9.3565 145.686 9.6945C145.148 10.0282 144.539 10.195 143.859 10.195ZM141.175 6.7565V5.957H146.537V6.7565H141.175ZM151.089 10L151.096 0.64H152.058V6.36L155.191 2.98H156.465L153.176 6.49L156.894 10H155.503L152.058 6.62V10H151.089ZM162.615 10V6.4185C162.615 6.0285 162.578 5.671 162.504 5.346C162.431 5.01667 162.311 4.73067 162.147 4.488C161.986 4.241 161.776 4.05033 161.516 3.916C161.261 3.78167 160.949 3.7145 160.58 3.7145C160.242 3.7145 159.943 3.773 159.683 3.89C159.428 4.007 159.211 4.176 159.033 4.397C158.86 4.61367 158.728 4.878 158.637 5.19C158.546 5.502 158.5 5.85733 158.5 6.256L157.824 6.1065C157.824 5.38717 157.95 4.78267 158.201 4.293C158.453 3.80333 158.799 3.43283 159.241 3.1815C159.683 2.93017 160.19 2.8045 160.762 2.8045C161.183 2.8045 161.549 2.8695 161.861 2.9995C162.177 3.1295 162.444 3.305 162.66 3.526C162.881 3.747 163.059 4.0005 163.193 4.2865C163.328 4.56817 163.425 4.86933 163.486 5.19C163.546 5.50633 163.577 5.82267 163.577 6.139V10H162.615ZM157.538 10V2.98H158.403V4.709H158.5V10H157.538ZM168.157 10.195C167.459 10.195 166.863 10.0368 166.369 9.7205C165.875 9.40417 165.496 8.9665 165.232 8.4075C164.968 7.8485 164.835 7.20717 164.835 6.4835C164.835 5.74683 164.97 5.10117 165.238 4.5465C165.507 3.99183 165.888 3.56067 166.382 3.253C166.881 2.941 167.472 2.785 168.157 2.785C168.859 2.785 169.457 2.94317 169.951 3.2595C170.449 3.5715 170.828 4.007 171.088 4.566C171.353 5.12067 171.485 5.75983 171.485 6.4835C171.485 7.22017 171.353 7.868 171.088 8.427C170.824 8.98167 170.443 9.415 169.944 9.727C169.446 10.039 168.85 10.195 168.157 10.195ZM168.157 9.2785C168.937 9.2785 169.518 9.02067 169.899 8.505C170.28 7.985 170.471 7.31117 170.471 6.4835C170.471 5.63417 170.278 4.95817 169.892 4.4555C169.511 3.95283 168.933 3.7015 168.157 3.7015C167.633 3.7015 167.199 3.82067 166.857 4.059C166.519 4.293 166.265 4.62017 166.096 5.0405C165.932 5.4565 165.849 5.9375 165.849 6.4835C165.849 7.3285 166.044 8.00667 166.434 8.518C166.824 9.025 167.399 9.2785 168.157 9.2785ZM174.16 10L172.015 2.9735L172.97 2.98L174.634 8.4335L176.305 2.98H177.176L178.846 8.4335L180.523 2.98H181.472L179.327 10H178.495L176.74 4.41L174.992 10H174.16ZM187.713 10V6.4185C187.713 6.0285 187.677 5.671 187.603 5.346C187.529 5.01667 187.41 4.73067 187.245 4.488C187.085 4.241 186.875 4.05033 186.615 3.916C186.359 3.78167 186.047 3.7145 185.679 3.7145C185.341 3.7145 185.042 3.773 184.782 3.89C184.526 4.007 184.31 4.176 184.132 4.397C183.959 4.61367 183.826 4.878 183.735 5.19C183.644 5.502 183.599 5.85733 183.599 6.256L182.923 6.1065C182.923 5.38717 183.049 4.78267 183.3 4.293C183.551 3.80333 183.898 3.43283 184.34 3.1815C184.782 2.93017 185.289 2.8045 185.861 2.8045C186.281 2.8045 186.647 2.8695 186.959 2.9995C187.276 3.1295 187.542 3.305 187.759 3.526C187.98 3.747 188.158 4.0005 188.292 4.2865C188.426 4.56817 188.524 4.86933 188.584 5.19C188.645 5.50633 188.675 5.82267 188.675 6.139V10H187.713ZM182.637 10V2.98H183.501V4.709H183.599V10H182.637ZM194.973 10.195C194.445 10.195 194 10.0997 193.641 9.909C193.285 9.71833 193.019 9.46483 192.841 9.1485C192.664 8.83217 192.575 8.48767 192.575 8.115C192.575 7.73367 192.651 7.40867 192.802 7.14C192.958 6.867 193.168 6.64383 193.433 6.4705C193.701 6.29717 194.011 6.165 194.362 6.074C194.718 5.98733 195.11 5.9115 195.539 5.8465C195.972 5.77717 196.395 5.71867 196.806 5.671C197.222 5.619 197.586 5.56917 197.898 5.5215L197.56 5.7295C197.573 5.03617 197.439 4.52267 197.157 4.189C196.876 3.85533 196.386 3.6885 195.688 3.6885C195.207 3.6885 194.8 3.79683 194.466 4.0135C194.137 4.23017 193.905 4.5725 193.771 5.0405L192.841 4.7675C193.002 4.13917 193.324 3.65167 193.81 3.305C194.295 2.95833 194.926 2.785 195.701 2.785C196.343 2.785 196.886 2.90633 197.333 3.149C197.783 3.38733 198.102 3.734 198.288 4.189C198.375 4.39267 198.431 4.62017 198.457 4.8715C198.483 5.12283 198.496 5.3785 198.496 5.6385V10H197.645V8.2385L197.892 8.3425C197.653 8.94483 197.283 9.40417 196.78 9.7205C196.278 10.0368 195.675 10.195 194.973 10.195ZM195.084 9.3695C195.53 9.3695 195.92 9.28933 196.254 9.129C196.587 8.96867 196.856 8.74983 197.06 8.4725C197.263 8.19083 197.396 7.8745 197.456 7.5235C197.508 7.29817 197.536 7.05117 197.541 6.7825C197.545 6.5095 197.547 6.30583 197.547 6.1715L197.911 6.36C197.586 6.40333 197.233 6.44667 196.852 6.49C196.475 6.53333 196.102 6.58317 195.734 6.6395C195.37 6.69583 195.04 6.763 194.746 6.841C194.546 6.89733 194.354 6.9775 194.167 7.0815C193.981 7.18117 193.827 7.3155 193.706 7.4845C193.589 7.6535 193.53 7.86367 193.53 8.115C193.53 8.31867 193.58 8.51583 193.68 8.7065C193.784 8.89717 193.948 9.05533 194.174 9.181C194.403 9.30667 194.707 9.3695 195.084 9.3695ZM203.341 10.195C202.695 10.195 202.149 10.0325 201.703 9.7075C201.256 9.37817 200.918 8.934 200.689 8.375C200.459 7.81167 200.344 7.18117 200.344 6.4835C200.344 5.77283 200.459 5.14017 200.689 4.5855C200.923 4.0265 201.265 3.58667 201.716 3.266C202.166 2.94533 202.721 2.785 203.38 2.785C204.021 2.785 204.571 2.9475 205.031 3.2725C205.49 3.5975 205.841 4.0395 206.084 4.5985C206.331 5.1575 206.454 5.78583 206.454 6.4835C206.454 7.1855 206.331 7.816 206.084 8.375C205.837 8.934 205.481 9.37817 205.018 9.7075C204.554 10.0325 203.995 10.195 203.341 10.195ZM200.182 10V0.64H201.144V4.7155H201.04V10H200.182ZM203.243 9.3045C203.733 9.3045 204.14 9.181 204.465 8.934C204.79 8.687 205.033 8.35117 205.193 7.9265C205.358 7.4975 205.44 7.0165 205.44 6.4835C205.44 5.95483 205.36 5.47817 205.2 5.0535C205.039 4.62883 204.795 4.293 204.465 4.046C204.14 3.799 203.726 3.6755 203.224 3.6755C202.734 3.6755 202.327 3.79467 202.002 4.033C201.681 4.27133 201.441 4.60283 201.28 5.0275C201.12 5.44783 201.04 5.93317 201.04 6.4835C201.04 7.02517 201.12 7.5105 201.28 7.9395C201.441 8.36417 201.683 8.69783 202.008 8.9405C202.333 9.18317 202.745 9.3045 203.243 9.3045ZM210.813 10.195C210.116 10.195 209.52 10.0368 209.026 9.7205C208.532 9.40417 208.153 8.9665 207.888 8.4075C207.624 7.8485 207.492 7.20717 207.492 6.4835C207.492 5.74683 207.626 5.10117 207.895 4.5465C208.163 3.99183 208.545 3.56067 209.039 3.253C209.537 2.941 210.129 2.785 210.813 2.785C211.515 2.785 212.113 2.94317 212.607 3.2595C213.106 3.5715 213.485 4.007 213.745 4.566C214.009 5.12067 214.141 5.75983 214.141 6.4835C214.141 7.22017 214.009 7.868 213.745 8.427C213.48 8.98167 213.099 9.415 212.601 9.727C212.102 10.039 211.507 10.195 210.813 10.195ZM210.813 9.2785C211.593 9.2785 212.174 9.02067 212.555 8.505C212.937 7.985 213.127 7.31117 213.127 6.4835C213.127 5.63417 212.934 4.95817 212.549 4.4555C212.167 3.95283 211.589 3.7015 210.813 3.7015C210.289 3.7015 209.856 3.82067 209.513 4.059C209.175 4.293 208.922 4.62017 208.753 5.0405C208.588 5.4565 208.506 5.9375 208.506 6.4835C208.506 7.3285 208.701 8.00667 209.091 8.518C209.481 9.025 210.055 9.2785 210.813 9.2785ZM218.26 10.1755C217.839 10.1755 217.471 10.1105 217.155 9.9805C216.843 9.8505 216.576 9.675 216.355 9.454C216.138 9.233 215.963 8.98167 215.829 8.7C215.694 8.414 215.597 8.11283 215.536 7.7965C215.475 7.47583 215.445 7.15733 215.445 6.841V2.98H216.407V6.5615C216.407 6.94717 216.444 7.30467 216.518 7.634C216.591 7.96333 216.708 8.2515 216.869 8.4985C217.033 8.74117 217.243 8.92967 217.499 9.064C217.759 9.19833 218.073 9.2655 218.442 9.2655C218.78 9.2655 219.076 9.207 219.332 9.09C219.592 8.973 219.809 8.80617 219.982 8.5895C220.16 8.3685 220.294 8.102 220.385 7.79C220.476 7.47367 220.522 7.11833 220.522 6.724L221.198 6.8735C221.198 7.59283 221.072 8.19733 220.821 8.687C220.569 9.17667 220.223 9.54717 219.781 9.7985C219.339 10.0498 218.832 10.1755 218.26 10.1755ZM220.619 10V8.271H220.522V2.98H221.477V10H220.619ZM227.116 10C226.721 10.0823 226.331 10.1148 225.946 10.0975C225.564 10.0802 225.222 9.99783 224.919 9.8505C224.62 9.70317 224.392 9.4735 224.236 9.1615C224.111 8.9015 224.041 8.63933 224.028 8.375C224.02 8.10633 224.015 7.80083 224.015 7.4585V1.03H224.964V7.4195C224.964 7.71417 224.966 7.96117 224.971 8.1605C224.979 8.3555 225.025 8.52883 225.107 8.6805C225.263 8.97083 225.51 9.14417 225.848 9.2005C226.191 9.25683 226.613 9.24383 227.116 9.1615V10ZM222.514 3.799V2.98H227.116V3.799H222.514ZM3.6335 30.195C2.97917 30.195 2.42017 30.0325 1.9565 29.7075C1.49283 29.3782 1.1375 28.934 0.8905 28.375C0.6435 27.816 0.52 27.1855 0.52 26.4835C0.52 25.7858 0.641333 25.1575 0.884 24.5985C1.131 24.0395 1.48417 23.5975 1.9435 23.2725C2.40283 22.9475 2.95317 22.785 3.5945 22.785C4.25317 22.785 4.80783 22.9453 5.2585 23.266C5.70917 23.5867 6.04933 24.0265 6.279 24.5855C6.513 25.1402 6.63 25.7728 6.63 26.4835C6.63 27.1812 6.51517 27.8117 6.2855 28.375C6.05583 28.934 5.71783 29.3782 5.2715 29.7075C4.82517 30.0325 4.27917 30.195 3.6335 30.195ZM3.731 29.3045C4.22933 29.3045 4.641 29.1832 4.966 28.9405C5.291 28.6978 5.53367 28.3642 5.694 27.9395C5.85433 27.5105 5.9345 27.0252 5.9345 26.4835C5.9345 25.9332 5.85433 25.4478 5.694 25.0275C5.53367 24.6028 5.291 24.2713 4.966 24.033C4.64533 23.7947 4.24017 23.6755 3.7505 23.6755C3.24783 23.6755 2.83183 23.799 2.5025 24.046C2.17317 24.293 1.92833 24.6288 1.768 25.0535C1.612 25.4782 1.534 25.9548 1.534 26.4835C1.534 27.0165 1.61417 27.4975 1.7745 27.9265C1.93917 28.3512 2.184 28.687 2.509 28.934C2.834 29.181 3.24133 29.3045 3.731 29.3045ZM5.9345 30V24.7155H5.8305V20.64H6.7925V30H5.9345ZM11.5866 30.195C10.9019 30.195 10.3082 30.0433 9.80555 29.74C9.30722 29.4367 8.91939 29.0098 8.64205 28.4595C8.36472 27.9092 8.22605 27.2635 8.22605 26.5225C8.22605 25.7555 8.36255 25.0925 8.63555 24.5335C8.90855 23.9745 9.29205 23.5433 9.78605 23.24C10.2844 22.9367 10.8716 22.785 11.5476 22.785C12.2409 22.785 12.8324 22.9453 13.3221 23.266C13.8117 23.5823 14.1822 24.0373 14.4336 24.631C14.6849 25.2247 14.7997 25.9332 14.7781 26.7565H13.8031V26.4185C13.7857 25.5085 13.5886 24.8217 13.2116 24.358C12.8389 23.8943 12.2929 23.6625 11.5736 23.6625C10.8196 23.6625 10.2411 23.9073 9.83805 24.397C9.43939 24.8867 9.24005 25.5843 9.24005 26.49C9.24005 27.374 9.43939 28.0608 9.83805 28.5505C10.2411 29.0358 10.8109 29.2785 11.5476 29.2785C12.0502 29.2785 12.4879 29.1637 12.8606 28.934C13.2376 28.7 13.5344 28.3642 13.7511 27.9265L14.6416 28.271C14.3642 28.882 13.9547 29.3565 13.4131 29.6945C12.8757 30.0282 12.2669 30.195 11.5866 30.195ZM8.90205 26.7565V25.957H14.2646V26.7565H8.90205ZM18.84 30.1885C18.0167 30.1885 17.3385 30.0108 16.8055 29.6555C16.2769 29.3002 15.9519 28.8062 15.8305 28.1735L16.8055 28.011C16.9095 28.4097 17.1457 28.7282 17.514 28.9665C17.8867 29.2005 18.346 29.3175 18.892 29.3175C19.425 29.3175 19.8454 29.207 20.153 28.986C20.4607 28.7607 20.6145 28.4552 20.6145 28.0695C20.6145 27.8528 20.5647 27.6773 20.465 27.543C20.3697 27.4043 20.1725 27.2765 19.8735 27.1595C19.5745 27.0425 19.1282 26.9038 18.5345 26.7435C17.8975 26.5702 17.3992 26.3968 17.0395 26.2235C16.6799 26.0502 16.4242 25.8508 16.2725 25.6255C16.1209 25.3958 16.045 25.1163 16.045 24.787C16.045 24.3883 16.1577 24.0395 16.383 23.7405C16.6084 23.4372 16.9204 23.2032 17.319 23.0385C17.7177 22.8695 18.1814 22.785 18.71 22.785C19.2387 22.785 19.711 22.8717 20.127 23.045C20.5474 23.214 20.8854 23.4523 21.141 23.76C21.3967 24.0677 21.5484 24.4252 21.596 24.8325L20.621 25.008C20.556 24.5963 20.3502 24.2713 20.0035 24.033C19.6612 23.7903 19.2257 23.6647 18.697 23.656C18.1987 23.643 17.7935 23.7383 17.4815 23.942C17.1695 24.1413 17.0135 24.4078 17.0135 24.7415C17.0135 24.9278 17.0699 25.0882 17.1825 25.2225C17.2952 25.3525 17.4989 25.476 17.7935 25.593C18.0925 25.71 18.5172 25.8378 19.0675 25.9765C19.7132 26.1412 20.2202 26.3145 20.5885 26.4965C20.9569 26.6785 21.219 26.893 21.375 27.14C21.531 27.387 21.609 27.6925 21.609 28.0565C21.609 28.7195 21.362 29.2417 20.868 29.623C20.3784 30 19.7024 30.1885 18.84 30.1885ZM25.6701 30.1885C24.8468 30.1885 24.1686 30.0108 23.6356 29.6555C23.107 29.3002 22.782 28.8062 22.6606 28.1735L23.6356 28.011C23.7396 28.4097 23.9758 28.7282 24.3441 28.9665C24.7168 29.2005 25.1761 29.3175 25.7221 29.3175C26.2551 29.3175 26.6755 29.207 26.9831 28.986C27.2908 28.7607 27.4446 28.4552 27.4446 28.0695C27.4446 27.8528 27.3948 27.6773 27.2951 27.543C27.1998 27.4043 27.0026 27.2765 26.7036 27.1595C26.4046 27.0425 25.9583 26.9038 25.3646 26.7435C24.7276 26.5702 24.2293 26.3968 23.8696 26.2235C23.51 26.0502 23.2543 25.8508 23.1026 25.6255C22.951 25.3958 22.8751 25.1163 22.8751 24.787C22.8751 24.3883 22.9878 24.0395 23.2131 23.7405C23.4385 23.4372 23.7505 23.2032 24.1491 23.0385C24.5478 22.8695 25.0115 22.785 25.5401 22.785C26.0688 22.785 26.5411 22.8717 26.9571 23.045C27.3775 23.214 27.7155 23.4523 27.9711 23.76C28.2268 24.0677 28.3785 24.4252 28.4261 24.8325L27.4511 25.008C27.3861 24.5963 27.1803 24.2713 26.8336 24.033C26.4913 23.7903 26.0558 23.6647 25.5271 23.656C25.0288 23.643 24.6236 23.7383 24.3116 23.942C23.9996 24.1413 23.8436 24.4078 23.8436 24.7415C23.8436 24.9278 23.9 25.0882 24.0126 25.2225C24.1253 25.3525 24.329 25.476 24.6236 25.593C24.9226 25.71 25.3473 25.8378 25.8976 25.9765C26.5433 26.1412 27.0503 26.3145 27.4186 26.4965C27.787 26.6785 28.0491 26.893 28.2051 27.14C28.3611 27.387 28.4391 27.6925 28.4391 28.0565C28.4391 28.7195 28.1921 29.2417 27.6981 29.623C27.2085 30 26.5325 30.1885 25.6701 30.1885ZM32.8512 30.195C32.1665 30.195 31.5729 30.0433 31.0702 29.74C30.5719 29.4367 30.184 29.0098 29.9067 28.4595C29.6294 27.9092 29.4907 27.2635 29.4907 26.5225C29.4907 25.7555 29.6272 25.0925 29.9002 24.5335C30.1732 23.9745 30.5567 23.5433 31.0507 23.24C31.549 22.9367 32.1362 22.785 32.8122 22.785C33.5055 22.785 34.097 22.9453 34.5867 23.266C35.0764 23.5823 35.4469 24.0373 35.6982 24.631C35.9495 25.2247 36.0644 25.9332 36.0427 26.7565H35.0677V26.4185C35.0504 25.5085 34.8532 24.8217 34.4762 24.358C34.1035 23.8943 33.5575 23.6625 32.8382 23.6625C32.0842 23.6625 31.5057 23.9073 31.1027 24.397C30.704 24.8867 30.5047 25.5843 30.5047 26.49C30.5047 27.374 30.704 28.0608 31.1027 28.5505C31.5057 29.0358 32.0755 29.2785 32.8122 29.2785C33.3149 29.2785 33.7525 29.1637 34.1252 28.934C34.5022 28.7 34.799 28.3642 35.0157 27.9265L35.9062 28.271C35.6289 28.882 35.2194 29.3565 34.6777 29.6945C34.1404 30.0282 33.5315 30.195 32.8512 30.195ZM30.1667 26.7565V25.957H35.5292V26.7565H30.1667ZM37.4852 30V22.98H38.3432V24.67L38.1742 24.449C38.2522 24.241 38.354 24.0503 38.4797 23.877C38.6054 23.6993 38.7419 23.5542 38.8892 23.4415C39.0712 23.2812 39.2835 23.1598 39.5262 23.0775C39.7689 22.9908 40.0137 22.941 40.2607 22.928C40.5077 22.9107 40.733 22.928 40.9367 22.98V23.877C40.681 23.812 40.4015 23.7968 40.0982 23.8315C39.7949 23.8662 39.5154 23.9875 39.2597 24.1955C39.0257 24.3775 38.8502 24.5963 38.7332 24.852C38.6162 25.1033 38.5382 25.372 38.4992 25.658C38.4602 25.9397 38.4407 26.2192 38.4407 26.4965V30H37.4852ZM45.9918 30C45.5974 30.0823 45.2074 30.1148 44.8218 30.0975C44.4404 30.0802 44.0981 29.9978 43.7948 29.8505C43.4958 29.7032 43.2683 29.4735 43.1123 29.1615C42.9866 28.9015 42.9173 28.6393 42.9043 28.375C42.8956 28.1063 42.8913 27.8008 42.8913 27.4585V21.03H43.8403V27.4195C43.8403 27.7142 43.8424 27.9612 43.8468 28.1605C43.8554 28.3555 43.9009 28.5288 43.9833 28.6805C44.1393 28.9708 44.3863 29.1442 44.7243 29.2005C45.0666 29.2568 45.4891 29.2438 45.9918 29.1615V30ZM41.3898 23.799V22.98H45.9918V23.799H41.3898ZM49.9943 30.1885C49.171 30.1885 48.4928 30.0108 47.9598 29.6555C47.4312 29.3002 47.1062 28.8062 46.9848 28.1735L47.9598 28.011C48.0638 28.4097 48.3 28.7282 48.6683 28.9665C49.041 29.2005 49.5003 29.3175 50.0463 29.3175C50.5793 29.3175 50.9997 29.207 51.3073 28.986C51.615 28.7607 51.7688 28.4552 51.7688 28.0695C51.7688 27.8528 51.719 27.6773 51.6193 27.543C51.524 27.4043 51.3268 27.2765 51.0278 27.1595C50.7288 27.0425 50.2825 26.9038 49.6888 26.7435C49.0518 26.5702 48.5535 26.3968 48.1938 26.2235C47.8342 26.0502 47.5785 25.8508 47.4268 25.6255C47.2752 25.3958 47.1993 25.1163 47.1993 24.787C47.1993 24.3883 47.312 24.0395 47.5373 23.7405C47.7627 23.4372 48.0747 23.2032 48.4733 23.0385C48.872 22.8695 49.3357 22.785 49.8643 22.785C50.393 22.785 50.8653 22.8717 51.2813 23.045C51.7017 23.214 52.0397 23.4523 52.2953 23.76C52.551 24.0677 52.7027 24.4252 52.7503 24.8325L51.7753 25.008C51.7103 24.5963 51.5045 24.2713 51.1578 24.033C50.8155 23.7903 50.38 23.6647 49.8513 23.656C49.353 23.643 48.9478 23.7383 48.6358 23.942C48.3238 24.1413 48.1678 24.4078 48.1678 24.7415C48.1678 24.9278 48.2242 25.0882 48.3368 25.2225C48.4495 25.3525 48.6532 25.476 48.9478 25.593C49.2468 25.71 49.6715 25.8378 50.2218 25.9765C50.8675 26.1412 51.3745 26.3145 51.7428 26.4965C52.1112 26.6785 52.3733 26.893 52.5293 27.14C52.6853 27.387 52.7633 27.6925 52.7633 28.0565C52.7633 28.7195 52.5163 29.2417 52.0223 29.623C51.5327 30 50.8567 30.1885 49.9943 30.1885ZM59.96 30.195C59.3143 30.195 58.7683 30.0325 58.322 29.7075C57.8756 29.3782 57.5376 28.934 57.308 28.375C57.0783 27.8117 56.9635 27.1812 56.9635 26.4835C56.9635 25.7728 57.0783 25.1402 57.308 24.5855C57.542 24.0265 57.8843 23.5867 58.335 23.266C58.7856 22.9453 59.3403 22.785 59.999 22.785C60.6403 22.785 61.1906 22.9475 61.65 23.2725C62.1093 23.5975 62.4603 24.0395 62.703 24.5985C62.95 25.1575 63.0735 25.7858 63.0735 26.4835C63.0735 27.1855 62.95 27.816 62.703 28.375C62.456 28.934 62.1006 29.3782 61.637 29.7075C61.1733 30.0325 60.6143 30.195 59.96 30.195ZM56.801 30V20.64H57.763V24.7155H57.659V30H56.801ZM59.8625 29.3045C60.3521 29.3045 60.7595 29.181 61.0845 28.934C61.4095 28.687 61.6521 28.3512 61.8125 27.9265C61.9771 27.4975 62.0595 27.0165 62.0595 26.4835C62.0595 25.9548 61.9793 25.4782 61.819 25.0535C61.6586 24.6288 61.4138 24.293 61.0845 24.046C60.7595 23.799 60.3456 23.6755 59.843 23.6755C59.3533 23.6755 58.946 23.7947 58.621 24.033C58.3003 24.2713 58.0598 24.6028 57.8995 25.0275C57.7391 25.4478 57.659 25.9332 57.659 26.4835C57.659 27.0252 57.7391 27.5105 57.8995 27.9395C58.0598 28.3642 58.3025 28.6978 58.6275 28.9405C58.9525 29.1832 59.3641 29.3045 59.8625 29.3045ZM67.4713 30.195C66.7867 30.195 66.193 30.0433 65.6903 29.74C65.192 29.4367 64.8042 29.0098 64.5268 28.4595C64.2495 27.9092 64.1108 27.2635 64.1108 26.5225C64.1108 25.7555 64.2473 25.0925 64.5203 24.5335C64.7933 23.9745 65.1768 23.5433 65.6708 23.24C66.1692 22.9367 66.7563 22.785 67.4323 22.785C68.1257 22.785 68.7172 22.9453 69.2068 23.266C69.6965 23.5823 70.067 24.0373 70.3183 24.631C70.5697 25.2247 70.6845 25.9332 70.6628 26.7565H69.6878V26.4185C69.6705 25.5085 69.4733 24.8217 69.0963 24.358C68.7237 23.8943 68.1777 23.6625 67.4583 23.6625C66.7043 23.6625 66.1258 23.9073 65.7228 24.397C65.3242 24.8867 65.1248 25.5843 65.1248 26.49C65.1248 27.374 65.3242 28.0608 65.7228 28.5505C66.1258 29.0358 66.6957 29.2785 67.4323 29.2785C67.935 29.2785 68.3727 29.1637 68.7453 28.934C69.1223 28.7 69.4192 28.3642 69.6358 27.9265L70.5263 28.271C70.249 28.882 69.8395 29.3565 69.2978 29.6945C68.7605 30.0282 68.1517 30.195 67.4713 30.195ZM64.7868 26.7565V25.957H70.1493V26.7565H64.7868ZM75.0173 30.195C74.311 30.195 73.713 30.0368 73.2233 29.7205C72.7336 29.4042 72.361 28.9687 72.1053 28.414C71.854 27.855 71.724 27.2137 71.7153 26.49C71.724 25.7533 71.8583 25.1077 72.1183 24.553C72.3783 23.994 72.7531 23.5607 73.2428 23.253C73.7325 22.941 74.3261 22.785 75.0238 22.785C75.7345 22.785 76.352 22.9583 76.8763 23.305C77.405 23.6517 77.7668 24.1262 77.9618 24.7285L77.0258 25.0275C76.8611 24.6072 76.599 24.2822 76.2393 24.0525C75.884 23.8185 75.4766 23.7015 75.0173 23.7015C74.5016 23.7015 74.0748 23.8207 73.7368 24.059C73.3988 24.293 73.1475 24.6202 72.9828 25.0405C72.8181 25.4608 72.7336 25.944 72.7293 26.49C72.738 27.3307 72.933 28.0067 73.3143 28.518C73.6956 29.025 74.2633 29.2785 75.0173 29.2785C75.494 29.2785 75.8991 29.1702 76.2328 28.9535C76.5708 28.7325 76.8265 28.4118 76.9998 27.9915L77.9618 28.2775C77.7018 28.9015 77.3205 29.3782 76.8178 29.7075C76.3151 30.0325 75.715 30.195 75.0173 30.195ZM81.274 30.195C80.7453 30.195 80.3011 30.0997 79.9415 29.909C79.5861 29.7183 79.3196 29.4648 79.142 29.1485C78.9643 28.8322 78.8755 28.4877 78.8755 28.115C78.8755 27.7337 78.9513 27.4087 79.103 27.14C79.259 26.867 79.4691 26.6438 79.7335 26.4705C80.0021 26.2972 80.312 26.165 80.663 26.074C81.0183 25.9873 81.4105 25.9115 81.8395 25.8465C82.2728 25.7772 82.6953 25.7187 83.107 25.671C83.523 25.619 83.887 25.5692 84.199 25.5215L83.861 25.7295C83.874 25.0362 83.7396 24.5227 83.458 24.189C83.1763 23.8553 82.6866 23.6885 81.989 23.6885C81.508 23.6885 81.1006 23.7968 80.767 24.0135C80.4376 24.2302 80.2058 24.5725 80.0715 25.0405L79.142 24.7675C79.3023 24.1392 79.6251 23.6517 80.1105 23.305C80.5958 22.9583 81.2263 22.785 82.002 22.785C82.6433 22.785 83.1871 22.9063 83.6335 23.149C84.0841 23.3873 84.4026 23.734 84.589 24.189C84.6756 24.3927 84.732 24.6202 84.758 24.8715C84.784 25.1228 84.797 25.3785 84.797 25.6385V30H83.9455V28.2385L84.1925 28.3425C83.9541 28.9448 83.5836 29.4042 83.081 29.7205C82.5783 30.0368 81.976 30.195 81.274 30.195ZM81.3845 29.3695C81.8308 29.3695 82.2208 29.2893 82.5545 29.129C82.8881 28.9687 83.1568 28.7498 83.3605 28.4725C83.5641 28.1908 83.6963 27.8745 83.757 27.5235C83.809 27.2982 83.8371 27.0512 83.8415 26.7825C83.8458 26.5095 83.848 26.3058 83.848 26.1715L84.212 26.36C83.887 26.4033 83.5338 26.4467 83.1525 26.49C82.7755 26.5333 82.4028 26.5832 82.0345 26.6395C81.6705 26.6958 81.3411 26.763 81.0465 26.841C80.8471 26.8973 80.6543 26.9775 80.468 27.0815C80.2816 27.1812 80.1278 27.3155 80.0065 27.4845C79.8895 27.6535 79.831 27.8637 79.831 28.115C79.831 28.3187 79.8808 28.5158 79.9805 28.7065C80.0845 28.8972 80.2491 29.0553 80.4745 29.181C80.7041 29.3067 81.0075 29.3695 81.3845 29.3695ZM89.1736 30.1755C88.7533 30.1755 88.3849 30.1105 88.0686 29.9805C87.7566 29.8505 87.4901 29.675 87.2691 29.454C87.0524 29.233 86.8769 28.9817 86.7426 28.7C86.6083 28.414 86.5108 28.1128 86.4501 27.7965C86.3894 27.4758 86.3591 27.1573 86.3591 26.841V22.98H87.3211V26.5615C87.3211 26.9472 87.3579 27.3047 87.4316 27.634C87.5053 27.9633 87.6223 28.2515 87.7826 28.4985C87.9473 28.7412 88.1574 28.9297 88.4131 29.064C88.6731 29.1983 88.9873 29.2655 89.3556 29.2655C89.6936 29.2655 89.9904 29.207 90.2461 29.09C90.5061 28.973 90.7228 28.8062 90.8961 28.5895C91.0738 28.3685 91.2081 28.102 91.2991 27.79C91.3901 27.4737 91.4356 27.1183 91.4356 26.724L92.1116 26.8735C92.1116 27.5928 91.9859 28.1973 91.7346 28.687C91.4833 29.1767 91.1366 29.5472 90.6946 29.7985C90.2526 30.0498 89.7456 30.1755 89.1736 30.1755ZM91.5331 30V28.271H91.4356V22.98H92.3911V30H91.5331ZM96.8274 30.1885C96.004 30.1885 95.3259 30.0108 94.7929 29.6555C94.2642 29.3002 93.9392 28.8062 93.8179 28.1735L94.7929 28.011C94.8969 28.4097 95.133 28.7282 95.5014 28.9665C95.874 29.2005 96.3334 29.3175 96.8794 29.3175C97.4124 29.3175 97.8327 29.207 98.1404 28.986C98.448 28.7607 98.6019 28.4552 98.6019 28.0695C98.6019 27.8528 98.552 27.6773 98.4524 27.543C98.357 27.4043 98.1599 27.2765 97.8609 27.1595C97.5619 27.0425 97.1155 26.9038 96.5219 26.7435C95.8849 26.5702 95.3865 26.3968 95.0269 26.2235C94.6672 26.0502 94.4115 25.8508 94.2599 25.6255C94.1082 25.3958 94.0324 25.1163 94.0324 24.787C94.0324 24.3883 94.145 24.0395 94.3704 23.7405C94.5957 23.4372 94.9077 23.2032 95.3064 23.0385C95.705 22.8695 96.1687 22.785 96.6974 22.785C97.226 22.785 97.6984 22.8717 98.1144 23.045C98.5347 23.214 98.8727 23.4523 99.1284 23.76C99.384 24.0677 99.5357 24.4252 99.5834 24.8325L98.6084 25.008C98.5434 24.5963 98.3375 24.2713 97.9909 24.033C97.6485 23.7903 97.213 23.6647 96.6844 23.656C96.186 23.643 95.7809 23.7383 95.4689 23.942C95.1569 24.1413 95.0009 24.4078 95.0009 24.7415C95.0009 24.9278 95.0572 25.0882 95.1699 25.2225C95.2825 25.3525 95.4862 25.476 95.7809 25.593C96.0799 25.71 96.5045 25.8378 97.0549 25.9765C97.7005 26.1412 98.2075 26.3145 98.5759 26.4965C98.9442 26.6785 99.2064 26.893 99.3624 27.14C99.5184 27.387 99.5964 27.6925 99.5964 28.0565C99.5964 28.7195 99.3494 29.2417 98.8554 29.623C98.3657 30 97.6897 30.1885 96.8274 30.1885ZM104.008 30.195C103.324 30.195 102.73 30.0433 102.227 29.74C101.729 29.4367 101.341 29.0098 101.064 28.4595C100.787 27.9092 100.648 27.2635 100.648 26.5225C100.648 25.7555 100.784 25.0925 101.057 24.5335C101.33 23.9745 101.714 23.5433 102.208 23.24C102.706 22.9367 103.293 22.785 103.969 22.785C104.663 22.785 105.254 22.9453 105.744 23.266C106.234 23.5823 106.604 24.0373 106.855 24.631C107.107 25.2247 107.222 25.9332 107.2 26.7565H106.225V26.4185C106.208 25.5085 106.01 24.8217 105.633 24.358C105.261 23.8943 104.715 23.6625 103.995 23.6625C103.241 23.6625 102.663 23.9073 102.26 24.397C101.861 24.8867 101.662 25.5843 101.662 26.49C101.662 27.374 101.861 28.0608 102.26 28.5505C102.663 29.0358 103.233 29.2785 103.969 29.2785C104.472 29.2785 104.91 29.1637 105.282 28.934C105.659 28.7 105.956 28.3642 106.173 27.9265L107.063 28.271C106.786 28.882 106.377 29.3565 105.835 29.6945C105.298 30.0282 104.689 30.195 104.008 30.195ZM101.324 26.7565V25.957H106.686V26.7565H101.324ZM116.315 30V26.4185C116.315 26.0285 116.278 25.671 116.204 25.346C116.131 25.0167 116.012 24.7307 115.847 24.488C115.687 24.241 115.476 24.0503 115.216 23.916C114.961 23.7817 114.649 23.7145 114.28 23.7145C113.942 23.7145 113.643 23.773 113.383 23.89C113.128 24.007 112.911 24.176 112.733 24.397C112.56 24.6137 112.428 24.878 112.337 25.19C112.246 25.502 112.2 25.8573 112.2 26.256L111.524 26.1065C111.524 25.3872 111.65 24.7827 111.901 24.293C112.153 23.8033 112.499 23.4328 112.941 23.1815C113.383 22.9302 113.89 22.8045 114.462 22.8045C114.883 22.8045 115.249 22.8695 115.561 22.9995C115.877 23.1295 116.144 23.305 116.36 23.526C116.581 23.747 116.759 24.0005 116.893 24.2865C117.028 24.5682 117.125 24.8693 117.186 25.19C117.247 25.5063 117.277 25.8227 117.277 26.139V30H116.315ZM111.238 30V20.64H112.103V25.9245H112.2V30H111.238ZM121.934 30.195C121.25 30.195 120.656 30.0433 120.153 29.74C119.655 29.4367 119.267 29.0098 118.99 28.4595C118.712 27.9092 118.574 27.2635 118.574 26.5225C118.574 25.7555 118.71 25.0925 118.983 24.5335C119.256 23.9745 119.64 23.5433 120.134 23.24C120.632 22.9367 121.219 22.785 121.895 22.785C122.589 22.785 123.18 22.9453 123.67 23.266C124.159 23.5823 124.53 24.0373 124.781 24.631C125.033 25.2247 125.147 25.9332 125.126 26.7565H124.151V26.4185C124.133 25.5085 123.936 24.8217 123.559 24.358C123.187 23.8943 122.641 23.6625 121.921 23.6625C121.167 23.6625 120.589 23.9073 120.186 24.397C119.787 24.8867 119.588 25.5843 119.588 26.49C119.588 27.374 119.787 28.0608 120.186 28.5505C120.589 29.0358 121.159 29.2785 121.895 29.2785C122.398 29.2785 122.836 29.1637 123.208 28.934C123.585 28.7 123.882 28.3642 124.099 27.9265L124.989 28.271C124.712 28.882 124.302 29.3565 123.761 29.6945C123.223 30.0282 122.615 30.195 121.934 30.195ZM119.25 26.7565V25.957H124.612V26.7565H119.25ZM126.568 30V22.98H127.426V24.67L127.257 24.449C127.335 24.241 127.437 24.0503 127.563 23.877C127.688 23.6993 127.825 23.5542 127.972 23.4415C128.154 23.2812 128.367 23.1598 128.609 23.0775C128.852 22.9908 129.097 22.941 129.344 22.928C129.591 22.9107 129.816 22.928 130.02 22.98V23.877C129.764 23.812 129.485 23.7968 129.181 23.8315C128.878 23.8662 128.598 23.9875 128.343 24.1955C128.109 24.3775 127.933 24.5963 127.816 24.852C127.699 25.1033 127.621 25.372 127.582 25.658C127.543 25.9397 127.524 26.2192 127.524 26.4965V30H126.568ZM134.096 30.195C133.412 30.195 132.818 30.0433 132.315 29.74C131.817 29.4367 131.429 29.0098 131.152 28.4595C130.874 27.9092 130.736 27.2635 130.736 26.5225C130.736 25.7555 130.872 25.0925 131.145 24.5335C131.418 23.9745 131.802 23.5433 132.296 23.24C132.794 22.9367 133.381 22.785 134.057 22.785C134.751 22.785 135.342 22.9453 135.832 23.266C136.321 23.5823 136.692 24.0373 136.943 24.631C137.195 25.2247 137.309 25.9332 137.288 26.7565H136.313V26.4185C136.295 25.5085 136.098 24.8217 135.721 24.358C135.349 23.8943 134.803 23.6625 134.083 23.6625C133.329 23.6625 132.751 23.9073 132.348 24.397C131.949 24.8867 131.75 25.5843 131.75 26.49C131.75 27.374 131.949 28.0608 132.348 28.5505C132.751 29.0358 133.321 29.2785 134.057 29.2785C134.56 29.2785 134.998 29.1637 135.37 28.934C135.747 28.7 136.044 28.3642 136.261 27.9265L137.151 28.271C136.874 28.882 136.464 29.3565 135.923 29.6945C135.385 30.0282 134.777 30.195 134.096 30.195ZM131.412 26.7565V25.957H136.774V26.7565H131.412ZM141.463 21.6475V20.575H142.418V21.6475H141.463ZM141.463 30V22.98H142.418V30H141.463ZM146.987 30.1885C146.163 30.1885 145.485 30.0108 144.952 29.6555C144.423 29.3002 144.098 28.8062 143.977 28.1735L144.952 28.011C145.056 28.4097 145.292 28.7282 145.661 28.9665C146.033 29.2005 146.493 29.3175 147.039 29.3175C147.572 29.3175 147.992 29.207 148.3 28.986C148.607 28.7607 148.761 28.4552 148.761 28.0695C148.761 27.8528 148.711 27.6773 148.612 27.543C148.516 27.4043 148.319 27.2765 148.02 27.1595C147.721 27.0425 147.275 26.9038 146.681 26.7435C146.044 26.5702 145.546 26.3968 145.186 26.2235C144.826 26.0502 144.571 25.8508 144.419 25.6255C144.267 25.3958 144.192 25.1163 144.192 24.787C144.192 24.3883 144.304 24.0395 144.53 23.7405C144.755 23.4372 145.067 23.2032 145.466 23.0385C145.864 22.8695 146.328 22.785 146.857 22.785C147.385 22.785 147.858 22.8717 148.274 23.045C148.694 23.214 149.032 23.4523 149.288 23.76C149.543 24.0677 149.695 24.4252 149.743 24.8325L148.768 25.008C148.703 24.5963 148.497 24.2713 148.15 24.033C147.808 23.7903 147.372 23.6647 146.844 23.656C146.345 23.643 145.94 23.7383 145.628 23.942C145.316 24.1413 145.16 24.4078 145.16 24.7415C145.16 24.9278 145.216 25.0882 145.329 25.2225C145.442 25.3525 145.645 25.476 145.94 25.593C146.239 25.71 146.664 25.8378 147.214 25.9765C147.86 26.1412 148.367 26.3145 148.735 26.4965C149.103 26.6785 149.366 26.893 149.522 27.14C149.678 27.387 149.756 27.6925 149.756 28.0565C149.756 28.7195 149.509 29.2417 149.015 29.623C148.525 30 147.849 30.1885 146.987 30.1885ZM153.8 30V20.64H154.677L158.356 28.5115L162.016 20.64H162.906V29.9935H161.996V22.772L158.662 30H158.044L154.716 22.772V30H153.8ZM168.52 30.195C167.588 30.195 166.802 29.9892 166.16 29.5775C165.519 29.1615 165.034 28.5873 164.704 27.855C164.375 27.1227 164.21 26.2777 164.21 25.32C164.21 24.3623 164.375 23.5173 164.704 22.785C165.034 22.0527 165.519 21.4807 166.16 21.069C166.802 20.653 167.588 20.445 168.52 20.445C169.456 20.445 170.242 20.653 170.879 21.069C171.521 21.4807 172.006 22.0527 172.335 22.785C172.669 23.5173 172.836 24.3623 172.836 25.32C172.836 26.2777 172.669 27.1227 172.335 27.855C172.006 28.5873 171.521 29.1615 170.879 29.5775C170.242 29.9892 169.456 30.195 168.52 30.195ZM168.52 29.2785C169.252 29.2785 169.863 29.1117 170.353 28.778C170.842 28.4443 171.209 27.9807 171.451 27.387C171.698 26.789 171.822 26.1 171.822 25.32C171.822 24.54 171.698 23.8532 171.451 23.2595C171.209 22.6658 170.842 22.2022 170.353 21.8685C169.863 21.5348 169.252 21.3658 168.52 21.3615C167.787 21.3615 167.179 21.5283 166.693 21.862C166.208 22.1957 165.842 22.6615 165.595 23.2595C165.352 23.8532 165.229 24.54 165.224 25.32C165.22 26.1 165.339 26.7868 165.582 27.3805C165.829 27.9698 166.197 28.4335 166.687 28.7715C167.176 29.1052 167.787 29.2742 168.52 29.2785ZM174.138 30V20.64H177.752C177.843 20.64 177.944 20.6443 178.057 20.653C178.174 20.6573 178.291 20.6703 178.408 20.692C178.898 20.7657 179.312 20.9368 179.65 21.2055C179.992 21.4698 180.25 21.8035 180.423 22.2065C180.601 22.6095 180.69 23.0558 180.69 23.5455C180.69 24.2518 180.503 24.865 180.131 25.385C179.758 25.905 179.225 26.2322 178.532 26.3665L178.2 26.4445H175.093V30H174.138ZM179.806 30L177.96 26.191L178.876 25.84L180.904 30H179.806ZM175.093 25.5345H177.726C177.804 25.5345 177.895 25.5302 177.999 25.5215C178.103 25.5128 178.204 25.4977 178.304 25.476C178.625 25.4067 178.887 25.2745 179.091 25.0795C179.299 24.8845 179.452 24.6527 179.552 24.384C179.656 24.1153 179.708 23.8358 179.708 23.5455C179.708 23.2552 179.656 22.9757 179.552 22.707C179.452 22.434 179.299 22.2 179.091 22.005C178.887 21.81 178.625 21.6778 178.304 21.6085C178.204 21.5868 178.103 21.5738 177.999 21.5695C177.895 21.5608 177.804 21.5565 177.726 21.5565H175.093V25.5345ZM182.339 30V20.64H188.189V21.5565H183.294V24.7935H187.409V25.71H183.294V29.0835H188.189V30H182.339ZM192.355 30V20.64H195.196C195.295 20.64 195.464 20.6422 195.703 20.6465C195.945 20.6508 196.177 20.6682 196.398 20.6985C197.109 20.7982 197.703 21.0625 198.179 21.4915C198.656 21.9205 199.013 22.4665 199.252 23.1295C199.49 23.7925 199.609 24.5227 199.609 25.32C199.609 26.1173 199.49 26.8475 199.252 27.5105C199.013 28.1735 198.656 28.7195 198.179 29.1485C197.703 29.5775 197.109 29.8418 196.398 29.9415C196.182 29.9675 195.95 29.9848 195.703 29.9935C195.456 29.9978 195.287 30 195.196 30H192.355ZM193.343 29.0835H195.196C195.373 29.0835 195.564 29.0792 195.768 29.0705C195.976 29.0575 196.153 29.0358 196.301 29.0055C196.847 28.9102 197.287 28.6892 197.62 28.3425C197.958 27.9958 198.205 27.5625 198.361 27.0425C198.517 26.5182 198.595 25.944 198.595 25.32C198.595 24.6917 198.517 24.1153 198.361 23.591C198.205 23.0667 197.958 22.6333 197.62 22.291C197.282 21.9487 196.842 21.7298 196.301 21.6345C196.153 21.6042 195.974 21.5847 195.761 21.576C195.553 21.563 195.365 21.5565 195.196 21.5565H193.343V29.0835ZM204.06 30.195C203.376 30.195 202.782 30.0433 202.279 29.74C201.781 29.4367 201.393 29.0098 201.116 28.4595C200.838 27.9092 200.7 27.2635 200.7 26.5225C200.7 25.7555 200.836 25.0925 201.109 24.5335C201.382 23.9745 201.766 23.5433 202.26 23.24C202.758 22.9367 203.345 22.785 204.021 22.785C204.715 22.785 205.306 22.9453 205.796 23.266C206.285 23.5823 206.656 24.0373 206.907 24.631C207.159 25.2247 207.273 25.9332 207.252 26.7565H206.277V26.4185C206.259 25.5085 206.062 24.8217 205.685 24.358C205.313 23.8943 204.767 23.6625 204.047 23.6625C203.293 23.6625 202.715 23.9073 202.312 24.397C201.913 24.8867 201.714 25.5843 201.714 26.49C201.714 27.374 201.913 28.0608 202.312 28.5505C202.715 29.0358 203.285 29.2785 204.021 29.2785C204.524 29.2785 204.962 29.1637 205.334 28.934C205.711 28.7 206.008 28.3642 206.225 27.9265L207.115 28.271C206.838 28.882 206.428 29.3565 205.887 29.6945C205.349 30.0282 204.741 30.195 204.06 30.195ZM201.376 26.7565V25.957H206.738V26.7565H201.376ZM208.824 30V20.445H209.78V30H208.824ZM211.858 21.6475V20.575H212.814V21.6475H211.858ZM211.858 30V22.98H212.814V30H211.858ZM217.675 30.195C216.968 30.195 216.37 30.0368 215.881 29.7205C215.391 29.4042 215.018 28.9687 214.763 28.414C214.511 27.855 214.381 27.2137 214.373 26.49C214.381 25.7533 214.516 25.1077 214.776 24.553C215.036 23.994 215.41 23.5607 215.9 23.253C216.39 22.941 216.983 22.785 217.681 22.785C218.392 22.785 219.009 22.9583 219.534 23.305C220.062 23.6517 220.424 24.1262 220.619 24.7285L219.683 25.0275C219.518 24.6072 219.256 24.2822 218.897 24.0525C218.541 23.8185 218.134 23.7015 217.675 23.7015C217.159 23.7015 216.732 23.8207 216.394 24.059C216.056 24.293 215.805 24.6202 215.64 25.0405C215.475 25.4608 215.391 25.944 215.387 26.49C215.395 27.3307 215.59 28.0067 215.972 28.518C216.353 29.025 216.921 29.2785 217.675 29.2785C218.151 29.2785 218.556 29.1702 218.89 28.9535C219.228 28.7325 219.484 28.4118 219.657 27.9915L220.619 28.2775C220.359 28.9015 219.978 29.3782 219.475 29.7075C218.972 30.0325 218.372 30.195 217.675 30.195ZM221.9 21.6475V20.575H222.856V21.6475H221.9ZM221.9 30V22.98H222.856V30H221.9ZM227.736 30.195C227.038 30.195 226.443 30.0368 225.949 29.7205C225.455 29.4042 225.075 28.9665 224.811 28.4075C224.547 27.8485 224.415 27.2072 224.415 26.4835C224.415 25.7468 224.549 25.1012 224.818 24.5465C225.086 23.9918 225.468 23.5607 225.962 23.253C226.46 22.941 227.051 22.785 227.736 22.785C228.438 22.785 229.036 22.9432 229.53 23.2595C230.028 23.5715 230.408 24.007 230.668 24.566C230.932 25.1207 231.064 25.7598 231.064 26.4835C231.064 27.2202 230.932 27.868 230.668 28.427C230.403 28.9817 230.022 29.415 229.524 29.727C229.025 30.039 228.429 30.195 227.736 30.195ZM227.736 29.2785C228.516 29.2785 229.097 29.0207 229.478 28.505C229.859 27.985 230.05 27.3112 230.05 26.4835C230.05 25.6342 229.857 24.9582 229.472 24.4555C229.09 23.9528 228.512 23.7015 227.736 23.7015C227.212 23.7015 226.778 23.8207 226.436 24.059C226.098 24.293 225.845 24.6202 225.676 25.0405C225.511 25.4565 225.429 25.9375 225.429 26.4835C225.429 27.3285 225.624 28.0067 226.014 28.518C226.404 29.025 226.978 29.2785 227.736 29.2785ZM235.182 30.1755C234.762 30.1755 234.394 30.1105 234.077 29.9805C233.765 29.8505 233.499 29.675 233.278 29.454C233.061 29.233 232.886 28.9817 232.751 28.7C232.617 28.414 232.52 28.1128 232.459 27.7965C232.398 27.4758 232.368 27.1573 232.368 26.841V22.98H233.33V26.5615C233.33 26.9472 233.367 27.3047 233.44 27.634C233.514 27.9633 233.631 28.2515 233.791 28.4985C233.956 28.7412 234.166 28.9297 234.422 29.064C234.682 29.1983 234.996 29.2655 235.364 29.2655C235.702 29.2655 235.999 29.207 236.255 29.09C236.515 28.973 236.732 28.8062 236.905 28.5895C237.083 28.3685 237.217 28.102 237.308 27.79C237.399 27.4737 237.444 27.1183 237.444 26.724L238.12 26.8735C238.12 27.5928 237.995 28.1973 237.743 28.687C237.492 29.1767 237.145 29.5472 236.703 29.7985C236.261 30.0498 235.754 30.1755 235.182 30.1755ZM237.542 30V28.271H237.444V22.98H238.4V30H237.542ZM242.836 30.1885C242.013 30.1885 241.335 30.0108 240.802 29.6555C240.273 29.3002 239.948 28.8062 239.827 28.1735L240.802 28.011C240.906 28.4097 241.142 28.7282 241.51 28.9665C241.883 29.2005 242.342 29.3175 242.888 29.3175C243.421 29.3175 243.841 29.207 244.149 28.986C244.457 28.7607 244.611 28.4552 244.611 28.0695C244.611 27.8528 244.561 27.6773 244.461 27.543C244.366 27.4043 244.169 27.2765 243.87 27.1595C243.571 27.0425 243.124 26.9038 242.531 26.7435C241.894 26.5702 241.395 26.3968 241.036 26.2235C240.676 26.0502 240.42 25.8508 240.269 25.6255C240.117 25.3958 240.041 25.1163 240.041 24.787C240.041 24.3883 240.154 24.0395 240.379 23.7405C240.604 23.4372 240.916 23.2032 241.315 23.0385C241.714 22.8695 242.177 22.785 242.706 22.785C243.235 22.785 243.707 22.8717 244.123 23.045C244.543 23.214 244.881 23.4523 245.137 23.76C245.393 24.0677 245.544 24.4252 245.592 24.8325L244.617 25.008C244.552 24.5963 244.346 24.2713 244 24.033C243.657 23.7903 243.222 23.6647 242.693 23.656C242.195 23.643 241.79 23.7383 241.478 23.942C241.166 24.1413 241.01 24.4078 241.01 24.7415C241.01 24.9278 241.066 25.0882 241.179 25.2225C241.291 25.3525 241.495 25.476 241.79 25.593C242.089 25.71 242.513 25.8378 243.064 25.9765C243.709 26.1412 244.216 26.3145 244.585 26.4965C244.953 26.6785 245.215 26.893 245.371 27.14C245.527 27.387 245.605 27.6925 245.605 28.0565C245.605 28.7195 245.358 29.2417 244.864 29.623C244.374 30 243.698 30.1885 242.836 30.1885ZM4.6605 50.195C4.00183 50.195 3.40817 50.0802 2.8795 49.8505C2.35083 49.6208 1.90017 49.2937 1.5275 48.869C1.15917 48.4443 0.8775 47.933 0.6825 47.335C0.4875 46.7327 0.39 46.061 0.39 45.32C0.39 44.3407 0.559 43.487 0.897 42.759C1.23933 42.0267 1.729 41.459 2.366 41.056C3.003 40.653 3.76783 40.4515 4.6605 40.4515C5.65717 40.4515 6.4675 40.6855 7.0915 41.1535C7.71983 41.6172 8.1575 42.2412 8.4045 43.0255L7.4425 43.2595C7.23883 42.6875 6.903 42.2303 6.435 41.888C5.97133 41.5457 5.39283 41.3745 4.6995 41.3745C3.96717 41.3702 3.35833 41.5348 2.873 41.8685C2.38767 42.1978 2.0215 42.6615 1.7745 43.2595C1.53183 43.8532 1.40833 44.54 1.404 45.32C1.39967 46.1 1.51883 46.7868 1.7615 47.3805C2.0085 47.9698 2.37683 48.4335 2.8665 48.7715C3.35617 49.1052 3.96717 49.2742 4.6995 49.2785C5.37117 49.2785 5.92583 49.1485 6.3635 48.8885C6.80117 48.6285 7.13267 48.2558 7.358 47.7705C7.58767 47.2852 7.71767 46.711 7.748 46.048H5.59V45.229H8.749C8.762 45.3287 8.7685 45.4348 8.7685 45.5475C8.77283 45.6558 8.775 45.7338 8.775 45.7815C8.775 46.6265 8.62333 47.3827 8.32 48.05C8.01667 48.713 7.5595 49.2373 6.9485 49.623C6.34183 50.0043 5.57917 50.195 4.6605 50.195ZM10.206 50V40.445H11.1615V50H10.206ZM15.7947 50.1755C15.3744 50.1755 15.006 50.1105 14.6897 49.9805C14.3777 49.8505 14.1112 49.675 13.8902 49.454C13.6735 49.233 13.498 48.9817 13.3637 48.7C13.2294 48.414 13.1319 48.1128 13.0712 47.7965C13.0105 47.4758 12.9802 47.1573 12.9802 46.841V42.98H13.9422V46.5615C13.9422 46.9472 13.979 47.3047 14.0527 47.634C14.1264 47.9633 14.2434 48.2515 14.4037 48.4985C14.5684 48.7412 14.7785 48.9297 15.0342 49.064C15.2942 49.1983 15.6084 49.2655 15.9767 49.2655C16.3147 49.2655 16.6115 49.207 16.8672 49.09C17.1272 48.973 17.3439 48.8062 17.5172 48.5895C17.6949 48.3685 17.8292 48.102 17.9202 47.79C18.0112 47.4737 18.0567 47.1183 18.0567 46.724L18.7327 46.8735C18.7327 47.5928 18.607 48.1973 18.3557 48.687C18.1044 49.1767 17.7577 49.5472 17.3157 49.7985C16.8737 50.0498 16.3667 50.1755 15.7947 50.1755ZM18.1542 50V48.271H18.0567V42.98H19.0122V50H18.1542ZM24.6509 50C24.2566 50.0823 23.8666 50.1148 23.4809 50.0975C23.0996 50.0802 22.7573 49.9978 22.4539 49.8505C22.1549 49.7032 21.9274 49.4735 21.7714 49.1615C21.6458 48.9015 21.5764 48.6393 21.5634 48.375C21.5548 48.1063 21.5504 47.8008 21.5504 47.4585V41.03H22.4994V47.4195C22.4994 47.7142 22.5016 47.9612 22.5059 48.1605C22.5146 48.3555 22.5601 48.5288 22.6424 48.6805C22.7984 48.9708 23.0454 49.1442 23.3834 49.2005C23.7258 49.2568 24.1483 49.2438 24.6509 49.1615V50ZM20.0489 43.799V42.98H24.6509V43.799H20.0489ZM28.7506 50.195C28.066 50.195 27.4723 50.0433 26.9696 49.74C26.4713 49.4367 26.0835 49.0098 25.8061 48.4595C25.5288 47.9092 25.3901 47.2635 25.3901 46.5225C25.3901 45.7555 25.5266 45.0925 25.7996 44.5335C26.0726 43.9745 26.4561 43.5433 26.9501 43.24C27.4485 42.9367 28.0356 42.785 28.7116 42.785C29.405 42.785 29.9965 42.9453 30.4861 43.266C30.9758 43.5823 31.3463 44.0373 31.5976 44.631C31.849 45.2247 31.9638 45.9332 31.9421 46.7565H30.9671V46.4185C30.9498 45.5085 30.7526 44.8217 30.3756 44.358C30.003 43.8943 29.457 43.6625 28.7376 43.6625C27.9836 43.6625 27.4051 43.9073 27.0021 44.397C26.6035 44.8867 26.4041 45.5843 26.4041 46.49C26.4041 47.374 26.6035 48.0608 27.0021 48.5505C27.4051 49.0358 27.975 49.2785 28.7116 49.2785C29.2143 49.2785 29.652 49.1637 30.0246 48.934C30.4016 48.7 30.6985 48.3642 30.9151 47.9265L31.8056 48.271C31.5283 48.882 31.1188 49.3565 30.5771 49.6945C30.0398 50.0282 29.431 50.195 28.7506 50.195ZM26.0661 46.7565V45.957H31.4286V46.7565H26.0661ZM38.2642 50V46.4185C38.2642 46.0285 38.2273 45.671 38.1537 45.346C38.08 45.0167 37.9608 44.7307 37.7962 44.488C37.6358 44.241 37.4257 44.0503 37.1657 43.916C36.91 43.7817 36.598 43.7145 36.2297 43.7145C35.8917 43.7145 35.5927 43.773 35.3327 43.89C35.077 44.007 34.8603 44.176 34.6827 44.397C34.5093 44.6137 34.3772 44.878 34.2862 45.19C34.1952 45.502 34.1497 45.8573 34.1497 46.256L33.4737 46.1065C33.4737 45.3872 33.5993 44.7827 33.8507 44.293C34.102 43.8033 34.4487 43.4328 34.8907 43.1815C35.3327 42.9302 35.8397 42.8045 36.4117 42.8045C36.832 42.8045 37.1982 42.8695 37.5102 42.9995C37.8265 43.1295 38.093 43.305 38.3097 43.526C38.5307 43.747 38.7083 44.0005 38.8427 44.2865C38.977 44.5682 39.0745 44.8693 39.1352 45.19C39.1958 45.5063 39.2262 45.8227 39.2262 46.139V50H38.2642ZM33.1877 50V42.98H34.0522V44.709H34.1497V50H33.1877ZM43.5155 50V40.64H48.891V41.5955H44.471V44.8455H48.111V45.7945H44.471V50H43.5155ZM50.0663 50V42.98H50.9243V44.67L50.7553 44.449C50.8333 44.241 50.9351 44.0503 51.0608 43.877C51.1864 43.6993 51.3229 43.5542 51.4703 43.4415C51.6523 43.2812 51.8646 43.1598 52.1073 43.0775C52.3499 42.9908 52.5948 42.941 52.8418 42.928C53.0888 42.9107 53.3141 42.928 53.5178 42.98V43.877C53.2621 43.812 52.9826 43.7968 52.6793 43.8315C52.3759 43.8662 52.0964 43.9875 51.8408 44.1955C51.6068 44.3775 51.4313 44.5963 51.3143 44.852C51.1973 45.1033 51.1193 45.372 51.0803 45.658C51.0413 45.9397 51.0218 46.2192 51.0218 46.4965V50H50.0663ZM57.5944 50.195C56.9097 50.195 56.316 50.0433 55.8134 49.74C55.315 49.4367 54.9272 49.0098 54.6499 48.4595C54.3725 47.9092 54.2339 47.2635 54.2339 46.5225C54.2339 45.7555 54.3704 45.0925 54.6434 44.5335C54.9164 43.9745 55.2999 43.5433 55.7939 43.24C56.2922 42.9367 56.8794 42.785 57.5554 42.785C58.2487 42.785 58.8402 42.9453 59.3299 43.266C59.8195 43.5823 60.19 44.0373 60.4414 44.631C60.6927 45.2247 60.8075 45.9332 60.7859 46.7565H59.8109V46.4185C59.7935 45.5085 59.5964 44.8217 59.2194 44.358C58.8467 43.8943 58.3007 43.6625 57.5814 43.6625C56.8274 43.6625 56.2489 43.9073 55.8459 44.397C55.4472 44.8867 55.2479 45.5843 55.2479 46.49C55.2479 47.374 55.4472 48.0608 55.8459 48.5505C56.2489 49.0358 56.8187 49.2785 57.5554 49.2785C58.058 49.2785 58.4957 49.1637 58.8684 48.934C59.2454 48.7 59.5422 48.3642 59.7589 47.9265L60.6494 48.271C60.372 48.882 59.9625 49.3565 59.4209 49.6945C58.8835 50.0282 58.2747 50.195 57.5944 50.195ZM54.9099 46.7565V45.957H60.2724V46.7565H54.9099ZM65.1989 50.195C64.5142 50.195 63.9205 50.0433 63.4179 49.74C62.9195 49.4367 62.5317 49.0098 62.2544 48.4595C61.977 47.9092 61.8384 47.2635 61.8384 46.5225C61.8384 45.7555 61.9749 45.0925 62.2479 44.5335C62.5209 43.9745 62.9044 43.5433 63.3984 43.24C63.8967 42.9367 64.4839 42.785 65.1599 42.785C65.8532 42.785 66.4447 42.9453 66.9344 43.266C67.424 43.5823 67.7945 44.0373 68.0459 44.631C68.2972 45.2247 68.412 45.9332 68.3904 46.7565H67.4154V46.4185C67.398 45.5085 67.2009 44.8217 66.8239 44.358C66.4512 43.8943 65.9052 43.6625 65.1859 43.6625C64.4319 43.6625 63.8534 43.9073 63.4504 44.397C63.0517 44.8867 62.8524 45.5843 62.8524 46.49C62.8524 47.374 63.0517 48.0608 63.4504 48.5505C63.8534 49.0358 64.4232 49.2785 65.1599 49.2785C65.6625 49.2785 66.1002 49.1637 66.4729 48.934C66.8499 48.7 67.1467 48.3642 67.3634 47.9265L68.2539 48.271C67.9765 48.882 67.567 49.3565 67.0254 49.6945C66.488 50.0282 65.8792 50.195 65.1989 50.195ZM62.5144 46.7565V45.957H67.8769V46.7565H62.5144ZM72.4354 50V40.64H76.0494C76.1404 40.64 76.2422 40.6443 76.3549 40.653C76.4719 40.6573 76.5889 40.6703 76.7059 40.692C77.1956 40.7657 77.6094 40.9368 77.9474 41.2055C78.2897 41.4698 78.5476 41.8035 78.7209 42.2065C78.8986 42.6095 78.9874 43.0558 78.9874 43.5455C78.9874 44.0308 78.8986 44.475 78.7209 44.878C78.5432 45.281 78.2832 45.6168 77.9409 45.8855C77.6029 46.1498 77.1912 46.3188 76.7059 46.3925C76.5889 46.4098 76.4719 46.4228 76.3549 46.4315C76.2422 46.4402 76.1404 46.4445 76.0494 46.4445H73.3909V50H72.4354ZM73.3909 45.5345H76.0234C76.1014 45.5345 76.1924 45.5302 76.2964 45.5215C76.4004 45.5128 76.5022 45.4977 76.6019 45.476C76.9226 45.4067 77.1847 45.2745 77.3884 45.0795C77.5964 44.8845 77.7502 44.6527 77.8499 44.384C77.9539 44.1153 78.0059 43.8358 78.0059 43.5455C78.0059 43.2552 77.9539 42.9757 77.8499 42.707C77.7502 42.434 77.5964 42.2 77.3884 42.005C77.1847 41.81 76.9226 41.6778 76.6019 41.6085C76.5022 41.5868 76.4004 41.5738 76.2964 41.5695C76.1924 41.5608 76.1014 41.5565 76.0234 41.5565H73.3909V45.5345ZM80.2811 50V42.98H81.1391V44.67L80.9701 44.449C81.0481 44.241 81.1499 44.0503 81.2756 43.877C81.4013 43.6993 81.5378 43.5542 81.6851 43.4415C81.8671 43.2812 82.0794 43.1598 82.3221 43.0775C82.5648 42.9908 82.8096 42.941 83.0566 42.928C83.3036 42.9107 83.5289 42.928 83.7326 42.98V43.877C83.4769 43.812 83.1974 43.7968 82.8941 43.8315C82.5908 43.8662 82.3113 43.9875 82.0556 44.1955C81.8216 44.3775 81.6461 44.5963 81.5291 44.852C81.4121 45.1033 81.3341 45.372 81.2951 45.658C81.2561 45.9397 81.2366 46.2192 81.2366 46.4965V50H80.2811ZM87.7702 50.195C87.0725 50.195 86.4767 50.0368 85.9827 49.7205C85.4887 49.4042 85.1095 48.9665 84.8452 48.4075C84.5809 47.8485 84.4487 47.2072 84.4487 46.4835C84.4487 45.7468 84.583 45.1012 84.8517 44.5465C85.1204 43.9918 85.5017 43.5607 85.9957 43.253C86.494 42.941 87.0855 42.785 87.7702 42.785C88.4722 42.785 89.0702 42.9432 89.5642 43.2595C90.0625 43.5715 90.4417 44.007 90.7017 44.566C90.966 45.1207 91.0982 45.7598 91.0982 46.4835C91.0982 47.2202 90.966 47.868 90.7017 48.427C90.4374 48.9817 90.056 49.415 89.5577 49.727C89.0594 50.039 88.4635 50.195 87.7702 50.195ZM87.7702 49.2785C88.5502 49.2785 89.1309 49.0207 89.5122 48.505C89.8935 47.985 90.0842 47.3112 90.0842 46.4835C90.0842 45.6342 89.8914 44.9582 89.5057 44.4555C89.1244 43.9528 88.5459 43.7015 87.7702 43.7015C87.2459 43.7015 86.8125 43.8207 86.4702 44.059C86.1322 44.293 85.8787 44.6202 85.7097 45.0405C85.545 45.4565 85.4627 45.9375 85.4627 46.4835C85.4627 47.3285 85.6577 48.0067 86.0477 48.518C86.4377 49.025 87.0119 49.2785 87.7702 49.2785ZM96.3541 50C95.9597 50.0823 95.5697 50.1148 95.1841 50.0975C94.8027 50.0802 94.4604 49.9978 94.1571 49.8505C93.8581 49.7032 93.6306 49.4735 93.4746 49.1615C93.3489 48.9015 93.2796 48.6393 93.2666 48.375C93.2579 48.1063 93.2536 47.8008 93.2536 47.4585V41.03H94.2026V47.4195C94.2026 47.7142 94.2047 47.9612 94.2091 48.1605C94.2177 48.3555 94.2632 48.5288 94.3456 48.6805C94.5016 48.9708 94.7486 49.1442 95.0866 49.2005C95.4289 49.2568 95.8514 49.2438 96.3541 49.1615V50ZM91.7521 43.799V42.98H96.3541V43.799H91.7521ZM100.454 50.195C99.7691 50.195 99.1754 50.0433 98.6727 49.74C98.1744 49.4367 97.7866 49.0098 97.5092 48.4595C97.2319 47.9092 97.0932 47.2635 97.0932 46.5225C97.0932 45.7555 97.2297 45.0925 97.5027 44.5335C97.7757 43.9745 98.1592 43.5433 98.6532 43.24C99.1516 42.9367 99.7387 42.785 100.415 42.785C101.108 42.785 101.7 42.9453 102.189 43.266C102.679 43.5823 103.049 44.0373 103.301 44.631C103.552 45.2247 103.667 45.9332 103.645 46.7565H102.67V46.4185C102.653 45.5085 102.456 44.8217 102.079 44.358C101.706 43.8943 101.16 43.6625 100.441 43.6625C99.6867 43.6625 99.1082 43.9073 98.7052 44.397C98.3066 44.8867 98.1072 45.5843 98.1072 46.49C98.1072 47.374 98.3066 48.0608 98.7052 48.5505C99.1082 49.0358 99.6781 49.2785 100.415 49.2785C100.917 49.2785 101.355 49.1637 101.728 48.934C102.105 48.7 102.402 48.3642 102.618 47.9265L103.509 48.271C103.231 48.882 102.822 49.3565 102.28 49.6945C101.743 50.0282 101.134 50.195 100.454 50.195ZM97.7692 46.7565V45.957H103.132V46.7565H97.7692ZM105.218 41.6475V40.575H106.173V41.6475H105.218ZM105.218 50V42.98H106.173V50H105.218ZM113.192 50V46.4185C113.192 46.0285 113.155 45.671 113.081 45.346C113.008 45.0167 112.889 44.7307 112.724 44.488C112.564 44.241 112.353 44.0503 112.093 43.916C111.838 43.7817 111.526 43.7145 111.157 43.7145C110.819 43.7145 110.52 43.773 110.26 43.89C110.005 44.007 109.788 44.176 109.61 44.397C109.437 44.6137 109.305 44.878 109.214 45.19C109.123 45.502 109.077 45.8573 109.077 46.256L108.401 46.1065C108.401 45.3872 108.527 44.7827 108.778 44.293C109.03 43.8033 109.376 43.4328 109.818 43.1815C110.26 42.9302 110.767 42.8045 111.339 42.8045C111.76 42.8045 112.126 42.8695 112.438 42.9995C112.754 43.1295 113.021 43.305 113.237 43.526C113.458 43.747 113.636 44.0005 113.77 44.2865C113.905 44.5682 114.002 44.8693 114.063 45.19C114.124 45.5063 114.154 45.8227 114.154 46.139V50H113.192ZM108.115 50V42.98H108.98V44.709H109.077V50H108.115ZM122.233 50.195C121.301 50.195 120.515 49.9892 119.873 49.5775C119.232 49.1615 118.747 48.5873 118.417 47.855C118.088 47.1227 117.923 46.2777 117.923 45.32C117.923 44.3623 118.088 43.5173 118.417 42.785C118.747 42.0527 119.232 41.4807 119.873 41.069C120.515 40.653 121.301 40.445 122.233 40.445C123.32 40.445 124.209 40.7245 124.898 41.2835C125.587 41.8382 126.059 42.5835 126.315 43.5195L125.34 43.773C125.14 43.032 124.783 42.4448 124.267 42.0115C123.752 41.5782 123.073 41.3615 122.233 41.3615C121.5 41.3615 120.892 41.5283 120.406 41.862C119.921 42.1957 119.555 42.6615 119.308 43.2595C119.065 43.8532 118.939 44.54 118.931 45.32C118.926 46.1 119.046 46.7868 119.288 47.3805C119.535 47.9742 119.904 48.44 120.393 48.778C120.887 49.1117 121.5 49.2785 122.233 49.2785C123.073 49.2785 123.752 49.0618 124.267 48.6285C124.783 48.1908 125.14 47.6037 125.34 46.867L126.315 47.1205C126.059 48.0565 125.587 48.804 124.898 49.363C124.209 49.9177 123.32 50.195 122.233 50.195ZM127.749 50V42.98H128.607V44.67L128.438 44.449C128.516 44.241 128.618 44.0503 128.743 43.877C128.869 43.6993 129.006 43.5542 129.153 43.4415C129.335 43.2812 129.547 43.1598 129.79 43.0775C130.033 42.9908 130.277 42.941 130.524 42.928C130.771 42.9107 130.997 42.928 131.2 42.98V43.877C130.945 43.812 130.665 43.7968 130.362 43.8315C130.059 43.8662 129.779 43.9875 129.523 44.1955C129.289 44.3775 129.114 44.5963 128.997 44.852C128.88 45.1033 128.802 45.372 128.763 45.658C128.724 45.9397 128.704 46.2192 128.704 46.4965V50H127.749ZM135.118 50.1755C134.698 50.1755 134.329 50.1105 134.013 49.9805C133.701 49.8505 133.434 49.675 133.213 49.454C132.997 49.233 132.821 48.9817 132.687 48.7C132.553 48.414 132.455 48.1128 132.394 47.7965C132.334 47.4758 132.303 47.1573 132.303 46.841V42.98H133.265V46.5615C133.265 46.9472 133.302 47.3047 133.376 47.634C133.45 47.9633 133.567 48.2515 133.727 48.4985C133.892 48.7412 134.102 48.9297 134.357 49.064C134.617 49.1983 134.932 49.2655 135.3 49.2655C135.638 49.2655 135.935 49.207 136.19 49.09C136.45 48.973 136.667 48.8062 136.84 48.5895C137.018 48.3685 137.152 48.102 137.243 47.79C137.334 47.4737 137.38 47.1183 137.38 46.724L138.056 46.8735C138.056 47.5928 137.93 48.1973 137.679 48.687C137.428 49.1767 137.081 49.5472 136.639 49.7985C136.197 50.0498 135.69 50.1755 135.118 50.1755ZM137.477 50V48.271H137.38V42.98H138.335V50H137.477ZM145.222 50V46.4185C145.222 46.0285 145.185 45.671 145.112 45.346C145.038 45.0167 144.919 44.7307 144.754 44.488C144.594 44.241 144.384 44.0503 144.124 43.916C143.868 43.7817 143.556 43.7145 143.188 43.7145C142.85 43.7145 142.551 43.773 142.291 43.89C142.035 44.007 141.818 44.176 141.641 44.397C141.467 44.6137 141.335 44.878 141.244 45.19C141.153 45.502 141.108 45.8573 141.108 46.256L140.432 46.1065C140.432 45.3872 140.557 44.7827 140.809 44.293C141.06 43.8033 141.407 43.4328 141.849 43.1815C142.291 42.9302 142.798 42.8045 143.37 42.8045C143.79 42.8045 144.156 42.8695 144.468 42.9995C144.785 43.1295 145.051 43.305 145.268 43.526C145.489 43.747 145.666 44.0005 145.801 44.2865C145.935 44.5682 146.033 44.8693 146.093 45.19C146.154 45.5063 146.184 45.8227 146.184 46.139V50H145.222ZM140.146 50V42.98H141.01V44.709H141.108V50H140.146ZM150.745 50.195C150.039 50.195 149.441 50.0368 148.951 49.7205C148.461 49.4042 148.089 48.9687 147.833 48.414C147.582 47.855 147.452 47.2137 147.443 46.49C147.452 45.7533 147.586 45.1077 147.846 44.553C148.106 43.994 148.481 43.5607 148.97 43.253C149.46 42.941 150.054 42.785 150.751 42.785C151.462 42.785 152.08 42.9583 152.604 43.305C153.133 43.6517 153.494 44.1262 153.689 44.7285L152.753 45.0275C152.589 44.6072 152.327 44.2822 151.967 44.0525C151.612 43.8185 151.204 43.7015 150.745 43.7015C150.229 43.7015 149.802 43.8207 149.464 44.059C149.126 44.293 148.875 44.6202 148.71 45.0405C148.546 45.4608 148.461 45.944 148.457 46.49C148.466 47.3307 148.661 48.0067 149.042 48.518C149.423 49.025 149.991 49.2785 150.745 49.2785C151.222 49.2785 151.627 49.1702 151.96 48.9535C152.298 48.7325 152.554 48.4118 152.727 47.9915L153.689 48.2775C153.429 48.9015 153.048 49.3782 152.545 49.7075C152.043 50.0325 151.443 50.195 150.745 50.195ZM160.101 50V46.4185C160.101 46.0285 160.064 45.671 159.991 45.346C159.917 45.0167 159.798 44.7307 159.633 44.488C159.473 44.241 159.263 44.0503 159.003 43.916C158.747 43.7817 158.435 43.7145 158.067 43.7145C157.729 43.7145 157.43 43.773 157.17 43.89C156.914 44.007 156.697 44.176 156.52 44.397C156.346 44.6137 156.214 44.878 156.123 45.19C156.032 45.502 155.987 45.8573 155.987 46.256L155.311 46.1065C155.311 45.3872 155.436 44.7827 155.688 44.293C155.939 43.8033 156.286 43.4328 156.728 43.1815C157.17 42.9302 157.677 42.8045 158.249 42.8045C158.669 42.8045 159.035 42.8695 159.347 42.9995C159.663 43.1295 159.93 43.305 160.147 43.526C160.368 43.747 160.545 44.0005 160.68 44.2865C160.814 44.5682 160.911 44.8693 160.972 45.19C161.033 45.5063 161.063 45.8227 161.063 46.139V50H160.101ZM155.025 50V40.64H155.889V45.9245H155.987V50H155.025ZM163.751 53.12L165.109 49.4345L165.129 50.5265L162.054 42.98H163.068L165.59 49.2915H165.174L167.501 42.98H168.476L164.706 53.12H163.751Z" fill="#2E3140"/>
</svg>
