<svg width="617" height="109" viewBox="0 0 617 109" fill="none" xmlns="http://www.w3.org/2000/svg">
<rect width="614.01" height="73.3555" transform="translate(0 32.1172) rotate(-2.99827)" fill="#2E3140"/>
<path d="M56.9873 52.7257L58.4407 79.6865L52.3655 80.014L51.0536 55.6774L53.9708 58.2961L33.0851 59.422L35.7039 56.5048L37.0158 80.8415L30.9047 81.1709L29.4513 54.21L56.9873 52.7257ZM79.0205 51.538C81.1534 51.423 83.0188 51.695 84.6166 52.3539C86.2144 53.0129 87.4568 53.9914 88.344 55.2896C89.2551 56.5864 89.7585 58.1215 89.8541 59.895C89.9497 61.6684 89.6143 63.2487 88.8478 64.636C88.1041 65.998 86.974 67.1044 85.4576 67.9553C83.9399 68.7822 82.1146 69.2531 79.9817 69.3681L68.083 70.0095L67.8117 64.9768L79.3869 64.3528C80.8008 64.2766 81.8845 63.8697 82.6379 63.1321C83.4152 62.3932 83.7716 61.4246 83.707 60.2263C83.6411 59.0041 83.1827 58.0794 82.3317 57.4523C81.5034 56.8 80.3822 56.5119 78.9683 56.5881L67.9323 57.183L70.5433 54.122L71.8823 78.962L65.7712 79.2914L64.3179 52.3305L79.0205 51.538ZM117.579 60.6357L117.831 65.3089L98.5273 66.3495L98.2754 61.6762L117.579 60.6357ZM102.499 63.7919L101.318 75.3202L98.4953 72.444L119.273 71.324L119.546 76.3926L95.2816 77.7006L96.6399 64.1078L93.8282 50.7398L117.913 49.4414L118.186 54.5101L97.5884 55.6204L100.086 52.4574L102.499 63.7919ZM123.919 81.6729L123.332 70.7807L128.365 70.5094L130.957 70.4418L150.368 69.3954L151.838 69.2441L159.1 68.8526L159.687 79.7448L153.971 80.0529L153.675 74.5529L129.338 75.8648L129.635 81.3648L123.919 81.6729ZM127.957 48.9001L153.228 47.5378L154.577 72.5575L148.502 72.885L147.292 50.4535L150.172 53.0383L131.515 54.044L133.961 51.9293C134.169 53.1198 134.329 54.3009 134.44 55.4726C134.551 56.6443 134.635 57.7454 134.69 58.7759C134.848 61.6997 134.754 64.1924 134.408 66.2539C134.061 68.2916 133.461 69.8622 132.607 70.9657C131.752 72.0453 130.654 72.6213 129.311 72.6936L126.681 70.7083C127.625 69.5038 128.281 67.8461 128.648 65.7353C129.038 63.5992 129.148 60.9614 128.978 57.822C128.904 56.432 128.777 54.9847 128.6 53.4801C128.423 51.9754 128.208 50.4487 127.957 48.9001ZM164.93 73.9462L163.476 46.9854L169.444 46.6637L170.73 70.533L168.878 70.2724L184.65 45.844L192.594 45.4158L194.047 72.3766L188.08 72.6983L186.776 48.5054L188.629 48.7661L172.658 73.5296L164.93 73.9462ZM213.555 71.8658C210.775 72.0157 208.334 71.7627 206.232 71.1069C204.128 70.4272 202.462 69.3993 201.235 68.0234C200.007 66.6475 199.281 64.9922 199.056 63.0575L205.167 62.7281C205.467 64.2742 206.298 65.4311 207.662 66.1988C209.048 66.9413 210.927 67.2486 213.3 67.1207C215.552 66.9993 217.272 66.5821 218.46 65.8691C219.67 65.1309 220.239 64.1028 220.168 62.7847C220.107 61.6583 219.536 60.86 218.453 60.3896C217.392 59.8939 215.712 59.7081 213.411 59.8321L208.235 60.1112L208.012 55.9772L213.081 55.7039C214.447 55.6303 215.565 55.4258 216.437 55.0904C217.308 54.755 217.945 54.3121 218.348 53.7616C218.749 53.1871 218.932 52.5644 218.896 51.8934C218.853 51.1025 218.554 50.4577 217.999 49.9589C217.466 49.4348 216.712 49.0548 215.738 48.8189C214.788 48.5817 213.654 48.4986 212.336 48.5697C210.179 48.686 208.487 49.1857 207.261 50.069C206.033 50.9283 205.35 52.0708 205.21 53.4964L199.135 53.8238C199.186 52.0906 199.713 50.4999 200.717 49.0518C201.743 47.5784 203.241 46.3801 205.21 45.4567C207.178 44.5094 209.563 43.9602 212.367 43.8091C214.86 43.6747 217.034 43.882 218.89 44.4309C220.769 44.9545 222.242 45.7524 223.31 46.8245C224.401 47.8953 224.986 49.1736 225.067 50.6594C225.132 51.8817 224.822 53.0281 224.134 54.0986C223.471 55.1679 222.388 56.0434 220.887 56.7252C219.409 57.4057 217.472 57.7986 215.074 57.9038L215.037 57.2208C217.331 56.977 219.306 57.0388 220.96 57.4063C222.638 57.7725 223.946 58.411 224.885 59.3218C225.846 60.2074 226.366 61.3931 226.446 62.8789C226.534 64.5085 226.084 65.9749 225.097 67.2779C224.134 68.5796 222.676 69.6316 220.725 70.4338C218.773 71.236 216.383 71.7134 213.555 71.8658ZM249.552 56.0453L250.061 54.7921C252.148 54.7276 253.892 54.9701 255.292 55.5196C256.69 56.0451 257.741 56.8176 258.445 57.8372C259.148 58.8328 259.535 60.0017 259.607 61.3437C259.685 62.7816 259.407 64.0825 258.772 65.2463C258.162 66.4089 257.215 67.3492 255.932 68.0673C254.649 68.7854 253.013 69.1981 251.023 69.3053L232.115 70.3246L233.454 56.3723L230.662 43.3637L248.887 42.3813C251.38 42.2469 253.34 42.7301 254.77 43.8307C256.222 44.9061 257.003 46.4623 257.112 48.4994C257.172 49.6018 256.966 50.6824 256.494 51.7414C256.046 52.799 255.255 53.7189 254.119 54.5012C253.006 55.2582 251.484 55.7729 249.552 56.0453ZM238.071 68.4533L235.575 65.6315L249.523 64.8796C250.817 64.8099 251.796 64.4567 252.458 63.8201C253.144 63.1583 253.457 62.2761 253.397 61.1737C253.337 60.0474 252.881 59.1826 252.032 58.5795C251.181 57.9524 249.964 57.6815 248.383 57.7667L237.023 58.3791L236.787 53.9934L247.427 53.4198C248.506 53.3617 249.376 53.0143 250.039 52.3777C250.724 51.7159 251.037 50.8338 250.978 49.7314C250.933 48.8926 250.596 48.2137 249.967 47.6948C249.337 47.152 248.458 46.9109 247.332 46.9716L234.606 47.6576L236.784 44.5839L239.313 56.0564L238.071 68.4533ZM265.878 68.5045L264.425 41.5437L270.392 41.222L271.679 65.0914L269.826 64.8307L285.598 40.4023L293.543 39.9741L294.996 66.9349L289.029 67.2566L287.725 43.0637L289.577 43.3244L273.607 68.0879L265.878 68.5045ZM302.325 66.5399L300.871 39.579L306.946 39.2515L308.132 61.2516L306.341 60.1224L321.901 38.4454L328.407 38.0947L307.825 66.2434L302.325 66.5399ZM314.483 52.6533L318.657 48.4986L330.256 65.0342L323.282 65.4102L314.483 52.6533ZM338.814 58.8766L338.547 53.9158L357.24 52.9082L357.507 57.869L338.814 58.8766ZM351.076 36.8727L365.147 63.1534L358.64 63.5042L346.284 39.6186L348.297 39.5101L338.581 64.5855L332.075 64.9362L343.239 37.2952L351.076 36.8727ZM372.603 38.4523L378.678 38.1248L379.984 62.3536L373.909 62.6811L372.603 38.4523ZM361.707 36.2996L389.243 34.8153L389.534 40.2075L361.998 41.6918L361.707 36.2996ZM417.336 44.4771L417.588 49.1504L398.284 50.1909L398.032 45.5177L417.336 44.4771ZM402.256 47.6334L401.075 59.1617L398.252 56.2855L419.03 55.1655L419.303 60.2341L395.039 61.5421L396.397 47.9493L393.585 34.5812L417.67 33.2829L417.943 38.3516L397.345 39.4619L399.843 36.2989L402.256 47.6334ZM428.613 32.693L453.992 31.325L455.446 58.2858L449.371 58.6133L448.059 34.2766L450.94 36.8974L432.283 37.9031L434.763 35.7505C435.049 37.4896 435.271 39.1601 435.429 40.7618C435.612 42.3623 435.741 43.8696 435.817 45.2835C436.001 48.6866 435.851 51.4707 435.366 53.6359C434.882 55.8011 434.032 57.4212 432.816 58.4962C431.6 59.5712 429.962 60.1643 427.901 60.2754C427.086 60.3193 426.266 60.2674 425.441 60.1196C424.617 59.9957 423.861 59.7841 423.172 59.4848L422.896 54.3802C423.949 54.7321 424.918 54.8841 425.805 54.8363C427.483 54.7459 428.652 53.9137 429.312 52.3399C429.971 50.7421 430.206 48.1938 430.017 44.6949C429.932 43.1132 429.775 41.319 429.547 39.3124C429.319 37.3058 429.007 35.0993 428.613 32.693ZM491.389 45.3523C491.249 47.6432 490.554 49.6996 489.307 51.5214C488.081 53.3179 486.404 54.7543 484.275 55.8305C482.17 56.9053 479.727 57.5177 476.947 57.6676C473.88 57.8329 471.152 57.3911 468.764 56.3421C466.4 55.2918 464.515 53.7591 463.109 51.7439C461.701 49.7047 460.921 47.2831 460.77 44.4792C460.619 41.6753 461.134 39.196 462.316 37.0412C463.496 34.8625 465.205 33.124 467.443 31.8257C469.704 30.5261 472.368 29.7936 475.436 29.6283C478.216 29.4784 480.71 29.8247 482.919 30.667C485.151 31.508 486.973 32.7558 488.384 34.4102C489.819 36.0634 490.731 38.0332 491.118 40.3196L484.971 40.651C484.663 39.3938 484.089 38.3311 483.249 37.4631C482.408 36.5711 481.351 35.907 480.077 35.4709C478.804 35.0348 477.34 34.8613 475.687 34.9505C473.794 35.0525 472.171 35.5005 470.82 36.2944C469.492 37.063 468.491 38.1264 467.819 39.4845C467.146 40.8187 466.858 42.3725 466.953 44.1459C467.049 45.9193 467.504 47.4451 468.317 48.7231C469.13 49.9772 470.239 50.9269 471.644 51.5722C473.071 52.1923 474.731 52.4513 476.625 52.3492C478.278 52.2601 479.715 51.9423 480.936 51.3958C482.155 50.8253 483.135 50.0635 483.877 49.1102C484.617 48.1329 485.073 46.9907 485.242 45.6837L491.389 45.3523ZM503.89 31.3752L509.965 31.0477L511.271 55.2765L505.196 55.604L503.89 31.3752ZM492.994 29.2226L520.53 27.7382L520.821 33.1304L493.285 34.6147L492.994 29.2226ZM543.762 40.1858L544.271 38.9325C546.359 38.8681 548.102 39.1106 549.502 39.66C550.9 40.1855 551.951 40.9581 552.655 41.9777C553.358 42.9733 553.745 44.1421 553.818 45.4842C553.895 46.9221 553.617 48.223 552.983 49.3868C552.372 50.5493 551.426 51.4897 550.142 52.2078C548.859 52.9259 547.223 53.3385 545.234 53.4458L526.325 54.465L527.664 40.5127L524.872 27.5042L543.097 26.5217C545.59 26.3874 547.551 26.8705 548.98 27.9712C550.432 29.0466 551.213 30.6028 551.323 32.6399C551.382 33.7423 551.176 34.8229 550.704 35.8818C550.257 36.9395 549.465 37.8594 548.329 38.6417C547.217 39.3987 545.694 39.9134 543.762 40.1858ZM532.281 52.5937L529.786 49.772L543.733 49.0201C545.028 48.9504 546.006 48.5972 546.669 47.9606C547.354 47.2987 547.667 46.4166 547.608 45.3142C547.547 44.1878 547.092 43.3231 546.242 42.72C545.391 42.0929 544.175 41.8219 542.593 41.9072L531.233 42.5195L530.997 38.1339L541.638 37.5603C542.716 37.5022 543.587 37.1548 544.249 36.5182C544.935 35.8564 545.248 34.9743 545.188 33.8719C545.143 33.0331 544.806 32.3542 544.177 31.8353C543.547 31.2925 542.669 31.0514 541.542 31.1121L528.817 31.7981L530.994 28.7244L533.524 40.1969L532.281 52.5937ZM562.905 46.7969L562.638 41.8361L581.331 40.8285L581.598 45.7893L562.905 46.7969ZM575.167 24.793L589.238 51.0737L582.731 51.4245L570.375 27.5389L572.388 27.4304L562.672 52.5058L556.166 52.8565L567.33 25.2155L575.167 24.793Z" fill="#F8F8F8"/>
<path d="M309.763 108.289L286.685 89.4156L330.932 87.2984L309.763 108.289Z" fill="#2E3140"/>
</svg>
