<svg width="44" height="43" viewBox="0 0 44 43" fill="none" xmlns="http://www.w3.org/2000/svg">
<mask id="mask0_1521_3069" style="mask-type:alpha" maskUnits="userSpaceOnUse" x="0" y="0" width="44" height="43">
<rect x="0.398438" width="42.7255" height="43" fill="#D9D9D9"/>
</mask>
<g mask="url(#mask0_1521_3069)">
<path d="M11.8312 9.36081L10.0873 3.98581L12.5287 3.17956L14.2726 8.50977L11.8312 9.36081ZM17.8476 7.16602V1.79102H20.4635V7.16602H17.8476ZM26.4799 9.36081L24.0385 8.50977L25.7824 3.17956L28.2238 4.0306L26.4799 9.36081ZM1.97814 41.2077L1.45497 37.6691L10.654 36.2358C10.9738 36.1761 11.2571 36.0342 11.5042 35.8103C11.7512 35.5863 11.9329 35.3101 12.0492 34.9816L13.5315 30.2337C13.6768 29.8157 13.6768 29.4125 13.5315 29.0243C13.3861 28.6362 13.1246 28.3375 12.7467 28.1285L11.308 32.7869L7.99459 31.7119L11.8312 19.2598C11.8893 19.0806 11.9184 18.8865 11.9184 18.6775C11.9184 18.4684 11.8893 18.2744 11.8312 18.0952L5.98911 29.3827C5.52407 30.2487 4.87737 30.9429 4.04902 31.4655C3.22067 31.9881 2.32692 32.2493 1.36778 32.2493H-0.0273438V28.666H1.36778C1.68749 28.666 1.98541 28.5839 2.26152 28.4197C2.53764 28.2554 2.74836 28.024 2.89369 27.7254L10.6104 12.765L12.7903 14.0191C13.8657 14.6462 14.6287 15.5495 15.0792 16.729C15.5297 17.9086 15.566 19.1105 15.1882 20.3348L13.8367 24.7243C15.1155 25.232 16.0383 26.1278 16.6051 27.4118C17.1719 28.6959 17.2518 30.0098 16.8449 31.3535L15.3626 36.1014C15.0429 37.057 14.5124 37.8707 13.7713 38.5426C13.0301 39.2145 12.1654 39.625 11.1772 39.7744L1.97814 41.2077ZM36.333 41.2077L27.1339 39.7744C26.1457 39.625 25.281 39.2145 24.5398 38.5426C23.7987 37.8707 23.2682 37.057 22.9485 36.1014L21.4662 31.3535C21.0593 30.0098 21.1392 28.6959 21.706 27.4118C22.2728 26.1278 23.1956 25.232 24.4744 24.7243L23.1229 20.3348C22.7451 19.1105 22.7814 17.9086 23.2319 16.729C23.6824 15.5495 24.4454 14.6462 25.5208 14.0191L27.7007 12.765L35.4174 27.7254C35.5627 28.024 35.7735 28.2554 36.0496 28.4197C36.3257 28.5839 36.6236 28.666 36.9433 28.666H38.3384V32.2493H36.9433C35.9842 32.2493 35.0904 31.9881 34.2621 31.4655C33.4337 30.9429 32.787 30.2487 32.322 29.3827L26.4799 18.0952C26.4218 18.2744 26.3927 18.4684 26.3927 18.6775C26.3927 18.8865 26.4218 19.0806 26.4799 19.2598L30.3165 31.7119L27.0031 32.7869L25.5644 28.1285C25.1865 28.3375 24.925 28.6362 24.7796 29.0243C24.6343 29.4125 24.6343 29.8157 24.7796 30.2337L26.2619 34.9816C26.3782 35.3101 26.5599 35.5863 26.8069 35.8103C27.054 36.0342 27.3373 36.1761 27.6571 36.2358L36.8561 37.6691L36.333 41.2077Z" fill="#2E3140"/>
</g>
</svg>
