<svg width="1916" height="98" viewBox="0 0 1916 98" fill="none" xmlns="http://www.w3.org/2000/svg">
<path d="M15.1725 83.3441C14.7641 87.4649 12.408 90.1407 9.07406 90.2571C4.78068 90.4071 2.0465 87.0685 1.85636 81.6238C1.66456 76.1311 4.15919 72.6099 8.45257 72.46C11.6906 72.3469 14.2011 74.7808 14.9877 78.7397L11.3015 79.0846C10.7827 76.6052 9.83352 75.5577 8.44237 75.6063C6.40361 75.6775 5.41777 77.7051 5.55011 81.4948C5.68161 85.2605 6.80565 87.1904 8.84441 87.1192C10.3075 87.0682 11.1796 85.909 11.4721 83.2812L15.1725 83.3441ZM18.1417 89.5563L17.5471 72.5266L21.0489 72.4043L21.5339 86.2919L29.4011 86.0172L29.5108 89.1592L18.1417 89.5563ZM43.0102 71.6374L43.1199 74.7795L39.2343 74.9152L39.6095 85.6607L43.5431 85.5233L43.6528 88.6654L32.2838 89.0624L32.174 85.9203L36.1076 85.783L35.7324 75.0375L31.8468 75.1732L31.737 72.0311L43.0102 71.6374ZM46.3827 71.5197L57.7998 71.121L57.9095 74.2631L49.9943 74.5395L50.1267 78.3292L57.754 78.0628L57.8629 81.1809L50.2355 81.4473L50.3696 85.2849L58.4766 85.0018L58.5863 88.1439L46.9774 88.5493L46.3827 71.5197ZM60.7166 71.0191L64.4583 70.8885L69.3774 81.091L69.0156 70.7293L72.5174 70.607L73.1121 87.6367L69.2505 87.7715L64.4689 78.0685L64.8132 87.9265L61.3113 88.0487L60.7166 71.0191ZM87.5229 70.083L87.6326 73.2251L83.0994 73.3834L83.5844 87.271L80.0825 87.3932L79.5975 73.5057L75.0643 73.664L74.9546 70.5219L87.5229 70.083Z" fill="#2E3140"/>
<path d="M174.411 78.5698C174.62 78.7152 174.682 78.8922 174.596 79.1008L174.597 79.1897L174.552 79.1902L173.336 81.3838C173.191 81.6228 172.984 81.6699 172.716 81.5252C172.686 81.5255 172.656 81.5111 172.626 81.4819L168.731 79.3095L168.79 83.8869C168.793 84.124 168.662 84.2738 168.396 84.3365L165.818 84.3696C165.522 84.3734 165.372 84.2272 165.368 83.9309L165.367 83.7976L165.309 79.3535L161.383 81.6709C161.178 81.8513 160.985 81.8242 160.804 81.5894L159.442 79.3401C159.29 79.0754 159.347 78.8672 159.612 78.7156C159.641 78.7153 159.656 78.7077 159.656 78.6928C159.656 78.678 159.67 78.6704 159.7 78.6701L163.582 76.3977L159.553 74.1827L159.553 74.1382C159.284 73.9935 159.223 73.8017 159.368 73.5628L160.629 71.3686L160.628 71.3242C160.773 71.0556 160.979 70.9937 161.248 71.1384L165.233 73.3985L165.174 68.8211C165.17 68.5248 165.316 68.3748 165.613 68.371L168.146 68.3384C168.442 68.3346 168.592 68.4808 168.596 68.7771L168.655 73.3545L172.625 71.0366C172.86 70.8854 173.053 70.9273 173.205 71.1625L174.477 73.324L174.522 73.3679C174.674 73.6327 174.617 73.8408 174.352 73.9924L170.426 76.3097L174.411 78.5253L174.411 78.5698Z" fill="#2E3140"/>
<path d="M250.662 64.3859C255.412 64.2201 258.498 67.3303 258.684 72.655C258.868 77.9318 256.078 81.2472 251.401 81.4105L246.34 81.5872L245.745 64.5576L250.662 64.3859ZM249.732 78.3229L251.147 78.2735C253.714 78.1838 255.091 76.3587 254.965 72.7608C254.84 69.163 253.339 67.4384 250.772 67.528L249.357 67.5774L249.732 78.3229ZM260.655 64.037L272.072 63.6383L272.182 66.7804L264.267 67.0568L264.399 70.8465L272.026 70.5801L272.135 73.6982L264.508 73.9646L264.642 77.8022L272.749 77.5191L272.859 80.6612L261.25 81.0666L260.655 64.037ZM278.519 74.5319C278.898 76.4399 280.017 77.5535 281.84 77.4898C283.255 77.4404 284.091 76.6187 283.975 75.374C283.889 74.2724 282.953 73.6086 280.802 73.2034C277.009 72.5674 275.271 70.9231 275.184 68.4286C275.071 65.1906 277.302 63.0714 280.924 62.9449C284.282 62.8277 286.663 65.0019 287.19 68.3936L283.646 68.6854C283.421 67.0603 282.401 66.0393 280.914 66.0912C279.403 66.144 278.522 67.0633 278.713 68.4014C278.871 69.5006 280.016 69.9649 281.779 70.2395C285.159 70.7699 287.407 72.5645 287.499 75.1789C287.614 78.4649 285.332 80.5138 281.902 80.6336C278.04 80.7684 275.392 78.5315 275.048 74.8692L278.519 74.5319ZM289.059 63.0451L292.561 62.9228L292.779 69.159L297.622 62.7461L301.963 62.5945L296.278 70.3336L302.941 79.6107L298.72 79.7581L293.946 73.0086L292.954 74.1959L293.155 79.9524L289.654 80.0747L289.059 63.0451ZM316.417 62.0897L316.527 65.2318L311.993 65.3901L312.478 79.2776L308.976 79.3999L308.491 65.5124L303.958 65.6707L303.848 62.5286L316.417 62.0897ZM325.362 79.212C321.189 79.3577 318.715 75.9139 318.529 70.5652C318.342 65.2164 320.568 61.5605 324.741 61.4148C328.914 61.2691 331.39 64.7608 331.577 70.1095C331.763 75.4583 329.536 79.0662 325.362 79.212ZM322.222 70.4362C322.354 74.2019 323.358 76.136 325.253 76.0699C327.148 76.0037 328.014 74.0042 327.883 70.2385C327.75 66.4488 326.746 64.4907 324.851 64.5569C322.956 64.6231 322.09 66.6465 322.222 70.4362ZM339.808 61.2729C343.262 61.1523 345.863 63.4389 345.978 66.7249C346.091 69.9629 343.655 72.4254 340.201 72.546L337.731 72.6323L337.932 78.3888L334.43 78.5111L333.835 61.4815L339.808 61.2729ZM337.621 69.4902L339.564 69.4224C341.315 69.3612 342.313 68.3658 342.26 66.8547C342.207 65.3196 341.141 64.3723 339.39 64.4334L337.447 64.5012L337.621 69.4902ZM361.784 60.5055L365.525 60.3748L369.01 71.444L371.714 60.1587L375.455 60.0281L370.917 77.2369L367.511 77.3559L361.784 60.5055ZM377.629 59.9522L389.046 59.5535L389.155 62.6956L381.24 62.972L381.373 66.7616L389 66.4953L389.109 69.6134L381.481 69.8797L381.615 73.7174L389.723 73.4343L389.832 76.5764L378.223 76.9818L377.629 59.9522ZM397.743 59.2498C401.413 59.1216 403.786 61.056 403.897 64.246C403.97 66.3327 402.777 67.9354 400.969 68.4068C402.922 68.6507 403.842 69.5552 404.075 71.3962L404.622 76.0599L401.048 76.1847L400.513 71.8568C400.348 70.5897 399.612 70.1352 398.053 70.1896L395.918 70.2641L396.131 76.3564L392.629 76.4787L392.034 59.4491L397.743 59.2498ZM395.809 67.1221L397.871 67.05C399.358 66.9981 400.262 66.054 400.213 64.6628C400.164 63.2477 399.196 62.3449 397.709 62.3969L395.646 62.4689L395.809 67.1221ZM410.114 69.9365C410.493 71.8445 411.612 72.9581 413.435 72.8944C414.851 72.845 415.686 72.0233 415.571 70.7786C415.484 69.6769 414.549 69.0132 412.397 68.608C408.605 67.972 406.866 66.3277 406.779 63.8332C406.666 60.5952 408.897 58.476 412.519 58.3495C415.877 58.2323 418.258 60.4065 418.785 63.7982L415.241 64.09C415.016 62.4649 413.996 61.4439 412.509 61.4958C410.998 61.5486 410.117 62.4678 410.308 63.806C410.467 64.9051 411.612 65.3695 413.374 65.6441C416.755 66.1745 419.003 67.9691 419.094 70.5835C419.209 73.8695 416.927 75.9184 413.497 76.0382C409.635 76.173 406.988 73.9361 406.644 70.2738L410.114 69.9365ZM432.743 58.0275L432.853 61.1696L428.967 61.3053L429.342 72.0508L433.276 71.9134L433.386 75.0555L422.017 75.4525L421.907 72.3104L425.84 72.173L425.465 61.4276L421.58 61.5633L421.47 58.4212L432.743 58.0275ZM442.336 75.1271C438.163 75.2729 435.689 71.8291 435.502 66.4804C435.315 61.1316 437.541 57.4757 441.715 57.33C445.888 57.1843 448.363 60.676 448.55 66.0247C448.737 71.3735 446.51 74.9814 442.336 75.1271ZM439.196 66.3514C439.327 70.1171 440.332 72.0512 442.226 71.9851C444.121 71.9189 444.988 69.9194 444.857 66.1537C444.724 62.364 443.719 60.4059 441.824 60.4721C439.93 60.5382 439.064 62.5617 439.196 66.3514ZM450.449 57.4092L454.191 57.2785L459.11 67.4811L458.748 57.1194L462.25 56.9971L462.845 74.0267L458.983 74.1616L454.202 64.4585L454.546 74.3165L451.044 74.4388L450.449 57.4092Z" fill="#2E3140"/>
<path d="M549.845 65.4584C550.054 65.6039 550.116 65.7809 550.029 65.9895L550.03 66.0783L549.986 66.0789L548.77 68.2725C548.625 68.5114 548.418 68.5585 548.149 68.4138C548.12 68.4142 548.09 68.3998 548.06 68.3705L544.165 66.1982L544.224 70.7756C544.227 71.0126 544.095 71.1625 543.829 71.2252L541.252 71.2583C540.956 71.2621 540.806 71.1159 540.802 70.8196L540.8 70.6863L540.743 66.2422L536.817 68.5596C536.612 68.74 536.419 68.7128 536.238 68.4781L534.876 66.2288C534.724 65.964 534.781 65.7559 535.045 65.6043C535.075 65.6039 535.09 65.5963 535.09 65.5815C535.089 65.5667 535.104 65.5591 535.134 65.5587L539.016 63.2864L534.987 61.0714L534.987 61.0269C534.718 60.8822 534.656 60.6904 534.801 60.4515L536.062 58.2573L536.062 58.2129C536.206 57.9443 536.413 57.8824 536.681 58.0271L540.666 60.2871L540.608 55.7097C540.604 55.4135 540.75 55.2634 541.046 55.2596L543.579 55.2271C543.876 55.2232 544.026 55.3695 544.029 55.6657L544.088 60.2431L548.059 57.9252C548.294 57.774 548.487 57.816 548.638 58.0511L549.911 60.2127L549.956 60.2566C550.107 60.5213 550.051 60.7295 549.786 60.881L545.86 63.1984L549.844 65.414L549.845 65.4584Z" fill="#2E3140"/>
<path d="M620.795 51.4616L625.233 51.3067L627.423 61.0762L628.902 51.1785L633.364 51.0228L633.958 68.0524L630.456 68.1747L630.089 57.6451L628.688 67.0357L626.553 67.1102L624.526 57.8874L624.892 68.369L621.39 68.4913L620.795 51.4616ZM642.309 68.145C638.136 68.2907 635.662 64.847 635.475 59.4982C635.288 54.1495 637.514 50.4936 641.688 50.3478C645.861 50.2021 648.337 53.6938 648.523 59.0426C648.71 64.3913 646.483 67.9992 642.309 68.145ZM639.169 59.3692C639.301 63.1349 640.305 65.0691 642.199 65.0029C644.094 64.9367 644.961 62.9373 644.83 59.1716C644.697 55.3819 643.692 53.4237 641.797 53.4899C639.903 53.5561 639.037 55.5795 639.169 59.3692ZM651.137 67.4525L650.542 50.4229L655.459 50.2512C659.777 50.1004 662.039 51.6303 662.148 54.7484C662.215 56.6433 660.941 58.0086 658.744 58.3495L658.746 58.3974C661.44 58.5435 663.051 59.9521 663.129 62.2068C663.239 65.3488 661.139 67.1032 657.013 67.2473L651.137 67.4525ZM654.553 64.1873L656.736 64.111C658.535 64.0482 659.494 63.3183 659.449 62.0231C659.403 60.7279 658.42 60.0658 656.597 60.1295L654.414 60.2057L654.553 64.1873ZM654.307 57.1356L655.866 57.0811C657.641 57.0191 658.531 56.3637 658.488 55.1404C658.446 53.9412 657.512 53.3254 655.737 53.3874L654.178 53.4418L654.307 57.1356ZM676.581 49.5136L676.691 52.6556L672.805 52.7913L673.18 63.5368L677.114 63.3994L677.224 66.5415L665.855 66.9385L665.745 63.7964L669.679 63.6591L669.303 52.9136L665.418 53.0493L665.308 49.9072L676.581 49.5136ZM680.956 66.4112L680.361 49.3816L683.863 49.2593L684.348 63.1468L692.215 62.8721L692.325 66.0142L680.956 66.4112ZM694.575 48.8852L705.992 48.4865L706.102 51.6286L698.187 51.905L698.319 55.6947L705.947 55.4283L706.056 58.5464L698.428 58.8128L698.562 62.6504L706.669 62.3673L706.779 65.5094L695.17 65.9148L694.575 48.8852ZM722.596 47.9067L726.337 47.776L729.822 58.8452L732.525 47.5599L736.267 47.4293L731.729 64.6381L728.323 64.7571L722.596 47.9067ZM738.441 47.3534L749.858 46.9547L749.967 50.0968L742.052 50.3732L742.184 54.1629L749.812 53.8965L749.921 57.0146L742.293 57.281L742.427 61.1186L750.534 60.8355L750.644 63.9776L739.035 64.383L738.441 47.3534ZM758.555 46.651C762.225 46.5228 764.598 48.4572 764.709 51.6472C764.782 53.734 763.589 55.3366 761.78 55.808C763.734 56.052 764.654 56.9564 764.887 58.7974L765.434 63.4611L761.86 63.5859L761.325 59.258C761.16 57.991 760.424 57.5364 758.865 57.5908L756.73 57.6654L756.943 63.7577L753.441 63.8799L752.846 46.8503L758.555 46.651ZM756.62 54.5233L758.683 54.4513C760.17 54.3993 761.074 53.4552 761.025 52.0641C760.976 50.6489 760.008 49.7462 758.521 49.7981L756.458 49.8701L756.62 54.5233ZM770.926 57.3377C771.305 59.2457 772.424 60.3593 774.247 60.2956C775.662 60.2462 776.498 59.4245 776.383 58.1798C776.296 57.0782 775.36 56.4144 773.209 56.0093C769.417 55.3732 767.678 53.7289 767.591 51.2344C767.478 47.9964 769.709 45.8772 773.331 45.7507C776.689 45.6335 779.07 47.8077 779.597 51.1994L776.053 51.4912C775.828 49.8661 774.808 48.8451 773.321 48.897C771.81 48.9498 770.929 49.8691 771.12 51.2072C771.279 52.3064 772.424 52.7707 774.186 53.0453C777.567 53.5757 779.815 55.3703 779.906 57.9847C780.021 61.2707 777.739 63.3196 774.309 63.4394C770.447 63.5742 767.8 61.3373 767.456 57.6751L770.926 57.3377ZM793.555 45.4288L793.665 48.5708L789.779 48.7065L790.154 59.452L794.088 59.3146L794.197 62.4567L782.828 62.8537L782.719 59.7116L786.652 59.5743L786.277 48.8288L782.391 48.9645L782.282 45.8224L793.555 45.4288ZM803.148 62.5284C798.975 62.6741 796.501 59.2303 796.314 53.8816C796.127 48.5329 798.353 44.877 802.527 44.7312C806.7 44.5855 809.175 48.0772 809.362 53.426C809.549 58.7747 807.321 62.3826 803.148 62.5284ZM800.008 53.7526C800.139 57.5183 801.143 59.4525 803.038 59.3863C804.933 59.3201 805.8 57.3206 805.668 53.5549C805.536 49.7653 804.531 47.8071 802.636 47.8733C800.741 47.9395 799.876 49.9629 800.008 53.7526ZM811.261 44.8104L815.003 44.6798L819.922 54.8823L819.56 44.5206L823.062 44.3983L823.657 61.428L819.795 61.5628L815.014 51.8598L815.358 61.7178L811.856 61.84L811.261 44.8104Z" fill="#2E3140"/>
<path d="M910.286 52.8725C910.495 53.018 910.557 53.195 910.471 53.4035L910.472 53.4924L910.427 53.493L909.211 55.6866C909.066 55.9255 908.859 55.9726 908.591 55.8279C908.561 55.8283 908.531 55.8138 908.501 55.7846L904.606 53.6123L904.665 58.1897C904.668 58.4267 904.537 58.5765 904.271 58.6392L901.693 58.6724C901.397 58.6762 901.247 58.5299 901.243 58.2337L901.242 58.1004L901.184 53.6563L897.258 55.9736C897.053 56.154 896.86 56.1269 896.679 55.8922L895.317 53.6428C895.165 53.3781 895.222 53.1699 895.487 53.0184C895.516 53.018 895.531 53.0104 895.531 52.9956C895.531 52.9808 895.545 52.9732 895.575 52.9728L899.457 50.7005L895.428 48.4854L895.428 48.441C895.159 48.2963 895.098 48.1045 895.243 47.8655L896.504 45.6714L896.503 45.6269C896.648 45.3584 896.854 45.2964 897.123 45.4412L901.108 47.7012L901.049 43.1238C901.045 42.8275 901.191 42.6775 901.488 42.6737L904.021 42.6411C904.317 42.6373 904.467 42.7835 904.471 43.0798L904.53 47.6572L908.5 45.3393C908.735 45.1881 908.928 45.2301 909.08 45.4652L910.352 47.6268L910.397 47.6707C910.549 47.9354 910.492 48.1435 910.227 48.2951L906.301 50.6125L910.286 52.8281L910.286 52.8725Z" fill="#2E3140"/>
<path d="M986.541 38.6887C991.29 38.5228 994.377 41.633 994.563 46.9577C994.747 52.2345 991.957 55.5499 987.28 55.7132L982.219 55.89L981.624 38.8604L986.541 38.6887ZM985.611 52.6256L987.026 52.5762C989.593 52.4866 990.97 50.6614 990.844 47.0636C990.719 43.4658 989.217 41.7411 986.651 41.8307L985.236 41.8802L985.611 52.6256ZM996.534 38.3397L1007.95 37.941L1008.06 41.0831L1000.15 41.3595L1000.28 45.1492L1007.91 44.8828L1008.01 48.0009L1000.39 48.2673L1000.52 52.105L1008.63 51.8218L1008.74 54.9639L997.129 55.3693L996.534 38.3397ZM1014.4 48.8347C1014.78 50.7426 1015.9 51.8562 1017.72 51.7926C1019.13 51.7431 1019.97 50.9215 1019.85 49.6767C1019.77 48.5751 1018.83 47.9113 1016.68 47.5062C1012.89 46.8701 1011.15 45.2258 1011.06 42.7313C1010.95 39.4933 1013.18 37.3741 1016.8 37.2477C1020.16 37.1304 1022.54 39.3046 1023.07 42.6963L1019.52 42.9882C1019.3 41.363 1018.28 40.342 1016.79 40.3939C1015.28 40.4467 1014.4 41.366 1014.59 42.7042C1014.75 43.8033 1015.9 44.2676 1017.66 44.5423C1021.04 45.0726 1023.29 46.8672 1023.38 49.4817C1023.49 52.7677 1021.21 54.8165 1017.78 54.9363C1013.92 55.0712 1011.27 52.8342 1010.93 49.172L1014.4 48.8347ZM1038.29 53.9318L1036.18 54.0055L1035.92 52.1174C1035.13 53.5619 1033.72 54.4756 1032.07 54.5334C1028.04 54.6741 1025.28 51.1684 1025.09 45.8916C1024.91 40.5909 1027.42 36.8769 1031.45 36.7362C1034.78 36.6198 1037.01 38.6551 1038.04 42.4858L1034.33 42.8555C1033.88 40.9021 1032.85 39.8331 1031.61 39.8766C1029.66 39.9445 1028.68 42.164 1028.81 45.7618C1028.93 49.3356 1030.07 51.4575 1032.01 51.3896C1033.64 51.3327 1034.43 49.9362 1034.51 47.9883L1031.68 48.0872L1031.58 45.2809L1037.98 45.0573L1038.29 53.9318ZM1051.65 36.4151L1051.76 39.5572L1047.87 39.6928L1048.25 50.4383L1052.18 50.3009L1052.29 53.443L1040.92 53.84L1040.81 50.6979L1044.75 50.5606L1044.37 39.8151L1040.48 39.9508L1040.37 36.8087L1051.65 36.4151ZM1054.73 36.3074L1058.47 36.1767L1063.39 46.3792L1063.03 36.0175L1066.53 35.8953L1067.13 52.9249L1063.27 53.0597L1058.49 43.3567L1058.83 53.2147L1055.33 53.337L1054.73 36.3074ZM1087.51 46.2817C1087.88 48.1896 1089 49.3032 1090.83 49.2395C1092.24 49.1901 1093.08 48.3685 1092.96 47.1237C1092.88 46.0221 1091.94 45.3583 1089.79 44.9532C1086 44.3171 1084.26 42.6728 1084.17 40.1783C1084.06 36.9403 1086.29 34.8211 1089.91 34.6947C1093.27 34.5774 1095.65 36.7516 1096.18 40.1433L1092.63 40.4352C1092.41 38.81 1091.39 37.789 1089.9 37.8409C1088.39 37.8937 1087.51 38.813 1087.7 40.1511C1087.86 41.2503 1089 41.7146 1090.77 41.9893C1094.15 42.5196 1096.39 44.3142 1096.49 46.9286C1096.6 50.2146 1094.32 52.2635 1090.89 52.3833C1087.03 52.5182 1084.38 50.2812 1084.04 46.619L1087.51 46.2817ZM1098.07 34.794L1101.98 34.6574L1104.74 40.8528L1107.04 34.4807L1110.95 34.3442L1106.63 44.7013L1106.87 51.5371L1103.37 51.6594L1103.13 44.8236L1098.07 34.794ZM1116.75 45.2605C1117.13 47.1684 1118.25 48.282 1120.07 48.2183C1121.49 48.1689 1122.32 47.3473 1122.21 46.1025C1122.12 45.0009 1121.18 44.3371 1119.03 43.932C1115.24 43.2959 1113.5 41.6516 1113.41 39.1571C1113.3 35.9191 1115.53 33.7999 1119.15 33.6735C1122.51 33.5562 1124.89 35.7304 1125.42 39.1221L1121.88 39.414C1121.65 37.7888 1120.63 36.7678 1119.14 36.8197C1117.63 36.8725 1116.75 37.7918 1116.94 39.1299C1117.1 40.2291 1118.25 40.6934 1120.01 40.9681C1123.39 41.4984 1125.64 43.293 1125.73 45.9074C1125.84 49.1934 1123.56 51.2423 1120.13 51.3621C1116.27 51.497 1113.62 49.26 1113.28 45.5978L1116.75 45.2605ZM1140.03 33.3288L1140.14 36.4709L1135.6 36.6292L1136.09 50.5168L1132.59 50.6391L1132.1 36.7515L1127.57 36.9098L1127.46 33.7677L1140.03 33.3288ZM1142.75 33.2337L1154.17 32.835L1154.28 35.9771L1146.36 36.2535L1146.49 40.0432L1154.12 39.7768L1154.23 42.8949L1146.6 43.1613L1146.74 46.9989L1154.84 46.7158L1154.95 49.8579L1143.35 50.2633L1142.75 33.2337ZM1156.7 32.7465L1161.14 32.5916L1163.33 42.3611L1164.81 32.4634L1169.27 32.3076L1169.86 49.3373L1166.36 49.4596L1165.99 38.93L1164.59 48.3206L1162.46 48.3951L1160.43 39.1723L1160.8 49.6539L1157.3 49.7762L1156.7 32.7465Z" fill="#2E3140"/>
<path d="M1255.74 40.8081C1255.95 40.9535 1256.01 41.1305 1255.92 41.3391L1255.93 41.4279L1255.88 41.4285L1254.66 43.6221C1254.52 43.861 1254.31 43.9081 1254.04 43.7634C1254.01 43.7638 1253.98 43.7494 1253.95 43.7201L1250.06 41.5478L1250.12 46.1252C1250.12 46.3622 1249.99 46.5121 1249.72 46.5748L1247.15 46.6079C1246.85 46.6117 1246.7 46.4655 1246.7 46.1692L1246.69 46.0359L1246.64 41.5918L1242.71 43.9092C1242.51 44.0896 1242.31 44.0624 1242.13 43.8277L1240.77 41.5784C1240.62 41.3136 1240.68 41.1055 1240.94 40.9539C1240.97 40.9535 1240.98 40.9459 1240.98 40.9311C1240.98 40.9163 1241 40.9087 1241.03 40.9083L1244.91 38.636L1240.88 36.421L1240.88 36.3765C1240.61 36.2318 1240.55 36.04 1240.7 35.8011L1241.96 33.6069L1241.96 33.5625C1242.1 33.2939 1242.31 33.232 1242.58 33.3767L1246.56 35.6368L1246.5 31.0594C1246.5 30.7631 1246.64 30.613 1246.94 30.6092L1249.47 30.5767C1249.77 30.5729 1249.92 30.7191 1249.92 31.0154L1249.98 35.5928L1253.95 33.2748C1254.19 33.1237 1254.38 33.1656 1254.53 33.4007L1255.81 35.5623L1255.85 35.6062C1256 35.8709 1255.95 36.0791 1255.68 36.2307L1251.75 38.548L1255.74 40.7636L1255.74 40.8081Z" fill="#2E3140"/>
<path d="M1330.61 37.7934C1330.99 39.7013 1332.11 40.8149 1333.93 40.7513C1335.34 40.7018 1336.18 39.8802 1336.06 38.6354C1335.98 37.5338 1335.04 36.87 1332.89 36.4649C1329.1 35.8288 1327.36 34.1845 1327.27 31.69C1327.16 28.452 1329.39 26.3328 1333.01 26.2064C1336.37 26.0891 1338.75 28.2633 1339.28 31.655L1335.73 31.9469C1335.51 30.3217 1334.49 29.3007 1333 29.3526C1331.49 29.4054 1330.61 30.3247 1330.8 31.6629C1330.96 32.762 1332.1 33.2263 1333.87 33.501C1337.25 34.0313 1339.5 35.826 1339.59 38.4404C1339.7 41.7264 1337.42 43.7752 1333.99 43.895C1330.13 44.0299 1327.48 41.7929 1327.14 38.1307L1330.61 37.7934ZM1353.24 25.8844L1353.35 29.0265L1349.46 29.1621L1349.84 39.9076L1353.77 39.7702L1353.88 42.9123L1342.51 43.3093L1342.4 40.1673L1346.33 40.0299L1345.96 29.2844L1342.07 29.4201L1341.96 26.278L1353.24 25.8844ZM1368.51 25.3512L1368.62 28.4932L1364.08 28.6515L1364.57 42.5391L1361.07 42.6614L1360.58 28.7738L1356.05 28.9321L1355.94 25.7901L1368.51 25.3512ZM1371.23 25.256L1382.65 24.8573L1382.76 27.9994L1374.84 28.2758L1374.97 32.0655L1382.6 31.7991L1382.71 34.9172L1375.08 35.1836L1375.22 39.0212L1383.32 38.7381L1383.43 41.8802L1371.83 42.2856L1371.23 25.256ZM1385.18 24.7689L1389.62 24.6139L1391.81 34.3834L1393.29 24.4857L1397.75 24.33L1398.34 41.3596L1394.84 41.4819L1394.47 30.9523L1393.07 40.3429L1390.94 40.4174L1388.91 31.1946L1389.28 41.6762L1385.78 41.7985L1385.18 24.7689ZM1399.85 41.3071L1404.36 24.0991L1407.81 23.9785L1413.52 40.8297L1409.85 40.9579L1408.88 37.9179L1404.27 38.0787L1403.52 41.179L1399.85 41.3071ZM1404.97 35.2688L1407.99 35.1632L1406.29 29.8193L1404.97 35.2688ZM1421.14 23.5131C1424.59 23.3925 1427.2 25.6791 1427.31 28.9651C1427.42 32.2031 1424.99 34.6656 1421.53 34.7863L1419.06 34.8725L1419.26 40.629L1415.76 40.7513L1415.17 23.7217L1421.14 23.5131ZM1418.95 31.7304L1420.9 31.6626C1422.65 31.6015 1423.64 30.606 1423.59 29.0949C1423.54 27.5599 1422.47 26.6125 1420.72 26.6736L1418.78 26.7415L1418.95 31.7304Z" fill="#2E3140"/>
<path d="M1514.25 31.7807C1514.46 31.9262 1514.52 32.1032 1514.43 32.3117L1514.43 32.4006L1514.39 32.4012L1513.17 34.5948C1513.03 34.8337 1512.82 34.8808 1512.55 34.7361C1512.52 34.7365 1512.49 34.722 1512.46 34.6928L1508.57 32.5205L1508.63 37.0979C1508.63 37.3349 1508.5 37.4847 1508.23 37.5474L1505.65 37.5806C1505.36 37.5844 1505.21 37.4381 1505.2 37.1419L1505.2 37.0086L1505.15 32.5645L1501.22 34.8818C1501.01 35.0622 1500.82 35.0351 1500.64 34.8004L1499.28 32.551C1499.13 32.2863 1499.18 32.0781 1499.45 31.9266C1499.48 31.9262 1499.49 31.9186 1499.49 31.9038C1499.49 31.889 1499.51 31.8814 1499.54 31.881L1503.42 29.6087L1499.39 27.3936L1499.39 27.3492C1499.12 27.2045 1499.06 27.0127 1499.2 26.7737L1500.46 24.5796L1500.46 24.5351C1500.61 24.2666 1500.82 24.2046 1501.08 24.3494L1505.07 26.6094L1505.01 22.032C1505.01 21.7357 1505.15 21.5857 1505.45 21.5819L1507.98 21.5493C1508.28 21.5455 1508.43 21.6917 1508.43 21.988L1508.49 26.5654L1512.46 24.2475C1512.7 24.0963 1512.89 24.1383 1513.04 24.3734L1514.31 26.535L1514.36 26.5789C1514.51 26.8436 1514.45 27.0517 1514.19 27.2033L1510.26 29.5207L1514.25 31.7363L1514.25 31.7807Z" fill="#2E3140"/>
<path d="M1590.5 17.5988C1595.25 17.433 1598.33 20.5431 1598.52 25.8679C1598.7 31.1447 1595.91 34.4601 1591.24 34.6234L1586.18 34.8001L1585.58 17.7705L1590.5 17.5988ZM1589.57 31.5358L1590.98 31.4863C1593.55 31.3967 1594.93 29.5715 1594.8 25.9737C1594.68 22.3759 1593.17 20.6513 1590.61 20.7409L1589.19 20.7903L1589.57 31.5358ZM1600.49 17.2499L1611.91 16.8512L1612.02 19.9933L1604.1 20.2697L1604.23 24.0593L1611.86 23.793L1611.97 26.9111L1604.34 27.1774L1604.48 31.0151L1612.58 30.732L1612.69 33.8741L1601.09 34.2795L1600.49 17.2499ZM1618.35 27.7448C1618.73 29.6528 1619.85 30.7664 1621.68 30.7027C1623.09 30.6533 1623.93 29.8316 1623.81 28.5869C1623.72 27.4852 1622.79 26.8215 1620.64 26.4163C1616.85 25.7803 1615.11 24.136 1615.02 21.6415C1614.91 18.4035 1617.14 16.2843 1620.76 16.1578C1624.12 16.0406 1626.5 18.2148 1627.03 21.6065L1623.48 21.8983C1623.26 20.2732 1622.24 19.2522 1620.75 19.3041C1619.24 19.3569 1618.36 20.2762 1618.55 21.6143C1618.71 22.7134 1619.85 23.1778 1621.61 23.4524C1625 23.9828 1627.24 25.7774 1627.33 28.3918C1627.45 31.6778 1625.17 33.7267 1621.74 33.8465C1617.88 33.9813 1615.23 31.7444 1614.88 28.0821L1618.35 27.7448ZM1640.98 15.8358L1641.09 18.9779L1637.21 19.1136L1637.58 29.8591L1641.52 29.7217L1641.63 32.8638L1630.26 33.2608L1630.15 30.1187L1634.08 29.9813L1633.71 19.2359L1629.82 19.3716L1629.71 16.2295L1640.98 15.8358ZM1656.87 32.3314L1654.76 32.4051L1654.5 30.517C1653.71 31.9614 1652.3 32.8751 1650.65 32.9329C1646.62 33.0736 1643.86 29.568 1643.67 24.2912C1643.49 18.9904 1646 15.2765 1650.03 15.1358C1653.36 15.0194 1655.59 17.0547 1656.62 20.8853L1652.91 21.255C1652.45 19.3016 1651.43 18.2326 1650.18 18.2762C1648.24 18.344 1647.26 20.5636 1647.39 24.1614C1647.51 27.7352 1648.64 29.857 1650.59 29.7892C1652.22 29.7322 1653.01 28.3357 1653.09 26.3879L1650.26 26.4867L1650.16 23.6804L1656.56 23.4568L1656.87 32.3314ZM1658.69 15.2175L1662.43 15.0868L1667.35 25.2894L1666.99 14.9277L1670.49 14.8054L1671.09 31.835L1667.22 31.9699L1662.44 22.2668L1662.79 32.1248L1659.28 32.2471L1658.69 15.2175ZM1688.26 31.2351L1687.67 14.2055L1691.17 14.0832L1691.42 21.063L1696.74 20.877L1696.5 13.8973L1700 13.775L1700.59 30.8046L1697.09 30.9269L1696.85 24.0191L1691.52 24.2051L1691.77 31.1128L1688.26 31.2351ZM1714.09 13.2828L1714.2 16.4249L1710.32 16.5606L1710.69 27.306L1714.62 27.1687L1714.73 30.3108L1703.37 30.7078L1703.26 27.5657L1707.19 27.4283L1706.81 16.6829L1702.93 16.8186L1702.82 13.6765L1714.09 13.2828ZM1729.98 29.7784L1727.87 29.8521L1727.61 27.964C1726.82 29.4084 1725.41 30.3221 1723.76 30.3799C1719.73 30.5206 1716.96 27.015 1716.78 21.7382C1716.59 16.4374 1719.11 12.7235 1723.14 12.5828C1726.47 12.4664 1728.7 14.5017 1729.72 18.3323L1726.02 18.702C1725.56 16.7486 1724.54 15.6796 1723.29 15.7232C1721.35 15.791 1720.37 18.0106 1720.5 21.6084C1720.62 25.1822 1721.75 27.304 1723.7 27.2362C1725.33 27.1792 1726.12 25.7827 1726.19 23.8349L1723.36 23.9337L1723.27 21.1274L1729.67 20.9038L1729.98 29.7784ZM1732.13 29.7033L1731.53 12.6737L1735.04 12.5514L1735.28 19.5312L1740.6 19.3452L1740.36 12.3655L1743.86 12.2432L1744.46 29.2728L1740.96 29.3951L1740.71 22.4873L1735.39 22.6733L1735.63 29.581L1732.13 29.7033ZM1747.71 29.1592L1747.12 12.1296L1750.62 12.0073L1751.1 25.8949L1758.97 25.6201L1759.08 28.7622L1747.71 29.1592ZM1772.58 11.2404L1772.69 14.3825L1768.8 14.5182L1769.18 25.2636L1773.11 25.1263L1773.22 28.2684L1761.85 28.6654L1761.74 25.5233L1765.68 25.3859L1765.3 14.6405L1761.42 14.7762L1761.31 11.6341L1772.58 11.2404ZM1788.47 27.736L1786.36 27.8097L1786.1 25.9215C1785.31 27.366 1783.9 28.2797 1782.24 28.3375C1778.21 28.4782 1775.45 24.9726 1775.27 19.6958C1775.08 14.395 1777.59 10.6811 1781.62 10.5404C1784.96 10.4239 1787.19 12.4593 1788.21 16.2899L1784.5 16.6596C1784.05 14.7062 1783.03 13.6372 1781.78 13.6808C1779.84 13.7486 1778.86 15.9681 1778.98 19.566C1779.11 23.1398 1780.24 25.2616 1782.18 25.1938C1783.81 25.1368 1784.61 23.7403 1784.68 21.7925L1781.85 21.8913L1781.75 19.085L1788.16 18.8614L1788.47 27.736ZM1790.62 27.6609L1790.02 10.6313L1793.52 10.509L1793.77 17.4888L1799.09 17.3028L1798.85 10.3231L1802.35 10.2008L1802.94 27.2304L1799.44 27.3527L1799.2 20.4449L1793.88 20.6309L1794.12 27.5386L1790.62 27.6609ZM1817.09 9.686L1817.2 12.8281L1812.67 12.9864L1813.15 26.8739L1809.65 26.9962L1809.17 13.1087L1804.63 13.267L1804.52 10.1249L1817.09 9.686ZM1823.06 20.5964C1823.44 22.5043 1824.56 23.6179 1826.38 23.5543C1827.79 23.5049 1828.63 22.6832 1828.52 21.4385C1828.43 20.3368 1827.49 19.6731 1825.34 19.2679C1821.55 18.6319 1819.81 16.9876 1819.72 14.4931C1819.61 11.255 1821.84 9.13588 1825.46 9.0094C1828.82 8.89214 1831.2 11.0664 1831.73 14.458L1828.19 14.7499C1827.96 13.1248 1826.94 12.1037 1825.45 12.1557C1823.94 12.2084 1823.06 13.1277 1823.25 14.4659C1823.41 15.565 1824.56 16.0294 1826.32 16.304C1829.7 16.8343 1831.95 18.629 1832.04 21.2434C1832.15 24.5294 1829.87 26.5783 1826.44 26.6981C1822.58 26.8329 1819.93 24.5959 1819.59 20.9337L1823.06 20.5964Z" fill="#2E3140"/>
<path d="M1918.67 17.6596C1918.87 17.8051 1918.94 17.9821 1918.85 18.1906L1918.85 18.2795L1918.81 18.2801L1917.59 20.4737C1917.44 20.7126 1917.24 20.7597 1916.97 20.615C1916.94 20.6154 1916.91 20.6009 1916.88 20.5717L1912.99 18.3994L1913.04 22.9768C1913.05 23.2138 1912.92 23.3636 1912.65 23.4263L1910.07 23.4595C1909.78 23.4633 1909.63 23.3171 1909.62 23.0208L1909.62 22.8875L1909.56 18.4434L1905.64 20.7607C1905.43 20.9412 1905.24 20.914 1905.06 20.6793L1903.7 18.4299C1903.54 18.1652 1903.6 17.957 1903.87 17.8055C1903.9 17.8051 1903.91 17.7975 1903.91 17.7827C1903.91 17.7679 1903.92 17.7603 1903.95 17.7599L1907.84 15.4876L1903.81 13.2725L1903.81 13.2281C1903.54 13.0834 1903.48 12.8916 1903.62 12.6526L1904.88 10.4585L1904.88 10.414C1905.03 10.1455 1905.23 10.0836 1905.5 10.2283L1909.49 12.4883L1909.43 7.91092C1909.42 7.61465 1909.57 7.46461 1909.87 7.4608L1912.4 7.42822C1912.7 7.42441 1912.85 7.57064 1912.85 7.86692L1912.91 12.4443L1916.88 10.1264C1917.11 9.97522 1917.31 10.0172 1917.46 10.2523L1918.73 12.4139L1918.78 12.4578C1918.93 12.7225 1918.87 12.9307 1918.61 13.0822L1914.68 15.3996L1918.66 17.6152L1918.67 17.6596Z" fill="#2E3140"/>
</svg>
