<svg width="605" height="338" viewBox="0 0 605 338" fill="none" xmlns="http://www.w3.org/2000/svg">
<g filter="url(#filter0_d_1528_3445)">
<rect x="14" y="11" width="563" height="284" rx="8" fill="#F9F9F9" shape-rendering="crispEdges"/>
<g clip-path="url(#clip0_1528_3445)">
<path d="M295.5 71C277.772 71 263.5 85.2723 263.5 103C263.5 120.728 277.772 135 295.5 135C313.228 135 327.5 120.728 327.5 103C327.5 85.2723 313.228 71 295.5 71ZM295.5 128.69C281.378 128.69 269.81 117.122 269.81 103C269.81 88.8779 281.378 77.3099 295.5 77.3099C309.622 77.3099 321.19 88.8779 321.19 103C321.19 117.122 309.622 128.69 295.5 128.69ZM310.223 88.8779L289.04 109.911L280.777 101.648L276.27 106.155L289.04 119.075L314.73 93.385L310.223 88.8779Z" fill="#9DB8D8"/>
</g>
<path d="M127.84 199L131.008 193.504H131.08L138.232 181H143.128L132.736 199H127.84ZM130.96 196.48L121.984 181H126.976L134.152 193.408L130.96 196.48ZM157.404 193.312C157.276 194.512 156.828 195.568 156.06 196.48C155.308 197.392 154.332 198.104 153.132 198.616C151.948 199.128 150.612 199.384 149.124 199.384C147.476 199.384 146.02 199.08 144.756 198.472C143.492 197.864 142.508 197.016 141.804 195.928C141.1 194.84 140.748 193.584 140.748 192.16C140.748 190.736 141.1 189.48 141.804 188.392C142.508 187.304 143.492 186.456 144.756 185.848C146.02 185.24 147.476 184.936 149.124 184.936C150.612 184.936 151.948 185.192 153.132 185.704C154.332 186.216 155.308 186.928 156.06 187.84C156.828 188.736 157.276 189.792 157.404 191.008H152.964C152.788 190.128 152.348 189.456 151.644 188.992C150.956 188.528 150.116 188.296 149.124 188.296C148.34 188.296 147.652 188.448 147.06 188.752C146.484 189.056 146.036 189.496 145.716 190.072C145.396 190.648 145.236 191.344 145.236 192.16C145.236 192.976 145.396 193.672 145.716 194.248C146.036 194.824 146.484 195.264 147.06 195.568C147.652 195.872 148.34 196.024 149.124 196.024C150.132 196.024 150.98 195.784 151.668 195.304C152.356 194.808 152.788 194.144 152.964 193.312H157.404ZM175.211 185.32V199H170.747V186.616L172.787 188.656H161.867L163.907 186.616V199H159.467V185.32H175.211ZM185.948 199.384C184.316 199.384 182.852 199.08 181.556 198.472C180.276 197.864 179.268 197.016 178.532 195.928C177.796 194.84 177.428 193.568 177.428 192.112C177.428 190.688 177.78 189.44 178.484 188.368C179.188 187.296 180.156 186.456 181.388 185.848C182.636 185.24 184.044 184.936 185.612 184.936C187.212 184.936 188.588 185.288 189.74 185.992C190.892 186.696 191.78 187.688 192.404 188.968C193.028 190.248 193.34 191.752 193.34 193.48H181.004V190.672H190.892L189.284 191.68C189.236 190.928 189.052 190.296 188.732 189.784C188.428 189.256 188.02 188.856 187.508 188.584C186.996 188.296 186.388 188.152 185.684 188.152C184.916 188.152 184.252 188.304 183.692 188.608C183.132 188.912 182.692 189.336 182.372 189.88C182.068 190.424 181.916 191.056 181.916 191.776C181.916 192.688 182.116 193.464 182.516 194.104C182.932 194.744 183.524 195.232 184.292 195.568C185.076 195.904 186.028 196.072 187.148 196.072C188.172 196.072 189.196 195.936 190.22 195.664C191.244 195.376 192.164 194.976 192.98 194.464V197.368C192.052 198.008 190.988 198.504 189.788 198.856C188.604 199.208 187.324 199.384 185.948 199.384ZM195.561 199V185.32H200.001V196.984L198.657 195.664H206.937L205.833 196.984V185.32H210.273V196.984L209.049 195.664H217.449L216.105 196.984V185.32H220.545V199H195.561ZM223.428 185.32H227.868V199H223.428V185.32ZM234.828 185.32H239.268V199H234.828V185.32ZM225.972 190.36H236.532V193.696H225.972V190.36ZM250.123 199.384C248.395 199.384 246.883 199.08 245.587 198.472C244.291 197.864 243.283 197.016 242.563 195.928C241.843 194.84 241.483 193.584 241.483 192.16C241.483 190.72 241.843 189.464 242.563 188.392C243.283 187.304 244.291 186.456 245.587 185.848C246.899 185.24 248.411 184.936 250.123 184.936C251.851 184.936 253.363 185.24 254.659 185.848C255.971 186.456 256.987 187.304 257.707 188.392C258.427 189.464 258.787 190.72 258.787 192.16C258.787 193.6 258.427 194.864 257.707 195.952C256.987 197.024 255.971 197.864 254.659 198.472C253.363 199.08 251.851 199.384 250.123 199.384ZM250.123 196.024C251.003 196.024 251.747 195.872 252.355 195.568C252.979 195.248 253.451 194.8 253.771 194.224C254.107 193.648 254.275 192.96 254.275 192.16C254.275 191.36 254.107 190.672 253.771 190.096C253.451 189.52 252.979 189.08 252.355 188.776C251.747 188.456 251.003 188.296 250.123 188.296C249.275 188.296 248.539 188.456 247.915 188.776C247.291 189.08 246.811 189.52 246.475 190.096C246.139 190.672 245.971 191.36 245.971 192.16C245.971 192.96 246.139 193.648 246.475 194.224C246.811 194.8 247.291 195.248 247.915 195.568C248.539 195.872 249.275 196.024 250.123 196.024ZM283.029 193.312C282.901 194.512 282.453 195.568 281.685 196.48C280.933 197.392 279.957 198.104 278.757 198.616C277.573 199.128 276.237 199.384 274.749 199.384C273.101 199.384 271.645 199.08 270.381 198.472C269.117 197.864 268.133 197.016 267.429 195.928C266.725 194.84 266.373 193.584 266.373 192.16C266.373 190.736 266.725 189.48 267.429 188.392C268.133 187.304 269.117 186.456 270.381 185.848C271.645 185.24 273.101 184.936 274.749 184.936C276.237 184.936 277.573 185.192 278.757 185.704C279.957 186.216 280.933 186.928 281.685 187.84C282.453 188.736 282.901 189.792 283.029 191.008H278.589C278.413 190.128 277.973 189.456 277.269 188.992C276.581 188.528 275.741 188.296 274.749 188.296C273.965 188.296 273.277 188.448 272.685 188.752C272.109 189.056 271.661 189.496 271.341 190.072C271.021 190.648 270.861 191.344 270.861 192.16C270.861 192.976 271.021 193.672 271.341 194.248C271.661 194.824 272.109 195.264 272.685 195.568C273.277 195.872 273.965 196.024 274.749 196.024C275.757 196.024 276.605 195.784 277.293 195.304C277.981 194.808 278.413 194.144 278.589 193.312H283.029ZM292.94 199.384C291.308 199.384 289.844 199.08 288.548 198.472C287.268 197.864 286.26 197.016 285.524 195.928C284.788 194.84 284.42 193.568 284.42 192.112C284.42 190.688 284.772 189.44 285.476 188.368C286.18 187.296 287.148 186.456 288.38 185.848C289.628 185.24 291.036 184.936 292.604 184.936C294.204 184.936 295.58 185.288 296.732 185.992C297.884 186.696 298.772 187.688 299.396 188.968C300.02 190.248 300.332 191.752 300.332 193.48H287.996V190.672H297.884L296.276 191.68C296.228 190.928 296.044 190.296 295.724 189.784C295.42 189.256 295.012 188.856 294.5 188.584C293.988 188.296 293.38 188.152 292.676 188.152C291.908 188.152 291.244 188.304 290.684 188.608C290.124 188.912 289.684 189.336 289.364 189.88C289.06 190.424 288.908 191.056 288.908 191.776C288.908 192.688 289.108 193.464 289.508 194.104C289.924 194.744 290.516 195.232 291.284 195.568C292.068 195.904 293.02 196.072 294.14 196.072C295.164 196.072 296.188 195.936 297.212 195.664C298.236 195.376 299.156 194.976 299.972 194.464V197.368C299.044 198.008 297.98 198.504 296.78 198.856C295.596 199.208 294.316 199.384 292.94 199.384ZM315.56 199.384C313.992 199.384 312.624 199.184 311.456 198.784C310.304 198.384 309.4 197.808 308.744 197.056C308.088 196.288 307.736 195.392 307.688 194.368H311.984C312.08 194.992 312.432 195.472 313.04 195.808C313.664 196.128 314.504 196.288 315.56 196.288C316.568 196.288 317.344 196.16 317.888 195.904C318.448 195.648 318.728 195.248 318.728 194.704C318.728 194.256 318.488 193.928 318.008 193.72C317.544 193.496 316.784 193.384 315.728 193.384H313.256V190.888H315.68C316.608 190.888 317.288 190.76 317.72 190.504C318.168 190.232 318.392 189.896 318.392 189.496C318.392 189.016 318.136 188.656 317.624 188.416C317.128 188.16 316.44 188.032 315.56 188.032C314.6 188.032 313.832 188.184 313.256 188.488C312.68 188.776 312.336 189.216 312.224 189.808H307.952C308.016 188.912 308.352 188.096 308.96 187.36C309.584 186.624 310.464 186.04 311.6 185.608C312.752 185.16 314.136 184.936 315.752 184.936C317.176 184.936 318.424 185.112 319.496 185.464C320.568 185.8 321.4 186.264 321.992 186.856C322.584 187.448 322.88 188.128 322.88 188.896C322.88 189.488 322.696 190.048 322.328 190.576C321.96 191.088 321.352 191.496 320.504 191.8C319.672 192.104 318.568 192.256 317.192 192.256V191.848C319.144 191.768 320.64 192 321.68 192.544C322.72 193.072 323.24 193.896 323.24 195.016C323.24 195.848 322.936 196.6 322.328 197.272C321.736 197.928 320.864 198.448 319.712 198.832C318.576 199.2 317.192 199.384 315.56 199.384ZM337.931 199L337.331 194.032L337.979 192.16L337.331 190.312L337.931 185.32H342.563L341.723 192.16L342.563 199H337.931ZM339.035 192.16C338.795 193.616 338.339 194.888 337.667 195.976C336.995 197.048 336.147 197.888 335.123 198.496C334.099 199.088 332.947 199.384 331.667 199.384C330.323 199.384 329.139 199.08 328.115 198.472C327.107 197.864 326.315 197.024 325.739 195.952C325.163 194.864 324.875 193.6 324.875 192.16C324.875 190.72 325.163 189.464 325.739 188.392C326.315 187.304 327.107 186.456 328.115 185.848C329.139 185.24 330.323 184.936 331.667 184.936C332.947 184.936 334.099 185.24 335.123 185.848C336.147 186.44 336.995 187.272 337.667 188.344C338.355 189.416 338.811 190.688 339.035 192.16ZM329.387 192.16C329.387 192.896 329.539 193.552 329.843 194.128C330.147 194.688 330.563 195.136 331.091 195.472C331.635 195.792 332.259 195.952 332.963 195.952C333.667 195.952 334.331 195.792 334.955 195.472C335.595 195.136 336.155 194.688 336.635 194.128C337.115 193.552 337.475 192.896 337.715 192.16C337.475 191.424 337.115 190.776 336.635 190.216C336.155 189.64 335.595 189.192 334.955 188.872C334.331 188.536 333.667 188.368 332.963 188.368C332.259 188.368 331.635 188.536 331.091 188.872C330.563 189.192 330.147 189.64 329.843 190.216C329.539 190.776 329.387 191.424 329.387 192.16ZM360.836 185.32V199H356.372V186.616L358.412 188.656H347.492L349.532 186.616V199H345.092V185.32H360.836ZM363.725 199V185.32H368.093V196.6L367.085 196.312L374.789 185.32H380.525V199H376.133V187.456L377.165 187.768L369.293 199H363.725ZM399.373 193.312C399.245 194.512 398.797 195.568 398.029 196.48C397.277 197.392 396.301 198.104 395.101 198.616C393.917 199.128 392.581 199.384 391.093 199.384C389.445 199.384 387.989 199.08 386.725 198.472C385.461 197.864 384.477 197.016 383.773 195.928C383.069 194.84 382.717 193.584 382.717 192.16C382.717 190.736 383.069 189.48 383.773 188.392C384.477 187.304 385.461 186.456 386.725 185.848C387.989 185.24 389.445 184.936 391.093 184.936C392.581 184.936 393.917 185.192 395.101 185.704C396.301 186.216 397.277 186.928 398.029 187.84C398.797 188.736 399.245 189.792 399.373 191.008H394.933C394.757 190.128 394.317 189.456 393.613 188.992C392.925 188.528 392.085 188.296 391.093 188.296C390.309 188.296 389.621 188.448 389.029 188.752C388.453 189.056 388.005 189.496 387.685 190.072C387.365 190.648 387.205 191.344 387.205 192.16C387.205 192.976 387.365 193.672 387.685 194.248C388.005 194.824 388.453 195.264 389.029 195.568C389.621 195.872 390.309 196.024 391.093 196.024C392.101 196.024 392.949 195.784 393.637 195.304C394.325 194.808 394.757 194.144 394.933 193.312H399.373ZM413.868 199L413.268 194.032L413.916 192.16L413.268 190.312L413.868 185.32H418.5L417.66 192.16L418.5 199H413.868ZM414.972 192.16C414.732 193.616 414.276 194.888 413.604 195.976C412.932 197.048 412.084 197.888 411.06 198.496C410.036 199.088 408.884 199.384 407.604 199.384C406.26 199.384 405.076 199.08 404.052 198.472C403.044 197.864 402.252 197.024 401.676 195.952C401.1 194.864 400.812 193.6 400.812 192.16C400.812 190.72 401.1 189.464 401.676 188.392C402.252 187.304 403.044 186.456 404.052 185.848C405.076 185.24 406.26 184.936 407.604 184.936C408.884 184.936 410.036 185.24 411.06 185.848C412.084 186.44 412.932 187.272 413.604 188.344C414.292 189.416 414.748 190.688 414.972 192.16ZM405.324 192.16C405.324 192.896 405.476 193.552 405.78 194.128C406.084 194.688 406.5 195.136 407.028 195.472C407.572 195.792 408.196 195.952 408.9 195.952C409.604 195.952 410.268 195.792 410.892 195.472C411.532 195.136 412.092 194.688 412.572 194.128C413.052 193.552 413.412 192.896 413.652 192.16C413.412 191.424 413.052 190.776 412.572 190.216C412.092 189.64 411.532 189.192 410.892 188.872C410.268 188.536 409.604 188.368 408.9 188.368C408.196 188.368 407.572 188.536 407.028 188.872C406.5 189.192 406.084 189.64 405.78 190.216C405.476 190.776 405.324 191.424 405.324 192.16ZM419.326 199L425.734 191.296V192.76L419.71 185.32H424.678L428.758 190.264H427.342L431.422 185.32H436.294L430.102 192.832L429.886 190.912L436.678 199H431.614L427.198 193.696H428.686L424.318 199H419.326ZM442.035 186.856H446.499V199H442.035V186.856ZM436.731 185.32H451.827V188.704H436.731V185.32ZM460.987 199.384C459.355 199.384 457.891 199.08 456.595 198.472C455.315 197.864 454.307 197.016 453.571 195.928C452.835 194.84 452.467 193.568 452.467 192.112C452.467 190.688 452.819 189.44 453.523 188.368C454.227 187.296 455.195 186.456 456.427 185.848C457.675 185.24 459.083 184.936 460.651 184.936C462.251 184.936 463.627 185.288 464.779 185.992C465.931 186.696 466.819 187.688 467.443 188.968C468.067 190.248 468.379 191.752 468.379 193.48H456.043V190.672H465.931L464.323 191.68C464.275 190.928 464.091 190.296 463.771 189.784C463.467 189.256 463.059 188.856 462.547 188.584C462.035 188.296 461.427 188.152 460.723 188.152C459.955 188.152 459.291 188.304 458.731 188.608C458.171 188.912 457.731 189.336 457.411 189.88C457.107 190.424 456.955 191.056 456.955 191.776C456.955 192.688 457.155 193.464 457.555 194.104C457.971 194.744 458.563 195.232 459.331 195.568C460.115 195.904 461.067 196.072 462.187 196.072C463.211 196.072 464.235 195.936 465.259 195.664C466.283 195.376 467.203 194.976 468.019 194.464V197.368C467.091 198.008 466.027 198.504 464.827 198.856C463.643 199.208 462.363 199.384 460.987 199.384ZM156.478 229.384C154.91 229.384 153.542 229.184 152.374 228.784C151.222 228.384 150.318 227.808 149.662 227.056C149.006 226.288 148.654 225.392 148.606 224.368H152.902C152.998 224.992 153.35 225.472 153.958 225.808C154.582 226.128 155.422 226.288 156.478 226.288C157.486 226.288 158.262 226.16 158.806 225.904C159.366 225.648 159.646 225.248 159.646 224.704C159.646 224.256 159.406 223.928 158.926 223.72C158.462 223.496 157.702 223.384 156.646 223.384H154.174V220.888H156.598C157.526 220.888 158.206 220.76 158.638 220.504C159.086 220.232 159.31 219.896 159.31 219.496C159.31 219.016 159.054 218.656 158.542 218.416C158.046 218.16 157.358 218.032 156.478 218.032C155.518 218.032 154.75 218.184 154.174 218.488C153.598 218.776 153.254 219.216 153.142 219.808H148.87C148.934 218.912 149.27 218.096 149.878 217.36C150.502 216.624 151.382 216.04 152.518 215.608C153.67 215.16 155.054 214.936 156.67 214.936C158.094 214.936 159.342 215.112 160.414 215.464C161.486 215.8 162.318 216.264 162.91 216.856C163.502 217.448 163.798 218.128 163.798 218.896C163.798 219.488 163.614 220.048 163.246 220.576C162.878 221.088 162.27 221.496 161.422 221.8C160.59 222.104 159.486 222.256 158.11 222.256V221.848C160.062 221.768 161.558 222 162.598 222.544C163.638 223.072 164.158 223.896 164.158 225.016C164.158 225.848 163.854 226.6 163.246 227.272C162.654 227.928 161.782 228.448 160.63 228.832C159.494 229.2 158.11 229.384 156.478 229.384ZM178.849 229L178.249 224.032L178.897 222.16L178.249 220.312L178.849 215.32H183.481L182.641 222.16L183.481 229H178.849ZM179.953 222.16C179.713 223.616 179.257 224.888 178.585 225.976C177.913 227.048 177.065 227.888 176.041 228.496C175.017 229.088 173.865 229.384 172.585 229.384C171.241 229.384 170.057 229.08 169.033 228.472C168.025 227.864 167.233 227.024 166.657 225.952C166.081 224.864 165.793 223.6 165.793 222.16C165.793 220.72 166.081 219.464 166.657 218.392C167.233 217.304 168.025 216.456 169.033 215.848C170.057 215.24 171.241 214.936 172.585 214.936C173.865 214.936 175.017 215.24 176.041 215.848C177.065 216.44 177.913 217.272 178.585 218.344C179.273 219.416 179.729 220.688 179.953 222.16ZM170.305 222.16C170.305 222.896 170.457 223.552 170.761 224.128C171.065 224.688 171.481 225.136 172.009 225.472C172.553 225.792 173.177 225.952 173.881 225.952C174.585 225.952 175.249 225.792 175.873 225.472C176.513 225.136 177.073 224.688 177.553 224.128C178.033 223.552 178.393 222.896 178.633 222.16C178.393 221.424 178.033 220.776 177.553 220.216C177.073 219.64 176.513 219.192 175.873 218.872C175.249 218.536 174.585 218.368 173.881 218.368C173.177 218.368 172.553 218.536 172.009 218.872C171.481 219.192 171.065 219.64 170.761 220.216C170.457 220.776 170.305 221.424 170.305 222.16ZM192.057 215.32H196.497V229H192.057V215.32ZM203.457 215.32H207.897V229H203.457V215.32ZM194.601 220.36H205.161V223.696H194.601V220.36ZM223.216 229L222.616 224.032L223.264 222.16L222.616 220.312L223.216 215.32H227.848L227.008 222.16L227.848 229H223.216ZM224.32 222.16C224.08 223.616 223.624 224.888 222.952 225.976C222.28 227.048 221.432 227.888 220.408 228.496C219.384 229.088 218.232 229.384 216.952 229.384C215.608 229.384 214.424 229.08 213.4 228.472C212.392 227.864 211.6 227.024 211.024 225.952C210.448 224.864 210.16 223.6 210.16 222.16C210.16 220.72 210.448 219.464 211.024 218.392C211.6 217.304 212.392 216.456 213.4 215.848C214.424 215.24 215.608 214.936 216.952 214.936C218.232 214.936 219.384 215.24 220.408 215.848C221.432 216.44 222.28 217.272 222.952 218.344C223.64 219.416 224.096 220.688 224.32 222.16ZM214.672 222.16C214.672 222.896 214.824 223.552 215.128 224.128C215.432 224.688 215.848 225.136 216.376 225.472C216.92 225.792 217.544 225.952 218.248 225.952C218.952 225.952 219.616 225.792 220.24 225.472C220.88 225.136 221.44 224.688 221.92 224.128C222.4 223.552 222.76 222.896 223 222.16C222.76 221.424 222.4 220.776 221.92 220.216C221.44 219.64 220.88 219.192 220.24 218.872C219.616 218.536 218.952 218.368 218.248 218.368C217.544 218.368 216.92 218.536 216.376 218.872C215.848 219.192 215.432 219.64 215.128 220.216C214.824 220.776 214.672 221.424 214.672 222.16ZM230.378 229V215.32H234.818V226.984L233.474 225.664H241.754L240.65 226.984V215.32H245.09V226.984L243.866 225.664H252.266L250.922 226.984V215.32H255.362V229H230.378ZM258.245 229V215.32H262.613V226.6L261.605 226.312L269.309 215.32H275.045V229H270.653V217.456L271.685 217.768L263.813 229H258.245ZM289.453 221.584V224.416H282.829L282.781 224.272C281.725 224.272 280.789 224.096 279.973 223.744C279.173 223.376 278.549 222.856 278.101 222.184C277.653 221.512 277.429 220.736 277.429 219.856C277.429 218.944 277.653 218.152 278.101 217.48C278.549 216.808 279.173 216.28 279.973 215.896C280.789 215.512 281.725 215.32 282.781 215.32H292.669V229H288.205V216.448L289.477 218.272H283.885C283.277 218.272 282.797 218.416 282.445 218.704C282.109 218.992 281.941 219.392 281.941 219.904C281.941 220.416 282.109 220.824 282.445 221.128C282.797 221.432 283.277 221.584 283.885 221.584H289.453ZM286.717 222.592L282.109 229H277.069L281.869 222.592H286.717ZM310.101 229.384C308.213 229.384 306.589 229.024 305.229 228.304C303.885 227.584 302.853 226.552 302.133 225.208C301.429 223.864 301.077 222.24 301.077 220.336C301.077 217.504 301.845 215.272 303.381 213.64C304.917 211.992 307.125 211.048 310.005 210.808C311.173 210.712 312.141 210.632 312.909 210.568C313.693 210.488 314.325 210.416 314.805 210.352C315.301 210.272 315.725 210.192 316.077 210.112C316.429 210.032 316.765 209.936 317.085 209.824V213.496C316.733 213.624 316.293 213.744 315.765 213.856C315.253 213.952 314.597 214.032 313.797 214.096C313.013 214.144 312.037 214.2 310.869 214.264C308.789 214.36 307.253 214.912 306.261 215.92C305.269 216.912 304.773 218.36 304.773 220.264V220.84L304.629 220.504C304.933 219.672 305.405 218.96 306.045 218.368C306.701 217.76 307.485 217.296 308.397 216.976C309.325 216.656 310.325 216.496 311.397 216.496C312.789 216.496 314.005 216.76 315.045 217.288C316.085 217.8 316.893 218.528 317.469 219.472C318.061 220.4 318.357 221.496 318.357 222.76C318.357 224.088 318.013 225.248 317.325 226.24C316.637 227.232 315.677 228.008 314.445 228.568C313.213 229.112 311.765 229.384 310.101 229.384ZM310.221 226.024C310.957 226.024 311.597 225.896 312.141 225.64C312.685 225.368 313.101 224.992 313.389 224.512C313.693 224.032 313.845 223.464 313.845 222.808C313.845 222.168 313.693 221.608 313.389 221.128C313.101 220.648 312.685 220.28 312.141 220.024C311.597 219.752 310.957 219.616 310.221 219.616C309.197 219.616 308.285 219.888 307.485 220.432C306.685 220.96 306.085 221.696 305.685 222.64C305.909 223.664 306.429 224.488 307.245 225.112C308.077 225.72 309.069 226.024 310.221 226.024ZM335.66 229.384C333.964 229.384 332.476 229.08 331.196 228.472C329.916 227.864 328.916 227.016 328.196 225.928C327.492 224.84 327.14 223.584 327.14 222.16C327.14 220.72 327.492 219.464 328.196 218.392C328.916 217.304 329.916 216.456 331.196 215.848C332.476 215.24 333.964 214.936 335.66 214.936C337.372 214.936 338.868 215.24 340.148 215.848C341.444 216.456 342.444 217.304 343.148 218.392C343.868 219.464 344.228 220.72 344.228 222.16C344.228 223.6 343.868 224.864 343.148 225.952C342.444 227.024 341.444 227.864 340.148 228.472C338.868 229.08 337.372 229.384 335.66 229.384ZM320.588 229V215.32H325.028V229H320.588ZM323.084 223.672V220.36H329.996V223.672H323.084ZM335.66 226.024C336.524 226.024 337.252 225.872 337.844 225.568C338.452 225.248 338.916 224.8 339.236 224.224C339.556 223.648 339.716 222.96 339.716 222.16C339.716 221.36 339.556 220.672 339.236 220.096C338.916 219.52 338.452 219.08 337.844 218.776C337.252 218.456 336.524 218.296 335.66 218.296C334.828 218.296 334.108 218.456 333.5 218.776C332.892 219.08 332.42 219.52 332.084 220.096C331.764 220.672 331.604 221.36 331.604 222.16C331.604 222.96 331.764 223.648 332.084 224.224C332.42 224.8 332.892 225.248 333.5 225.568C334.108 225.872 334.828 226.024 335.66 226.024ZM348.416 215.32H362.912V229H358.472V216.616L360.512 218.656H350.648L352.544 216.952C352.64 217.928 352.712 218.816 352.76 219.616C352.808 220.4 352.832 221.112 352.832 221.752C352.832 224.392 352.432 226.312 351.632 227.512C350.832 228.696 349.536 229.288 347.744 229.288C347.248 229.288 346.768 229.232 346.304 229.12C345.84 229.024 345.392 228.848 344.96 228.592V225.4C345.248 225.512 345.528 225.6 345.8 225.664C346.088 225.712 346.344 225.736 346.568 225.736C347.368 225.736 347.936 225.384 348.272 224.68C348.624 223.96 348.8 222.776 348.8 221.128C348.8 220.36 348.768 219.496 348.704 218.536C348.64 217.56 348.544 216.488 348.416 215.32ZM373.647 229.384C372.015 229.384 370.551 229.08 369.255 228.472C367.975 227.864 366.967 227.016 366.231 225.928C365.495 224.84 365.127 223.568 365.127 222.112C365.127 220.688 365.479 219.44 366.183 218.368C366.887 217.296 367.855 216.456 369.087 215.848C370.335 215.24 371.743 214.936 373.311 214.936C374.911 214.936 376.287 215.288 377.439 215.992C378.591 216.696 379.479 217.688 380.103 218.968C380.727 220.248 381.039 221.752 381.039 223.48H368.703V220.672H378.591L376.983 221.68C376.935 220.928 376.751 220.296 376.431 219.784C376.127 219.256 375.719 218.856 375.207 218.584C374.695 218.296 374.087 218.152 373.383 218.152C372.615 218.152 371.951 218.304 371.391 218.608C370.831 218.912 370.391 219.336 370.071 219.88C369.767 220.424 369.615 221.056 369.615 221.776C369.615 222.688 369.815 223.464 370.215 224.104C370.631 224.744 371.223 225.232 371.991 225.568C372.775 225.904 373.727 226.072 374.847 226.072C375.871 226.072 376.895 225.936 377.919 225.664C378.943 225.376 379.863 224.976 380.679 224.464V227.368C379.751 228.008 378.687 228.504 377.487 228.856C376.303 229.208 375.023 229.384 373.647 229.384ZM386.921 216.856H391.385V229H386.921V216.856ZM381.617 215.32H396.713V218.704H381.617V215.32ZM398.495 229V215.32H402.863V226.6L401.855 226.312L409.559 215.32H415.295V229H410.903V217.456L411.935 217.768L404.063 229H398.495ZM418.159 215.32H422.599V229H418.159V215.32ZM429.559 215.32H433.999V229H429.559V215.32ZM420.703 220.36H431.263V223.696H420.703V220.36ZM436.861 211H441.517L440.773 222.856H437.605L436.861 211ZM439.189 229.24C438.453 229.24 437.845 229.024 437.365 228.592C436.901 228.144 436.669 227.568 436.669 226.864C436.669 226.16 436.901 225.592 437.365 225.16C437.845 224.728 438.453 224.512 439.189 224.512C439.941 224.512 440.549 224.728 441.013 225.16C441.493 225.592 441.733 226.16 441.733 226.864C441.733 227.568 441.493 228.144 441.013 228.592C440.549 229.024 439.941 229.24 439.189 229.24Z" fill="#212C36"/>
<g clip-path="url(#clip1_1528_3445)">
<path d="M577.012 -0.00390625C569.637 -0.00390625 563.699 5.93359 563.699 13.3086C563.699 20.6836 569.637 26.6211 577.012 26.6211C584.387 26.6211 590.324 20.6836 590.324 13.3086C590.324 5.93359 584.387 -0.00390625 577.012 -0.00390625ZM583.699 18.1211L581.824 19.9961L577.012 15.1836L572.199 19.9961L570.324 18.1211L575.137 13.3086L570.324 8.49609L572.199 6.62109L577.012 11.4336L581.824 6.62109L583.699 8.49609L578.887 13.3086L583.699 18.1211Z" fill="#2E3140"/>
</g>
</g>
<defs>
<filter id="filter0_d_1528_3445" x="0" y="-0.00390625" width="604.324" height="338.004" filterUnits="userSpaceOnUse" color-interpolation-filters="sRGB">
<feFlood flood-opacity="0" result="BackgroundImageFix"/>
<feColorMatrix in="SourceAlpha" type="matrix" values="0 0 0 0 0 0 0 0 0 0 0 0 0 0 0 0 0 0 127 0" result="hardAlpha"/>
<feMorphology radius="20" operator="erode" in="SourceAlpha" result="effect1_dropShadow_1528_3445"/>
<feOffset dy="29"/>
<feGaussianBlur stdDeviation="17"/>
<feComposite in2="hardAlpha" operator="out"/>
<feColorMatrix type="matrix" values="0 0 0 0 0 0 0 0 0 0 0 0 0 0 0 0 0 0 0.08 0"/>
<feBlend mode="normal" in2="BackgroundImageFix" result="effect1_dropShadow_1528_3445"/>
<feBlend mode="normal" in="SourceGraphic" in2="effect1_dropShadow_1528_3445" result="shape"/>
</filter>
<clipPath id="clip0_1528_3445">
<rect width="64" height="64" fill="white" transform="translate(263.5 71)"/>
</clipPath>
<clipPath id="clip1_1528_3445">
<rect width="26.625" height="26.625" fill="white" transform="translate(563.699 -0.00390625)"/>
</clipPath>
</defs>
</svg>
