<svg width="673" height="229" viewBox="0 0 673 229" fill="none" xmlns="http://www.w3.org/2000/svg">
<rect width="314.452" height="101.546" transform="translate(0 127.447) rotate(-2.99827)" fill="#9DB8D8"/>
<path d="M47.4722 152.503L49.5598 194.3L44.5598 189.894L79.4223 188.153L79.8862 197.442L39.2648 199.47L36.9454 153.028L47.4722 152.503ZM92.8953 186.984L92.4685 178.438L124.668 176.83L125.095 185.376L92.8953 186.984ZM114.162 149.172L138.216 194.528L127.008 195.088L105.892 153.868L109.359 153.695L92.4551 196.814L81.2471 197.374L100.662 149.846L114.162 149.172ZM171.856 169.88L172.742 167.725C176.337 167.628 179.338 168.058 181.745 169.013C184.15 169.928 185.955 171.266 187.16 173.026C188.363 174.746 189.023 176.761 189.138 179.073C189.262 181.55 188.773 183.789 187.673 185.789C186.614 187.787 184.977 189.4 182.762 190.628C180.548 191.856 177.727 192.555 174.301 192.726L141.729 194.353L144.13 170.333L139.41 147.911L170.805 146.343C175.098 146.128 178.472 146.974 180.926 148.879C183.419 150.741 184.753 153.427 184.929 156.936C185.023 158.834 184.661 160.694 183.841 162.515C183.063 164.333 181.694 165.912 179.733 167.252C177.811 168.548 175.185 169.424 171.856 169.88ZM151.999 191.171L147.721 186.294L171.747 185.094C173.976 184.983 175.663 184.381 176.809 183.289C177.994 182.154 178.539 180.637 178.444 178.738C178.347 176.798 177.569 175.306 176.11 174.261C174.648 173.175 172.556 172.7 169.831 172.836L150.263 173.814L149.886 166.259L168.215 165.344C170.073 165.251 171.574 164.659 172.72 163.567C173.905 162.432 174.45 160.915 174.355 159.016C174.283 157.571 173.707 156.399 172.628 155.501C171.546 154.562 170.035 154.141 168.095 154.238L146.174 155.333L149.946 150.054L154.223 169.829L151.999 191.171ZM233.824 162.439L234.227 170.489L200.974 172.15L200.572 164.1L233.824 162.439ZM207.832 167.773L205.719 187.619L200.877 182.646L236.669 180.858L237.105 189.59L195.307 191.677L197.739 168.277L192.987 145.235L234.476 143.163L234.912 151.894L199.43 153.666L203.753 148.236L207.832 167.773ZM253.317 142.222L255.405 184.02L250.405 179.614L285.267 177.873L285.731 187.161L245.11 189.19L242.79 142.748L253.317 142.222Z" fill="#F8F8F8"/>
<path d="M334.073 159.53L315.465 182.822L312.842 138.602L334.073 159.53Z" fill="#9DB8D8"/>
<rect width="314.452" height="101.546" transform="translate(353 109.447) rotate(-2.99827)" fill="#2E3140"/>
<path d="M400.366 135.191L402.711 176.976L397.684 172.6L432.535 170.645L433.056 179.93L392.448 182.209L389.843 135.782L400.366 135.191ZM446 169.393L445.521 160.85L477.711 159.044L478.19 167.587L446 169.393ZM467.034 131.451L491.367 176.659L480.162 177.288L458.793 136.198L462.26 136.004L445.621 179.226L434.416 179.854L453.539 132.208L467.034 131.451ZM524.855 151.804L525.727 149.644C529.322 149.525 532.326 149.936 534.738 150.877C537.148 151.777 538.961 153.103 540.178 154.857C541.391 156.569 542.063 158.58 542.193 160.891C542.332 163.367 541.857 165.609 540.769 167.616C539.723 169.62 538.096 171.243 535.888 172.485C533.681 173.726 530.865 174.443 527.44 174.635L494.879 176.462L497.132 152.428L492.274 130.035L523.659 128.274C527.951 128.033 531.329 128.858 533.795 130.748C536.3 132.595 537.651 135.272 537.847 138.78C537.954 140.678 537.603 142.54 536.795 144.366C536.028 146.189 534.668 147.776 532.715 149.128C530.801 150.436 528.181 151.328 524.855 151.804ZM505.129 173.217L500.821 168.366L524.839 167.019C527.067 166.894 528.751 166.282 529.89 165.183C531.068 164.041 531.603 162.52 531.497 160.622C531.388 158.682 530.601 157.195 529.135 156.159C527.667 155.082 525.571 154.62 522.848 154.773L503.286 155.871L502.863 148.319L521.186 147.291C523.043 147.186 524.541 146.585 525.68 145.486C526.858 144.344 527.393 142.823 527.287 140.925C527.206 139.48 526.623 138.313 525.538 137.421C524.451 136.489 522.937 136.077 520.998 136.186L499.084 137.415L502.823 132.113L507.222 151.862L505.129 173.217ZM586.776 143.983L587.228 152.031L553.986 153.896L553.535 145.848L586.776 143.983ZM560.817 149.476L558.826 169.335L553.954 164.392L589.734 162.385L590.223 171.113L548.439 173.457L550.727 150.042L545.834 127.03L587.309 124.703L587.799 133.432L552.329 135.422L556.618 129.965L560.817 149.476ZM606.144 123.647L608.489 165.431L603.462 161.056L638.313 159.1L638.834 168.386L598.226 170.664L595.621 124.237L606.144 123.647Z" fill="#F8F8F8"/>
<rect x="95" y="24.6523" width="213.908" height="64.6726" transform="rotate(-3 95 24.6523)" fill="#2E3140"/>
<path d="M135.198 69.2644C132.695 69.3956 130.755 68.803 129.377 67.4866C128 66.1702 127.241 64.1805 127.102 61.5175L126.553 51.0519C126.412 48.3622 126.958 46.2908 128.19 44.8377C129.423 43.3845 131.29 42.5924 133.794 42.4612C136.324 42.3286 138.277 42.9205 139.655 44.2369C141.032 45.5532 141.791 47.5563 141.932 50.2459L142.481 60.7115C142.62 63.3746 142.074 65.4326 140.842 66.8858C139.609 68.3389 137.728 69.1318 135.198 69.2644ZM135.058 66.5881C136.629 66.5057 137.804 65.9902 138.582 65.0415C139.359 64.0662 139.697 62.6332 139.598 60.7424L139.062 50.5165C138.962 48.5991 138.475 47.2093 137.602 46.3472C136.728 45.4584 135.505 45.0552 133.934 45.1375C132.389 45.2184 131.229 45.7466 130.452 46.7219C129.674 47.6706 129.335 49.1036 129.436 51.021L129.972 61.2469C130.071 63.1377 130.557 64.5275 131.432 65.4162C132.305 66.2784 133.514 66.669 135.058 66.5881ZM147.971 68.2746C147.758 68.2858 147.645 68.1715 147.632 67.9318L146.299 42.4867C146.286 42.2471 146.386 42.1217 146.599 42.1105L161.02 41.3548C161.233 41.3436 161.345 41.4578 161.358 41.6975L162.692 67.1426C162.704 67.3823 162.604 67.5077 162.391 67.5189L160.154 67.6361C159.941 67.6473 159.828 67.533 159.816 67.2933L158.606 44.205L149.298 44.6928L150.508 67.7811C150.521 68.0208 150.421 68.1462 150.208 68.1574L147.971 68.2746ZM168.216 67.2136C168.003 67.2247 167.89 67.1105 167.878 66.8708L166.544 41.4257C166.532 41.186 166.632 41.0606 166.845 41.0495L169.042 40.9343C169.255 40.9232 169.368 41.0374 169.38 41.2771L170.038 53.8199C170.092 54.8584 170.124 55.965 170.132 57.1395C170.166 58.3126 170.184 59.4199 170.186 60.4612C170.187 61.5026 170.179 62.3709 170.162 63.066L170.242 63.0619C170.47 62.3289 170.733 61.4873 171.031 60.5371C171.327 59.5603 171.671 58.4875 172.064 57.3186C172.456 56.1498 172.913 54.9242 173.433 53.6419L178.202 40.6946C178.247 40.532 178.363 40.4459 178.549 40.4361L181.225 40.2958C181.465 40.2833 181.591 40.3968 181.604 40.6365L182.937 66.0816C182.95 66.3212 182.836 66.4474 182.597 66.4599L180.4 66.5751C180.187 66.5862 180.074 66.472 180.061 66.2323L179.511 54.2046C179.483 53.1646 179.451 52.0448 179.415 50.845C179.377 49.6186 179.355 48.4315 179.349 47.2836C179.368 46.1343 179.385 45.1855 179.4 44.4371L179.32 44.4412C179.067 45.2289 178.781 46.1384 178.461 47.1699C178.14 48.1748 177.771 49.2889 177.355 50.5124C176.937 51.7092 176.431 53.0042 175.836 54.3972L171.24 66.8148C171.195 66.9774 171.079 67.0635 170.893 67.0733L168.216 67.2136ZM195.389 66.1099C192.886 66.2411 190.945 65.6352 189.566 64.2922C188.186 62.9225 187.423 60.853 187.278 58.0834L186.757 48.1371C186.612 45.3675 187.154 43.2429 188.385 41.7631C189.615 40.2567 191.481 39.4379 193.985 39.3067C195.689 39.2174 197.146 39.5015 198.355 40.1591C199.59 40.7887 200.508 41.742 201.109 43.0189C201.736 44.2945 201.977 45.8307 201.831 47.6275C201.845 47.8938 201.745 48.0325 201.532 48.0437L199.295 48.1609C199.082 48.1721 198.969 48.0578 198.957 47.8181C199.013 45.8391 198.628 44.3506 197.801 43.3525C196.975 42.3544 195.763 41.8972 194.165 41.9809C192.62 42.0619 191.448 42.6173 190.647 43.6473C189.872 44.6493 189.536 46.1356 189.639 48.1062L190.148 57.8129C190.251 59.7835 190.741 61.2398 191.618 62.1819C192.521 63.0959 193.744 63.5124 195.289 63.4315C196.94 63.345 198.123 62.7356 198.838 61.6032C199.553 60.4709 199.782 58.9769 199.524 57.1212C199.459 56.8843 199.546 56.7596 199.785 56.747L201.942 56.634C202.182 56.6214 202.323 56.7609 202.365 57.0524C202.72 59.7575 202.273 61.9173 201.022 63.5316C199.77 65.1193 197.892 65.9787 195.389 66.1099ZM205.212 65.2747C204.972 65.2872 204.886 65.1583 204.951 64.8878L210.207 39.0574C210.25 38.8682 210.379 38.768 210.592 38.7568L213.667 38.5956C213.854 38.5858 213.992 38.6721 214.082 38.8543L222.088 63.9897C222.155 64.2532 222.069 64.3913 221.829 64.4038L219.393 64.5315C219.259 64.5385 219.135 64.4516 219.018 64.2707L213.743 46.923C213.484 46.0554 213.226 45.2011 212.968 44.3601C212.736 43.4911 212.503 42.6221 212.271 41.753L212.191 41.7572C212.05 42.6458 211.909 43.521 211.768 44.383C211.626 45.2449 211.472 46.1208 211.305 47.0108L207.914 64.8527C207.87 65.0419 207.755 65.1414 207.569 65.1512L205.212 65.2747ZM208.556 58.7708L209.015 56.063L216.924 55.6485L217.744 58.2893L208.556 58.7708ZM224.974 64.239C224.761 64.2502 224.649 64.1359 224.636 63.8962L223.302 38.4512C223.29 38.2115 223.39 38.0861 223.603 38.0749L225.84 37.9577C226.053 37.9465 226.166 38.0608 226.178 38.3004L226.752 49.2454L236.099 48.7555L235.526 37.8106C235.513 37.5709 235.613 37.4455 235.826 37.4343L238.063 37.3171C238.276 37.3059 238.389 37.4202 238.402 37.6598L239.735 63.1049C239.748 63.3446 239.648 63.47 239.435 63.4812L237.198 63.5984C236.985 63.6096 236.872 63.4953 236.859 63.2556L236.24 51.4319L226.892 51.9217L227.512 63.7455C227.525 63.9852 227.424 64.1106 227.211 64.1218L224.974 64.239ZM245.259 63.1759C245.046 63.1871 244.933 63.0728 244.921 62.8332L243.587 37.3881C243.575 37.1484 243.675 37.023 243.888 37.0118L246.085 36.8967C246.298 36.8855 246.411 36.9998 246.423 37.2394L247.081 49.7822C247.135 50.8208 247.166 51.9274 247.174 53.1019C247.209 54.275 247.227 55.3822 247.228 56.4236C247.229 57.465 247.222 58.3332 247.205 59.0284L247.285 59.0242C247.513 58.2913 247.776 57.4497 248.073 56.4995C248.369 55.5226 248.714 54.4498 249.106 53.281C249.499 52.1122 249.956 50.8866 250.476 49.6043L255.245 36.657C255.29 36.4944 255.405 36.4082 255.592 36.3984L258.268 36.2582C258.508 36.2456 258.634 36.3592 258.646 36.5989L259.98 62.0439C259.993 62.2836 259.879 62.4097 259.639 62.4223L257.442 62.5374C257.229 62.5486 257.116 62.4343 257.104 62.1947L256.554 50.167C256.526 49.127 256.494 48.0071 256.458 46.8074C256.42 45.581 256.398 44.3939 256.391 43.246C256.411 42.0967 256.428 41.1478 256.442 40.3994L256.362 40.4036C256.11 41.1912 255.824 42.1008 255.504 43.1323C255.183 44.1371 254.814 45.2513 254.397 46.4748C253.98 47.6716 253.473 48.9665 252.879 50.3596L248.282 62.7771C248.237 62.9397 248.122 63.0259 247.935 63.0357L245.259 63.1759ZM265.545 62.1128C265.305 62.1254 265.179 62.0118 265.166 61.7721L263.833 36.327C263.82 36.0874 263.92 35.962 264.133 35.9508L275.198 35.3709C275.411 35.3597 275.524 35.474 275.537 35.7137L275.639 37.671C275.653 37.9373 275.554 38.076 275.341 38.0872L266.832 38.5331L267.295 47.361L275.084 46.9528C275.297 46.9416 275.41 47.0558 275.423 47.2955L275.521 49.1729C275.534 49.4126 275.433 49.538 275.22 49.5492L267.431 49.9574L267.919 59.2646L276.427 58.8187C276.64 58.8076 276.754 58.9351 276.768 59.2014L276.87 61.1588C276.883 61.3984 276.783 61.5238 276.569 61.535L265.545 62.1128Z" fill="#F9F9F9"/>
<rect x="346" y="11.1953" width="213.908" height="64.6726" transform="rotate(-3 346 11.1953)" fill="#9DB8D8"/>
<path d="M386.198 55.8074C383.695 55.9385 381.755 55.346 380.377 54.0296C379 52.7132 378.241 50.7235 378.102 48.0605L377.553 37.5948C377.412 34.9052 377.958 32.8338 379.19 31.3807C380.423 29.9275 382.29 29.1353 384.794 29.0041C387.324 28.8716 389.277 29.4635 390.655 30.7798C392.032 32.0962 392.791 34.0992 392.932 36.7889L393.481 47.2545C393.62 49.9175 393.074 51.9756 391.842 53.4288C390.609 54.8819 388.728 55.6748 386.198 55.8074ZM386.058 53.131C387.629 53.0487 388.804 52.5332 389.582 51.5845C390.359 50.6092 390.697 49.1761 390.598 47.2854L390.062 37.0594C389.962 35.1421 389.475 33.7523 388.602 32.8901C387.728 32.0014 386.505 31.5981 384.934 31.6805C383.389 31.7614 382.229 32.2895 381.452 33.2649C380.674 34.2136 380.335 35.6466 380.436 37.564L380.972 47.7899C381.071 49.6807 381.557 51.0704 382.432 51.9592C383.305 52.8214 384.514 53.212 386.058 53.131ZM398.971 54.8176C398.758 54.8287 398.645 54.7145 398.632 54.4748L397.299 29.0297C397.286 28.79 397.386 28.6646 397.599 28.6535L412.02 27.8977C412.233 27.8866 412.345 28.0008 412.358 28.2405L413.692 53.6856C413.704 53.9252 413.604 54.0507 413.391 54.0618L411.154 54.1791C410.941 54.1902 410.828 54.076 410.816 53.8363L409.606 30.748L400.298 31.2358L401.508 54.3241C401.521 54.5637 401.421 54.6892 401.208 54.7003L398.971 54.8176ZM419.216 53.7565C419.003 53.7677 418.89 53.6534 418.878 53.4138L417.544 27.9687C417.532 27.729 417.632 27.6036 417.845 27.5924L420.042 27.4773C420.255 27.4661 420.368 27.5804 420.38 27.82L421.038 40.3628C421.092 41.4014 421.124 42.508 421.132 43.6825C421.166 44.8556 421.184 45.9628 421.186 47.0042C421.187 48.0456 421.179 48.9138 421.162 49.609L421.242 49.6048C421.47 48.8719 421.733 48.0303 422.031 47.0801C422.327 46.1033 422.671 45.0304 423.064 43.8616C423.456 42.6928 423.913 41.4672 424.433 40.1849L429.202 27.2376C429.247 27.075 429.363 26.9888 429.549 26.9791L432.225 26.8388C432.465 26.8262 432.591 26.9398 432.604 27.1795L433.937 52.6245C433.95 52.8642 433.836 52.9903 433.597 53.0029L431.4 53.118C431.187 53.1292 431.074 53.0149 431.061 52.7753L430.511 40.7476C430.483 39.7076 430.451 38.5877 430.415 37.388C430.377 36.1616 430.355 34.9745 430.349 33.8266C430.368 32.6773 430.385 31.7285 430.4 30.98L430.32 30.9842C430.067 31.7718 429.781 32.6814 429.461 33.7129C429.14 34.7177 428.771 35.8319 428.355 37.0554C427.937 38.2522 427.431 39.5471 426.836 40.9402L422.24 53.3578C422.195 53.5203 422.079 53.6065 421.893 53.6163L419.216 53.7565ZM446.389 52.6529C443.886 52.7841 441.945 52.1782 440.566 50.8352C439.186 49.4655 438.423 47.3959 438.278 44.6264L437.757 34.68C437.612 31.9105 438.154 29.7859 439.385 28.3061C440.615 26.7997 442.481 25.9809 444.985 25.8497C446.689 25.7604 448.146 26.0445 449.355 26.7021C450.59 27.3317 451.508 28.285 452.109 29.5619C452.736 30.8375 452.977 32.3737 452.831 34.1704C452.845 34.4367 452.745 34.5755 452.532 34.5866L450.295 34.7039C450.082 34.715 449.969 34.6008 449.957 34.3611C450.013 32.3821 449.628 30.8936 448.801 29.8955C447.975 28.8974 446.763 28.4402 445.165 28.5239C443.62 28.6049 442.448 29.1603 441.647 30.1903C440.872 31.1922 440.536 32.6785 440.639 34.6492L441.148 44.3558C441.251 46.3265 441.741 47.7828 442.618 48.7249C443.521 49.6389 444.744 50.0554 446.289 49.9745C447.94 49.8879 449.123 49.2785 449.838 48.1462C450.553 47.0139 450.782 45.5199 450.524 43.6642C450.459 43.4273 450.546 43.3026 450.785 43.29L452.942 43.1769C453.182 43.1644 453.323 43.3039 453.365 43.5954C453.72 46.3005 453.273 48.4602 452.022 50.0746C450.77 51.6623 448.892 52.5217 446.389 52.6529ZM456.212 51.8177C455.972 51.8302 455.886 51.7013 455.951 51.4308L461.207 25.6003C461.25 25.4111 461.379 25.3109 461.592 25.2998L464.667 25.1386C464.854 25.1288 464.992 25.215 465.082 25.3973L473.088 50.5327C473.155 50.7962 473.069 50.9342 472.829 50.9468L470.393 51.0745C470.259 51.0815 470.135 50.9945 470.018 50.8137L464.743 33.466C464.484 32.5984 464.226 31.7441 463.968 30.9031C463.736 30.034 463.503 29.165 463.271 28.296L463.191 28.3002C463.05 29.1887 462.909 30.064 462.768 30.9259C462.626 31.7879 462.472 32.6638 462.305 33.5538L458.914 51.3957C458.87 51.5849 458.755 51.6844 458.569 51.6941L456.212 51.8177ZM459.556 45.3137L460.015 42.606L467.924 42.1915L468.744 44.8322L459.556 45.3137ZM475.974 50.782C475.761 50.7931 475.649 50.6789 475.636 50.4392L474.302 24.9941C474.29 24.7544 474.39 24.629 474.603 24.6179L476.84 24.5006C477.053 24.4895 477.166 24.6037 477.178 24.8434L477.752 35.7884L487.099 35.2985L486.526 24.3535C486.513 24.1139 486.613 23.9884 486.826 23.9773L489.063 23.86C489.276 23.8489 489.389 23.9631 489.402 24.2028L490.735 49.6479C490.748 49.8876 490.648 50.013 490.435 50.0241L488.198 50.1414C487.985 50.1525 487.872 50.0383 487.859 49.7986L487.24 37.9748L477.892 38.4647L478.512 50.2885C478.525 50.5281 478.424 50.6536 478.211 50.6647L475.974 50.782ZM496.259 49.7189C496.046 49.7301 495.933 49.6158 495.921 49.3761L494.587 23.931C494.575 23.6914 494.675 23.566 494.888 23.5548L497.085 23.4397C497.298 23.4285 497.411 23.5427 497.423 23.7824L498.081 36.3252C498.135 37.3638 498.166 38.4703 498.174 39.6448C498.209 40.818 498.227 41.9252 498.228 42.9666C498.229 44.0079 498.222 44.8762 498.205 45.5714L498.285 45.5672C498.513 44.8342 498.776 43.9926 499.073 43.0424C499.369 42.0656 499.714 40.9928 500.106 39.824C500.499 38.6551 500.956 37.4296 501.476 36.1473L506.245 23.1999C506.29 23.0374 506.405 22.9512 506.592 22.9414L509.268 22.8012C509.508 22.7886 509.634 22.9021 509.646 23.1418L510.98 48.5869C510.993 48.8266 510.879 48.9527 510.639 48.9652L508.442 49.0804C508.229 49.0916 508.116 48.9773 508.104 48.7376L507.554 36.7099C507.526 35.67 507.494 34.5501 507.458 33.3504C507.42 32.124 507.398 30.9368 507.391 29.789C507.411 28.6397 507.428 27.6908 507.442 26.9424L507.362 26.9466C507.11 27.7342 506.824 28.6437 506.504 29.6752C506.183 30.6801 505.814 31.7943 505.397 33.0177C504.98 34.2146 504.473 35.5095 503.879 36.9025L499.282 49.3201C499.237 49.4827 499.122 49.5689 498.935 49.5786L496.259 49.7189ZM516.545 48.6558C516.305 48.6683 516.179 48.5548 516.166 48.3151L514.833 22.87C514.82 22.6303 514.92 22.5049 515.133 22.4938L526.198 21.9139C526.411 21.9027 526.524 22.017 526.537 22.2566L526.639 24.214C526.653 24.4803 526.554 24.619 526.341 24.6302L517.832 25.0761L518.295 33.9039L526.084 33.4957C526.297 33.4846 526.41 33.5988 526.423 33.8385L526.521 35.7159C526.534 35.9556 526.433 36.081 526.22 36.0922L518.431 36.5004L518.919 45.8076L527.427 45.3617C527.64 45.3505 527.754 45.4781 527.768 45.7444L527.87 47.7017C527.883 47.9414 527.783 48.0668 527.569 48.078L516.545 48.6558Z" fill="#F9F9F9"/>
</svg>
