<svg width="58" height="58" viewBox="0 0 58 58" fill="none" xmlns="http://www.w3.org/2000/svg">
<mask id="mask0_1521_3050" style="mask-type:alpha" maskUnits="userSpaceOnUse" x="0" y="0" width="58" height="58">
<rect x="0.183594" width="57.6298" height="58" fill="#D9D9D9"/>
</mask>
<g mask="url(#mask0_1521_3050)">
<path d="M37.7796 50.75C37.1132 50.75 36.5545 50.5184 36.1037 50.0552C35.6528 49.592 35.4274 49.0181 35.4274 48.3333V29.1208C35.4274 28.4361 35.6528 27.8622 36.1037 27.399C36.5545 26.9358 37.1132 26.7042 37.7796 26.7042H47.1886C47.855 26.7042 48.4137 26.9358 48.8646 27.399C49.3154 27.8622 49.5408 28.4361 49.5408 29.1208V48.3333C49.5408 49.0181 49.3154 49.592 48.8646 50.0552C48.4137 50.5184 47.855 50.75 47.1886 50.75H37.7796ZM37.7796 45.9167H47.1886V31.5375H37.7796V45.9167ZM16.6095 50.75V45.9167H21.314V41.0833H7.20057C5.90684 41.0833 4.79933 40.6101 3.87803 39.6635C2.95674 38.717 2.49609 37.5792 2.49609 36.25V12.0833C2.49609 10.7542 2.95674 9.61632 3.87803 8.66979C4.79933 7.72326 5.90684 7.25 7.20057 7.25H40.1319C41.4256 7.25 42.5331 7.72326 43.4544 8.66979C44.3757 9.61632 44.8363 10.7542 44.8363 12.0833V21.8708H40.1319V12.0833H7.20057V36.25H30.7229V41.0833H26.0185V45.9167H30.7229V50.75H16.6095ZM18.2561 33.2292L23.6662 29L29.0764 33.2292L27.077 26.3417L32.4871 21.8708H25.7832L23.6662 15.1042L21.5492 21.8708H14.8453L20.2555 26.3417L18.2561 33.2292Z" fill="#2E3140"/>
</g>
</svg>
