<svg width="215" height="74" viewBox="0 0 215 74" fill="none" xmlns="http://www.w3.org/2000/svg">
<path d="M1.04 10V0.64H1.9955V10H1.04ZM9.01418 10V6.4185C9.01418 6.0285 8.97735 5.671 8.90368 5.346C8.83001 5.01667 8.71085 4.73067 8.54618 4.488C8.38585 4.241 8.17568 4.05033 7.91568 3.916C7.66001 3.78167 7.34801 3.7145 6.97968 3.7145C6.64168 3.7145 6.34268 3.773 6.08268 3.89C5.82701 4.007 5.61035 4.176 5.43268 4.397C5.25935 4.61367 5.12718 4.878 5.03618 5.19C4.94518 5.502 4.89968 5.85733 4.89968 6.256L4.22368 6.1065C4.22368 5.38717 4.34935 4.78267 4.60068 4.293C4.85201 3.80333 5.19868 3.43283 5.64068 3.1815C6.08268 2.93017 6.58968 2.8045 7.16168 2.8045C7.58201 2.8045 7.94818 2.8695 8.26018 2.9995C8.57651 3.1295 8.84301 3.305 9.05968 3.526C9.28068 3.747 9.45835 4.0005 9.59268 4.2865C9.72701 4.56817 9.82451 4.86933 9.88518 5.19C9.94585 5.50633 9.97618 5.82267 9.97618 6.139V10H9.01418ZM3.93768 10V2.98H4.80218V4.709H4.89968V10H3.93768ZM15.4849 10C15.0906 10.0823 14.7006 10.1148 14.3149 10.0975C13.9336 10.0802 13.5913 9.99783 13.2879 9.8505C12.9889 9.70317 12.7614 9.4735 12.6054 9.1615C12.4798 8.9015 12.4104 8.63933 12.3974 8.375C12.3888 8.10633 12.3844 7.80083 12.3844 7.4585V1.03H13.3334V7.4195C13.3334 7.71417 13.3356 7.96117 13.3399 8.1605C13.3486 8.3555 13.3941 8.52883 13.4764 8.6805C13.6324 8.97083 13.8794 9.14417 14.2174 9.2005C14.5598 9.25683 14.9823 9.24383 15.4849 9.1615V10ZM10.8829 3.799V2.98H15.4849V3.799H10.8829ZM16.868 10V2.98H17.726V4.67L17.557 4.449C17.635 4.241 17.7368 4.05033 17.8625 3.877C17.9882 3.69933 18.1247 3.55417 18.272 3.4415C18.454 3.28117 18.6663 3.15983 18.909 3.0775C19.1517 2.99083 19.3965 2.941 19.6435 2.928C19.8905 2.91067 20.1158 2.928 20.3195 2.98V3.877C20.0638 3.812 19.7843 3.79683 19.481 3.8315C19.1777 3.86617 18.8982 3.9875 18.6425 4.1955C18.4085 4.3775 18.233 4.59633 18.116 4.852C17.999 5.10333 17.921 5.372 17.882 5.658C17.843 5.93967 17.8235 6.21917 17.8235 6.4965V10H16.868ZM24.3571 10.195C23.6595 10.195 23.0636 10.0368 22.5696 9.7205C22.0756 9.40417 21.6965 8.9665 21.4321 8.4075C21.1678 7.8485 21.0356 7.20717 21.0356 6.4835C21.0356 5.74683 21.17 5.10117 21.4386 4.5465C21.7073 3.99183 22.0886 3.56067 22.5826 3.253C23.081 2.941 23.6725 2.785 24.3571 2.785C25.0591 2.785 25.6571 2.94317 26.1511 3.2595C26.6495 3.5715 27.0286 4.007 27.2886 4.566C27.553 5.12067 27.6851 5.75983 27.6851 6.4835C27.6851 7.22017 27.553 7.868 27.2886 8.427C27.0243 8.98167 26.643 9.415 26.1446 9.727C25.6463 10.039 25.0505 10.195 24.3571 10.195ZM24.3571 9.2785C25.1371 9.2785 25.7178 9.02067 26.0991 8.505C26.4805 7.985 26.6711 7.31117 26.6711 6.4835C26.6711 5.63417 26.4783 4.95817 26.0926 4.4555C25.7113 3.95283 25.1328 3.7015 24.3571 3.7015C23.8328 3.7015 23.3995 3.82067 23.0571 4.059C22.7191 4.293 22.4656 4.62017 22.2966 5.0405C22.132 5.4565 22.0496 5.9375 22.0496 6.4835C22.0496 7.3285 22.2446 8.00667 22.6346 8.518C23.0246 9.025 23.5988 9.2785 24.3571 9.2785ZM31.8425 10.195C31.1882 10.195 30.6292 10.0325 30.1655 9.7075C29.7018 9.37817 29.3465 8.934 29.0995 8.375C28.8525 7.816 28.729 7.1855 28.729 6.4835C28.729 5.78583 28.8503 5.1575 29.093 4.5985C29.34 4.0395 29.6932 3.5975 30.1525 3.2725C30.6118 2.9475 31.1622 2.785 31.8035 2.785C32.4622 2.785 33.0168 2.94533 33.4675 3.266C33.9182 3.58667 34.2583 4.0265 34.488 4.5855C34.722 5.14017 34.839 5.77283 34.839 6.4835C34.839 7.18117 34.7242 7.81167 34.4945 8.375C34.2648 8.934 33.9268 9.37817 33.4805 9.7075C33.0342 10.0325 32.4882 10.195 31.8425 10.195ZM31.94 9.3045C32.4383 9.3045 32.85 9.18317 33.175 8.9405C33.5 8.69783 33.7427 8.36417 33.903 7.9395C34.0633 7.5105 34.1435 7.02517 34.1435 6.4835C34.1435 5.93317 34.0633 5.44783 33.903 5.0275C33.7427 4.60283 33.5 4.27133 33.175 4.033C32.8543 3.79467 32.4492 3.6755 31.9595 3.6755C31.4568 3.6755 31.0408 3.799 30.7115 4.046C30.3822 4.293 30.1373 4.62883 29.977 5.0535C29.821 5.47817 29.743 5.95483 29.743 6.4835C29.743 7.0165 29.8232 7.4975 29.9835 7.9265C30.1482 8.35117 30.393 8.687 30.718 8.934C31.043 9.181 31.4503 9.3045 31.94 9.3045ZM34.1435 10V4.7155H34.0395V0.64H35.0015V10H34.1435ZM39.5095 10.1755C39.0892 10.1755 38.7209 10.1105 38.4045 9.9805C38.0925 9.8505 37.826 9.675 37.605 9.454C37.3884 9.233 37.2129 8.98167 37.0785 8.7C36.9442 8.414 36.8467 8.11283 36.786 7.7965C36.7254 7.47583 36.695 7.15733 36.695 6.841V2.98H37.657V6.5615C37.657 6.94717 37.6939 7.30467 37.7675 7.634C37.8412 7.96333 37.9582 8.2515 38.1185 8.4985C38.2832 8.74117 38.4934 8.92967 38.749 9.064C39.009 9.19833 39.3232 9.2655 39.6915 9.2655C40.0295 9.2655 40.3264 9.207 40.582 9.09C40.842 8.973 41.0587 8.80617 41.232 8.5895C41.4097 8.3685 41.544 8.102 41.635 7.79C41.726 7.47367 41.7715 7.11833 41.7715 6.724L42.4475 6.8735C42.4475 7.59283 42.3219 8.19733 42.0705 8.687C41.8192 9.17667 41.4725 9.54717 41.0305 9.7985C40.5885 10.0498 40.0815 10.1755 39.5095 10.1755ZM41.869 10V8.271H41.7715V2.98H42.727V10H41.869ZM47.4558 10.195C46.7495 10.195 46.1515 10.0368 45.6618 9.7205C45.1721 9.40417 44.7995 8.96867 44.5438 8.414C44.2925 7.855 44.1625 7.21367 44.1538 6.49C44.1625 5.75333 44.2968 5.10767 44.5568 4.553C44.8168 3.994 45.1916 3.56067 45.6813 3.253C46.171 2.941 46.7646 2.785 47.4623 2.785C48.173 2.785 48.7905 2.95833 49.3148 3.305C49.8435 3.65167 50.2053 4.12617 50.4003 4.7285L49.4643 5.0275C49.2996 4.60717 49.0375 4.28217 48.6778 4.0525C48.3225 3.8185 47.9151 3.7015 47.4558 3.7015C46.9401 3.7015 46.5133 3.82067 46.1753 4.059C45.8373 4.293 45.586 4.62017 45.4213 5.0405C45.2566 5.46083 45.1721 5.944 45.1678 6.49C45.1765 7.33067 45.3715 8.00667 45.7528 8.518C46.1341 9.025 46.7018 9.2785 47.4558 9.2785C47.9325 9.2785 48.3376 9.17017 48.6713 8.9535C49.0093 8.7325 49.265 8.41183 49.4383 7.9915L50.4003 8.2775C50.1403 8.9015 49.759 9.37817 49.2563 9.7075C48.7536 10.0325 48.1535 10.195 47.4558 10.195ZM51.6816 1.6475V0.575H52.6371V1.6475H51.6816ZM51.6816 10V2.98H52.6371V10H51.6816ZM59.6558 10V6.4185C59.6558 6.0285 59.6189 5.671 59.5453 5.346C59.4716 5.01667 59.3524 4.73067 59.1878 4.488C59.0274 4.241 58.8173 4.05033 58.5573 3.916C58.3016 3.78167 57.9896 3.7145 57.6213 3.7145C57.2833 3.7145 56.9843 3.773 56.7243 3.89C56.4686 4.007 56.2519 4.176 56.0743 4.397C55.9009 4.61367 55.7688 4.878 55.6778 5.19C55.5868 5.502 55.5413 5.85733 55.5413 6.256L54.8653 6.1065C54.8653 5.38717 54.9909 4.78267 55.2423 4.293C55.4936 3.80333 55.8403 3.43283 56.2823 3.1815C56.7243 2.93017 57.2313 2.8045 57.8033 2.8045C58.2236 2.8045 58.5898 2.8695 58.9018 2.9995C59.2181 3.1295 59.4846 3.305 59.7013 3.526C59.9223 3.747 60.0999 4.0005 60.2343 4.2865C60.3686 4.56817 60.4661 4.86933 60.5268 5.19C60.5874 5.50633 60.6178 5.82267 60.6178 6.139V10H59.6558ZM54.5793 10V2.98H55.4438V4.709H55.5413V10H54.5793ZM65.093 13.315C64.7334 13.315 64.378 13.2608 64.027 13.1525C63.6804 13.0485 63.3597 12.8817 63.065 12.652C62.7704 12.4267 62.5234 12.132 62.324 11.768L63.1885 11.287C63.3835 11.677 63.6565 11.9565 64.0075 12.1255C64.3629 12.2988 64.7247 12.3855 65.093 12.3855C65.6 12.3855 66.0095 12.2902 66.3215 12.0995C66.6379 11.9132 66.8675 11.6358 67.0105 11.2675C67.1535 10.8992 67.2229 10.4398 67.2185 9.8895V8.0175H67.329V2.98H68.1805V9.9025C68.1805 10.1018 68.174 10.2925 68.161 10.4745C68.1524 10.6608 68.1329 10.8428 68.1025 11.0205C68.0202 11.5448 67.849 11.976 67.589 12.314C67.3334 12.652 66.9954 12.9033 66.575 13.068C66.159 13.2327 65.665 13.315 65.093 13.315ZM65.028 10.195C64.3737 10.195 63.8147 10.0325 63.351 9.7075C62.8874 9.37817 62.532 8.934 62.285 8.375C62.038 7.816 61.9145 7.1855 61.9145 6.4835C61.9145 5.78583 62.0359 5.1575 62.2785 4.5985C62.5255 4.0395 62.8787 3.5975 63.338 3.2725C63.7974 2.9475 64.3477 2.785 64.989 2.785C65.6477 2.785 66.2024 2.94533 66.653 3.266C67.1037 3.58667 67.4439 4.0265 67.6735 4.5855C67.9075 5.14017 68.0245 5.77283 68.0245 6.4835C68.0245 7.18117 67.9097 7.81167 67.68 8.375C67.4504 8.934 67.1124 9.37817 66.666 9.7075C66.2197 10.0325 65.6737 10.195 65.028 10.195ZM65.1255 9.3045C65.6239 9.3045 66.0355 9.18317 66.3605 8.9405C66.6855 8.69783 66.9282 8.36417 67.0885 7.9395C67.2489 7.5105 67.329 7.02517 67.329 6.4835C67.329 5.93317 67.2489 5.44783 67.0885 5.0275C66.9282 4.60283 66.6855 4.27133 66.3605 4.033C66.0399 3.79467 65.6347 3.6755 65.145 3.6755C64.6424 3.6755 64.2264 3.799 63.897 4.046C63.5677 4.293 63.3229 4.62883 63.1625 5.0535C63.0065 5.47817 62.9285 5.95483 62.9285 6.4835C62.9285 7.0165 63.0087 7.4975 63.169 7.9265C63.3337 8.35117 63.5785 8.687 63.9035 8.934C64.2285 9.181 64.6359 9.3045 65.1255 9.3045ZM76.4224 10C76.0281 10.0823 75.6381 10.1148 75.2524 10.0975C74.8711 10.0802 74.5288 9.99783 74.2254 9.8505C73.9264 9.70317 73.6989 9.4735 73.5429 9.1615C73.4173 8.9015 73.3479 8.63933 73.3349 8.375C73.3263 8.10633 73.3219 7.80083 73.3219 7.4585V1.03H74.2709V7.4195C74.2709 7.71417 74.2731 7.96117 74.2774 8.1605C74.2861 8.3555 74.3316 8.52883 74.4139 8.6805C74.5699 8.97083 74.8169 9.14417 75.1549 9.2005C75.4973 9.25683 75.9198 9.24383 76.4224 9.1615V10ZM71.8204 3.799V2.98H76.4224V3.799H71.8204ZM82.8755 10V6.4185C82.8755 6.0285 82.8387 5.671 82.765 5.346C82.6913 5.01667 82.5722 4.73067 82.4075 4.488C82.2472 4.241 82.037 4.05033 81.777 3.916C81.5213 3.78167 81.2093 3.7145 80.841 3.7145C80.503 3.7145 80.204 3.773 79.944 3.89C79.6883 4.007 79.4717 4.176 79.294 4.397C79.1207 4.61367 78.9885 4.878 78.8975 5.19C78.8065 5.502 78.761 5.85733 78.761 6.256L78.085 6.1065C78.085 5.38717 78.2107 4.78267 78.462 4.293C78.7133 3.80333 79.06 3.43283 79.502 3.1815C79.944 2.93017 80.451 2.8045 81.023 2.8045C81.4433 2.8045 81.8095 2.8695 82.1215 2.9995C82.4378 3.1295 82.7043 3.305 82.921 3.526C83.142 3.747 83.3197 4.0005 83.454 4.2865C83.5883 4.56817 83.6858 4.86933 83.7465 5.19C83.8072 5.50633 83.8375 5.82267 83.8375 6.139V10H82.8755ZM77.799 10V0.64H78.6635V5.9245H78.761V10H77.799ZM88.4948 10.195C87.8101 10.195 87.2164 10.0433 86.7138 9.74C86.2154 9.43667 85.8276 9.00983 85.5503 8.4595C85.2729 7.90917 85.1343 7.2635 85.1343 6.5225C85.1343 5.7555 85.2708 5.0925 85.5438 4.5335C85.8168 3.9745 86.2003 3.54333 86.6943 3.24C87.1926 2.93667 87.7798 2.785 88.4558 2.785C89.1491 2.785 89.7406 2.94533 90.2303 3.266C90.7199 3.58233 91.0904 4.03733 91.3418 4.631C91.5931 5.22467 91.7079 5.93317 91.6863 6.7565H90.7113V6.4185C90.6939 5.5085 90.4968 4.82167 90.1198 4.358C89.7471 3.89433 89.2011 3.6625 88.4818 3.6625C87.7278 3.6625 87.1493 3.90733 86.7463 4.397C86.3476 4.88667 86.1483 5.58433 86.1483 6.49C86.1483 7.374 86.3476 8.06083 86.7463 8.5505C87.1493 9.03583 87.7191 9.2785 88.4558 9.2785C88.9584 9.2785 89.3961 9.16367 89.7688 8.934C90.1458 8.7 90.4426 8.36417 90.6593 7.9265L91.5498 8.271C91.2724 8.882 90.8629 9.3565 90.3213 9.6945C89.7839 10.0282 89.1751 10.195 88.4948 10.195ZM85.8103 6.7565V5.957H91.1728V6.7565H85.8103ZM95.7313 10V0.64H96.6088L100.288 8.5115L103.947 0.64H104.838V9.9935H103.928V2.772L100.593 10H99.9758L96.6478 2.772V10H95.7313ZM106.662 10V0.64H107.617V4.8585H112.791V0.64H113.74V10H112.791V5.775H107.617V10H106.662ZM115.561 10V0.64H116.523L121.678 8.31V0.64H122.64V10H121.678L116.523 2.3235V10H115.561ZM127.063 10V0.64H130.677C130.768 0.64 130.87 0.644333 130.983 0.652999C131.1 0.657333 131.217 0.670333 131.334 0.692C131.823 0.765666 132.237 0.936833 132.575 1.2055C132.918 1.46983 133.175 1.8035 133.349 2.2065C133.526 2.6095 133.615 3.05583 133.615 3.5455C133.615 4.03083 133.526 4.475 133.349 4.878C133.171 5.281 132.911 5.61683 132.569 5.8855C132.231 6.14983 131.819 6.31883 131.334 6.3925C131.217 6.40983 131.1 6.42283 130.983 6.4315C130.87 6.44017 130.768 6.4445 130.677 6.4445H128.019V10H127.063ZM128.019 5.5345H130.651C130.729 5.5345 130.82 5.53017 130.924 5.5215C131.028 5.51283 131.13 5.49767 131.23 5.476C131.55 5.40667 131.813 5.2745 132.016 5.0795C132.224 4.8845 132.378 4.65267 132.478 4.384C132.582 4.11533 132.634 3.83583 132.634 3.5455C132.634 3.25517 132.582 2.97567 132.478 2.707C132.378 2.434 132.224 2.2 132.016 2.005C131.813 1.81 131.55 1.67783 131.23 1.6085C131.13 1.58683 131.028 1.57383 130.924 1.5695C130.82 1.56083 130.729 1.5565 130.651 1.5565H128.019V5.5345ZM134.909 10V2.98H135.767V4.67L135.598 4.449C135.676 4.241 135.778 4.05033 135.904 3.877C136.029 3.69933 136.166 3.55417 136.313 3.4415C136.495 3.28117 136.707 3.15983 136.95 3.0775C137.193 2.99083 137.438 2.941 137.685 2.928C137.932 2.91067 138.157 2.928 138.361 2.98V3.877C138.105 3.812 137.825 3.79683 137.522 3.8315C137.219 3.86617 136.939 3.9875 136.684 4.1955C136.45 4.3775 136.274 4.59633 136.157 4.852C136.04 5.10333 135.962 5.372 135.923 5.658C135.884 5.93967 135.865 6.21917 135.865 6.4965V10H134.909ZM142.398 10.195C141.7 10.195 141.105 10.0368 140.611 9.7205C140.117 9.40417 139.737 8.9665 139.473 8.4075C139.209 7.8485 139.077 7.20717 139.077 6.4835C139.077 5.74683 139.211 5.10117 139.48 4.5465C139.748 3.99183 140.13 3.56067 140.624 3.253C141.122 2.941 141.713 2.785 142.398 2.785C143.1 2.785 143.698 2.94317 144.192 3.2595C144.69 3.5715 145.07 4.007 145.33 4.566C145.594 5.12067 145.726 5.75983 145.726 6.4835C145.726 7.22017 145.594 7.868 145.33 8.427C145.065 8.98167 144.684 9.415 144.186 9.727C143.687 10.039 143.091 10.195 142.398 10.195ZM142.398 9.2785C143.178 9.2785 143.759 9.02067 144.14 8.505C144.521 7.985 144.712 7.31117 144.712 6.4835C144.712 5.63417 144.519 4.95817 144.134 4.4555C143.752 3.95283 143.174 3.7015 142.398 3.7015C141.874 3.7015 141.44 3.82067 141.098 4.059C140.76 4.293 140.507 4.62017 140.338 5.0405C140.173 5.4565 140.091 5.9375 140.091 6.4835C140.091 7.3285 140.286 8.00667 140.676 8.518C141.066 9.025 141.64 9.2785 142.398 9.2785ZM150.982 10C150.588 10.0823 150.198 10.1148 149.812 10.0975C149.431 10.0802 149.088 9.99783 148.785 9.8505C148.486 9.70317 148.259 9.4735 148.103 9.1615C147.977 8.9015 147.908 8.63933 147.895 8.375C147.886 8.10633 147.882 7.80083 147.882 7.4585V1.03H148.831V7.4195C148.831 7.71417 148.833 7.96117 148.837 8.1605C148.846 8.3555 148.891 8.52883 148.974 8.6805C149.13 8.97083 149.377 9.14417 149.715 9.2005C150.057 9.25683 150.479 9.24383 150.982 9.1615V10ZM146.38 3.799V2.98H150.982V3.799H146.38ZM155.082 10.195C154.397 10.195 153.803 10.0433 153.301 9.74C152.802 9.43667 152.415 9.00983 152.137 8.4595C151.86 7.90917 151.721 7.2635 151.721 6.5225C151.721 5.7555 151.858 5.0925 152.131 4.5335C152.404 3.9745 152.787 3.54333 153.281 3.24C153.78 2.93667 154.367 2.785 155.043 2.785C155.736 2.785 156.328 2.94533 156.817 3.266C157.307 3.58233 157.677 4.03733 157.929 4.631C158.18 5.22467 158.295 5.93317 158.273 6.7565H157.298V6.4185C157.281 5.5085 157.084 4.82167 156.707 4.358C156.334 3.89433 155.788 3.6625 155.069 3.6625C154.315 3.6625 153.736 3.90733 153.333 4.397C152.935 4.88667 152.735 5.58433 152.735 6.49C152.735 7.374 152.935 8.06083 153.333 8.5505C153.736 9.03583 154.306 9.2785 155.043 9.2785C155.545 9.2785 155.983 9.16367 156.356 8.934C156.733 8.7 157.03 8.36417 157.246 7.9265L158.137 8.271C157.859 8.882 157.45 9.3565 156.908 9.6945C156.371 10.0282 155.762 10.195 155.082 10.195ZM152.397 6.7565V5.957H157.76V6.7565H152.397ZM159.846 1.6475V0.575H160.801V1.6475H159.846ZM159.846 10V2.98H160.801V10H159.846ZM167.82 10V6.4185C167.82 6.0285 167.783 5.671 167.709 5.346C167.636 5.01667 167.517 4.73067 167.352 4.488C167.192 4.241 166.981 4.05033 166.721 3.916C166.466 3.78167 166.154 3.7145 165.785 3.7145C165.447 3.7145 165.148 3.773 164.888 3.89C164.633 4.007 164.416 4.176 164.238 4.397C164.065 4.61367 163.933 4.878 163.842 5.19C163.751 5.502 163.705 5.85733 163.705 6.256L163.029 6.1065C163.029 5.38717 163.155 4.78267 163.406 4.293C163.658 3.80333 164.004 3.43283 164.446 3.1815C164.888 2.93017 165.395 2.8045 165.967 2.8045C166.388 2.8045 166.754 2.8695 167.066 2.9995C167.382 3.1295 167.649 3.305 167.865 3.526C168.086 3.747 168.264 4.0005 168.398 4.2865C168.533 4.56817 168.63 4.86933 168.691 5.19C168.752 5.50633 168.782 5.82267 168.782 6.139V10H167.82ZM162.743 10V2.98H163.608V4.709H163.705V10H162.743ZM173.071 10V0.64H173.949L177.628 8.5115L181.287 0.64H182.178V9.9935H181.268V2.772L177.933 10H177.316L173.988 2.772V10H173.071ZM186.686 10.1755C186.266 10.1755 185.898 10.1105 185.581 9.9805C185.269 9.8505 185.003 9.675 184.782 9.454C184.565 9.233 184.39 8.98167 184.255 8.7C184.121 8.414 184.023 8.11283 183.963 7.7965C183.902 7.47583 183.872 7.15733 183.872 6.841V2.98H184.834V6.5615C184.834 6.94717 184.871 7.30467 184.944 7.634C185.018 7.96333 185.135 8.2515 185.295 8.4985C185.46 8.74117 185.67 8.92967 185.926 9.064C186.186 9.19833 186.5 9.2655 186.868 9.2655C187.206 9.2655 187.503 9.207 187.759 9.09C188.019 8.973 188.235 8.80617 188.409 8.5895C188.586 8.3685 188.721 8.102 188.812 7.79C188.903 7.47367 188.948 7.11833 188.948 6.724L189.624 6.8735C189.624 7.59283 189.499 8.19733 189.247 8.687C188.996 9.17667 188.649 9.54717 188.207 9.7985C187.765 10.0498 187.258 10.1755 186.686 10.1755ZM189.046 10V8.271H188.948V2.98H189.904V10H189.046ZM192.416 10V2.46C192.416 2.278 192.425 2.09817 192.442 1.9205C192.464 1.74283 192.505 1.57383 192.566 1.4135C192.626 1.24883 192.722 1.09717 192.852 0.9585C192.995 0.8025 193.151 0.689833 193.32 0.620499C193.489 0.546833 193.664 0.499166 193.846 0.4775C194.032 0.455833 194.214 0.445 194.392 0.445H195.289V1.251H194.457C194.093 1.251 193.82 1.33983 193.638 1.5175C193.46 1.69517 193.372 1.97467 193.372 2.356V10H192.416ZM191.201 3.799V2.98H195.289V3.799H191.201ZM196.42 10V2.46C196.42 2.278 196.429 2.09817 196.446 1.9205C196.468 1.74283 196.509 1.57383 196.57 1.4135C196.63 1.24883 196.726 1.09717 196.856 0.9585C196.999 0.8025 197.155 0.689833 197.324 0.620499C197.493 0.546833 197.668 0.499166 197.85 0.4775C198.036 0.455833 198.218 0.445 198.396 0.445H199.293V1.251H198.461C198.097 1.251 197.824 1.33983 197.642 1.5175C197.464 1.69517 197.376 1.97467 197.376 2.356V10H196.42ZM195.205 3.799V2.98H199.293V3.799H195.205ZM200.648 1.6475V0.575H201.604V1.6475H200.648ZM200.648 10V2.98H201.604V10H200.648ZM208.623 10V6.4185C208.623 6.0285 208.586 5.671 208.512 5.346C208.438 5.01667 208.319 4.73067 208.155 4.488C207.994 4.241 207.784 4.05033 207.524 3.916C207.268 3.78167 206.956 3.7145 206.588 3.7145C206.25 3.7145 205.951 3.773 205.691 3.89C205.435 4.007 205.219 4.176 205.041 4.397C204.868 4.61367 204.736 4.878 204.645 5.19C204.554 5.502 204.508 5.85733 204.508 6.256L203.832 6.1065C203.832 5.38717 203.958 4.78267 204.209 4.293C204.46 3.80333 204.807 3.43283 205.249 3.1815C205.691 2.93017 206.198 2.8045 206.77 2.8045C207.19 2.8045 207.557 2.8695 207.869 2.9995C208.185 3.1295 208.451 3.305 208.668 3.526C208.889 3.747 209.067 4.0005 209.201 4.2865C209.335 4.56817 209.433 4.86933 209.494 5.19C209.554 5.50633 209.585 5.82267 209.585 6.139V10H208.623ZM203.546 10V2.98H204.411V4.709H204.508V10H203.546ZM0.91 30V20.64H3.7505C3.85017 20.64 4.01917 20.6422 4.2575 20.6465C4.50017 20.6508 4.732 20.6682 4.953 20.6985C5.66367 20.7982 6.25733 21.0625 6.734 21.4915C7.21067 21.9205 7.56817 22.4665 7.8065 23.1295C8.04483 23.7925 8.164 24.5227 8.164 25.32C8.164 26.1173 8.04483 26.8475 7.8065 27.5105C7.56817 28.1735 7.21067 28.7195 6.734 29.1485C6.25733 29.5775 5.66367 29.8418 4.953 29.9415C4.73633 29.9675 4.5045 29.9848 4.2575 29.9935C4.0105 29.9978 3.8415 30 3.7505 30H0.91ZM1.898 29.0835H3.7505C3.92817 29.0835 4.11883 29.0792 4.3225 29.0705C4.5305 29.0575 4.70817 29.0358 4.8555 29.0055C5.4015 28.9102 5.84133 28.6892 6.175 28.3425C6.513 27.9958 6.76 27.5625 6.916 27.0425C7.072 26.5182 7.15 25.944 7.15 25.32C7.15 24.6917 7.072 24.1153 6.916 23.591C6.76 23.0667 6.513 22.6333 6.175 22.291C5.837 21.9487 5.39717 21.7298 4.8555 21.6345C4.70817 21.6042 4.52833 21.5847 4.316 21.576C4.108 21.563 3.9195 21.5565 3.7505 21.5565H1.898V29.0835ZM12.5759 30.195C11.8782 30.195 11.2824 30.0368 10.7884 29.7205C10.2944 29.4042 9.91521 28.9665 9.65088 28.4075C9.38654 27.8485 9.25438 27.2072 9.25438 26.4835C9.25438 25.7468 9.38871 25.1012 9.65738 24.5465C9.92604 23.9918 10.3074 23.5607 10.8014 23.253C11.2997 22.941 11.8912 22.785 12.5759 22.785C13.2779 22.785 13.8759 22.9432 14.3699 23.2595C14.8682 23.5715 15.2474 24.007 15.5074 24.566C15.7717 25.1207 15.9039 25.7598 15.9039 26.4835C15.9039 27.2202 15.7717 27.868 15.5074 28.427C15.243 28.9817 14.8617 29.415 14.3634 29.727C13.865 30.039 13.2692 30.195 12.5759 30.195ZM12.5759 29.2785C13.3559 29.2785 13.9365 29.0207 14.3179 28.505C14.6992 27.985 14.8899 27.3112 14.8899 26.4835C14.8899 25.6342 14.697 24.9582 14.3114 24.4555C13.93 23.9528 13.3515 23.7015 12.5759 23.7015C12.0515 23.7015 11.6182 23.8207 11.2759 24.059C10.9379 24.293 10.6844 24.6202 10.5154 25.0405C10.3507 25.4565 10.2684 25.9375 10.2684 26.4835C10.2684 27.3285 10.4634 28.0067 10.8534 28.518C11.2434 29.025 11.8175 29.2785 12.5759 29.2785ZM20.0222 30.1755C19.6019 30.1755 19.2336 30.1105 18.9172 29.9805C18.6052 29.8505 18.3387 29.675 18.1177 29.454C17.9011 29.233 17.7256 28.9817 17.5912 28.7C17.4569 28.414 17.3594 28.1128 17.2987 27.7965C17.2381 27.4758 17.2077 27.1573 17.2077 26.841V22.98H18.1697V26.5615C18.1697 26.9472 18.2066 27.3047 18.2802 27.634C18.3539 27.9633 18.4709 28.2515 18.6312 28.4985C18.7959 28.7412 19.0061 28.9297 19.2617 29.064C19.5217 29.1983 19.8359 29.2655 20.2042 29.2655C20.5422 29.2655 20.8391 29.207 21.0947 29.09C21.3547 28.973 21.5714 28.8062 21.7447 28.5895C21.9224 28.3685 22.0567 28.102 22.1477 27.79C22.2387 27.4737 22.2842 27.1183 22.2842 26.724L22.9602 26.8735C22.9602 27.5928 22.8346 28.1973 22.5832 28.687C22.3319 29.1767 21.9852 29.5472 21.5432 29.7985C21.1012 30.0498 20.5942 30.1755 20.0222 30.1755ZM22.3817 30V28.271H22.2842V22.98H23.2397V30H22.3817ZM28.209 30.195C27.5633 30.195 27.0173 30.0325 26.571 29.7075C26.1247 29.3782 25.7867 28.934 25.557 28.375C25.3273 27.8117 25.2125 27.1812 25.2125 26.4835C25.2125 25.7728 25.3273 25.1402 25.557 24.5855C25.791 24.0265 26.1333 23.5867 26.584 23.266C27.0347 22.9453 27.5893 22.785 28.248 22.785C28.8893 22.785 29.4397 22.9475 29.899 23.2725C30.3583 23.5975 30.7093 24.0395 30.952 24.5985C31.199 25.1575 31.3225 25.7858 31.3225 26.4835C31.3225 27.1855 31.199 27.816 30.952 28.375C30.705 28.934 30.3497 29.3782 29.886 29.7075C29.4223 30.0325 28.8633 30.195 28.209 30.195ZM25.05 30V20.64H26.012V24.7155H25.908V30H25.05ZM28.1115 29.3045C28.6012 29.3045 29.0085 29.181 29.3335 28.934C29.6585 28.687 29.9012 28.3512 30.0615 27.9265C30.2262 27.4975 30.3085 27.0165 30.3085 26.4835C30.3085 25.9548 30.2283 25.4782 30.068 25.0535C29.9077 24.6288 29.6628 24.293 29.3335 24.046C29.0085 23.799 28.5947 23.6755 28.092 23.6755C27.6023 23.6755 27.195 23.7947 26.87 24.033C26.5493 24.2713 26.3088 24.6028 26.1485 25.0275C25.9882 25.4478 25.908 25.9332 25.908 26.4835C25.908 27.0252 25.9882 27.5105 26.1485 27.9395C26.3088 28.3642 26.5515 28.6978 26.8765 28.9405C27.2015 29.1832 27.6132 29.3045 28.1115 29.3045ZM32.8798 30V20.445H33.8353V30H32.8798ZM38.7545 30.195C38.0699 30.195 37.4762 30.0433 36.9735 29.74C36.4752 29.4367 36.0874 29.0098 35.81 28.4595C35.5327 27.9092 35.394 27.2635 35.394 26.5225C35.394 25.7555 35.5305 25.0925 35.8035 24.5335C36.0765 23.9745 36.46 23.5433 36.954 23.24C37.4524 22.9367 38.0395 22.785 38.7155 22.785C39.4089 22.785 40.0004 22.9453 40.49 23.266C40.9797 23.5823 41.3502 24.0373 41.6015 24.631C41.8529 25.2247 41.9677 25.9332 41.946 26.7565H40.971V26.4185C40.9537 25.5085 40.7565 24.8217 40.3795 24.358C40.0069 23.8943 39.4609 23.6625 38.7415 23.6625C37.9875 23.6625 37.409 23.9073 37.006 24.397C36.6074 24.8867 36.408 25.5843 36.408 26.49C36.408 27.374 36.6074 28.0608 37.006 28.5505C37.409 29.0358 37.9789 29.2785 38.7155 29.2785C39.2182 29.2785 39.6559 29.1637 40.0285 28.934C40.4055 28.7 40.7024 28.3642 40.919 27.9265L41.8095 28.271C41.5322 28.882 41.1227 29.3565 40.581 29.6945C40.0437 30.0282 39.4349 30.195 38.7545 30.195ZM36.07 26.7565V25.957H41.4325V26.7565H36.07ZM49.7806 30.195C48.8489 30.195 48.0624 29.9892 47.4211 29.5775C46.7797 29.1615 46.2944 28.5873 45.9651 27.855C45.6357 27.1227 45.4711 26.2777 45.4711 25.32C45.4711 24.3623 45.6357 23.5173 45.9651 22.785C46.2944 22.0527 46.7797 21.4807 47.4211 21.069C48.0624 20.653 48.8489 20.445 49.7806 20.445C50.8682 20.445 51.7566 20.7245 52.4456 21.2835C53.1346 21.8382 53.6069 22.5835 53.8626 23.5195L52.8876 23.773C52.6882 23.032 52.3307 22.4448 51.8151 22.0115C51.2994 21.5782 50.6212 21.3615 49.7806 21.3615C49.0482 21.3615 48.4394 21.5283 47.9541 21.862C47.4687 22.1957 47.1026 22.6615 46.8556 23.2595C46.6129 23.8532 46.4872 24.54 46.4786 25.32C46.4742 26.1 46.5934 26.7868 46.8361 27.3805C47.0831 27.9742 47.4514 28.44 47.9411 28.778C48.4351 29.1117 49.0482 29.2785 49.7806 29.2785C50.6212 29.2785 51.2994 29.0618 51.8151 28.6285C52.3307 28.1908 52.6882 27.6037 52.8876 26.867L53.8626 27.1205C53.6069 28.0565 53.1346 28.804 52.4456 29.363C51.7566 29.9177 50.8682 30.195 49.7806 30.195ZM60.3667 30V26.4185C60.3667 26.0285 60.3299 25.671 60.2562 25.346C60.1826 25.0167 60.0634 24.7307 59.8987 24.488C59.7384 24.241 59.5282 24.0503 59.2682 23.916C59.0126 23.7817 58.7006 23.7145 58.3322 23.7145C57.9942 23.7145 57.6952 23.773 57.4352 23.89C57.1796 24.007 56.9629 24.176 56.7852 24.397C56.6119 24.6137 56.4797 24.878 56.3887 25.19C56.2977 25.502 56.2522 25.8573 56.2522 26.256L55.5762 26.1065C55.5762 25.3872 55.7019 24.7827 55.9532 24.293C56.2046 23.8033 56.5512 23.4328 56.9932 23.1815C57.4352 22.9302 57.9422 22.8045 58.5142 22.8045C58.9346 22.8045 59.3007 22.8695 59.6127 22.9995C59.9291 23.1295 60.1956 23.305 60.4122 23.526C60.6332 23.747 60.8109 24.0005 60.9452 24.2865C61.0796 24.5682 61.1771 24.8693 61.2377 25.19C61.2984 25.5063 61.3287 25.8227 61.3287 26.139V30H60.3667ZM55.2902 30V20.64H56.1547V25.9245H56.2522V30H55.2902ZM65.947 30.195C65.2493 30.195 64.6535 30.0368 64.1595 29.7205C63.6655 29.4042 63.2863 28.9665 63.022 28.4075C62.7576 27.8485 62.6255 27.2072 62.6255 26.4835C62.6255 25.7468 62.7598 25.1012 63.0285 24.5465C63.2971 23.9918 63.6785 23.5607 64.1725 23.253C64.6708 22.941 65.2623 22.785 65.947 22.785C66.649 22.785 67.247 22.9432 67.741 23.2595C68.2393 23.5715 68.6185 24.007 68.8785 24.566C69.1428 25.1207 69.275 25.7598 69.275 26.4835C69.275 27.2202 69.1428 27.868 68.8785 28.427C68.6141 28.9817 68.2328 29.415 67.7345 29.727C67.2361 30.039 66.6403 30.195 65.947 30.195ZM65.947 29.2785C66.727 29.2785 67.3076 29.0207 67.689 28.505C68.0703 27.985 68.261 27.3112 68.261 26.4835C68.261 25.6342 68.0681 24.9582 67.6825 24.4555C67.3011 23.9528 66.7226 23.7015 65.947 23.7015C65.4226 23.7015 64.9893 23.8207 64.647 24.059C64.309 24.293 64.0555 24.6202 63.8865 25.0405C63.7218 25.4565 63.6395 25.9375 63.6395 26.4835C63.6395 27.3285 63.8345 28.0067 64.2245 28.518C64.6145 29.025 65.1886 29.2785 65.947 29.2785ZM73.6208 30.195C72.9145 30.195 72.3165 30.0368 71.8268 29.7205C71.3372 29.4042 70.9645 28.9687 70.7088 28.414C70.4575 27.855 70.3275 27.2137 70.3188 26.49C70.3275 25.7533 70.4618 25.1077 70.7218 24.553C70.9818 23.994 71.3567 23.5607 71.8463 23.253C72.336 22.941 72.9297 22.785 73.6273 22.785C74.338 22.785 74.9555 22.9583 75.4798 23.305C76.0085 23.6517 76.3703 24.1262 76.5653 24.7285L75.6293 25.0275C75.4647 24.6072 75.2025 24.2822 74.8428 24.0525C74.4875 23.8185 74.0802 23.7015 73.6208 23.7015C73.1052 23.7015 72.6783 23.8207 72.3403 24.059C72.0023 24.293 71.751 24.6202 71.5863 25.0405C71.4217 25.4608 71.3372 25.944 71.3328 26.49C71.3415 27.3307 71.5365 28.0067 71.9178 28.518C72.2992 29.025 72.8668 29.2785 73.6208 29.2785C74.0975 29.2785 74.5027 29.1702 74.8363 28.9535C75.1743 28.7325 75.43 28.4118 75.6033 27.9915L76.5653 28.2775C76.3053 28.9015 75.924 29.3782 75.4213 29.7075C74.9187 30.0325 74.3185 30.195 73.6208 30.195ZM80.6481 30.195C79.9505 30.195 79.3546 30.0368 78.8606 29.7205C78.3666 29.4042 77.9875 28.9665 77.7231 28.4075C77.4588 27.8485 77.3266 27.2072 77.3266 26.4835C77.3266 25.7468 77.461 25.1012 77.7296 24.5465C77.9983 23.9918 78.3796 23.5607 78.8736 23.253C79.372 22.941 79.9635 22.785 80.6481 22.785C81.3501 22.785 81.9481 22.9432 82.4421 23.2595C82.9405 23.5715 83.3196 24.007 83.5796 24.566C83.844 25.1207 83.9761 25.7598 83.9761 26.4835C83.9761 27.2202 83.844 27.868 83.5796 28.427C83.3153 28.9817 82.934 29.415 82.4356 29.727C81.9373 30.039 81.3415 30.195 80.6481 30.195ZM80.6481 29.2785C81.4281 29.2785 82.0088 29.0207 82.3901 28.505C82.7715 27.985 82.9621 27.3112 82.9621 26.4835C82.9621 25.6342 82.7693 24.9582 82.3836 24.4555C82.0023 23.9528 81.4238 23.7015 80.6481 23.7015C80.1238 23.7015 79.6905 23.8207 79.3481 24.059C79.0101 24.293 78.7566 24.6202 78.5876 25.0405C78.423 25.4565 78.3406 25.9375 78.3406 26.4835C78.3406 27.3285 78.5356 28.0067 78.9256 28.518C79.3156 29.025 79.8898 29.2785 80.6481 29.2785ZM91.802 30.195C90.8704 30.195 90.0839 29.9892 89.4425 29.5775C88.8012 29.1615 88.3159 28.5873 87.9865 27.855C87.6572 27.1227 87.4925 26.2777 87.4925 25.32C87.4925 24.3623 87.6572 23.5173 87.9865 22.785C88.3159 22.0527 88.8012 21.4807 89.4425 21.069C90.0839 20.653 90.8704 20.445 91.802 20.445C92.8897 20.445 93.778 20.7245 94.467 21.2835C95.156 21.8382 95.6284 22.5835 95.884 23.5195L94.909 23.773C94.7097 23.032 94.3522 22.4448 93.8365 22.0115C93.3209 21.5782 92.6427 21.3615 91.802 21.3615C91.0697 21.3615 90.4609 21.5283 89.9755 21.862C89.4902 22.1957 89.124 22.6615 88.877 23.2595C88.6344 23.8532 88.5087 24.54 88.5 25.32C88.4957 26.1 88.6149 26.7868 88.8575 27.3805C89.1045 27.9742 89.4729 28.44 89.9625 28.778C90.4565 29.1117 91.0697 29.2785 91.802 29.2785C92.6427 29.2785 93.3209 29.0618 93.8365 28.6285C94.3522 28.1908 94.7097 27.6037 94.909 26.867L95.884 27.1205C95.6284 28.0565 95.156 28.804 94.467 29.363C93.778 29.9177 92.8897 30.195 91.802 30.195ZM100.25 30.195C99.552 30.195 98.9562 30.0368 98.4622 29.7205C97.9682 29.4042 97.589 28.9665 97.3247 28.4075C97.0604 27.8485 96.9282 27.2072 96.9282 26.4835C96.9282 25.7468 97.0625 25.1012 97.3312 24.5465C97.5999 23.9918 97.9812 23.5607 98.4752 23.253C98.9735 22.941 99.565 22.785 100.25 22.785C100.952 22.785 101.55 22.9432 102.044 23.2595C102.542 23.5715 102.921 24.007 103.181 24.566C103.446 25.1207 103.578 25.7598 103.578 26.4835C103.578 27.2202 103.446 27.868 103.181 28.427C102.917 28.9817 102.536 29.415 102.037 29.727C101.539 30.039 100.943 30.195 100.25 30.195ZM100.25 29.2785C101.03 29.2785 101.61 29.0207 101.992 28.505C102.373 27.985 102.564 27.3112 102.564 26.4835C102.564 25.6342 102.371 24.9582 101.985 24.4555C101.604 23.9528 101.025 23.7015 100.25 23.7015C99.7254 23.7015 99.292 23.8207 98.9497 24.059C98.6117 24.293 98.3582 24.6202 98.1892 25.0405C98.0245 25.4565 97.9422 25.9375 97.9422 26.4835C97.9422 27.3285 98.1372 28.0067 98.5272 28.518C98.9172 29.025 99.4914 29.2785 100.25 29.2785ZM107.943 30.195C107.245 30.195 106.65 30.0368 106.156 29.7205C105.662 29.4042 105.282 28.9665 105.018 28.4075C104.754 27.8485 104.622 27.2072 104.622 26.4835C104.622 25.7468 104.756 25.1012 105.025 24.5465C105.293 23.9918 105.675 23.5607 106.169 23.253C106.667 22.941 107.258 22.785 107.943 22.785C108.645 22.785 109.243 22.9432 109.737 23.2595C110.235 23.5715 110.615 24.007 110.875 24.566C111.139 25.1207 111.271 25.7598 111.271 26.4835C111.271 27.2202 111.139 27.868 110.875 28.427C110.61 28.9817 110.229 29.415 109.731 29.727C109.232 30.039 108.636 30.195 107.943 30.195ZM107.943 29.2785C108.723 29.2785 109.304 29.0207 109.685 28.505C110.066 27.985 110.257 27.3112 110.257 26.4835C110.257 25.6342 110.064 24.9582 109.679 24.4555C109.297 23.9528 108.719 23.7015 107.943 23.7015C107.419 23.7015 106.985 23.8207 106.643 24.059C106.305 24.293 106.052 24.6202 105.883 25.0405C105.718 25.4565 105.636 25.9375 105.636 26.4835C105.636 27.3285 105.831 28.0067 106.221 28.518C106.611 29.025 107.185 29.2785 107.943 29.2785ZM112.698 30L112.705 20.64H113.667V26.36L116.8 22.98H118.074L114.785 26.49L118.503 30H117.112L113.667 26.62V30H112.698ZM119.284 21.6475V20.575H120.24V21.6475H119.284ZM119.284 30V22.98H120.24V30H119.284ZM125.159 30.195C124.474 30.195 123.88 30.0433 123.378 29.74C122.879 29.4367 122.492 29.0098 122.214 28.4595C121.937 27.9092 121.798 27.2635 121.798 26.5225C121.798 25.7555 121.935 25.0925 122.208 24.5335C122.481 23.9745 122.864 23.5433 123.358 23.24C123.857 22.9367 124.444 22.785 125.12 22.785C125.813 22.785 126.405 22.9453 126.894 23.266C127.384 23.5823 127.754 24.0373 128.006 24.631C128.257 25.2247 128.372 25.9332 128.35 26.7565H127.375V26.4185C127.358 25.5085 127.161 24.8217 126.784 24.358C126.411 23.8943 125.865 23.6625 125.146 23.6625C124.392 23.6625 123.813 23.9073 123.41 24.397C123.012 24.8867 122.812 25.5843 122.812 26.49C122.812 27.374 123.012 28.0608 123.41 28.5505C123.813 29.0358 124.383 29.2785 125.12 29.2785C125.622 29.2785 126.06 29.1637 126.433 28.934C126.81 28.7 127.107 28.3642 127.323 27.9265L128.214 28.271C127.936 28.882 127.527 29.3565 126.985 29.6945C126.448 30.0282 125.839 30.195 125.159 30.195ZM122.474 26.7565V25.957H127.837V26.7565H122.474ZM136.185 30.195C135.253 30.195 134.467 29.9892 133.825 29.5775C133.184 29.1615 132.699 28.5873 132.369 27.855C132.04 27.1227 131.875 26.2777 131.875 25.32C131.875 24.3623 132.04 23.5173 132.369 22.785C132.699 22.0527 133.184 21.4807 133.825 21.069C134.467 20.653 135.253 20.445 136.185 20.445C137.273 20.445 138.161 20.7245 138.85 21.2835C139.539 21.8382 140.011 22.5835 140.267 23.5195L139.292 23.773C139.093 23.032 138.735 22.4448 138.219 22.0115C137.704 21.5782 137.026 21.3615 136.185 21.3615C135.453 21.3615 134.844 21.5283 134.358 21.862C133.873 22.1957 133.507 22.6615 133.26 23.2595C133.017 23.8532 132.892 24.54 132.883 25.32C132.879 26.1 132.998 26.7868 133.24 27.3805C133.487 27.9742 133.856 28.44 134.345 28.778C134.839 29.1117 135.453 29.2785 136.185 29.2785C137.026 29.2785 137.704 29.0618 138.219 28.6285C138.735 28.1908 139.093 27.6037 139.292 26.867L140.267 27.1205C140.011 28.0565 139.539 28.804 138.85 29.363C138.161 29.9177 137.273 30.195 136.185 30.195ZM141.701 30V22.98H142.559V24.67L142.39 24.449C142.468 24.241 142.57 24.0503 142.696 23.877C142.821 23.6993 142.958 23.5542 143.105 23.4415C143.287 23.2812 143.499 23.1598 143.742 23.0775C143.985 22.9908 144.23 22.941 144.477 22.928C144.724 22.9107 144.949 22.928 145.153 22.98V23.877C144.897 23.812 144.617 23.7968 144.314 23.8315C144.011 23.8662 143.731 23.9875 143.476 24.1955C143.242 24.3775 143.066 24.5963 142.949 24.852C142.832 25.1033 142.754 25.372 142.715 25.658C142.676 25.9397 142.657 26.2192 142.657 26.4965V30H141.701ZM149.229 30.195C148.544 30.195 147.951 30.0433 147.448 29.74C146.95 29.4367 146.562 29.0098 146.285 28.4595C146.007 27.9092 145.869 27.2635 145.869 26.5225C145.869 25.7555 146.005 25.0925 146.278 24.5335C146.551 23.9745 146.935 23.5433 147.429 23.24C147.927 22.9367 148.514 22.785 149.19 22.785C149.883 22.785 150.475 22.9453 150.965 23.266C151.454 23.5823 151.825 24.0373 152.076 24.631C152.327 25.2247 152.442 25.9332 152.421 26.7565H151.446V26.4185C151.428 25.5085 151.231 24.8217 150.854 24.358C150.481 23.8943 149.935 23.6625 149.216 23.6625C148.462 23.6625 147.884 23.9073 147.481 24.397C147.082 24.8867 146.883 25.5843 146.883 26.49C146.883 27.374 147.082 28.0608 147.481 28.5505C147.884 29.0358 148.453 29.2785 149.19 29.2785C149.693 29.2785 150.13 29.1637 150.503 28.934C150.88 28.7 151.177 28.3642 151.394 27.9265L152.284 28.271C152.007 28.882 151.597 29.3565 151.056 29.6945C150.518 30.0282 149.909 30.195 149.229 30.195ZM146.545 26.7565V25.957H151.907V26.7565H146.545ZM155.745 30.195C155.216 30.195 154.772 30.0997 154.412 29.909C154.057 29.7183 153.79 29.4648 153.613 29.1485C153.435 28.8322 153.346 28.4877 153.346 28.115C153.346 27.7337 153.422 27.4087 153.574 27.14C153.73 26.867 153.94 26.6438 154.204 26.4705C154.473 26.2972 154.783 26.165 155.134 26.074C155.489 25.9873 155.881 25.9115 156.31 25.8465C156.744 25.7772 157.166 25.7187 157.578 25.671C157.994 25.619 158.358 25.5692 158.67 25.5215L158.332 25.7295C158.345 25.0362 158.21 24.5227 157.929 24.189C157.647 23.8553 157.157 23.6885 156.46 23.6885C155.979 23.6885 155.571 23.7968 155.238 24.0135C154.908 24.2302 154.677 24.5725 154.542 25.0405L153.613 24.7675C153.773 24.1392 154.096 23.6517 154.581 23.305C155.067 22.9583 155.697 22.785 156.473 22.785C157.114 22.785 157.658 22.9063 158.104 23.149C158.555 23.3873 158.873 23.734 159.06 24.189C159.146 24.3927 159.203 24.6202 159.229 24.8715C159.255 25.1228 159.268 25.3785 159.268 25.6385V30H158.416V28.2385L158.663 28.3425C158.425 28.9448 158.054 29.4042 157.552 29.7205C157.049 30.0368 156.447 30.195 155.745 30.195ZM155.855 29.3695C156.302 29.3695 156.692 29.2893 157.025 29.129C157.359 28.9687 157.628 28.7498 157.831 28.4725C158.035 28.1908 158.167 27.8745 158.228 27.5235C158.28 27.2982 158.308 27.0512 158.312 26.7825C158.317 26.5095 158.319 26.3058 158.319 26.1715L158.683 26.36C158.358 26.4033 158.005 26.4467 157.623 26.49C157.246 26.5333 156.874 26.5832 156.505 26.6395C156.141 26.6958 155.812 26.763 155.517 26.841C155.318 26.8973 155.125 26.9775 154.939 27.0815C154.752 27.1812 154.599 27.3155 154.477 27.4845C154.36 27.6535 154.302 27.8637 154.302 28.115C154.302 28.3187 154.352 28.5158 154.451 28.7065C154.555 28.8972 154.72 29.0553 154.945 29.181C155.175 29.3067 155.478 29.3695 155.855 29.3695ZM169.332 30L169.338 25.3915C169.338 24.8498 169.187 24.4252 168.883 24.1175C168.584 23.8055 168.203 23.6495 167.739 23.6495C167.475 23.6495 167.217 23.7102 166.966 23.8315C166.714 23.9528 166.506 24.1478 166.342 24.4165C166.181 24.6852 166.101 25.0362 166.101 25.4695L165.536 25.307C165.523 24.8043 165.62 24.3645 165.828 23.9875C166.041 23.6105 166.331 23.318 166.699 23.11C167.072 22.8977 167.492 22.7915 167.96 22.7915C168.667 22.7915 169.232 23.0103 169.657 23.448C170.081 23.8813 170.294 24.4685 170.294 25.2095L170.287 30H169.332ZM160.953 30V22.98H161.811V24.709H161.915V30H160.953ZM165.152 30L165.159 25.4565C165.159 24.8975 165.009 24.4577 164.71 24.137C164.416 23.812 164.026 23.6495 163.54 23.6495C163.055 23.6495 162.663 23.8163 162.364 24.15C162.065 24.4793 161.915 24.9192 161.915 25.4695L161.343 25.1575C161.343 24.7068 161.449 24.3038 161.662 23.9485C161.874 23.5888 162.164 23.3072 162.533 23.1035C162.901 22.8955 163.319 22.7915 163.787 22.7915C164.234 22.7915 164.63 22.8868 164.977 23.0775C165.328 23.2682 165.603 23.5455 165.802 23.9095C166.002 24.2735 166.101 24.7155 166.101 25.2355L166.095 30H165.152ZM174.452 26.3145V25.4955H179.912V26.3145H174.452ZM186.213 30.195C185.685 30.195 185.241 30.0997 184.881 29.909C184.526 29.7183 184.259 29.4648 184.081 29.1485C183.904 28.8322 183.815 28.4877 183.815 28.115C183.815 27.7337 183.891 27.4087 184.042 27.14C184.198 26.867 184.409 26.6438 184.673 26.4705C184.942 26.2972 185.251 26.165 185.602 26.074C185.958 25.9873 186.35 25.9115 186.779 25.8465C187.212 25.7772 187.635 25.7187 188.046 25.671C188.462 25.619 188.826 25.5692 189.138 25.5215L188.8 25.7295C188.813 25.0362 188.679 24.5227 188.397 24.189C188.116 23.8553 187.626 23.6885 186.928 23.6885C186.447 23.6885 186.04 23.7968 185.706 24.0135C185.377 24.2302 185.145 24.5725 185.011 25.0405L184.081 24.7675C184.242 24.1392 184.565 23.6517 185.05 23.305C185.535 22.9583 186.166 22.785 186.941 22.785C187.583 22.785 188.127 22.9063 188.573 23.149C189.024 23.3873 189.342 23.734 189.528 24.189C189.615 24.3927 189.671 24.6202 189.697 24.8715C189.723 25.1228 189.736 25.3785 189.736 25.6385V30H188.885V28.2385L189.132 28.3425C188.894 28.9448 188.523 29.4042 188.02 29.7205C187.518 30.0368 186.915 30.195 186.213 30.195ZM186.324 29.3695C186.77 29.3695 187.16 29.2893 187.494 29.129C187.828 28.9687 188.096 28.7498 188.3 28.4725C188.504 28.1908 188.636 27.8745 188.696 27.5235C188.748 27.2982 188.777 27.0512 188.781 26.7825C188.785 26.5095 188.787 26.3058 188.787 26.1715L189.151 26.36C188.826 26.4033 188.473 26.4467 188.092 26.49C187.715 26.5333 187.342 26.5832 186.974 26.6395C186.61 26.6958 186.281 26.763 185.986 26.841C185.787 26.8973 185.594 26.9775 185.407 27.0815C185.221 27.1812 185.067 27.3155 184.946 27.4845C184.829 27.6535 184.77 27.8637 184.77 28.115C184.77 28.3187 184.82 28.5158 184.92 28.7065C185.024 28.8972 185.189 29.0553 185.414 29.181C185.644 29.3067 185.947 29.3695 186.324 29.3695ZM3.6985 53.315C3.33883 53.315 2.9835 53.2608 2.6325 53.1525C2.28583 53.0485 1.96517 52.8817 1.6705 52.652C1.37583 52.4267 1.12883 52.132 0.9295 51.768L1.794 51.287C1.989 51.677 2.262 51.9565 2.613 52.1255C2.96833 52.2988 3.33017 52.3855 3.6985 52.3855C4.2055 52.3855 4.615 52.2902 4.927 52.0995C5.24333 51.9132 5.473 51.6358 5.616 51.2675C5.759 50.8992 5.82833 50.4398 5.824 49.8895V48.0175H5.9345V42.98H6.786V49.9025C6.786 50.1018 6.7795 50.2925 6.7665 50.4745C6.75783 50.6608 6.73833 50.8428 6.708 51.0205C6.62567 51.5448 6.4545 51.976 6.1945 52.314C5.93883 52.652 5.60083 52.9033 5.1805 53.068C4.7645 53.2327 4.2705 53.315 3.6985 53.315ZM3.6335 50.195C2.97917 50.195 2.42017 50.0325 1.9565 49.7075C1.49283 49.3782 1.1375 48.934 0.8905 48.375C0.6435 47.816 0.52 47.1855 0.52 46.4835C0.52 45.7858 0.641333 45.1575 0.884 44.5985C1.131 44.0395 1.48417 43.5975 1.9435 43.2725C2.40283 42.9475 2.95317 42.785 3.5945 42.785C4.25317 42.785 4.80783 42.9453 5.2585 43.266C5.70917 43.5867 6.04933 44.0265 6.279 44.5855C6.513 45.1402 6.63 45.7728 6.63 46.4835C6.63 47.1812 6.51517 47.8117 6.2855 48.375C6.05583 48.934 5.71783 49.3782 5.2715 49.7075C4.82517 50.0325 4.27917 50.195 3.6335 50.195ZM3.731 49.3045C4.22933 49.3045 4.641 49.1832 4.966 48.9405C5.291 48.6978 5.53367 48.3642 5.694 47.9395C5.85433 47.5105 5.9345 47.0252 5.9345 46.4835C5.9345 45.9332 5.85433 45.4478 5.694 45.0275C5.53367 44.6028 5.291 44.2713 4.966 44.033C4.64533 43.7947 4.24017 43.6755 3.7505 43.6755C3.24783 43.6755 2.83183 43.799 2.5025 44.046C2.17317 44.293 1.92833 44.6288 1.768 45.0535C1.612 45.4782 1.534 45.9548 1.534 46.4835C1.534 47.0165 1.61417 47.4975 1.7745 47.9265C1.93917 48.3512 2.184 48.687 2.509 48.934C2.834 49.181 3.24133 49.3045 3.731 49.3045ZM10.6119 50.195C10.0832 50.195 9.63903 50.0997 9.27936 49.909C8.92403 49.7183 8.65753 49.4648 8.47986 49.1485C8.30219 48.8322 8.21336 48.4877 8.21336 48.115C8.21336 47.7337 8.28919 47.4087 8.44086 47.14C8.59686 46.867 8.80703 46.6438 9.07136 46.4705C9.34003 46.2972 9.64986 46.165 10.0009 46.074C10.3562 45.9873 10.7484 45.9115 11.1774 45.8465C11.6107 45.7772 12.0332 45.7187 12.4449 45.671C12.8609 45.619 13.2249 45.5692 13.5369 45.5215L13.1989 45.7295C13.2119 45.0362 13.0775 44.5227 12.7959 44.189C12.5142 43.8553 12.0245 43.6885 11.3269 43.6885C10.8459 43.6885 10.4385 43.7968 10.1049 44.0135C9.77553 44.2302 9.54369 44.5725 9.40936 45.0405L8.47986 44.7675C8.64019 44.1392 8.96303 43.6517 9.44836 43.305C9.93369 42.9583 10.5642 42.785 11.3399 42.785C11.9812 42.785 12.525 42.9063 12.9714 43.149C13.422 43.3873 13.7405 43.734 13.9269 44.189C14.0135 44.3927 14.0699 44.6202 14.0959 44.8715C14.1219 45.1228 14.1349 45.3785 14.1349 45.6385V50H13.2834V48.2385L13.5304 48.3425C13.292 48.9448 12.9215 49.4042 12.4189 49.7205C11.9162 50.0368 11.3139 50.195 10.6119 50.195ZM10.7224 49.3695C11.1687 49.3695 11.5587 49.2893 11.8924 49.129C12.226 48.9687 12.4947 48.7498 12.6984 48.4725C12.902 48.1908 13.0342 47.8745 13.0949 47.5235C13.1469 47.2982 13.175 47.0512 13.1794 46.7825C13.1837 46.5095 13.1859 46.3058 13.1859 46.1715L13.5499 46.36C13.2249 46.4033 12.8717 46.4467 12.4904 46.49C12.1134 46.5333 11.7407 46.5832 11.3724 46.6395C11.0084 46.6958 10.679 46.763 10.3844 46.841C10.185 46.8973 9.99219 46.9775 9.80586 47.0815C9.61953 47.1812 9.46569 47.3155 9.34436 47.4845C9.22736 47.6535 9.16886 47.8637 9.16886 48.115C9.16886 48.3187 9.21869 48.5158 9.31836 48.7065C9.42236 48.8972 9.58703 49.0553 9.81236 49.181C10.042 49.3067 10.3454 49.3695 10.7224 49.3695ZM24.199 50L24.2055 45.3915C24.2055 44.8498 24.0538 44.4252 23.7505 44.1175C23.4515 43.8055 23.0702 43.6495 22.6065 43.6495C22.3422 43.6495 22.0843 43.7102 21.833 43.8315C21.5817 43.9528 21.3737 44.1478 21.209 44.4165C21.0487 44.6852 20.9685 45.0362 20.9685 45.4695L20.403 45.307C20.39 44.8043 20.4875 44.3645 20.6955 43.9875C20.9078 43.6105 21.1982 43.318 21.5665 43.11C21.9392 42.8977 22.3595 42.7915 22.8275 42.7915C23.5338 42.7915 24.0993 43.0103 24.524 43.448C24.9487 43.8813 25.161 44.4685 25.161 45.2095L25.1545 50H24.199ZM15.8205 50V42.98H16.6785V44.709H16.7825V50H15.8205ZM20.0195 50L20.026 45.4565C20.026 44.8975 19.8765 44.4577 19.5775 44.137C19.2828 43.812 18.8928 43.6495 18.4075 43.6495C17.9222 43.6495 17.53 43.8163 17.231 44.15C16.932 44.4793 16.7825 44.9192 16.7825 45.4695L16.2105 45.1575C16.2105 44.7068 16.3167 44.3038 16.529 43.9485C16.7413 43.5888 17.0317 43.3072 17.4 43.1035C17.7683 42.8955 18.1865 42.7915 18.6545 42.7915C19.1008 42.7915 19.4973 42.8868 19.844 43.0775C20.195 43.2682 20.4702 43.5455 20.6695 43.9095C20.8688 44.2735 20.9685 44.7155 20.9685 45.2355L20.962 50H20.0195ZM29.7789 50.195C29.0943 50.195 28.5006 50.0433 27.9979 49.74C27.4996 49.4367 27.1118 49.0098 26.8344 48.4595C26.5571 47.9092 26.4184 47.2635 26.4184 46.5225C26.4184 45.7555 26.5549 45.0925 26.8279 44.5335C27.1009 43.9745 27.4844 43.5433 27.9784 43.24C28.4768 42.9367 29.0639 42.785 29.7399 42.785C30.4333 42.785 31.0248 42.9453 31.5144 43.266C32.0041 43.5823 32.3746 44.0373 32.6259 44.631C32.8773 45.2247 32.9921 45.9332 32.9704 46.7565H31.9954V46.4185C31.9781 45.5085 31.7809 44.8217 31.4039 44.358C31.0313 43.8943 30.4853 43.6625 29.7659 43.6625C29.0119 43.6625 28.4334 43.9073 28.0304 44.397C27.6318 44.8867 27.4324 45.5843 27.4324 46.49C27.4324 47.374 27.6318 48.0608 28.0304 48.5505C28.4334 49.0358 29.0033 49.2785 29.7399 49.2785C30.2426 49.2785 30.6803 49.1637 31.0529 48.934C31.4299 48.7 31.7268 48.3642 31.9434 47.9265L32.8339 48.271C32.5566 48.882 32.1471 49.3565 31.6054 49.6945C31.0681 50.0282 30.4593 50.195 29.7789 50.195ZM27.0944 46.7565V45.957H32.4569V46.7565H27.0944ZM34.2829 46.3145V45.4955H38.1829V46.3145H34.2829ZM42.7839 50.195C42.0776 50.195 41.4796 50.0368 40.9899 49.7205C40.5002 49.4042 40.1276 48.9687 39.8719 48.414C39.6206 47.855 39.4906 47.2137 39.4819 46.49C39.4906 45.7533 39.6249 45.1077 39.8849 44.553C40.1449 43.994 40.5197 43.5607 41.0094 43.253C41.4991 42.941 42.0927 42.785 42.7904 42.785C43.5011 42.785 44.1186 42.9583 44.6429 43.305C45.1716 43.6517 45.5334 44.1262 45.7284 44.7285L44.7924 45.0275C44.6277 44.6072 44.3656 44.2822 44.0059 44.0525C43.6506 43.8185 43.2432 43.7015 42.7839 43.7015C42.2682 43.7015 41.8414 43.8207 41.5034 44.059C41.1654 44.293 40.9141 44.6202 40.7494 45.0405C40.5847 45.4608 40.5002 45.944 40.4959 46.49C40.5046 47.3307 40.6996 48.0067 41.0809 48.518C41.4622 49.025 42.0299 49.2785 42.7839 49.2785C43.2606 49.2785 43.6657 49.1702 43.9994 48.9535C44.3374 48.7325 44.5931 48.4118 44.7664 47.9915L45.7284 48.2775C45.4684 48.9015 45.0871 49.3782 44.5844 49.7075C44.0817 50.0325 43.4816 50.195 42.7839 50.195ZM52.1402 50V46.4185C52.1402 46.0285 52.1033 45.671 52.0297 45.346C51.956 45.0167 51.8368 44.7307 51.6722 44.488C51.5118 44.241 51.3017 44.0503 51.0417 43.916C50.786 43.7817 50.474 43.7145 50.1057 43.7145C49.7677 43.7145 49.4687 43.773 49.2087 43.89C48.953 44.007 48.7363 44.176 48.5587 44.397C48.3853 44.6137 48.2532 44.878 48.1622 45.19C48.0712 45.502 48.0257 45.8573 48.0257 46.256L47.3497 46.1065C47.3497 45.3872 47.4753 44.7827 47.7267 44.293C47.978 43.8033 48.3247 43.4328 48.7667 43.1815C49.2087 42.9302 49.7157 42.8045 50.2877 42.8045C50.708 42.8045 51.0742 42.8695 51.3862 42.9995C51.7025 43.1295 51.969 43.305 52.1857 43.526C52.4067 43.747 52.5843 44.0005 52.7187 44.2865C52.853 44.5682 52.9505 44.8693 53.0112 45.19C53.0718 45.5063 53.1022 45.8227 53.1022 46.139V50H52.1402ZM47.0637 50V40.64H47.9282V45.9245H48.0257V50H47.0637ZM56.7974 50.195C56.2687 50.195 55.8246 50.0997 55.4649 49.909C55.1096 49.7183 54.8431 49.4648 54.6654 49.1485C54.4877 48.8322 54.3989 48.4877 54.3989 48.115C54.3989 47.7337 54.4747 47.4087 54.6264 47.14C54.7824 46.867 54.9926 46.6438 55.2569 46.4705C55.5256 46.2972 55.8354 46.165 56.1864 46.074C56.5417 45.9873 56.9339 45.9115 57.3629 45.8465C57.7962 45.7772 58.2187 45.7187 58.6304 45.671C59.0464 45.619 59.4104 45.5692 59.7224 45.5215L59.3844 45.7295C59.3974 45.0362 59.2631 44.5227 58.9814 44.189C58.6997 43.8553 58.2101 43.6885 57.5124 43.6885C57.0314 43.6885 56.6241 43.7968 56.2904 44.0135C55.9611 44.2302 55.7292 44.5725 55.5949 45.0405L54.6654 44.7675C54.8257 44.1392 55.1486 43.6517 55.6339 43.305C56.1192 42.9583 56.7497 42.785 57.5254 42.785C58.1667 42.785 58.7106 42.9063 59.1569 43.149C59.6076 43.3873 59.9261 43.734 60.1124 44.189C60.1991 44.3927 60.2554 44.6202 60.2814 44.8715C60.3074 45.1228 60.3204 45.3785 60.3204 45.6385V50H59.4689V48.2385L59.7159 48.3425C59.4776 48.9448 59.1071 49.4042 58.6044 49.7205C58.1017 50.0368 57.4994 50.195 56.7974 50.195ZM56.9079 49.3695C57.3542 49.3695 57.7442 49.2893 58.0779 49.129C58.4116 48.9687 58.6802 48.7498 58.8839 48.4725C59.0876 48.1908 59.2197 47.8745 59.2804 47.5235C59.3324 47.2982 59.3606 47.0512 59.3649 46.7825C59.3692 46.5095 59.3714 46.3058 59.3714 46.1715L59.7354 46.36C59.4104 46.4033 59.0572 46.4467 58.6759 46.49C58.2989 46.5333 57.9262 46.5832 57.5579 46.6395C57.1939 46.6958 56.8646 46.763 56.5699 46.841C56.3706 46.8973 56.1777 46.9775 55.9914 47.0815C55.8051 47.1812 55.6512 47.3155 55.5299 47.4845C55.4129 47.6535 55.3544 47.8637 55.3544 48.115C55.3544 48.3187 55.4042 48.5158 55.5039 48.7065C55.6079 48.8972 55.7726 49.0553 55.9979 49.181C56.2276 49.3067 56.5309 49.3695 56.9079 49.3695ZM67.0825 50V46.4185C67.0825 46.0285 67.0457 45.671 66.972 45.346C66.8984 45.0167 66.7792 44.7307 66.6145 44.488C66.4542 44.241 66.244 44.0503 65.984 43.916C65.7284 43.7817 65.4164 43.7145 65.048 43.7145C64.71 43.7145 64.411 43.773 64.151 43.89C63.8954 44.007 63.6787 44.176 63.501 44.397C63.3277 44.6137 63.1955 44.878 63.1045 45.19C63.0135 45.502 62.968 45.8573 62.968 46.256L62.292 46.1065C62.292 45.3872 62.4177 44.7827 62.669 44.293C62.9204 43.8033 63.267 43.4328 63.709 43.1815C64.151 42.9302 64.658 42.8045 65.23 42.8045C65.6504 42.8045 66.0165 42.8695 66.3285 42.9995C66.6449 43.1295 66.9114 43.305 67.128 43.526C67.349 43.747 67.5267 44.0005 67.661 44.2865C67.7954 44.5682 67.8929 44.8693 67.9535 45.19C68.0142 45.5063 68.0445 45.8227 68.0445 46.139V50H67.0825ZM62.006 50V42.98H62.8705V44.709H62.968V50H62.006ZM72.5198 53.315C72.1601 53.315 71.8048 53.2608 71.4538 53.1525C71.1071 53.0485 70.7865 52.8817 70.4918 52.652C70.1971 52.4267 69.9501 52.132 69.7508 51.768L70.6153 51.287C70.8103 51.677 71.0833 51.9565 71.4343 52.1255C71.7896 52.2988 72.1515 52.3855 72.5198 52.3855C73.0268 52.3855 73.4363 52.2902 73.7483 52.0995C74.0646 51.9132 74.2943 51.6358 74.4373 51.2675C74.5803 50.8992 74.6496 50.4398 74.6453 49.8895V48.0175H74.7558V42.98H75.6073V49.9025C75.6073 50.1018 75.6008 50.2925 75.5878 50.4745C75.5791 50.6608 75.5596 50.8428 75.5293 51.0205C75.447 51.5448 75.2758 51.976 75.0158 52.314C74.7601 52.652 74.4221 52.9033 74.0018 53.068C73.5858 53.2327 73.0918 53.315 72.5198 53.315ZM72.4548 50.195C71.8005 50.195 71.2415 50.0325 70.7778 49.7075C70.3141 49.3782 69.9588 48.934 69.7118 48.375C69.4648 47.816 69.3413 47.1855 69.3413 46.4835C69.3413 45.7858 69.4626 45.1575 69.7053 44.5985C69.9523 44.0395 70.3055 43.5975 70.7648 43.2725C71.2241 42.9475 71.7745 42.785 72.4158 42.785C73.0745 42.785 73.6291 42.9453 74.0798 43.266C74.5305 43.5867 74.8706 44.0265 75.1003 44.5855C75.3343 45.1402 75.4513 45.7728 75.4513 46.4835C75.4513 47.1812 75.3365 47.8117 75.1068 48.375C74.8771 48.934 74.5391 49.3782 74.0928 49.7075C73.6465 50.0325 73.1005 50.195 72.4548 50.195ZM72.5523 49.3045C73.0506 49.3045 73.4623 49.1832 73.7873 48.9405C74.1123 48.6978 74.355 48.3642 74.5153 47.9395C74.6756 47.5105 74.7558 47.0252 74.7558 46.4835C74.7558 45.9332 74.6756 45.4478 74.5153 45.0275C74.355 44.6028 74.1123 44.2713 73.7873 44.033C73.4666 43.7947 73.0615 43.6755 72.5718 43.6755C72.0691 43.6755 71.6531 43.799 71.3238 44.046C70.9945 44.293 70.7496 44.6288 70.5893 45.0535C70.4333 45.4782 70.3553 45.9548 70.3553 46.4835C70.3553 47.0165 70.4355 47.4975 70.5958 47.9265C70.7605 48.3512 71.0053 48.687 71.3303 48.934C71.6553 49.181 72.0626 49.3045 72.5523 49.3045ZM80.3951 50.195C79.7105 50.195 79.1168 50.0433 78.6141 49.74C78.1158 49.4367 77.728 49.0098 77.4506 48.4595C77.1733 47.9092 77.0346 47.2635 77.0346 46.5225C77.0346 45.7555 77.1711 45.0925 77.4441 44.5335C77.7171 43.9745 78.1006 43.5433 78.5946 43.24C79.093 42.9367 79.6801 42.785 80.3561 42.785C81.0495 42.785 81.641 42.9453 82.1306 43.266C82.6203 43.5823 82.9908 44.0373 83.2421 44.631C83.4935 45.2247 83.6083 45.9332 83.5866 46.7565H82.6116V46.4185C82.5943 45.5085 82.3971 44.8217 82.0201 44.358C81.6475 43.8943 81.1015 43.6625 80.3821 43.6625C79.6281 43.6625 79.0496 43.9073 78.6466 44.397C78.248 44.8867 78.0486 45.5843 78.0486 46.49C78.0486 47.374 78.248 48.0608 78.6466 48.5505C79.0496 49.0358 79.6195 49.2785 80.3561 49.2785C80.8588 49.2785 81.2965 49.1637 81.6691 48.934C82.0461 48.7 82.343 48.3642 82.5596 47.9265L83.4501 48.271C83.1728 48.882 82.7633 49.3565 82.2216 49.6945C81.6843 50.0282 81.0755 50.195 80.3951 50.195ZM77.7106 46.7565V45.957H83.0731V46.7565H77.7106ZM85.0291 50V42.98H85.8871V44.67L85.7181 44.449C85.7961 44.241 85.898 44.0503 86.0236 43.877C86.1493 43.6993 86.2858 43.5542 86.4331 43.4415C86.6151 43.2812 86.8275 43.1598 87.0701 43.0775C87.3128 42.9908 87.5576 42.941 87.8046 42.928C88.0516 42.9107 88.277 42.928 88.4806 42.98V43.877C88.225 43.812 87.9455 43.7968 87.6421 43.8315C87.3388 43.8662 87.0593 43.9875 86.8036 44.1955C86.5696 44.3775 86.3941 44.5963 86.2771 44.852C86.1601 45.1033 86.0821 45.372 86.0431 45.658C86.0041 45.9397 85.9846 46.2192 85.9846 46.4965V50H85.0291ZM92.4463 41.6475V40.575H93.4018V41.6475H92.4463ZM92.4463 50V42.98H93.4018V50H92.4463ZM100.42 50V46.4185C100.42 46.0285 100.384 45.671 100.31 45.346C100.236 45.0167 100.117 44.7307 99.9524 44.488C99.7921 44.241 99.5819 44.0503 99.3219 43.916C99.0663 43.7817 98.7543 43.7145 98.3859 43.7145C98.0479 43.7145 97.7489 43.773 97.4889 43.89C97.2333 44.007 97.0166 44.176 96.8389 44.397C96.6656 44.6137 96.5334 44.878 96.4424 45.19C96.3514 45.502 96.3059 45.8573 96.3059 46.256L95.6299 46.1065C95.6299 45.3872 95.7556 44.7827 96.0069 44.293C96.2583 43.8033 96.6049 43.4328 97.0469 43.1815C97.4889 42.9302 97.9959 42.8045 98.5679 42.8045C98.9883 42.8045 99.3544 42.8695 99.6664 42.9995C99.9828 43.1295 100.249 43.305 100.466 43.526C100.687 43.747 100.865 44.0005 100.999 44.2865C101.133 44.5682 101.231 44.8693 101.291 45.19C101.352 45.5063 101.382 45.8227 101.382 46.139V50H100.42ZM95.3439 50V42.98H96.2084V44.709H96.3059V50H95.3439ZM109.494 50C109.099 50.0823 108.709 50.1148 108.324 50.0975C107.942 50.0802 107.6 49.9978 107.297 49.8505C106.998 49.7032 106.77 49.4735 106.614 49.1615C106.489 48.9015 106.419 48.6393 106.406 48.375C106.398 48.1063 106.393 47.8008 106.393 47.4585V41.03H107.342V47.4195C107.342 47.7142 107.344 47.9612 107.349 48.1605C107.357 48.3555 107.403 48.5288 107.485 48.6805C107.641 48.9708 107.888 49.1442 108.226 49.2005C108.569 49.2568 108.991 49.2438 109.494 49.1615V50ZM104.892 43.799V42.98H109.494V43.799H104.892ZM115.947 50V46.4185C115.947 46.0285 115.91 45.671 115.836 45.346C115.763 45.0167 115.643 44.7307 115.479 44.488C115.318 44.241 115.108 44.0503 114.848 43.916C114.593 43.7817 114.281 43.7145 113.912 43.7145C113.574 43.7145 113.275 43.773 113.015 43.89C112.76 44.007 112.543 44.176 112.365 44.397C112.192 44.6137 112.06 44.878 111.969 45.19C111.878 45.502 111.832 45.8573 111.832 46.256L111.156 46.1065C111.156 45.3872 111.282 44.7827 111.533 44.293C111.785 43.8033 112.131 43.4328 112.573 43.1815C113.015 42.9302 113.522 42.8045 114.094 42.8045C114.515 42.8045 114.881 42.8695 115.193 42.9995C115.509 43.1295 115.776 43.305 115.992 43.526C116.213 43.747 116.391 44.0005 116.525 44.2865C116.66 44.5682 116.757 44.8693 116.818 45.19C116.878 45.5063 116.909 45.8227 116.909 46.139V50H115.947ZM110.87 50V40.64H111.735V45.9245H111.832V50H110.87ZM121.566 50.195C120.881 50.195 120.288 50.0433 119.785 49.74C119.287 49.4367 118.899 49.0098 118.622 48.4595C118.344 47.9092 118.206 47.2635 118.206 46.5225C118.206 45.7555 118.342 45.0925 118.615 44.5335C118.888 43.9745 119.272 43.5433 119.766 43.24C120.264 42.9367 120.851 42.785 121.527 42.785C122.22 42.785 122.812 42.9453 123.302 43.266C123.791 43.5823 124.162 44.0373 124.413 44.631C124.664 45.2247 124.779 45.9332 124.758 46.7565H123.783V46.4185C123.765 45.5085 123.568 44.8217 123.191 44.358C122.818 43.8943 122.272 43.6625 121.553 43.6625C120.799 43.6625 120.221 43.9073 119.818 44.397C119.419 44.8867 119.22 45.5843 119.22 46.49C119.22 47.374 119.419 48.0608 119.818 48.5505C120.221 49.0358 120.79 49.2785 121.527 49.2785C122.03 49.2785 122.467 49.1637 122.84 48.934C123.217 48.7 123.514 48.3642 123.731 47.9265L124.621 48.271C124.344 48.882 123.934 49.3565 123.393 49.6945C122.855 50.0282 122.246 50.195 121.566 50.195ZM118.882 46.7565V45.957H124.244V46.7565H118.882ZM130.298 50L128.153 42.9735L129.108 42.98L130.772 48.4335L132.443 42.98H133.314L134.984 48.4335L136.661 42.98H137.61L135.465 50H134.633L132.878 44.41L131.13 50H130.298ZM141.459 50.195C140.761 50.195 140.165 50.0368 139.671 49.7205C139.177 49.4042 138.798 48.9665 138.534 48.4075C138.269 47.8485 138.137 47.2072 138.137 46.4835C138.137 45.7468 138.272 45.1012 138.54 44.5465C138.809 43.9918 139.19 43.5607 139.684 43.253C140.183 42.941 140.774 42.785 141.459 42.785C142.161 42.785 142.759 42.9432 143.253 43.2595C143.751 43.5715 144.13 44.007 144.39 44.566C144.655 45.1207 144.787 45.7598 144.787 46.4835C144.787 47.2202 144.655 47.868 144.39 48.427C144.126 48.9817 143.745 49.415 143.246 49.727C142.748 50.039 142.152 50.195 141.459 50.195ZM141.459 49.2785C142.239 49.2785 142.819 49.0207 143.201 48.505C143.582 47.985 143.773 47.3112 143.773 46.4835C143.773 45.6342 143.58 44.9582 143.194 44.4555C142.813 43.9528 142.234 43.7015 141.459 43.7015C140.934 43.7015 140.501 43.8207 140.159 44.059C139.821 44.293 139.567 44.6202 139.398 45.0405C139.234 45.4565 139.151 45.9375 139.151 46.4835C139.151 47.3285 139.346 48.0067 139.736 48.518C140.126 49.025 140.7 49.2785 141.459 49.2785ZM146.221 50V42.98H147.079V44.67L146.91 44.449C146.988 44.241 147.089 44.0503 147.215 43.877C147.341 43.6993 147.477 43.5542 147.625 43.4415C147.807 43.2812 148.019 43.1598 148.262 43.0775C148.504 42.9908 148.749 42.941 148.996 42.928C149.243 42.9107 149.468 42.928 149.672 42.98V43.877C149.416 43.812 149.137 43.7968 148.834 43.8315C148.53 43.8662 148.251 43.9875 147.995 44.1955C147.761 44.3775 147.586 44.5963 147.469 44.852C147.352 45.1033 147.274 45.372 147.235 45.658C147.196 45.9397 147.176 46.2192 147.176 46.4965V50H146.221ZM151.035 50V40.445H151.991V50H151.035ZM156.663 50.195C156.008 50.195 155.449 50.0325 154.986 49.7075C154.522 49.3782 154.167 48.934 153.92 48.375C153.673 47.816 153.549 47.1855 153.549 46.4835C153.549 45.7858 153.671 45.1575 153.913 44.5985C154.16 44.0395 154.513 43.5975 154.973 43.2725C155.432 42.9475 155.982 42.785 156.624 42.785C157.282 42.785 157.837 42.9453 158.288 43.266C158.738 43.5867 159.079 44.0265 159.308 44.5855C159.542 45.1402 159.659 45.7728 159.659 46.4835C159.659 47.1812 159.544 47.8117 159.315 48.375C159.085 48.934 158.747 49.3782 158.301 49.7075C157.854 50.0325 157.308 50.195 156.663 50.195ZM156.76 49.3045C157.259 49.3045 157.67 49.1832 157.995 48.9405C158.32 48.6978 158.563 48.3642 158.723 47.9395C158.884 47.5105 158.964 47.0252 158.964 46.4835C158.964 45.9332 158.884 45.4478 158.723 45.0275C158.563 44.6028 158.32 44.2713 157.995 44.033C157.675 43.7947 157.269 43.6755 156.78 43.6755C156.277 43.6755 155.861 43.799 155.532 44.046C155.202 44.293 154.958 44.6288 154.797 45.0535C154.641 45.4782 154.563 45.9548 154.563 46.4835C154.563 47.0165 154.643 47.4975 154.804 47.9265C154.968 48.3512 155.213 48.687 155.538 48.934C155.863 49.181 156.271 49.3045 156.76 49.3045ZM158.964 50V44.7155H158.86V40.64H159.822V50H158.964ZM167.179 50.195C166.482 50.195 165.886 50.0368 165.392 49.7205C164.898 49.4042 164.519 48.9665 164.254 48.4075C163.99 47.8485 163.858 47.2072 163.858 46.4835C163.858 45.7468 163.992 45.1012 164.261 44.5465C164.53 43.9918 164.911 43.5607 165.405 43.253C165.903 42.941 166.495 42.785 167.179 42.785C167.881 42.785 168.479 42.9432 168.973 43.2595C169.472 43.5715 169.851 44.007 170.111 44.566C170.375 45.1207 170.507 45.7598 170.507 46.4835C170.507 47.2202 170.375 47.868 170.111 48.427C169.847 48.9817 169.465 49.415 168.967 49.727C168.469 50.039 167.873 50.195 167.179 50.195ZM167.179 49.2785C167.959 49.2785 168.54 49.0207 168.921 48.505C169.303 47.985 169.493 47.3112 169.493 46.4835C169.493 45.6342 169.301 44.9582 168.915 44.4555C168.534 43.9528 167.955 43.7015 167.179 43.7015C166.655 43.7015 166.222 43.8207 165.879 44.059C165.541 44.293 165.288 44.6202 165.119 45.0405C164.954 45.4565 164.872 45.9375 164.872 46.4835C164.872 47.3285 165.067 48.0067 165.457 48.518C165.847 49.025 166.421 49.2785 167.179 49.2785ZM172.637 50V42.46C172.637 42.278 172.645 42.0982 172.663 41.9205C172.684 41.7428 172.726 41.5738 172.786 41.4135C172.847 41.2488 172.942 41.0972 173.072 40.9585C173.215 40.8025 173.371 40.6898 173.54 40.6205C173.709 40.5468 173.885 40.4992 174.067 40.4775C174.253 40.4558 174.435 40.445 174.613 40.445H175.51V41.251H174.678C174.314 41.251 174.041 41.3398 173.859 41.5175C173.681 41.6952 173.592 41.9747 173.592 42.356V50H172.637ZM171.421 43.799V42.98H175.51V43.799H171.421ZM181.772 50.1885C180.948 50.1885 180.27 50.0108 179.737 49.6555C179.209 49.3002 178.884 48.8062 178.762 48.1735L179.737 48.011C179.841 48.4097 180.077 48.7282 180.446 48.9665C180.818 49.2005 181.278 49.3175 181.824 49.3175C182.357 49.3175 182.777 49.207 183.085 48.986C183.392 48.7607 183.546 48.4552 183.546 48.0695C183.546 47.8528 183.496 47.6773 183.397 47.543C183.301 47.4043 183.104 47.2765 182.805 47.1595C182.506 47.0425 182.06 46.9038 181.466 46.7435C180.829 46.5702 180.331 46.3968 179.971 46.2235C179.612 46.0502 179.356 45.8508 179.204 45.6255C179.053 45.3958 178.977 45.1163 178.977 44.787C178.977 44.3883 179.089 44.0395 179.315 43.7405C179.54 43.4372 179.852 43.2032 180.251 43.0385C180.649 42.8695 181.113 42.785 181.642 42.785C182.17 42.785 182.643 42.8717 183.059 43.045C183.479 43.214 183.817 43.4523 184.073 43.76C184.328 44.0677 184.48 44.4252 184.528 44.8325L183.553 45.008C183.488 44.5963 183.282 44.2713 182.935 44.033C182.593 43.7903 182.157 43.6647 181.629 43.656C181.13 43.643 180.725 43.7383 180.413 43.942C180.101 44.1413 179.945 44.4078 179.945 44.7415C179.945 44.9278 180.002 45.0882 180.114 45.2225C180.227 45.3525 180.431 45.476 180.725 45.593C181.024 45.71 181.449 45.8378 181.999 45.9765C182.645 46.1412 183.152 46.3145 183.52 46.4965C183.889 46.6785 184.151 46.893 184.307 47.14C184.463 47.387 184.541 47.6925 184.541 48.0565C184.541 48.7195 184.294 49.2417 183.8 49.623C183.31 50 182.634 50.1885 181.772 50.1885ZM187.223 50L185.078 42.9735L186.034 42.98L187.698 48.4335L189.368 42.98H190.239L191.91 48.4335L193.587 42.98H194.536L192.391 50H191.559L189.804 44.41L188.055 50H187.223ZM198.423 50.195C197.739 50.195 197.145 50.0433 196.642 49.74C196.144 49.4367 195.756 49.0098 195.479 48.4595C195.202 47.9092 195.063 47.2635 195.063 46.5225C195.063 45.7555 195.199 45.0925 195.472 44.5335C195.745 43.9745 196.129 43.5433 196.623 43.24C197.121 42.9367 197.708 42.785 198.384 42.785C199.078 42.785 199.669 42.9453 200.159 43.266C200.649 43.5823 201.019 44.0373 201.27 44.631C201.522 45.2247 201.637 45.9332 201.615 46.7565H200.64V46.4185C200.623 45.5085 200.425 44.8217 200.048 44.358C199.676 43.8943 199.13 43.6625 198.41 43.6625C197.656 43.6625 197.078 43.9073 196.675 44.397C196.276 44.8867 196.077 45.5843 196.077 46.49C196.077 47.374 196.276 48.0608 196.675 48.5505C197.078 49.0358 197.648 49.2785 198.384 49.2785C198.887 49.2785 199.325 49.1637 199.697 48.934C200.074 48.7 200.371 48.3642 200.588 47.9265L201.478 48.271C201.201 48.882 200.792 49.3565 200.25 49.6945C199.713 50.0282 199.104 50.195 198.423 50.195ZM195.739 46.7565V45.957H201.101V46.7565H195.739ZM206.028 50.195C205.343 50.195 204.75 50.0433 204.247 49.74C203.749 49.4367 203.361 49.0098 203.083 48.4595C202.806 47.9092 202.667 47.2635 202.667 46.5225C202.667 45.7555 202.804 45.0925 203.077 44.5335C203.35 43.9745 203.733 43.5433 204.227 43.24C204.726 42.9367 205.313 42.785 205.989 42.785C206.682 42.785 207.274 42.9453 207.763 43.266C208.253 43.5823 208.624 44.0373 208.875 44.631C209.126 45.2247 209.241 45.9332 209.219 46.7565H208.244V46.4185C208.227 45.5085 208.03 44.8217 207.653 44.358C207.28 43.8943 206.734 43.6625 206.015 43.6625C205.261 43.6625 204.682 43.9073 204.279 44.397C203.881 44.8867 203.681 45.5843 203.681 46.49C203.681 47.374 203.881 48.0608 204.279 48.5505C204.682 49.0358 205.252 49.2785 205.989 49.2785C206.492 49.2785 206.929 49.1637 207.302 48.934C207.679 48.7 207.976 48.3642 208.192 47.9265L209.083 48.271C208.806 48.882 208.396 49.3565 207.854 49.6945C207.317 50.0282 206.708 50.195 206.028 50.195ZM203.343 46.7565V45.957H208.706V46.7565H203.343ZM214.484 50C214.09 50.0823 213.7 50.1148 213.314 50.0975C212.933 50.0802 212.59 49.9978 212.287 49.8505C211.988 49.7032 211.76 49.4735 211.604 49.1615C211.479 48.9015 211.409 48.6393 211.396 48.375C211.388 48.1063 211.383 47.8008 211.383 47.4585V41.03H212.332V47.4195C212.332 47.7142 212.335 47.9612 212.339 48.1605C212.348 48.3555 212.393 48.5288 212.475 48.6805C212.631 48.9708 212.878 49.1442 213.216 49.2005C213.559 49.2568 213.981 49.2438 214.484 49.1615V50ZM209.882 43.799V42.98H214.484V43.799H209.882ZM1.04 61.6475V60.575H1.9955V61.6475H1.04ZM1.04 70V62.98H1.9955V70H1.04ZM9.01418 70V66.4185C9.01418 66.0285 8.97735 65.671 8.90368 65.346C8.83001 65.0167 8.71085 64.7307 8.54618 64.488C8.38585 64.241 8.17568 64.0503 7.91568 63.916C7.66001 63.7817 7.34801 63.7145 6.97968 63.7145C6.64168 63.7145 6.34268 63.773 6.08268 63.89C5.82701 64.007 5.61035 64.176 5.43268 64.397C5.25935 64.6137 5.12718 64.878 5.03618 65.19C4.94518 65.502 4.89968 65.8573 4.89968 66.256L4.22368 66.1065C4.22368 65.3872 4.34935 64.7827 4.60068 64.293C4.85201 63.8033 5.19868 63.4328 5.64068 63.1815C6.08268 62.9302 6.58968 62.8045 7.16168 62.8045C7.58201 62.8045 7.94818 62.8695 8.26018 62.9995C8.57651 63.1295 8.84301 63.305 9.05968 63.526C9.28068 63.747 9.45835 64.0005 9.59268 64.2865C9.72701 64.5682 9.82451 64.8693 9.88518 65.19C9.94585 65.5063 9.97618 65.8227 9.97618 66.139V70H9.01418ZM3.93768 70V62.98H4.80218V64.709H4.89968V70H3.93768ZM14.3483 70.195C13.694 70.195 13.135 70.0325 12.6713 69.7075C12.2077 69.3782 11.8523 68.934 11.6053 68.375C11.3583 67.816 11.2348 67.1855 11.2348 66.4835C11.2348 65.7858 11.3562 65.1575 11.5988 64.5985C11.8458 64.0395 12.199 63.5975 12.6583 63.2725C13.1177 62.9475 13.668 62.785 14.3093 62.785C14.968 62.785 15.5227 62.9453 15.9733 63.266C16.424 63.5867 16.7642 64.0265 16.9938 64.5855C17.2278 65.1402 17.3448 65.7728 17.3448 66.4835C17.3448 67.1812 17.23 67.8117 17.0003 68.375C16.7707 68.934 16.4327 69.3782 15.9863 69.7075C15.54 70.0325 14.994 70.195 14.3483 70.195ZM14.4458 69.3045C14.9442 69.3045 15.3558 69.1832 15.6808 68.9405C16.0058 68.6978 16.2485 68.3642 16.4088 67.9395C16.5692 67.5105 16.6493 67.0252 16.6493 66.4835C16.6493 65.9332 16.5692 65.4478 16.4088 65.0275C16.2485 64.6028 16.0058 64.2713 15.6808 64.033C15.3602 63.7947 14.955 63.6755 14.4653 63.6755C13.9627 63.6755 13.5467 63.799 13.2173 64.046C12.888 64.293 12.6432 64.6288 12.4828 65.0535C12.3268 65.4782 12.2488 65.9548 12.2488 66.4835C12.2488 67.0165 12.329 67.4975 12.4893 67.9265C12.654 68.3512 12.8988 68.687 13.2238 68.934C13.5488 69.181 13.9562 69.3045 14.4458 69.3045ZM16.6493 70V64.7155H16.5453V60.64H17.5073V70H16.6493ZM22.0154 70.1755C21.5951 70.1755 21.2267 70.1105 20.9104 69.9805C20.5984 69.8505 20.3319 69.675 20.1109 69.454C19.8942 69.233 19.7187 68.9817 19.5844 68.7C19.4501 68.414 19.3526 68.1128 19.2919 67.7965C19.2312 67.4758 19.2009 67.1573 19.2009 66.841V62.98H20.1629V66.5615C20.1629 66.9472 20.1997 67.3047 20.2734 67.634C20.3471 67.9633 20.4641 68.2515 20.6244 68.4985C20.7891 68.7412 20.9992 68.9297 21.2549 69.064C21.5149 69.1983 21.8291 69.2655 22.1974 69.2655C22.5354 69.2655 22.8322 69.207 23.0879 69.09C23.3479 68.973 23.5646 68.8062 23.7379 68.5895C23.9156 68.3685 24.0499 68.102 24.1409 67.79C24.2319 67.4737 24.2774 67.1183 24.2774 66.724L24.9534 66.8735C24.9534 67.5928 24.8277 68.1973 24.5764 68.687C24.3251 69.1767 23.9784 69.5472 23.5364 69.7985C23.0944 70.0498 22.5874 70.1755 22.0154 70.1755ZM24.3749 70V68.271H24.2774V62.98H25.2329V70H24.3749ZM27.1796 70V60.445H28.1351V70H27.1796ZM32.8723 73.315C32.5127 73.315 32.1573 73.2608 31.8063 73.1525C31.4597 73.0485 31.139 72.8817 30.8443 72.652C30.5497 72.4267 30.3027 72.132 30.1033 71.768L30.9678 71.287C31.1628 71.677 31.4358 71.9565 31.7868 72.1255C32.1422 72.2988 32.504 72.3855 32.8723 72.3855C33.3793 72.3855 33.7888 72.2902 34.1008 72.0995C34.4172 71.9132 34.6468 71.6358 34.7898 71.2675C34.9328 70.8992 35.0022 70.4398 34.9978 69.8895V68.0175H35.1083V62.98H35.9598V69.9025C35.9598 70.1018 35.9533 70.2925 35.9403 70.4745C35.9317 70.6608 35.9122 70.8428 35.8818 71.0205C35.7995 71.5448 35.6283 71.976 35.3683 72.314C35.1127 72.652 34.7747 72.9033 34.3543 73.068C33.9383 73.2327 33.4443 73.315 32.8723 73.315ZM32.8073 70.195C32.153 70.195 31.594 70.0325 31.1303 69.7075C30.6667 69.3782 30.3113 68.934 30.0643 68.375C29.8173 67.816 29.6938 67.1855 29.6938 66.4835C29.6938 65.7858 29.8152 65.1575 30.0578 64.5985C30.3048 64.0395 30.658 63.5975 31.1173 63.2725C31.5767 62.9475 32.127 62.785 32.7683 62.785C33.427 62.785 33.9817 62.9453 34.4323 63.266C34.883 63.5867 35.2232 64.0265 35.4528 64.5855C35.6868 65.1402 35.8038 65.7728 35.8038 66.4835C35.8038 67.1812 35.689 67.8117 35.4593 68.375C35.2297 68.934 34.8917 69.3782 34.4453 69.7075C33.999 70.0325 33.453 70.195 32.8073 70.195ZM32.9048 69.3045C33.4032 69.3045 33.8148 69.1832 34.1398 68.9405C34.4648 68.6978 34.7075 68.3642 34.8678 67.9395C35.0282 67.5105 35.1083 67.0252 35.1083 66.4835C35.1083 65.9332 35.0282 65.4478 34.8678 65.0275C34.7075 64.6028 34.4648 64.2713 34.1398 64.033C33.8192 63.7947 33.414 63.6755 32.9243 63.6755C32.4217 63.6755 32.0057 63.799 31.6763 64.046C31.347 64.293 31.1022 64.6288 30.9418 65.0535C30.7858 65.4782 30.7078 65.9548 30.7078 66.4835C30.7078 67.0165 30.788 67.4975 30.9483 67.9265C31.113 68.3512 31.3578 68.687 31.6828 68.934C32.0078 69.181 32.4152 69.3045 32.9048 69.3045ZM40.7477 70.195C40.063 70.195 39.4694 70.0433 38.9667 69.74C38.4684 69.4367 38.0805 69.0098 37.8032 68.4595C37.5259 67.9092 37.3872 67.2635 37.3872 66.5225C37.3872 65.7555 37.5237 65.0925 37.7967 64.5335C38.0697 63.9745 38.4532 63.5433 38.9472 63.24C39.4455 62.9367 40.0327 62.785 40.7087 62.785C41.402 62.785 41.9935 62.9453 42.4832 63.266C42.9729 63.5823 43.3434 64.0373 43.5947 64.631C43.846 65.2247 43.9609 65.9332 43.9392 66.7565H42.9642V66.4185C42.9469 65.5085 42.7497 64.8217 42.3727 64.358C42 63.8943 41.454 63.6625 40.7347 63.6625C39.9807 63.6625 39.4022 63.9073 38.9992 64.397C38.6005 64.8867 38.4012 65.5843 38.4012 66.49C38.4012 67.374 38.6005 68.0608 38.9992 68.5505C39.4022 69.0358 39.972 69.2785 40.7087 69.2785C41.2114 69.2785 41.649 69.1637 42.0217 68.934C42.3987 68.7 42.6955 68.3642 42.9122 67.9265L43.8027 68.271C43.5254 68.882 43.1159 69.3565 42.5742 69.6945C42.0369 70.0282 41.428 70.195 40.7477 70.195ZM38.0632 66.7565V65.957H43.4257V66.7565H38.0632ZM50.2613 70V66.4185C50.2613 66.0285 50.2244 65.671 50.1508 65.346C50.0771 65.0167 49.9579 64.7307 49.7933 64.488C49.6329 64.241 49.4228 64.0503 49.1628 63.916C48.9071 63.7817 48.5951 63.7145 48.2268 63.7145C47.8888 63.7145 47.5898 63.773 47.3298 63.89C47.0741 64.007 46.8574 64.176 46.6798 64.397C46.5064 64.6137 46.3743 64.878 46.2833 65.19C46.1923 65.502 46.1468 65.8573 46.1468 66.256L45.4708 66.1065C45.4708 65.3872 45.5964 64.7827 45.8478 64.293C46.0991 63.8033 46.4458 63.4328 46.8878 63.1815C47.3298 62.9302 47.8368 62.8045 48.4088 62.8045C48.8291 62.8045 49.1953 62.8695 49.5073 62.9995C49.8236 63.1295 50.0901 63.305 50.3068 63.526C50.5278 63.747 50.7054 64.0005 50.8398 64.2865C50.9741 64.5682 51.0716 64.8693 51.1323 65.19C51.1929 65.5063 51.2233 65.8227 51.2233 66.139V70H50.2613ZM45.1848 70V62.98H46.0493V64.709H46.1468V70H45.1848ZM55.7839 70.195C55.0776 70.195 54.4796 70.0368 53.9899 69.7205C53.5002 69.4042 53.1276 68.9687 52.8719 68.414C52.6206 67.855 52.4906 67.2137 52.4819 66.49C52.4906 65.7533 52.6249 65.1077 52.8849 64.553C53.1449 63.994 53.5197 63.5607 54.0094 63.253C54.4991 62.941 55.0927 62.785 55.7904 62.785C56.5011 62.785 57.1186 62.9583 57.6429 63.305C58.1716 63.6517 58.5334 64.1262 58.7284 64.7285L57.7924 65.0275C57.6277 64.6072 57.3656 64.2822 57.0059 64.0525C56.6506 63.8185 56.2432 63.7015 55.7839 63.7015C55.2682 63.7015 54.8414 63.8207 54.5034 64.059C54.1654 64.293 53.9141 64.6202 53.7494 65.0405C53.5847 65.4608 53.5002 65.944 53.4959 66.49C53.5046 67.3307 53.6996 68.0067 54.0809 68.518C54.4622 69.025 55.0299 69.2785 55.7839 69.2785C56.2606 69.2785 56.6657 69.1702 56.9994 68.9535C57.3374 68.7325 57.5931 68.4118 57.7664 67.9915L58.7284 68.2775C58.4684 68.9015 58.0871 69.3782 57.5844 69.7075C57.0817 70.0325 56.4816 70.195 55.7839 70.195ZM62.8502 70.195C62.1656 70.195 61.5719 70.0433 61.0692 69.74C60.5709 69.4367 60.1831 69.0098 59.9057 68.4595C59.6284 67.9092 59.4897 67.2635 59.4897 66.5225C59.4897 65.7555 59.6262 65.0925 59.8992 64.5335C60.1722 63.9745 60.5557 63.5433 61.0497 63.24C61.5481 62.9367 62.1352 62.785 62.8112 62.785C63.5046 62.785 64.0961 62.9453 64.5857 63.266C65.0754 63.5823 65.4459 64.0373 65.6972 64.631C65.9486 65.2247 66.0634 65.9332 66.0417 66.7565H65.0667V66.4185C65.0494 65.5085 64.8522 64.8217 64.4752 64.358C64.1026 63.8943 63.5566 63.6625 62.8372 63.6625C62.0832 63.6625 61.5047 63.9073 61.1017 64.397C60.7031 64.8867 60.5037 65.5843 60.5037 66.49C60.5037 67.374 60.7031 68.0608 61.1017 68.5505C61.5047 69.0358 62.0746 69.2785 62.8112 69.2785C63.3139 69.2785 63.7516 69.1637 64.1242 68.934C64.5012 68.7 64.7981 68.3642 65.0147 67.9265L65.9052 68.271C65.6279 68.882 65.2184 69.3565 64.6767 69.6945C64.1394 70.0282 63.5306 70.195 62.8502 70.195ZM60.1657 66.7565V65.957H65.5282V66.7565H60.1657ZM68.1342 70V68.9275H69.0897V70H68.1342ZM68.1342 67.66V60.64H69.0897V67.66H68.1342Z" fill="#2E3140"/>
</svg>
