<svg width="287" height="31" viewBox="0 0 287 31" fill="none" xmlns="http://www.w3.org/2000/svg">
<path d="M-62.7506 13.46L-59.2487 13.3377L-58.9606 21.5887L-53.9959 13.1543L-49.9663 13.0135L-55.1137 21.7185L-49.1318 30.0348L-53.2093 30.1772L-58.9421 22.1163L-58.654 30.3673L-62.1559 30.4896L-62.7506 13.46ZM-48.1338 29.9999L-43.6196 12.7919L-40.1657 12.6713L-34.4621 29.5225L-38.1319 29.6507L-39.1026 26.6107L-43.7078 26.7715L-44.464 29.8718L-48.1338 29.9999ZM-43.0134 23.9616L-39.9912 23.856L-41.6908 18.5121L-43.0134 23.9616ZM-33.5071 12.4388L-30.0053 12.3165L-29.7171 20.5675L-24.7525 12.1331L-20.7229 11.9923L-25.8703 20.6973L-19.8884 29.0136L-23.9659 29.156L-29.6987 21.0951L-29.4106 29.3461L-32.9124 29.4684L-33.5071 12.4388ZM-18.8904 28.9787L-14.3762 11.7707L-10.9223 11.6501L-5.2187 28.5013L-8.88846 28.6295L-9.85914 25.5895L-14.4643 25.7503L-15.2206 28.8506L-18.8904 28.9787ZM-13.77 22.9404L-10.7478 22.8348L-12.4474 17.4909L-13.77 22.9404ZM2.58058 28.6132C-1.59288 28.7589 -4.06657 25.3152 -4.25335 19.9664C-4.44013 14.6177 -2.21437 10.9618 1.95909 10.816C6.13255 10.6703 8.60791 14.162 8.7947 19.5108C8.98148 24.8595 6.75404 28.4674 2.58058 28.6132ZM-0.559601 19.8374C-0.4281 23.6031 0.576012 25.5373 2.47086 25.4711C4.3657 25.4049 5.23245 23.4055 5.10095 19.6398C4.96861 15.8501 3.96366 13.8919 2.06881 13.9581C0.17397 14.0243 -0.69194 16.0477 -0.559601 19.8374ZM11.4084 27.9207L10.8137 10.8911L15.7307 10.7193C20.0481 10.5686 22.3109 12.0985 22.4198 15.2166C22.4859 17.1115 21.2128 18.4768 19.0154 18.8176L19.017 18.8656C21.7118 19.0117 23.3219 20.4203 23.4006 22.675C23.5104 25.817 21.4103 27.5714 17.2848 27.7155L11.4084 27.9207ZM14.8245 24.6555L17.0072 24.5792C18.8061 24.5164 19.7652 23.7865 19.72 22.4913C19.6748 21.1961 18.6911 20.534 16.8682 20.5977L14.6855 20.6739L14.8245 24.6555ZM14.5783 17.6038L16.1373 17.5493C17.9123 17.4873 18.8019 16.8319 18.7592 15.6086C18.7173 14.4094 17.7833 13.7936 16.0084 13.8556L14.4493 13.91L14.5783 17.6038ZM31.824 27.592C27.6506 27.7377 25.1769 24.294 24.9901 18.9452C24.8033 13.5965 27.0291 9.94057 31.2025 9.79483C35.376 9.64909 37.8513 13.1408 38.0381 18.4896C38.2249 23.8383 35.9975 27.4462 31.824 27.592ZM28.6838 18.8162C28.8153 22.5819 29.8194 24.5161 31.7143 24.4499C33.6091 24.3837 34.4759 22.3843 34.3444 18.6186C34.212 14.8289 33.2071 12.8707 31.3122 12.9369C29.4174 13.0031 28.5515 15.0265 28.6838 18.8162ZM66.3597 8.95134L66.9544 25.981L63.4526 26.1033L63.1083 16.2453L59.0153 26.2582L55.1536 26.3931L54.5589 9.36344L58.0608 9.24115L58.4226 19.6028L62.618 9.08201L66.3597 8.95134ZM83.4666 8.35396L86.9684 8.23167L87.2566 16.4826L92.2212 8.04824L96.2508 7.90753L91.1034 16.6125L97.0853 24.9288L93.0078 25.0712L87.275 17.0103L87.5631 25.2613L84.0612 25.3836L83.4666 8.35396ZM104.933 25.039C100.759 25.1847 98.2854 21.7409 98.0986 16.3922C97.9119 11.0435 100.138 7.38756 104.311 7.24182C108.485 7.09608 110.96 10.5878 111.147 15.9366C111.333 21.2853 109.106 24.8932 104.933 25.039ZM101.792 16.2632C101.924 20.0289 102.928 21.9631 104.823 21.8969C106.718 21.8307 107.584 19.8313 107.453 16.0655C107.321 12.2759 106.316 10.3177 104.421 10.3839C102.526 10.4501 101.66 12.4735 101.792 16.2632ZM112.71 7.33276L116.212 7.21047L116.5 15.4614L121.465 7.02704L125.494 6.88632L120.347 15.5913L126.329 23.9076L122.251 24.05L116.518 15.9891L116.807 24.2401L113.305 24.3624L112.71 7.33276ZM134.176 24.0178C130.003 24.1635 127.529 20.7197 127.342 15.371C127.155 10.0223 129.381 6.36636 133.554 6.22062C137.728 6.07488 140.203 9.56662 140.39 14.9154C140.577 20.2641 138.349 23.872 134.176 24.0178ZM131.036 15.242C131.167 19.0077 132.171 20.9419 134.066 20.8757C135.961 20.8095 136.828 18.81 136.696 15.0443C136.564 11.2547 135.559 9.29653 133.664 9.3627C131.769 9.42887 130.903 11.4523 131.036 15.242ZM155.232 16.5824C154.824 20.7032 152.467 23.379 149.133 23.4954C144.84 23.6454 142.106 20.3068 141.916 14.8621C141.724 9.36942 144.219 5.84822 148.512 5.69829C151.75 5.58522 154.261 8.01908 155.047 11.978L151.361 12.3229C150.842 9.8435 149.893 8.79598 148.502 8.84456C146.463 8.91576 145.477 10.9434 145.61 14.7331C145.741 18.4988 146.865 20.4287 148.904 20.3575C150.367 20.3065 151.239 19.1473 151.531 16.5195L155.232 16.5824ZM163.419 22.9966C159.246 23.1423 156.772 19.6985 156.585 14.3498C156.399 9.00106 158.624 5.34516 162.798 5.19941C166.971 5.05367 169.447 8.54541 169.634 13.8942C169.82 19.2429 167.593 22.8508 163.419 22.9966ZM160.279 14.2208C160.411 17.9865 161.415 19.9207 163.31 19.8545C165.205 19.7883 166.071 17.7888 165.94 14.0231C165.807 10.2335 164.802 8.27533 162.908 8.3415C161.013 8.40767 160.147 10.4311 160.279 14.2208ZM172.247 22.3041L171.653 5.27444L176.57 5.10273C180.887 4.95197 183.15 6.48193 183.259 9.60003C183.325 11.4949 182.052 12.8601 179.854 13.201L179.856 13.249C182.551 13.395 184.161 14.8037 184.239 17.0583C184.349 20.2004 182.249 21.9548 178.124 22.0988L172.247 22.3041ZM175.663 19.0388L177.846 18.9626C179.645 18.8998 180.604 18.1699 180.559 16.8747C180.514 15.5795 179.53 14.9174 177.707 14.9811L175.524 15.0573L175.663 19.0388ZM175.417 11.9871L176.976 11.9327C178.751 11.8707 179.641 11.2153 179.598 9.99202C179.556 8.79275 178.622 8.17697 176.847 8.23895L175.288 8.2934L175.417 11.9871ZM192.663 21.9754C188.489 22.1211 186.016 18.6773 185.829 13.3286C185.642 7.97986 187.868 4.32395 192.041 4.17821C196.215 4.03247 198.69 7.52421 198.877 12.8729C199.064 18.2217 196.836 21.8296 192.663 21.9754ZM189.523 13.1996C189.654 16.9653 190.658 18.8994 192.553 18.8333C194.448 18.7671 195.315 16.7676 195.183 13.0019C195.051 9.21225 194.046 7.25413 192.151 7.3203C190.256 7.38647 189.39 9.40992 189.523 13.1996ZM215.014 3.76022L219.451 3.60527L221.642 13.3748L223.121 3.47712L227.582 3.32133L228.177 20.3509L224.675 20.4732L224.307 9.94365L222.906 19.3343L220.772 19.4088L218.745 10.1859L219.111 20.6676L215.609 20.7898L215.014 3.76022ZM229.679 20.2985L234.193 3.09048L237.647 2.96987L243.35 19.8211L239.681 19.9492L238.71 16.9093L234.105 17.0701L233.348 20.1704L229.679 20.2985ZM234.799 14.2601L237.821 14.1546L236.122 8.81065L234.799 14.2601ZM257.584 13.0082C257.176 17.129 254.819 19.8048 251.485 19.9212C247.192 20.0712 244.458 16.7325 244.268 11.2879C244.076 5.79521 246.571 2.27401 250.864 2.12408C254.102 2.01101 256.612 4.44487 257.399 8.40383L253.713 8.74869C253.194 6.26929 252.245 5.22177 250.854 5.27035C248.815 5.34155 247.829 7.36919 247.962 11.1589C248.093 14.9246 249.217 16.8545 251.256 16.7833C252.719 16.7322 253.591 15.5731 253.883 12.9453L257.584 13.0082ZM271.4 1.7912L271.994 18.8208L268.492 18.9431L268.002 4.91166L265.292 5.00631L264.759 14.5107C264.593 17.3022 263.024 19.1341 260.433 19.2245L258.922 19.2773L258.791 15.5116L259.798 15.4764C260.757 15.4429 261.263 14.8009 261.321 13.6942L262.021 2.11869L271.4 1.7912ZM280.393 18.9118C276.22 19.0575 273.746 15.6137 273.559 10.265C273.372 4.91625 275.598 1.26034 279.772 1.1146C283.945 0.968864 286.42 4.4606 286.607 9.80934C286.794 15.1581 284.567 18.766 280.393 18.9118ZM277.253 10.136C277.384 13.9017 278.389 15.8358 280.283 15.7697C282.178 15.7035 283.045 13.704 282.913 9.93833C282.781 6.14864 281.776 4.19052 279.881 4.25669C277.986 4.32286 277.121 6.34631 277.253 10.136Z" fill="#2E3140"/>
</svg>
